<mxfile host="Electron" agent="Mozilla/5.0 (Windows NT 10.0; Win64; x64) AppleWebKit/537.36 (KHTML, like Gecko) draw.io/28.1.2 Chrome/138.0.7204.243 Electron/37.4.0 Safari/537.36" version="28.1.2">
  <diagram name="Page-1" id="5UZJg-fTpRxV1NuETYKq">
    <mxGraphModel dx="1042" dy="658" grid="0" gridSize="12.5" guides="1" tooltips="1" connect="1" arrows="1" fold="1" page="1" pageScale="1" pageWidth="850" pageHeight="1100" math="0" shadow="0">
      <root>
        <mxCell id="0" />
        <mxCell id="j0N1eyCyadrPM1bxJiGb-8" value="Sublayer" style="" parent="0" />
        <mxCell id="j0N1eyCyadrPM1bxJiGb-7" value="&lt;div style=&quot;line-height: 0%;&quot;&gt;&lt;pre&gt;Tex delimiters:&amp;nbsp;&lt;span style=&quot;background-color: rgb(230, 230, 230);&quot;&gt;&amp;nbsp;&amp;nbsp;$...$&amp;nbsp;&amp;nbsp;&lt;/span&gt;&amp;nbsp;or &lt;span style=&quot;background-color: rgb(230, 230, 230);&quot;&gt;&amp;nbsp;&amp;nbsp;$$...$$&amp;nbsp;&amp;nbsp;&lt;/span&gt;&lt;span&gt;&amp;nbsp;or &lt;span style=&quot;background-color: rgb(230, 230, 230);&quot;&gt;&amp;nbsp;&amp;nbsp;\(...\)&amp;nbsp;&amp;nbsp;&lt;/span&gt;&amp;nbsp;or &lt;span style=&quot;background-color: rgb(230, 230, 230);&quot;&gt;&amp;nbsp;&amp;nbsp;\[...\]&amp;nbsp;&amp;nbsp;&lt;/span&gt;&lt;/span&gt;&lt;/pre&gt;&lt;pre&gt;&lt;span&gt;&lt;font style=&quot;font-size: 12px;&quot;&gt;NOTE: Some delimiters and text placement options may not be available depending on the Tex environment.&lt;/font&gt;&lt;/span&gt;&lt;/pre&gt;&lt;/div&gt;" style="rounded=0;whiteSpace=wrap;html=1;fillColor=#B3B3B3;connectable=0;allowArrows=0;rotatable=0;strokeColor=default;shadow=0;fontSize=18;fontColor=#000000;" parent="j0N1eyCyadrPM1bxJiGb-8" vertex="1">
          <mxGeometry x="50" y="125" width="750" height="50" as="geometry" />
        </mxCell>
        <mxCell id="j0N1eyCyadrPM1bxJiGb-13" value="" style="endArrow=none;html=1;rounded=0;strokeWidth=2;strokeColor=default;" parent="j0N1eyCyadrPM1bxJiGb-8" edge="1">
          <mxGeometry width="50" height="50" relative="1" as="geometry">
            <mxPoint x="294" y="200" as="sourcePoint" />
            <mxPoint x="294" y="1025" as="targetPoint" />
          </mxGeometry>
        </mxCell>
        <mxCell id="j0N1eyCyadrPM1bxJiGb-16" value="" style="endArrow=none;html=1;rounded=0;strokeWidth=2;strokeColor=default;" parent="j0N1eyCyadrPM1bxJiGb-8" edge="1">
          <mxGeometry width="50" height="50" relative="1" as="geometry">
            <mxPoint x="556" y="200" as="sourcePoint" />
            <mxPoint x="556" y="1025" as="targetPoint" />
          </mxGeometry>
        </mxCell>
        <mxCell id="j0N1eyCyadrPM1bxJiGb-15" value="Version 1.0" style="text;html=1;strokeColor=none;fillColor=none;align=left;verticalAlign=middle;whiteSpace=wrap;rounded=0;sketch=0;fontColor=default;fontFamily=Helvetica;fontSize=14;connectable=0;allowArrows=0;rotatable=0;" parent="j0N1eyCyadrPM1bxJiGb-8" vertex="1">
          <mxGeometry x="50" y="1050" width="375" height="25" as="geometry" />
        </mxCell>
        <mxCell id="gvV47WIHzsehxMisQC6f-1" value="Â© 2025 EvokeMadness CC BY-SA 4.0" style="text;html=1;strokeColor=none;fillColor=none;align=right;verticalAlign=middle;whiteSpace=wrap;rounded=0;sketch=0;fontColor=default;fontFamily=Helvetica;fontSize=14;connectable=0;allowArrows=0;rotatable=0;" parent="j0N1eyCyadrPM1bxJiGb-8" vertex="1">
          <mxGeometry x="425" y="1050" width="375" height="25" as="geometry" />
        </mxCell>
        <mxCell id="1" style="" parent="0" />
        <mxCell id="a21QgjTOZl95tkyDf_ZO-13" value="&lt;pre style=&quot;line-height: 0%;&quot;&gt;&amp;nbsp; &amp;nbsp; \times&amp;nbsp; &amp;nbsp;&amp;nbsp;&lt;/pre&gt;" style="shape=image;aspect=fixed;image=data:image/svg+xml,PHN2ZyB4bWxucz0iaHR0cDovL3d3dy53My5vcmcvMjAwMC9zdmciIGlkPSJzdmcxIiB2ZXJzaW9uPSIxLjEiIHZpZXdCb3g9IjAgMCA2LjM0OTk5OTkwNDYzMjU2OCA2LjM0OTk5OTkwNDYzMjU2OCIgaGVpZ2h0PSIyNC4wMDAwMDAwMTc1MDg5MiIgd2lkdGg9IjI0LjAwMDAwMDAxNzUwODkyIj4mI3hhOyAgJiN4YTsgIDxkZWZzIGlkPSJkZWZzMSI+JiN4YTsgICAgPGNsaXBQYXRoIGlkPSJjbGlwUGF0aDcxIiBjbGlwUGF0aFVuaXRzPSJ1c2VyU3BhY2VPblVzZSI+JiN4YTsgICAgICA8cGF0aCBpZD0icGF0aDcxIiBjbGlwLXJ1bGU9ImV2ZW5vZGQiIHRyYW5zZm9ybT0ibWF0cml4KDAuMzE5OTk5OTksMCwwLDAuMzE5OTk5OTksLTEwMywtMjQyLjk5OTk5KSIgZD0iTSAxMTUuNjI1LDExNS42MjUgSCAyNDMyLjMyNDIgViAzMTgyLjMyNDIgSCAxMTUuNjI1IFoiLz4mI3hhOyAgICA8L2NsaXBQYXRoPiYjeGE7ICA8L2RlZnM+JiN4YTsgIDxnIGlkPSJsYXllcjEiPiYjeGE7ICAgIDxyZWN0IHk9IjAiIHg9IjAiIGhlaWdodD0iNi4zNDk5OTk5IiB3aWR0aD0iNi4zNDk5OTk5IiBpZD0icmVjdDEiIHN0eWxlPSJvcGFjaXR5OjA7ZmlsbDpub25lO3N0cm9rZS13aWR0aDoyLjY0NTgzO3N0cm9rZS1saW5lam9pbjpyb3VuZDtzdHJva2UtbWl0ZXJsaW1pdDoxNiIvPiYjeGE7ICAgIDxwYXRoIGNsaXAtcGF0aD0idXJsKCNjbGlwUGF0aDcxKSIgdHJhbnNmb3JtPSJtYXRyaXgoMC4zOTY4NzUsMCwwLDAuMzk2ODc1LDAuMzc1MTY5MDMsNC45NzY0MzY1KSIgYXJpYS1sYWJlbD0iw5ciIHN0eWxlPSJmaWxsOiMwMDAwMDA7ZmlsbC1vcGFjaXR5OjE7ZmlsbC1ydWxlOm5vbnplcm87c3Ryb2tlOm5vbmUiIGQ9Im0gMTEuNDM3NTA1LC0wLjUzMTIzOTkgYyAwLDAuMTA1NDY4NzYgLTAuMDM5MDYsMC4xOTUzMTI1MSAtMC4xMDkzNzUsMC4yNjU2MjUwMSAtMC4wNzQyMiwwLjA3NDIxODggLTAuMTY0MDYzLDAuMTA5Mzc1MDEgLTAuMjY1NjI1LDAuMTA5Mzc1MDEgLTAuMDYyNSwwIC0wLjE5OTIxOSwtMC4wOTc2NTYzIC0wLjQwNjI1LC0wLjI5Njg3NTAxIEMgMTAuNDQ1MzE3LC0wLjY0ODQyNzQgOS44Nzg5MTEsLTEuMjEwOTI3NCA4Ljk1MzEyOTcsLTIuMTQwNjE1IEwgNy4wNjI1MDQ2LC00LjAzMTI0IDUuMTU2MjU0NSwtMi4xMjQ5OSBjIC0xLjI4MTI1LDEuMjYxNzE4ODQgLTEuOTQ1MzEyNiwxLjkwMjM0Mzg3IC0xLjk4NDM3NTEsMS45MjE4NzUxMiAtMC4wNDI5NjksMC4wMzEyNSAtMC4wODU5MzcsMC4wNDY4NzUgLTAuMTI1LDAuMDQ2ODc1IC0wLjA5Mzc1LDAgLTAuMTgzNTkzNywtMC4wMzUxNTYzIC0wLjI2NTYyNSwtMC4xMDkzNzUwMSAtMC4wNzQyMTksLTAuMDcwMzEyNSAtMC4xMDkzNzUsLTAuMTYwMTU2MjUgLTAuMTA5Mzc1LC0wLjI2NTYyNTAxIDAsLTAuMDE5NTMxMyAwLjAwNzgxLC0wLjA2NjQwNjMgMC4wMzEyNSwtMC4xNDA2MjUgMC4wMzkwNjMsLTAuMDcwMzEyNSAwLjY3OTY4NzUsLTAuNzM0Mzc1IDEuOTIxODc1MSwtMS45ODQzNzUxIGwgMS44OTA2MjUxLC0xLjg5MDYyNTEgLTEuODkwNjI1MSwtMS44NzUgQyAzLjM4MjgxNjksLTcuNjcxODY1MiAyLjc0MjE5MTksLTguMzMyMDIxNSAyLjcwMzEyOTQsLTguNDA2MjQwMiBjIC0wLjAyMzQzNywtMC4wNTA3ODEgLTAuMDMxMjUsLTAuMDkzNzUgLTAuMDMxMjUsLTAuMTI1IDAsLTAuMDkzNzUgMC4wMzUxNTYsLTAuMTc5Njg3NSAwLjEwOTM3NSwtMC4yNjU2MjUgMC4wNzAzMTIsLTAuMDgyMDMxIDAuMTU2MjUsLTAuMTI1IDAuMjUsLTAuMTI1IDAuMDE5NTMxLDAgMC4wNjY0MDYsMC4wMTU2MjUgMC4xNDA2MjUsMC4wNDY4NzUgMC4wMzkwNjMsMC4wMjM0MzcgMC43MDMxMjUxLDAuNjY0MDYyNSAxLjk4NDM3NTEsMS45MjE4NzUgbCAxLjkwNjI1MDEsMS45MDYyNTAxIDEuODkwNjI1MSwtMS44OTA2MjUxIGMgMC45MjU3ODEzLC0wLjkyNTc4MTMgMS40OTIxODczLC0xLjQ4ODI4MTMgMS43MDMxMjUzLC0xLjY4NzUgMC4yMDcwMzEsLTAuMTk1MzEyNSAwLjM0Mzc1LC0wLjI5Njg3NSAwLjQwNjI1LC0wLjI5Njg3NSAwLjEwMTU2MiwwIDAuMTkxNDA2LDAuMDM5MDYzIDAuMjY1NjI1LDAuMTA5Mzc1IDAuMDcwMzEsMC4wNzQyMTkgMC4xMDkzNzUsMC4xNjQwNjI1IDAuMTA5Mzc1LDAuMjY1NjI1IDAsMC4wNDI5NjkgLTAuMDE1NjMsMC4wODk4NDQgLTAuMDQ2ODcsMC4xNDA2MjUgLTAuMDIzNDQsMC4wNTQ2ODcgLTAuNjU2MjUsMC43MDMxMjUgLTEuOTA2MjUwMywxLjk1MzEyNTEgbCAtMS44OTA2MjUxLDEuOTA2MjUgMS44OTA2MjUxLDEuOTIxODc1MSBjIDEuMjUwMDAwMywxLjI1MDAwMDEgMS44ODI4MTIzLDEuOTAyMzQzODQgMS45MDYyNTAzLDEuOTUzMTI1MSAwLjAzMTI1LDAuMDU0Njg3NSAwLjA0Njg3LDAuMTAxNTYyNSAwLjA0Njg3LDAuMTQwNjI1IHogbSAwLDAiIGlkPSJwYXRoNzAiLz4mI3hhOyAgPC9nPiYjeGE7PC9zdmc+;connectable=0;allowArrows=0;rotatable=0;html=1;align=left;labelPosition=right;verticalLabelPosition=middle;verticalAlign=middle;fontSize=18;labelBackgroundColor=#E6E6E6;fontColor=#000000;labelBorderColor=none;imageBackground=#FFFFFF;imageBorder=default;shadow=0;spacingLeft=12.5;" parent="1" vertex="1">
          <mxGeometry x="50" y="200" width="50" height="50" as="geometry" />
        </mxCell>
        <mxCell id="a21QgjTOZl95tkyDf_ZO-14" value="&lt;pre style=&quot;line-height: 0%;&quot;&gt;&amp;nbsp; &amp;nbsp; \cdot&amp;nbsp; &amp;nbsp;&amp;nbsp;&lt;/pre&gt;" style="shape=image;aspect=fixed;image=data:image/svg+xml,PHN2ZyB4bWxucz0iaHR0cDovL3d3dy53My5vcmcvMjAwMC9zdmciIGlkPSJzdmcxIiB2ZXJzaW9uPSIxLjEiIHZpZXdCb3g9IjAgMCA2LjM0OTk5OTkwNDYzMjU2OCA2LjM0OTk5OTkwNDYzMjU2OCIgaGVpZ2h0PSIyNC4wMDAwMDAwMTc1MDg5MiIgd2lkdGg9IjI0LjAwMDAwMDAxNzUwODkyIj4mI3hhOyAgJiN4YTsgIDxkZWZzIGlkPSJkZWZzMSI+JiN4YTsgICAgPGNsaXBQYXRoIGlkPSJjbGlwUGF0aDczIiBjbGlwUGF0aFVuaXRzPSJ1c2VyU3BhY2VPblVzZSI+JiN4YTsgICAgICA8cGF0aCBpZD0icGF0aDczIiBjbGlwLXJ1bGU9ImV2ZW5vZGQiIHRyYW5zZm9ybT0ibWF0cml4KDAuMzE5OTk5OTksMCwwLDAuMzE5OTk5OTksLTEwMywtMjcyLjk5OTk5KSIgZD0iTSAxMTUuNjI1LDExNS42MjUgSCAyNDMyLjMyNDIgViAzMTgyLjMyNDIgSCAxMTUuNjI1IFoiLz4mI3hhOyAgICA8L2NsaXBQYXRoPiYjeGE7ICA8L2RlZnM+JiN4YTsgIDxnIGlkPSJsYXllcjEiPiYjeGE7ICAgIDxyZWN0IHk9IjAiIHg9IjAiIGhlaWdodD0iNi4zNDk5OTk5IiB3aWR0aD0iNi4zNDk5OTk5IiBpZD0icmVjdDEiIHN0eWxlPSJvcGFjaXR5OjA7ZmlsbDpub25lO3N0cm9rZS13aWR0aDoyLjY0NTgzO3N0cm9rZS1saW5lam9pbjpyb3VuZDtzdHJva2UtbWl0ZXJsaW1pdDoxNiIvPiYjeGE7ICAgIDxwYXRoIGNsaXAtcGF0aD0idXJsKCNjbGlwUGF0aDczKSIgdHJhbnNmb3JtPSJtYXRyaXgoMC4zOTY4NzUsMCwwLDAuMzk2ODc0OTksMi4xNzY2MDk2LDQuOTgwODkzKSIgYXJpYS1sYWJlbD0i4ouFIiBzdHlsZT0iZmlsbDojMDAwMDAwO2ZpbGwtb3BhY2l0eToxO2ZpbGwtcnVsZTpub256ZXJvO3N0cm9rZTpub25lIiBkPSJtIDIuNTMxMjU0NCwtMy40NTMxMTM4IGMgLTAuMzI0MjE4OCwwIC0wLjU4OTg0MzgsLTAuMTA5Mzc1IC0wLjc5Njg3NSwtMC4zMjgxMjUgLTAuMjEwOTM3NSwtMC4yMTg3NSAtMC4zMTI1LC0wLjQ3MjY1NjMgLTAuMzEyNSwtMC43NjU2MjUgMCwtMC4yNTc4MTI1IDAuMDc4MTI1LC0wLjQ4NDM3NSAwLjIzNDM3NSwtMC42NzE4NzUgMC4xNjQwNjI1LC0wLjE5NTMxMjYgMC4zNjcxODc1LC0wLjMyODEyNTEgMC42MDkzNzUsLTAuMzkwNjI1MSAwLjE1NjI1LC0wLjA1MDc4MSAwLjMyMDMxMjUsLTAuMDUwNzgxIDAuNSwwIDAuMjM4MjgxMywwLjA1NDY4NyAwLjQzNzUsMC4xODM1OTM4IDAuNTkzNzUsMC4zOTA2MjUxIDAuMTY0MDYyNSwwLjE5OTIxODcgMC4yNSwwLjQxNzk2ODcgMC4yNSwwLjY1NjI1IDAsMC4zMjQyMTg3IC0wLjEwOTM3NSwwLjU4OTg0MzggLTAuMzI4MTI1LDAuNzk2ODc1IC0wLjIxODc1LDAuMjEwOTM3NSAtMC40Njg3NSwwLjMxMjUgLTAuNzUsMC4zMTI1IHogbSAwLDAiIGlkPSJwYXRoNzIiLz4mI3hhOyAgPC9nPiYjeGE7PC9zdmc+;connectable=0;allowArrows=0;rotatable=0;html=1;align=left;labelPosition=right;verticalLabelPosition=middle;verticalAlign=middle;fontSize=18;labelBackgroundColor=#E6E6E6;fontColor=#000000;labelBorderColor=none;imageBackground=#FFFFFF;imageBorder=default;shadow=0;spacingLeft=12.5;" parent="1" vertex="1">
          <mxGeometry x="50" y="307" width="50" height="50" as="geometry" />
        </mxCell>
        <mxCell id="a21QgjTOZl95tkyDf_ZO-17" value="&lt;pre style=&quot;line-height: 0%;&quot;&gt;&amp;nbsp; &amp;nbsp;&amp;nbsp;\div&amp;nbsp; &amp;nbsp;&amp;nbsp;&lt;/pre&gt;" style="shape=image;aspect=fixed;image=data:image/svg+xml,PHN2ZyB4bWxucz0iaHR0cDovL3d3dy53My5vcmcvMjAwMC9zdmciIGlkPSJzdmcxIiB2ZXJzaW9uPSIxLjEiIHZpZXdCb3g9IjAgMCA2LjM0OTk5OTkwNDYzMjU2OCA2LjM0OTk5OTkwNDYzMjU2OCIgaGVpZ2h0PSIyNC4wMDAwMDAwMTc1MDg5MiIgd2lkdGg9IjI0LjAwMDAwMDAxNzUwODkyIj4mI3hhOyAgJiN4YTsgIDxkZWZzIGlkPSJkZWZzMSI+JiN4YTsgICAgPGNsaXBQYXRoIGlkPSJjbGlwUGF0aDc1IiBjbGlwUGF0aFVuaXRzPSJ1c2VyU3BhY2VPblVzZSI+JiN4YTsgICAgICA8cGF0aCBpZD0icGF0aDc1IiBjbGlwLXJ1bGU9ImV2ZW5vZGQiIHRyYW5zZm9ybT0ibWF0cml4KDAuMzE5OTk5OTksMCwwLDAuMzE5OTk5OTksLTEwMywtMzAyLjk5OTk5KSIgZD0iTSAxMTUuNjI1LDExNS42MjUgSCAyNDMyLjMyNDIgViAzMTgyLjMyNDIgSCAxMTUuNjI1IFoiLz4mI3hhOyAgICA8L2NsaXBQYXRoPiYjeGE7ICA8L2RlZnM+JiN4YTsgIDxnIGlkPSJsYXllcjEiPiYjeGE7ICAgIDxyZWN0IHk9IjAiIHg9IjAiIGhlaWdodD0iNi4zNDk5OTk5IiB3aWR0aD0iNi4zNDk5OTk5IiBpZD0icmVjdDEiIHN0eWxlPSJvcGFjaXR5OjA7ZmlsbDpub25lO3N0cm9rZS13aWR0aDoyLjY0NTgzO3N0cm9rZS1saW5lam9pbjpyb3VuZDtzdHJva2UtbWl0ZXJsaW1pdDoxNiIvPiYjeGE7ICAgIDxwYXRoIGNsaXAtcGF0aD0idXJsKCNjbGlwUGF0aDc1KSIgdHJhbnNmb3JtPSJtYXRyaXgoMC4zOTY4NzUsMCwwLDAuMzk2ODc1LDAuMzc1MTY5MDUsNC45Nzk1MzYxKSIgYXJpYS1sYWJlbD0iw7ciIHN0eWxlPSJmaWxsOiMwMDAwMDA7ZmlsbC1vcGFjaXR5OjE7ZmlsbC1ydWxlOm5vbnplcm87c3Ryb2tlOm5vbmUiIGQ9Im0gNS43ODEyNTQ1LC04LjQ1MzExMjcgYyAwLC0wLjM4MjgxMjUgMC4xMTMyODEzLC0wLjY5NTMxMjYgMC4zNDM3NSwtMC45Mzc1MDAxIDAuMjI2NTYyNiwtMC4yMzgyODEyIDAuNTIzNDM3NiwtMC4zNTkzNzUgMC44OTA2MjUxLC0wLjM1OTM3NSAwLjYyNSwwIDEuMDM5MDYyNSwwLjI5Njg3NSAxLjI1LDAuODkwNjI1MSAwLjAzMTI1LDAuMDkzNzUgMC4wNDY4NzUsMC4yMzA0Njg3IDAuMDQ2ODc1LDAuNDA2MjUgMCwwLjM4NjcxODcgLTAuMTE3MTg3NSwwLjY5NTMxMjUgLTAuMzQzNzUsMC45MjE4NzUgLTAuMjMwNDY4NywwLjIzMDQ2ODggLTAuNTM5MDYyNSwwLjM0Mzc1IC0wLjkyMTg3NSwwLjM0Mzc1IC0wLjU5Mzc1LDAgLTEuMDAwMDAwMSwtMC4yODkwNjI1IC0xLjIxODc1MDEsLTAuODc1IC0wLjAzMTI1LC0wLjA5Mzc1IC0wLjA0Njg3NSwtMC4yMjI2NTYzIC0wLjA0Njg3NSwtMC4zOTA2MjUgeiBtIC00LjUxNTYyNTIsNC4yODEyNTAyIGMgLTAuMTY3OTY4NywtMC4wODIwMzEgLTAuMjUsLTAuMjAzMTI1MSAtMC4yNSwtMC4zNTkzNzUxIDAsLTAuMTY0MDYyNSAwLjA4MjAzMSwtMC4yODkwNjI1IDAuMjUsLTAuMzc1IEggMTIuODEyNTA1IGMgMC4xODc1LDAuMTA1NDY4OCAwLjI4MTI1LDAuMjMwNDY4OCAwLjI4MTI1LDAuMzc1IDAsMC4xMzY3MTg4IC0wLjA5Mzc1LDAuMjU3ODEyNSAtMC4yODEyNSwwLjM1OTM3NTEgeiBtIDQuNTE1NjI1MiwzLjU0Njg3NTEgYyAwLC0wLjM3NTAwMDAyIDAuMTEzMjgxMywtMC42Nzk2ODc1IDAuMzQzNzUsLTAuOTIxODc1IDAuMjI2NTYyNiwtMC4yMzgyODEzIDAuNTIzNDM3NiwtMC4zNTkzNzUxIDAuODkwNjI1MSwtMC4zNTkzNzUxIDAuNjI1LDAgMS4wMzkwNjI1LDAuMjk2ODc1MSAxLjI1LDAuODkwNjI1MSAwLjAzMTI1LDAuMDkzNzUgMC4wNDY4NzUsMC4yMjY1NjI0OSAwLjA0Njg3NSwwLjM5MDYyNSAwLDAuMzk4NDM3NTIgLTAuMTE3MTg3NSwwLjcwNzAzMTI4IC0wLjM0Mzc1LDAuOTM3NTAwMDQgLTAuMjMwNDY4NywwLjIyNjU2MjUxIC0wLjUzOTA2MjUsMC4zNDM3NTAwMSAtMC45MjE4NzUsMC4zNDM3NTAwMSAtMC41OTM3NSwwIC0xLjAwMDAwMDEsLTAuMjkyOTY4NzYgLTEuMjE4NzUwMSwtMC44NzUwMDAwMyAtMC4wMzEyNSwtMC4wOTM3NSAtMC4wNDY4NzUsLTAuMjI2NTYyNTEgLTAuMDQ2ODc1LC0wLjQwNjI1MDAyIHogbSAwLDAiIGlkPSJwYXRoNzQiLz4mI3hhOyAgPC9nPiYjeGE7PC9zdmc+;connectable=0;allowArrows=0;rotatable=0;html=1;align=left;labelPosition=right;verticalLabelPosition=middle;verticalAlign=middle;fontSize=18;labelBackgroundColor=#E6E6E6;fontColor=#000000;labelBorderColor=none;imageBackground=#FFFFFF;imageBorder=default;shadow=0;spacingLeft=12.5;" parent="1" vertex="1">
          <mxGeometry x="50" y="414" width="50" height="50" as="geometry" />
        </mxCell>
        <mxCell id="a21QgjTOZl95tkyDf_ZO-18" value="&lt;pre style=&quot;line-height: 0%;&quot;&gt;&amp;nbsp; \frac {x}{y} &amp;nbsp;&lt;/pre&gt;" style="shape=image;aspect=fixed;image=data:image/svg+xml,PHN2ZyB4bWxucz0iaHR0cDovL3d3dy53My5vcmcvMjAwMC9zdmciIGlkPSJzdmcxIiB2ZXJzaW9uPSIxLjEiIHZpZXdCb3g9IjAgMCA2LjM0OTk5OTkwNDYzMjU2OCA2LjM0OTk5OTkwNDYzMjU2OCIgaGVpZ2h0PSIyNC4wMDAwMDAwMTc1MDg5MiIgd2lkdGg9IjI0LjAwMDAwMDAxNzUwODkyIj4mI3hhOyAgJiN4YTsgIDxkZWZzIGlkPSJkZWZzMSI+JiN4YTsgICAgPGNsaXBQYXRoIGlkPSJjbGlwUGF0aDc5IiBjbGlwUGF0aFVuaXRzPSJ1c2VyU3BhY2VPblVzZSI+JiN4YTsgICAgICA8cGF0aCBpZD0icGF0aDc5IiBjbGlwLXJ1bGU9ImV2ZW5vZGQiIHRyYW5zZm9ybT0ibWF0cml4KDAuMzE5OTk5OTksMCwwLDAuMzE5OTk5OTksLTM2Ljk5OTk5OCwtMzYuOTk5OTk4KSIgZD0iTSAxMTUuNjI1LDExNS42MjUgSCAyNDMyLjMyNDIgViAzMTgyLjMyNDIgSCAxMTUuNjI1IFoiLz4mI3hhOyAgICA8L2NsaXBQYXRoPiYjeGE7ICAgIDxjbGlwUGF0aCBpZD0iY2xpcFBhdGg4MSIgY2xpcFBhdGhVbml0cz0idXNlclNwYWNlT25Vc2UiPiYjeGE7ICAgICAgPHBhdGggaWQ9InBhdGg4MSIgY2xpcC1ydWxlPSJldmVub2RkIiB0cmFuc2Zvcm09Im1hdHJpeCgwLjMxOTk5OTk5LDAsMCwwLjMxOTk5OTk5LC0xMDUuMTcxODcsLTMyNC45OTk5OSkiIGQ9Ik0gMTE1LjYyNSwxMTUuNjI1IEggMjQzMi4zMjQyIFYgMzE4Mi4zMjQyIEggMTE1LjYyNSBaIi8+JiN4YTsgICAgPC9jbGlwUGF0aD4mI3hhOyAgICA8Y2xpcFBhdGggaWQ9ImNsaXBQYXRoNzciIGNsaXBQYXRoVW5pdHM9InVzZXJTcGFjZU9uVXNlIj4mI3hhOyAgICAgIDxwYXRoIGlkPSJwYXRoNzciIGNsaXAtcnVsZT0iZXZlbm9kZCIgdHJhbnNmb3JtPSJtYXRyaXgoMC4zMTk5OTk5OSwwLDAsMC4zMTk5OTk5OSwtMTA1LjQ1MzEyLC0zMzguOTk5OTkpIiBkPSJNIDExNS42MjUsMTE1LjYyNSBIIDI0MzIuMzI0MiBWIDMxODIuMzI0MiBIIDExNS42MjUgWiIvPiYjeGE7ICAgIDwvY2xpcFBhdGg+JiN4YTsgICAgPGNsaXBQYXRoIGlkPSJjbGlwUGF0aDc0IiBjbGlwUGF0aFVuaXRzPSJ1c2VyU3BhY2VPblVzZSI+JiN4YTsgICAgICA8cGF0aCBpZD0icGF0aDc0IiBjbGlwLXJ1bGU9ImV2ZW5vZGQiIHRyYW5zZm9ybT0ibWF0cml4KDAuMzE5OTk5OTksMCwwLDAuMzE5OTk5OTksLTEwNS4xNzE4NywtMjY0Ljk5OTk5KSIgZD0iTSAxMTUuNjI1LDExNS42MjUgSCAyNDMyLjMyNDIgViAzMTgyLjMyNDIgSCAxMTUuNjI1IFoiLz4mI3hhOyAgICA8L2NsaXBQYXRoPiYjeGE7ICAgIDxjbGlwUGF0aCBpZD0iY2xpcFBhdGg3MiIgY2xpcFBhdGhVbml0cz0idXNlclNwYWNlT25Vc2UiPiYjeGE7ICAgICAgPHBhdGggaWQ9InBhdGg3MiIgY2xpcC1ydWxlPSJldmVub2RkIiB0cmFuc2Zvcm09Im1hdHJpeCgwLjMxOTk5OTk5LDAsMCwwLjMxOTk5OTk5LC0zNi45OTk5OTgsLTM2Ljk5OTk5OCkiIGQ9Ik0gMTE1LjYyNSwxMTUuNjI1IEggMjQzMi4zMjQyIFYgMzE4Mi4zMjQyIEggMTE1LjYyNSBaIi8+JiN4YTsgICAgPC9jbGlwUGF0aD4mI3hhOyAgICA8Y2xpcFBhdGggaWQ9ImNsaXBQYXRoNzAiIGNsaXBQYXRoVW5pdHM9InVzZXJTcGFjZU9uVXNlIj4mI3hhOyAgICAgIDxwYXRoIGlkPSJwYXRoNzAiIGNsaXAtcnVsZT0iZXZlbm9kZCIgdHJhbnNmb3JtPSJtYXRyaXgoMC4zMTk5OTk5OSwwLDAsMC4zMTk5OTk5OSwtMTA1LjQ1MzEyLC0yNzguOTk5OTkpIiBkPSJNIDExNS42MjUsMTE1LjYyNSBIIDI0MzIuMzI0MiBWIDMxODIuMzI0MiBIIDExNS42MjUgWiIvPiYjeGE7ICAgIDwvY2xpcFBhdGg+JiN4YTsgIDwvZGVmcz4mI3hhOyAgPGcgaWQ9ImxheWVyMSI+JiN4YTsgICAgPHJlY3QgeT0iMCIgeD0iMCIgaGVpZ2h0PSI2LjM0OTk5OTkiIHdpZHRoPSI2LjM0OTk5OTkiIGlkPSJyZWN0MSIgc3R5bGU9Im9wYWNpdHk6MDtmaWxsOm5vbmU7c3Ryb2tlLXdpZHRoOjIuNjQ1ODM7c3Ryb2tlLWxpbmVqb2luOnJvdW5kO3N0cm9rZS1taXRlcmxpbWl0OjE2Ii8+JiN4YTsgICAgPHBhdGggY2xpcC1wYXRoPSJ1cmwoI2NsaXBQYXRoNzApIiB0cmFuc2Zvcm09Im1hdHJpeCgwLjE5ODQzNzUsMCwwLDAuMTk4NDM3NSwyLjU3MDM4NDMsNC44NjE3MTY1KSIgYXJpYS1sYWJlbD0ieSIgc3R5bGU9ImZpbGw6IzAwMDAwMDtmaWxsLW9wYWNpdHk6MTtmaWxsLXJ1bGU6bm9uemVybztzdHJva2U6bm9uZSIgZD0ibSA1Ljg3NTAwNDYsLTUuNDY4NzM4NiBjIDAuMTEzMjgxMywwIDAuMjEwOTM3NSwwLjAzMTI1IDAuMjk2ODc1MSwwLjA5Mzc1IDAuMDgyMDMxLDAuMDYyNSAwLjEyNSwwLjE1MjM0MzggMC4xMjUsMC4yNjU2MjUgMCwwLjEwNTQ2ODggLTAuMjEwOTM3NiwwLjk5MjE4NzYgLTAuNjI1MDAwMSwyLjY1NjI1MDEgLTAuNDA2MjUsMS42Njc5Njg4NCAtMC42NDA2MjUsMi41ODIwMzEzOCAtMC43MDMxMjUsMi43NTAwMDAxNCAtMC4xMzY3MTg4LDAuNDE0MDYyNTEgLTAuMzU1NDY4OCwwLjc5Njg3NTA2IC0wLjY1NjI1LDEuMTQwNjI1MDYgLTAuMzA0Njg3NSwwLjM1MTU2MjUgLTAuNjUyMzQzOCwwLjYzMjgxMjUgLTEuMDQ2ODc1MSwwLjg0Mzc1IC0wLjQ2MDkzNzUsMC4yMTg3NSAtMC44ODY3MTg4LDAuMzI4MTI1IC0xLjI4MTI1LDAuMzI4MTI1IC0wLjY0ODQzNzYsMCAtMS4wODU5Mzc1NywtMC4yMDMxMjUgLTEuMzEyNTAwMDgsLTAuNjA5Mzc1IC0wLjA4NTkzNzUsLTAuMTI1IC0wLjEyNSwtMC4yOTY4NzUgLTAuMTI1LC0wLjUxNTYyNSAwLC0wLjI5Mjk2ODggMC4wNzgxMjUsLTAuNTE1NjI1MDMgMC4yMzQzNzUwMSwtMC42NzE4NzUwNCBDIDAuOTU3MDM1NjgsMC42NTYyNjE2NSAxLjE0NDUzNTcsMC41NzgxMzY2NSAxLjM0Mzc1NDQsMC41NzgxMzY2NSBjIDAuMzc1MDAwMSwwIDAuNTYyNTAwMSwwLjE3NTc4MTI2IDAuNTYyNTAwMSwwLjUzMTI1MDA1IDAsMC4zMTI1IC0wLjE1MjM0MzgsMC41MzkwNjI1IC0wLjQ1MzEyNSwwLjY4NzUgLTAuMDExNzE5LDAgLTAuMDMxMjUsMC4wMDM5MSAtMC4wNjI1LDAuMDE1NjI1IC0wLjAyMzQzNywwLjAxOTUzMSAtMC4wNDI5NjksMC4wMzUxNTYgLTAuMDYyNSwwLjA0Njg3NSAtMC4wMTE3MTksMC4wMDc4MSAtMC4wMjM0MzcsMC4wMTU2MjUgLTAuMDMxMjUsMC4wMTU2MjUgaCAtMC4wNDY4NzUgYyAwLjAzMTI1LDAuMDUwNzgxIDAuMTI1MDAwMSwwLjEwOTM3NSAwLjI4MTI1MDEsMC4xNzE4NzUgMC4xMzI4MTI1LDAuMDUwNzgxIDAuMjY5NTMxMiwwLjA3ODEyNSAwLjQwNjI1LDAuMDc4MTI1IGggMC4wOTM3NSBjIDAuMTQ0NTMxMiwwIDAuMjUzOTA2MiwtMC4wMTE3MTkgMC4zMjgxMjUsLTAuMDMxMjUgMC4zMjAzMTI1LC0wLjA5Mzc1IDAuNjI1LC0wLjMxMjUgMC45MDYyNSwtMC42NTYyNSAwLjI4OTA2MjUsLTAuMzM1OTM3NSAwLjUxNTYyNTEsLTAuNzM0Mzc1MDUgMC42NzE4NzUxLC0xLjIwMzEyNTA3IDAuMDkzNzUsLTAuMjgxMjUwMDEgMC4xNDA2MjUsLTAuNDQ1MzEyNTEgMC4xNDA2MjUsLTAuNTAwMDAwMDIgMCwtMC4wMDc4MTMgLTAuMDExNzE5LC0wLjAwMzkwNiAtMC4wMzEyNSwwLjAxNTYyNSAtMC4wMTE3MTksMC4wMTE3MTg4IC0wLjAzOTA2MywwLjAyNzM0MzggLTAuMDc4MTI1LDAuMDQ2ODc1IC0wLjMxMjUwMDEsMC4yMjY1NjI1MSAtMC42NTYyNTAxLDAuMzQzNzUwMDEgLTEuMDMxMjUwMSwwLjM0Mzc1MDAxIC0wLjQzNzUsMCAtMC43OTY4NzUsLTAuMTAxNTYyNSAtMS4wNzgxMjUsLTAuMjk2ODc1MDEgQyAxLjU4NTk0MiwtMC4zNjMyNjk2NCAxLjQxMDE2MDcsLTAuNjYwMTQ0NjUgMS4zMjgxMjk0LC0xLjA0Njg2MzQgYyAtMC4wMTE3MTksLTAuMDUwNzgxIC0wLjAxNTYyNSwtMC4xNzU3ODEzIC0wLjAxNTYyNSwtMC4zNzUgMCwtMC4yMDcwMzEzIDAuMDAzOTEsLTAuMzY3MTg3NSAwLjAxNTYyNSwtMC40ODQzNzUxIDAuMDYyNSwtMC4zNjMyODEyIDAuMjU3ODEyNiwtMC45ODQzNzUgMC41OTM3NTAxLC0xLjg1OTM3NSAwLjE4NzUsLTAuNTAwMDAwMSAwLjI4MTI1LC0wLjg0NzY1NjMgMC4yODEyNSwtMS4wNDY4NzUxIDAsLTAuMTI1IC0wLjAxMTcxOSwtMC4yMDcwMzEyIC0wLjAzMTI1LC0wLjI1IC0wLjAyMzQzNywtMC4wMzkwNjMgLTAuMDc0MjE5LC0wLjA2MjUgLTAuMTU2MjUsLTAuMDYyNSBoIC0wLjA2MjUgYyAtMC4xODc1LDAgLTAuMzc1LDAuMDg5ODQ0IC0wLjU2MjUsMC4yNjU2MjUgLTAuMjczNDM3NiwwLjI3MzQzNzUgLTAuNDc2NTYyNTcsMC42Nzk2ODc2IC0wLjYwOTM3NTA3LDEuMjE4NzUwMSAwLDAgLTAuMDA3ODEzLDAuMDE1NjI1IC0wLjAxNTYyNSwwLjA0Njg3NSAtMC4wMTE3MTg4LDAuMDIzNDM3IC0wLjAyMzQzNzUsMC4wMzEyNSAtMC4wMzEyNSwwLjAzMTI1IDAsMCAtMC4wMDc4MTMsMC4wMDc4MSAtMC4wMTU2MjUsMC4wMTU2MjUgMCwwLjAxMTcxOSAtMC4wMTU2MjUsMC4wMTU2MjUgLTAuMDQ2ODc1LDAuMDE1NjI1IC0wLjAyMzQzNzUsMCAtMC4wNDI5Njg3LDAgLTAuMDYyNSwwIC0wLjAxMTcxODgsMCAtMC4wNDI5Njg3LDAgLTAuMDkzNzUsMCBIIDAuMzQzNzU0NDEgYyAtMC4wNzQyMTg4LC0wLjA3MDMxMiAtMC4wODU5Mzc1LC0wLjE3MTg3NSAtMC4wMzEyNSwtMC4yOTY4NzUgMC4xNzU3ODEyNSwtMC41OTM3NTAxIDAuNDQxNDA2MjcsLTEuMDUwNzgxMyAwLjc5Njg3NDk5LC0xLjM3NTAwMDEgMC4yODEyNTAxLC0wLjI2OTUzMTMgMC41NzgxMjUxLC0wLjQwNjI1IDAuODkwNjI1MSwtMC40MDYyNSAwLjM2MzI4MTIsMCAwLjY0ODQzNzUsMC4xMDE1NjI1IDAuODU5Mzc1LDAuMjk2ODc1IDAuMjA3MDMxMywwLjE4NzUgMC4zMTI1LDAuNDUzMTI1IDAuMzEyNSwwLjc5Njg3NSAtMC4wMTE3MTksMC4xNjc5Njg4IC0wLjAyMzQzNywwLjI1NzgxMjUgLTAuMDMxMjUsMC4yNjU2MjUgMCwwLjA1NDY4OCAtMC4wNjI1LDAuMjM0Mzc1MSAtMC4xODc1LDAuNTQ2ODc1MSAtMC4zNTU0Njg3LDAuOTQ5MjE4OCAtMC41NjI1LDEuNjQwNjI1IC0wLjYyNSwyLjA3ODEyNTEgLTAuMDExNzE5LDAuMDYyNSAtMC4wMTU2MjUsMC4xNjQwNjI1IC0wLjAxNTYyNSwwLjI5Njg3NSAwLDAuMzI0MjE4NyAwLjA0Njg3NSwwLjU3MDMxMjQ5IDAuMTQwNjI1LDAuNzM0Mzc1IDAuMTAxNTYyNSwwLjE2Nzk2ODc2IDAuMjg5MDYyNSwwLjI1MDAwMDAxIDAuNTYyNSwwLjI1MDAwMDAxIDAuMTk1MzEyNSwwIDAuMzgyODEyNSwtMC4wNDY4NzUgMC41NjI1LC0wLjE0MDYyNTAxIDAuMTc1NzgxMywtMC4xMDE1NjI1IDAuMzA0Njg3NiwtMC4yMDMxMjUgMC4zOTA2MjUxLC0wLjI5Njg3NTAxIDAuMDkzNzUsLTAuMTAxNTYyNSAwLjIwNzAzMTIsLTAuMjM4MjgxMjkgMC4zNDM3NSwtMC40MDYyNDk5OSAwLC0wLjAwNzgxIDAuMDc4MTI1LC0wLjMyODEyNSAwLjIzNDM3NSwtMC45NTMxMjUxIDAuMTU2MjUsLTAuNjMyODEyNSAwLjMxNjQwNjIsLTEuMjgxMjUgMC40ODQzNzUsLTEuOTM3NSAwLjE2NDA2MjUsLTAuNjU2MjUwMSAwLjI2NTYyNSwtMS4wMDM5MDYzIDAuMjk2ODc1LC0xLjA0Njg3NTEgMC4xMDE1NjI1LC0wLjIyNjU2MjUgMC4yODUxNTYzLC0wLjM0Mzc1IDAuNTQ2ODc1LC0wLjM0Mzc1IHogbSAwLDAiIGlkPSJwYXRoNjkiLz4mI3hhOyAgICA8cGF0aCBjbGlwLXBhdGg9InVybCgjY2xpcFBhdGg3MikiIHRyYW5zZm9ybT0ibWF0cml4KDAuMTk4NDM3NSwwLDAsMC4xOTg0Mzc1LC0xMS4wMTMyODEsLTQzLjE2MDE1NikiIHN0eWxlPSJmaWxsOiMwMDAwMDA7ZmlsbC1vcGFjaXR5OjE7ZmlsbC1ydWxlOm5vbnplcm87c3Ryb2tlOm5vbmUiIGQ9Im0gNjgsMjMwIGggNyB2IDEgaCAtNyB6IiBpZD0icGF0aDcxIi8+JiN4YTsgICAgPHBhdGggY2xpcC1wYXRoPSJ1cmwoI2NsaXBQYXRoNzQpIiB0cmFuc2Zvcm09Im1hdHJpeCgwLjE5ODQzNzUsMCwwLDAuMTk4NDM3NSwyLjUxNDU3MzcsMi4wODM1OTE1KSIgYXJpYS1sYWJlbD0ieCIgc3R5bGU9ImZpbGw6IzAwMDAwMDtmaWxsLW9wYWNpdHk6MTtmaWxsLXJ1bGU6bm9uemVybztzdHJva2U6bm9uZSIgZD0ibSAwLjczNDM3OTQxLC0zLjUzMTIzOTEgYyAtMC4wNTQ2ODc1LC0wLjA1MDc4MSAtMC4wNzgxMjUsLTAuMDk3NjU2IC0wLjA3ODEyNSwtMC4xNDA2MjUgMC4wMzkwNjI1LC0wLjIyNjU2MjUgMC4xNzE4NzUwMSwtMC41MTk1MzEzIDAuMzkwNjI0OTksLTAuODc1IDAuNDA2MjUsLTAuNjAxNTYyNiAwLjkwNjI1MDEsLTAuOTUzMTI1MSAxLjUwMDAwMDEsLTEuMDQ2ODc1MSAwLjEyNSwtMC4wMDc4MSAwLjIxMDkzNzUsLTAuMDE1NjI1IDAuMjY1NjI1LC0wLjAxNTYyNSAwLjMwMDc4MTMsMCAwLjU3ODEyNSwwLjA3ODEyNSAwLjgyODEyNSwwLjIzNDM3NSAwLjI1LDAuMTQ4NDM3NSAwLjQyNTc4MTMsMC4zMzU5Mzc1IDAuNTMxMjUwMSwwLjU2MjUgMC4xMTMyODEyLC0wLjE0NDUzMTIgMC4xNzk2ODc1LC0wLjIzNDM3NSAwLjIwMzEyNSwtMC4yNjU2MjUgMC4zMjAzMTI1LC0wLjM1MTU2MjUgMC42ODc1LC0wLjUzMTI1IDEuMDkzNzUsLTAuNTMxMjUgMC4zNDM3NSwwIDAuNjE3MTg3NSwwLjEwMTU2MjUgMC44MjgxMjUsMC4yOTY4NzUgMC4yMTg3NTAxLDAuMTk5MjE4OCAwLjMyODEyNTEsMC40NDUzMTI1IDAuMzI4MTI1MSwwLjczNDM3NTEgMCwwLjI2MTcxODcgLTAuMDc0MjE5LDAuNDgwNDY4NyAtMC4yMTg3NTAxLDAuNjU2MjUgLTAuMTQ4NDM3NSwwLjE3OTY4NzUgLTAuMzQzNzUsMC4yNjU2MjUgLTAuNTkzNzUsMC4yNjU2MjUgLTAuMTU2MjUsMCAtMC4yODkwNjI1LC0wLjA0Njg3NSAtMC4zOTA2MjUsLTAuMTQwNjI1IC0wLjEwNTQ2ODcsLTAuMDkzNzUgLTAuMTU2MjUsLTAuMjE4NzUgLTAuMTU2MjUsLTAuMzc1IDAsLTAuMzgyODEyNSAwLjIxMDkzNzUsLTAuNjQ4NDM3NiAwLjY0MDYyNSwtMC43OTY4NzUxIDAsLTAuMDA3ODEgLTAuMDQ2ODc1LC0wLjAzOTA2MyAtMC4xNDA2MjUsLTAuMDkzNzUgLTAuMDg1OTM3LC0wLjAzOTA2MyAtMC4yMDMxMjUsLTAuMDYyNSAtMC4zNTkzNzUsLTAuMDYyNSAtMC4xMTcxODc1LDAgLTAuMTk5MjE4OCwwLjAwNzgxIC0wLjI1LDAuMDE1NjI1IC0wLjMyNDIxODgsMC4xMzY3MTg4IC0wLjU1ODU5MzgsMC40MTc5Njg4IC0wLjcwMzEyNSwwLjg0Mzc1MDEgLTAuMDMxMjUsMC4wNjI1IC0wLjE1NjI1LDAuNTM5MDYyNSAtMC4zNzUsMS40MjE4NzUgLTAuMjE4NzUwMSwwLjg3NTAwMDEgLTAuMzM5ODQzOCwxLjM2NzE4NzYgLTAuMzU5Mzc1MSwxLjQ2ODc1MDEgLTAuMDIzNDM3LDAuMTI1IC0wLjAzMTI1LDAuMjU3ODEyNSAtMC4wMzEyNSwwLjM5MDYyNSAwLDAuMTk5MjE4NzYgMC4wNTQ2ODcsMC4zNTkzNzUwMiAwLjE3MTg3NSwwLjQ4NDM3NTAyIDAuMTI1LDAuMTE3MTg3NTEgMC4yODEyNTAxLDAuMTcxODc1MDEgMC40Njg3NTAxLDAuMTcxODc1MDEgMC4zNTE1NjI1LDAgMC42NzU3ODEyLC0wLjE0ODQzNzUxIDAuOTY4NzUsLTAuNDUzMTI1MDIgMC4yODkwNjI1LC0wLjMwMDc4MTMxIDAuNDg0Mzc1LC0wLjYzMjgxMjUxIDAuNTc4MTI1LC0xLjAwMDAwMDAxIDAuMDMxMjUsLTAuMDgyMDMxIDAuMDU0Njg3LC0wLjEyODkwNjMgMC4wNzgxMjUsLTAuMTQwNjI1IDAuMDMxMjUsLTAuMDA3ODEgMC4wOTc2NTYsLTAuMDE1NjI1IDAuMjAzMTI1LC0wLjAxNTYyNSAwLjE2NDA2MjUsMCAwLjI1LDAuMDMxMjUgMC4yNSwwLjA5Mzc1IDAsMC4wMTE3MTkgLTAuMDExNzE5LDAuMDU4NTk0IC0wLjAzMTI1LDAuMTQwNjI1IC0wLjE0ODQzNzUsMC41MjM0Mzc1IC0wLjQ0NTMxMjUsMC45ODA0Njg3NiAtMC44OTA2MjUsMS4zNzUwMDAwMyAtMC4zOTg0Mzc1LDAuMzEyNTAwMDEgLTAuODEyNSwwLjQ2ODc1MDAyIC0xLjI1LDAuNDY4NzUwMDIgLTAuNTkzNzUwMSwwIC0xLjA0Mjk2ODgsLTAuMjY1NjI1MDEgLTEuMzQzNzUwMSwtMC43OTY4NzUwNCAtMC4yNSwwLjM3NTAwMDAyIC0wLjU3MDMxMjUsMC42MzI4MTI1MyAtMC45NTMxMjUsMC43NjU2MjUwNCAtMC4wNzQyMTksMC4wMDc4MTMgLTAuMTgzNTkzOCwwLjAxNTYyNSAtMC4zMjgxMjUxLDAuMDE1NjI1IC0wLjQ5MjE4NzUsMCAtMC44MzU5Mzc0OSwtMC4xNzE4NzUwMSAtMS4wMzEyNDk5OSwtMC41MTU2MjUwMiBDIDAuNDg0Mzc5NCwtMC41MzUxNDUyMyAwLjQzNzUwNDQsLTAuNzA3MDIwMjQgMC40Mzc1MDQ0LC0wLjkwNjIzOSBjIDAsLTAuMjUgMC4wNzgxMjUsLTAuNDYwOTM3NSAwLjIzNDM3NTAxLC0wLjY0MDYyNSAwLjE1NjI1MDAxLC0wLjE3NTc4MTMgMC4zNDc2NTYyOSwtMC4yNjU2MjUgMC41NzgxMjQ5OSwtMC4yNjU2MjUgMC4zNjMyODEzLDAgMC41NDY4NzUxLDAuMTc5Njg3NSAwLjU0Njg3NTEsMC41MzEyNSAwLDAuMzEyNSAtMC4xNDg0Mzc1LDAuNTQyOTY4NzYgLTAuNDM3NTAwMSwwLjY4NzUwMDAyIC0wLjAyMzQzNywwLjAxMTcxODggLTAuMDQ2ODc1LDAuMDIzNDM3NSAtMC4wNzgxMjUsMC4wMzEyNSAtMC4wMjM0MzcsMC4wMTE3MTg4IC0wLjA0Mjk2OSwwLjAyMzQzNzUgLTAuMDYyNSwwLjAzMTI1IC0wLjAxMTcxOSwwLjAxMTcxODggLTAuMDIzNDM3LDAuMDE1NjI1IC0wLjAzMTI1LDAuMDE1NjI1IGggLTAuMDMxMjUgYyAwLDAuMDMxMjUgMC4wNjI1LDAuMDc0MjE4OCAwLjE4NzUsMC4xMjUwMDAwMSAwLjEwMTU2MjUsMC4wNDI5Njg3IDAuMjEwOTM3NSwwLjA2MjUgMC4zMjgxMjUxLDAuMDYyNSAwLjMxMjUsMCAwLjU3ODEyNSwtMC4xOTE0MDYyNiAwLjc5Njg3NSwtMC41NzgxMjUwMyAwLjA5Mzc1LC0wLjE0NDUzMTMgMC4yNTM5MDYyLC0wLjY5MTQwNjMgMC40ODQzNzUsLTEuNjQwNjI1MSAwLjA1MDc4MSwtMC4xOTUzMTI1IDAuMTA5Mzc1LC0wLjQxNDA2MjUgMC4xNzE4NzUsLTAuNjU2MjUgMC4wNjI1LC0wLjIzODI4MTMgMC4xMDE1NjI1LC0wLjQyMTg3NSAwLjEyNSwtMC41NDY4NzUgMC4wMzEyNSwtMC4xMjUgMC4wNTA3ODEsLTAuMTk1MzEyNSAwLjA2MjUsLTAuMjE4NzUgMC4wMzkwNjMsLTAuMjI2NTYyNSAwLjA2MjUsLTAuMzk0NTMxMyAwLjA2MjUsLTAuNSAwLC0wLjIwNzAzMTMgLTAuMDU4NTk0LC0wLjM2NzE4NzYgLTAuMTcxODc1LC0wLjQ4NDM3NTEgLTAuMTA1NDY4NywtMC4xMTMyODEyIC0wLjI1NzgxMjUsLTAuMTcxODc1IC0wLjQ1MzEyNSwtMC4xNzE4NzUgLTAuMzc1LDAgLTAuNzAzMTI1LDAuMTQ4NDM3NSAtMC45ODQzNzUsMC40Mzc1IC0wLjI4MTI1MDEsMC4yOTI5Njg4IC0wLjQ3NjU2MjYsMC42MjUwMDAxIC0wLjU3ODEyNTEsMS4wMDAwMDAxIC0wLjAyMzQzNywwLjA4NTkzNyAtMC4wNDI5NjksMC4xMzI4MTI1IC0wLjA2MjUsMC4xNDA2MjUgLTAuMDIzNDM3LDAuMDExNzE5IC0wLjA4OTg0NCwwLjAxNTYyNSAtMC4yMDMxMjQ5OCwwLjAxNTYyNSB6IG0gMCwwIiBpZD0icGF0aDczIi8+JiN4YTsgIDwvZz4mI3hhOzwvc3ZnPg==;connectable=0;allowArrows=0;rotatable=0;html=1;align=left;labelPosition=right;verticalLabelPosition=middle;verticalAlign=middle;fontSize=18;labelBackgroundColor=#E6E6E6;fontColor=#000000;labelBorderColor=none;imageBackground=#FFFFFF;imageBorder=default;shadow=0;spacingLeft=12.5;" parent="1" vertex="1">
          <mxGeometry x="50" y="521" width="50" height="50" as="geometry" />
        </mxCell>
        <mxCell id="a21QgjTOZl95tkyDf_ZO-19" value="&lt;pre style=&quot;line-height: 0%;&quot;&gt;&amp;nbsp; &amp;nbsp;&amp;nbsp;a^b&amp;nbsp; &amp;nbsp;&amp;nbsp;&lt;/pre&gt;" style="shape=image;aspect=fixed;image=data:image/svg+xml,PHN2ZyB4bWxucz0iaHR0cDovL3d3dy53My5vcmcvMjAwMC9zdmciIGlkPSJzdmcxIiB2ZXJzaW9uPSIxLjEiIHZpZXdCb3g9IjAgMCA2LjM0OTk5OTkwNDYzMjU2OCA2LjM0OTk5OTkwNDYzMjU2OCIgaGVpZ2h0PSIyNC4wMDAwMDAwMTc1MDg5MiIgd2lkdGg9IjI0LjAwMDAwMDAxNzUwODkyIj4mI3hhOyAgJiN4YTsgIDxkZWZzIGlkPSJkZWZzMSI+JiN4YTsgICAgPGNsaXBQYXRoIGlkPSJjbGlwUGF0aDgzIiBjbGlwUGF0aFVuaXRzPSJ1c2VyU3BhY2VPblVzZSI+JiN4YTsgICAgICA8cGF0aCBpZD0icGF0aDgzIiBjbGlwLXJ1bGU9ImV2ZW5vZGQiIHRyYW5zZm9ybT0ibWF0cml4KDAuMzE5OTk5OTksMCwwLDAuMzE5OTk5OTksLTEwMywtNDAwLjk5OTk4KSIgZD0iTSAxMTUuNjI1LDExNS42MjUgSCAyNDMyLjMyNDIgViAzMTgyLjMyNDIgSCAxMTUuNjI1IFoiLz4mI3hhOyAgICA8L2NsaXBQYXRoPiYjeGE7ICAgIDxjbGlwUGF0aCBpZD0iY2xpcFBhdGg4NSIgY2xpcFBhdGhVbml0cz0idXNlclNwYWNlT25Vc2UiPiYjeGE7ICAgICAgPHBhdGggaWQ9InBhdGg4NSIgY2xpcC1ydWxlPSJldmVub2RkIiB0cmFuc2Zvcm09Im1hdHJpeCgwLjMxOTk5OTk5LDAsMCwwLjMxOTk5OTk5LC0xMTIuNjA5MzcsLTM5My45OTk5OCkiIGQ9Ik0gMTE1LjYyNSwxMTUuNjI1IEggMjQzMi4zMjQyIFYgMzE4Mi4zMjQyIEggMTE1LjYyNSBaIi8+JiN4YTsgICAgPC9jbGlwUGF0aD4mI3hhOyAgPC9kZWZzPiYjeGE7ICA8ZyBpZD0ibGF5ZXIxIj4mI3hhOyAgICA8cmVjdCB5PSIwIiB4PSIwIiBoZWlnaHQ9IjYuMzQ5OTk5OSIgd2lkdGg9IjYuMzQ5OTk5OSIgaWQ9InJlY3QxIiBzdHlsZT0ib3BhY2l0eTowO2ZpbGw6bm9uZTtzdHJva2Utd2lkdGg6Mi42NDU4MztzdHJva2UtbGluZWpvaW46cm91bmQ7c3Ryb2tlLW1pdGVybGltaXQ6MTYiLz4mI3hhOyAgICA8cGF0aCBjbGlwLXBhdGg9InVybCgjY2xpcFBhdGg4MykiIHRyYW5zZm9ybT0ibWF0cml4KDAuMjY0NTgzMzMsMCwwLDAuMjY0NTgzMzMsMS4xMTYyMTA0LDUuMjQyMDUyOSkiIGFyaWEtbGFiZWw9ImEiIHN0eWxlPSJmaWxsOiMwMDAwMDA7ZmlsbC1vcGFjaXR5OjE7ZmlsbC1ydWxlOm5vbnplcm87c3Ryb2tlOm5vbmUiIGQ9Im0gOC4xNTYyNTQ2LC03LjE1NjIzMzYgYyAwLDAuMTU2MjUgLTAuMjMwNDY4NywxLjEzMjgxMjYgLTAuNjg3NSwyLjkyMTg3NTEgLTAuNDQ5MjE4OCwxLjc4MTI1MDEgLTAuNjcxODc1LDIuNzgxMjUwMSAtMC42NzE4NzUsMy4wMDAwMDAyIDAsMC41MTE3MTg3MyAwLjE2NDA2MjUsMC43NjU2MjQ5OSAwLjUsMC43NjU2MjQ5OSAwLjExMzI4MTMsLTAuMDA3ODEzIDAuMjM0Mzc1LC0wLjA2NjQwNjIgMC4zNTkzNzUsLTAuMTcxODc1MDEgMC4yNTc4MTI1LC0wLjIzODI4MTI2IDAuNTA3ODEyNSwtMC44MTY0MDYyOCAwLjc1LC0xLjczNDM3NTA4IDAuMDcwMzEyLC0wLjIzODI4MTMgMC4xMzI4MTI1LC0wLjM2NzE4NzUgMC4xODc1LC0wLjM5MDYyNSAwLjAxOTUzMSwtMC4wMDc4MSAwLjA3ODEyNSwtMC4wMTU2MjUgMC4xNzE4NzUxLC0wLjAxNTYyNSBoIDAuMDc4MTI1IGMgMC4yMjY1NjI1LDAgMC4zNDM3NSwwLjA1NDY4NyAwLjM0Mzc1LDAuMTU2MjUgMCwwLjA0Mjk2OSAtMC4wMjM0MzcsMC4xMzY3MTg4IC0wLjA2MjUsMC4yODEyNSAtMC4yNjE3MTg4LDEuMDIzNDM3NiAtMC41ODU5Mzc2LDEuNzI2NTYyNTggLTAuOTY4NzUwMSwyLjEwOTM3NTEgLTAuMjgxMjUsMC4yODEyNTAwMSAtMC42MjEwOTM3LDAuNDIxODc1MDIgLTEuMDE1NjI1LDAuNDIxODc1MDIgLTAuNzczNDM3NSwwIC0xLjMwODU5MzgsLTAuMjk2ODc1MDIgLTEuNjA5Mzc1MSwtMC44OTA2MjUwNCAtMC4wNTQ2ODcsLTAuMTU2MjUwMDEgLTAuMDc4MTI1LC0wLjIyNjU2MjUxIC0wLjA3ODEyNSwtMC4yMTg3NTAwMSAtMC4wMjM0MzcsLTAuMDA3ODEzIC0wLjA0Njg3NSwtMC4wMDM5MDYgLTAuMDc4MTI1LDAuMDE1NjI1IC0wLjAyMzQzNywwLjAyMzQzNzUgLTAuMDQ2ODc1LDAuMDQ2ODc1IC0wLjA3ODEyNSwwLjA3ODEyNSAtMC41NzQyMTg4LDAuNTQyOTY4NzggLTEuMTQ4NDM3NSwwLjg2NzE4NzU0IC0xLjcxODc1MDEsMC45ODQzNzUwNCAtMC4wNzQyMTksMC4wMTk1MzEzIC0wLjIyNjU2MjUsMC4wMzEyNSAtMC40NTMxMjUsMC4wMzEyNSAtMC44MDQ2ODc1LDAgLTEuNDY0ODQzOCwtMC4zMzIwMzEyNyAtMS45ODQzNzUxLC0xLjAwMDAwMDA1IEMgMC43NzM0NDE4MiwtMS4zNDM3MzMzIDAuNTkzNzU0MzIsLTIuMDE5NTE0NiAwLjU5Mzc1NDMyLC0yLjg0MzczMzQgYyAwLC0wLjE5NTMxMjUgMC4wMDc4MTMsLTAuMzMyMDMxMyAwLjAzMTI1LC0wLjQwNjI1IDAuMDgyMDMxMywtMC43Njk1MzEzIDAuMzMyMDMxMjYsLTEuNTA3ODEyNiAwLjc0OTk5OTk4LC0yLjIxODc1MDEgMC40MTQwNjI2LC0wLjcwNzAzMTMgMC45MTQwNjI2LC0xLjI4MTI1MDEgMS41MDAwMDAxLC0xLjcxODc1MDEgMC42OTUzMTI1LC0wLjUzOTA2MjUgMS40Mjk2ODc2LC0wLjgxMjUgMi4yMDMxMjUxLC0wLjgxMjUgMC42MDE1NjI1LDAgMS4xNDg0Mzc2LDAuMjkyOTY4NyAxLjY0MDYyNTEsMC44NzUgMC4xOTUzMTI1LC0wLjM1MTU2MjUgMC40NzI2NTYyLC0wLjUzMTI1IDAuODI4MTI1LC0wLjUzMTI1IDAuMTU2MjUsMCAwLjI5Njg3NSwwLjA0Njg3NSAwLjQyMTg3NSwwLjE0MDYyNSAwLjEyNSwwLjA5Mzc1IDAuMTg3NSwwLjIxNDg0MzggMC4xODc1LDAuMzU5Mzc1IHogbSAtNi4wMTU2MjUyLDUuMjM0Mzc1MiBjIDAsMC40Mzc1IDAuMDkzNzUsMC43OTI5Njg4IDAuMjgxMjUsMS4wNjI1MDAwNyAwLjE4NzUsMC4yNjE3MTg3NiAwLjQ2MDkzNzUsMC4zOTA2MjUwMiAwLjgyODEyNSwwLjM5MDYyNTAyIDAuMzUxNTYyNSwwIDAuNzI2NTYyNiwtMC4xNDQ1MzEyNiAxLjEyNTAwMDEsLTAuNDM3NTAwMDIgMC4xNDQ1MzEyLC0wLjA5Mzc1IDAuMzQzNzUsLTAuMjczNDM3NDcgMC41OTM3NSwtMC41NDY4NzUwNyAwLjI1LC0wLjI2OTUzMTIgMC4zOTQ1MzEzLC0wLjQ1MzEyNSAwLjQzNzUsLTAuNTQ2ODc1IDAuMDMxMjUsLTAuMDM5MDYzIDAuMTk1MzEyNSwtMC42ODc1IDAuNSwtMS45Mzc1MDAxIDAuMzEyNTAwMSwtMS4yNSAwLjQ2ODc1MDEsLTEuOTIxODc1IDAuNDY4NzUwMSwtMi4wMTU2MjUgMCwtMC4xNDQ1MzEzIC0wLjA3MDMxMiwtMC4zNTE1NjI2IC0wLjIwMzEyNTEsLTAuNjI1MDAwMSAtMC4yNjE3MTg3LC0wLjUxOTUzMTIgLTAuNjQwNjI1LC0wLjc4MTI1IC0xLjE0MDYyNSwtMC43ODEyNSAtMC40OTIxODc1LDAgLTAuOTE3OTY4OCwwLjIxMDkzNzUgLTEuMjgxMjUwMSwwLjYyNSAtMC4zNjcxODc1LDAuNDA2MjUgLTAuNjQ4NDM3NSwwLjg4MjgxMjYgLTAuODQzNzUsMS40MjE4NzUxIC0wLjM1NTQ2ODgsMC45NDkyMTg4IC0wLjYwNTQ2ODgsMS45Mzc1MDAxIC0wLjc1LDIuOTY4NzUwMSAwLDAuMDQyOTY5IC0wLjAwNzgxLDAuMTA5Mzc1IC0wLjAxNTYyNSwwLjIwMzEyNSAwLDAuMDkzNzUgMCwwLjE2Nzk2ODggMCwwLjIxODc1IHogbSAwLDAiIGlkPSJwYXRoODIiLz4mI3hhOyAgICA8cGF0aCBjbGlwLXBhdGg9InVybCgjY2xpcFBhdGg4NSkiIHRyYW5zZm9ybT0ibWF0cml4KDAuMjY0NTgzMzMsMCwwLDAuMjY0NTgzMzMsMy42NTg2ODk1LDMuMzg5OTY5NikiIGFyaWEtbGFiZWw9ImIiIHN0eWxlPSJmaWxsOiMwMDAwMDA7ZmlsbC1vcGFjaXR5OjE7ZmlsbC1ydWxlOm5vbnplcm87c3Ryb2tlOm5vbmUiIGQ9Im0gMS4xMjUwMDQ3LC04LjY3MTg1ODkgYyAwLjAwNzgxLDAgMC4zMTY0MDYzLC0wLjAxOTUzMSAwLjkyMTg3NTEsLTAuMDYyNSAwLjYwMTU2MjUsLTAuMDUwNzgxIDAuOTEwMTU2MywtMC4wNzgxMjUgMC45MjE4NzUsLTAuMDc4MTI1IDAuMTAxNTYyNSwwIDAuMTU2MjUsMC4wMzkwNjMgMC4xNTYyNSwwLjEwOTM3NTEgMCwwLjA3NDIxOSAtMC4xNTIzNDM3LDAuNjk5MjE4NyAtMC40NTMxMjUsMS44NzUgLTAuMjkyOTY4OCwxLjE2Nzk2ODggLTAuNDM3NSwxLjc1NzgxMjYgLTAuNDM3NSwxLjc2NTYyNTEgMCwwLjAyMzQzNyAwLjAyMzQzNywwLjAwNzgxIDAuMDc4MTI1LC0wLjA0Njg3NSAwLjI4OTA2MjUsLTAuMjM4MjgxMyAwLjYxMzI4MTMsLTAuMzk4NDM3NSAwLjk2ODc1LC0wLjQ4NDM3NSAwLjEwMTU2MjUsLTAuMDA3ODEgMC4yMDcwMzEzLC0wLjAxNTYyNSAwLjMxMjUsLTAuMDE1NjI1IDAuMTEzMjgxMywwIDAuMjE4NzUwMSwwLjAwNzgxIDAuMzEyNTAwMSwwLjAxNTYyNSAwLjQ0NTMxMjUsMC4xMDU0Njg3IDAuODAwNzgxMiwwLjMzNTkzNzUgMS4wNjI1LDAuNjg3NSAwLjI1NzgxMjUsMC4zNTU0Njg4IDAuMzkwNjI1LDAuODA0Njg3NSAwLjM5MDYyNSwxLjM0Mzc1MDEgMCwwLjk0OTIxODggLTAuMzM1OTM3NSwxLjgwNDY4NzUgLTEsMi41NjI1MDAwOCAtMC42Njc5Njg4LDAuNzYxNzE4NzggLTEuMzg2NzE4OCwxLjE0MDYyNTA0IC0yLjE1NjI1MDEsMS4xNDA2MjUwNCAtMC4yNSwwIC0wLjQ4NDM3NSwtMC4wNTg1OTM3NSAtMC43MDMxMjUsLTAuMTcxODc1IEMgMC44NDM3NTQ3MywtMC4zMjAyOTYxIDAuNTE1NjI5NzEsLTAuOTQ1Mjk2MTIgMC41MTU2Mjk3MSwtMS45MDYyMzM3IGMgMCwtMC4yNSAwLjAxOTUzMTMsLTAuNDg4MjgxMiAwLjA2MjUsLTAuNzE4NzUgMCwtMC4wMDc4MSAwLjIxMDkzNzUsLTAuODc4OTA2MyAwLjY0MDYyNDk5LC0yLjYwOTM3NTEgbCAwLjY1NjI1MDEsLTIuNTkzNzUwMSBjIDAuMDA3ODEsLTAuMTEzMjgxMyAtMC4wMjM0MzcsLTAuMTg3NSAtMC4wOTM3NSwtMC4yMTg3NSAtMC4wNzQyMTksLTAuMDMxMjUgLTAuMTk1MzEyNSwtMC4wNDY4NzUgLTAuMzU5Mzc1LC0wLjA0Njg3NSAtMC4wNjI1LDAgLTAuMTA5Mzc1MSwwIC0wLjE0MDYyNTEsMCAtMC4xNzk2ODc1LDAgLTAuMjc3MzQzNywtMC4wMDc4MSAtMC4yOTY4NzQ5OCwtMC4wMzEyNSAtMC4wNTQ2ODc1LC0wLjAzOTA2MyAtMC4wNTg1OTM4LC0wLjE0NDUzMTMgLTAuMDE1NjI1LC0wLjMxMjUgMC4wMzEyNSwtMC4xMTMyODEzIDAuMDU0Njg3NSwtMC4xNzk2ODc1IDAuMDc4MTI1LC0wLjIwMzEyNSAwLjAzMTI1LC0wLjAxOTUzMSAwLjA1NDY4NywtMC4wMzEyNSAwLjA3ODEyNSwtMC4wMzEyNSB6IG0gMy4xNDA2MjUyLDQuNTQ2ODc1MSBjIDAsLTAuNjc1NzgxMiAtMC4yNTc4MTI1LC0xLjAxNTYyNSAtMC43NjU2MjUxLC0xLjAxNTYyNSAtMC4wMjM0MzcsMCAtMC4wNTQ2ODcsMC4wMDc4MSAtMC4wOTM3NSwwLjAxNTYyNSAtMC4wMzEyNSwwIC0wLjA1NDY4NywwIC0wLjA2MjUsMCAtMC40Mzc1LDAuMDg1OTM3IC0wLjg1NTQ2ODgsMC4zODY3MTg4IC0xLjI1LDAuOTA2MjUgLTAuMDExNzE5LDAuMDIzNDM3IC0wLjAzMTI1LDAuMDQ2ODc1IC0wLjA2MjUsMC4wNzgxMjUgbCAtMC4wMzEyNSwwLjA0Njg3NSBjIDAsMC4wMTE3MTkgLTAuMDc4MTI1LDAuMzIwMzEyNiAtMC4yMzQzNzUsMC45MjE4NzUxIC0wLjE0ODQzNzUsMC41OTM3NSAtMC4yMjY1NjI1LDAuOTMzNTkzOCAtMC4yMzQzNzUsMS4wMTU2MjUgLTAuMDU0Njg3LDAuMjYxNzE4OCAtMC4wNzgxMjUsMC40OTYwOTM4IC0wLjA3ODEyNSwwLjcwMzEyNTEgMCwwLjQwNjI1IDAuMDk3NjU2LDAuNzE0ODQzNzQgMC4yOTY4NzUsMC45MjE4NzQ5OSAwLjEzMjgxMjUsMC4xMzY3MTg3NiAwLjMwNDY4NzUsMC4yMDMxMjUwMSAwLjUxNTYyNSwwLjIwMzEyNTAxIDAuMjgxMjUsMCAwLjU2MjUsLTAuMTMyODEyNSAwLjg0Mzc1LC0wLjQwNjI1MDAxIDAuMjE4NzUsLTAuMTk1MzEyNTEgMC4zOTA2MjUsLTAuNDM3NDk5OTkgMC41MTU2MjUsLTAuNzE4NzQ5OTkgMC4xMzI4MTI1LC0wLjI4MTI1MDEgMC4yNzM0Mzc2LC0wLjcyMjY1NjMgMC40MjE4NzUxLC0xLjMyODEyNTEgMC4xNDQ1MzEyLC0wLjYxMzI4MTMgMC4yMTg3NSwtMS4wNjI1IDAuMjE4NzUsLTEuMzQzNzUwMSB6IG0gMCwwIiBpZD0icGF0aDg0Ii8+JiN4YTsgIDwvZz4mI3hhOzwvc3ZnPg==;connectable=0;allowArrows=0;rotatable=0;html=1;align=left;labelPosition=right;verticalLabelPosition=middle;verticalAlign=middle;fontSize=18;labelBackgroundColor=#E6E6E6;fontColor=#000000;labelBorderColor=none;imageBackground=#FFFFFF;imageBorder=default;shadow=0;spacingLeft=12.5;" parent="1" vertex="1">
          <mxGeometry x="50" y="629" width="50" height="50" as="geometry" />
        </mxCell>
        <mxCell id="a21QgjTOZl95tkyDf_ZO-20" value="&lt;pre style=&quot;line-height: 0%;&quot;&gt;&amp;nbsp; &amp;nbsp;&amp;nbsp;a_b&amp;nbsp; &amp;nbsp;&amp;nbsp;&lt;/pre&gt;" style="shape=image;aspect=fixed;image=data:image/svg+xml,PHN2ZyB4bWxucz0iaHR0cDovL3d3dy53My5vcmcvMjAwMC9zdmciIGlkPSJzdmcxIiB2ZXJzaW9uPSIxLjEiIHZpZXdCb3g9Ii01LjU1MTExNTEyMzEyNTc4M2UtMTcgMS4xMTAyMjMwMjQ2MjUxNTY1ZS0xNSA2LjM0OTk5OTkwNDYzMjU2OCA2LjM0OTk5OTkwNDYzMjU2OCIgaGVpZ2h0PSIyNC4wMDAwMDAwMTc1MDg5MiIgd2lkdGg9IjI0LjAwMDAwMDAxNzUwODkyIj4mI3hhOyAgJiN4YTsgIDxkZWZzIGlkPSJkZWZzMSI+JiN4YTsgICAgPGNsaXBQYXRoIGlkPSJjbGlwUGF0aDg3IiBjbGlwUGF0aFVuaXRzPSJ1c2VyU3BhY2VPblVzZSI+JiN4YTsgICAgICA8cGF0aCBpZD0icGF0aDg3IiBjbGlwLXJ1bGU9ImV2ZW5vZGQiIHRyYW5zZm9ybT0ibWF0cml4KDAuMzE5OTk5OTksMCwwLDAuMzE5OTk5OTksLTEwMywtNDMwLjk5OTk4KSIgZD0iTSAxMTUuNjI1LDExNS42MjUgSCAyNDMyLjMyNDIgViAzMTgyLjMyNDIgSCAxMTUuNjI1IFoiLz4mI3hhOyAgICA8L2NsaXBQYXRoPiYjeGE7ICAgIDxjbGlwUGF0aCBpZD0iY2xpcFBhdGg4OSIgY2xpcFBhdGhVbml0cz0idXNlclNwYWNlT25Vc2UiPiYjeGE7ICAgICAgPHBhdGggaWQ9InBhdGg4OSIgY2xpcC1ydWxlPSJldmVub2RkIiB0cmFuc2Zvcm09Im1hdHJpeCgwLjMxOTk5OTk5LDAsMCwwLjMxOTk5OTk5LC0xMTIuNjA5MzcsLTQzMy45OTk5OCkiIGQ9Ik0gMTE1LjYyNSwxMTUuNjI1IEggMjQzMi4zMjQyIFYgMzE4Mi4zMjQyIEggMTE1LjYyNSBaIi8+JiN4YTsgICAgPC9jbGlwUGF0aD4mI3hhOyAgPC9kZWZzPiYjeGE7ICA8ZyBpZD0ibGF5ZXIxIj4mI3hhOyAgICA8cmVjdCB5PSIxLjExMDIyM2UtMTUiIHg9Ii01LjU1MTExNTFlLTE3IiBoZWlnaHQ9IjYuMzQ5OTk5OSIgd2lkdGg9IjYuMzQ5OTk5OSIgaWQ9InJlY3QxIiBzdHlsZT0iZmlsbDpub25lO3N0cm9rZS13aWR0aDoxLjk5MjYyO3N0cm9rZS1saW5lam9pbjpyb3VuZDtzdHJva2UtbWl0ZXJsaW1pdDoxNjtvcGFjaXR5OjA7c3Ryb2tlOm5vbmUiLz4mI3hhOyAgICA8cGF0aCBjbGlwLXBhdGg9InVybCgjY2xpcFBhdGg4NykiIHRyYW5zZm9ybT0ibWF0cml4KDAuMjY0NTgzMzMsMCwwLDAuMjY0NTgzMzMsMS4xMTYyMTA0LDMuODE3ODUwMSkiIGFyaWEtbGFiZWw9ImEiIHN0eWxlPSJmaWxsOiMwMDAwMDA7ZmlsbC1vcGFjaXR5OjE7ZmlsbC1ydWxlOm5vbnplcm87c3Ryb2tlOm5vbmUiIGQ9Im0gOC4xNTYyNTQ2LC03LjE1NjIzMjMgYyAwLDAuMTU2MjUgLTAuMjMwNDY4NywxLjEzMjgxMjUgLTAuNjg3NSwyLjkyMTg3NTEgLTAuNDQ5MjE4OCwxLjc4MTI1MDEgLTAuNjcxODc1LDIuNzgxMjUwMSAtMC42NzE4NzUsMy4wMDAwMDAxIDAsMC41MTE3MTg3OCAwLjE2NDA2MjUsMC43NjU2MjUwNCAwLjUsMC43NjU2MjUwNCAwLjExMzI4MTMsLTAuMDA3ODEzIDAuMjM0Mzc1LC0wLjA2NjQwNjMgMC4zNTkzNzUsLTAuMTcxODc1MDEgMC4yNTc4MTI1LC0wLjIzODI4MTI2IDAuNTA3ODEyNSwtMC44MTY0MDYzMyAwLjc1LC0xLjczNDM3NTAzIDAuMDcwMzEyLC0wLjIzODI4MTMgMC4xMzI4MTI1LC0wLjM2NzE4NzYgMC4xODc1LC0wLjM5MDYyNTEgMC4wMTk1MzEsLTAuMDA3ODEgMC4wNzgxMjUsLTAuMDE1NjI1IDAuMTcxODc1MSwtMC4wMTU2MjUgaCAwLjA3ODEyNSBjIDAuMjI2NTYyNSwwIDAuMzQzNzUsMC4wNTQ2ODcgMC4zNDM3NSwwLjE1NjI1IDAsMC4wNDI5NjkgLTAuMDIzNDM3LDAuMTM2NzE4OCAtMC4wNjI1LDAuMjgxMjUwMSAtMC4yNjE3MTg4LDEuMDIzNDM3NSAtMC41ODU5Mzc2LDEuNzI2NTYyNTMgLTAuOTY4NzUwMSwyLjEwOTM3NTA1IC0wLjI4MTI1LDAuMjgxMjUwMDEgLTAuNjIxMDkzNywwLjQyMTg3NTAyIC0xLjAxNTYyNSwwLjQyMTg3NTAyIC0wLjc3MzQzNzUsMCAtMS4zMDg1OTM4LC0wLjI5Njg3NTAyIC0xLjYwOTM3NTEsLTAuODkwNjI1MDQgLTAuMDU0Njg3LC0wLjE1NjI1MDAxIC0wLjA3ODEyNSwtMC4yMjY1NjI1MSAtMC4wNzgxMjUsLTAuMjE4NzUwMDEgLTAuMDIzNDM3LC0wLjAwNzgxMyAtMC4wNDY4NzUsLTAuMDAzOTA2IC0wLjA3ODEyNSwwLjAxNTYyNSAtMC4wMjM0MzcsMC4wMjM0Mzc1IC0wLjA0Njg3NSwwLjA0Njg3NSAtMC4wNzgxMjUsMC4wNzgxMjUgLTAuNTc0MjE4OCwwLjU0Mjk2ODc4IC0xLjE0ODQzNzUsMC44NjcxODc1NCAtMS43MTg3NTAxLDAuOTg0Mzc1MDQgLTAuMDc0MjE5LDAuMDE5NTMxMyAtMC4yMjY1NjI1LDAuMDMxMjUgLTAuNDUzMTI1LDAuMDMxMjUgLTAuODA0Njg3NSwwIC0xLjQ2NDg0MzgsLTAuMzMyMDMxMjcgLTEuOTg0Mzc1MSwtMS4wMDAwMDAwNSBDIDAuNzczNDQxODIsLTEuMzQzNzMyMSAwLjU5Mzc1NDMyLC0yLjAxOTUxMzQgMC41OTM3NTQzMiwtMi44NDM3MzIyIGMgMCwtMC4xOTUzMTI1IDAuMDA3ODEzLC0wLjMzMjAzMTIgMC4wMzEyNSwtMC40MDYyNSAwLjA4MjAzMTMsLTAuNzY5NTMxMyAwLjMzMjAzMTI2LC0xLjUwNzgxMjUgMC43NDk5OTk5OCwtMi4yMTg3NTAxIDAuNDE0MDYyNiwtMC43MDcwMzEyIDAuOTE0MDYyNiwtMS4yODEyNSAxLjUwMDAwMDEsLTEuNzE4NzUgMC42OTUzMTI1LC0wLjUzOTA2MjYgMS40Mjk2ODc2LC0wLjgxMjUwMDEgMi4yMDMxMjUxLC0wLjgxMjUwMDEgMC42MDE1NjI1LDAgMS4xNDg0Mzc2LDAuMjkyOTY4OCAxLjY0MDYyNTEsMC44NzUwMDAxIDAuMTk1MzEyNSwtMC4zNTE1NjI2IDAuNDcyNjU2MiwtMC41MzEyNTAxIDAuODI4MTI1LC0wLjUzMTI1MDEgMC4xNTYyNSwwIDAuMjk2ODc1LDAuMDQ2ODc1IDAuNDIxODc1LDAuMTQwNjI1IDAuMTI1LDAuMDkzNzUgMC4xODc1LDAuMjE0ODQzOCAwLjE4NzUsMC4zNTkzNzUxIHogbSAtNi4wMTU2MjUyLDUuMjM0Mzc1MiBjIDAsMC40Mzc1IDAuMDkzNzUsMC43OTI5Njg4IDAuMjgxMjUsMS4wNjI1MDAwMiAwLjE4NzUsMC4yNjE3MTg3NiAwLjQ2MDkzNzUsMC4zOTA2MjUwMiAwLjgyODEyNSwwLjM5MDYyNTAyIDAuMzUxNTYyNSwwIDAuNzI2NTYyNiwtMC4xNDQ1MzEyNiAxLjEyNTAwMDEsLTAuNDM3NTAwMDIgMC4xNDQ1MzEyLC0wLjA5Mzc1IDAuMzQzNzUsLTAuMjczNDM3NTIgMC41OTM3NSwtMC41NDY4NzUwMiAwLjI1LC0wLjI2OTUzMTMgMC4zOTQ1MzEzLC0wLjQ1MzEyNSAwLjQzNzUsLTAuNTQ2ODc1IDAuMDMxMjUsLTAuMDM5MDYzIDAuMTk1MzEyNSwtMC42ODc1MDAxIDAuNSwtMS45Mzc1MDAxIDAuMzEyNTAwMSwtMS4yNTAwMDAxIDAuNDY4NzUwMSwtMS45MjE4NzUxIDAuNDY4NzUwMSwtMi4wMTU2MjUxIDAsLTAuMTQ0NTMxMiAtMC4wNzAzMTIsLTAuMzUxNTYyNSAtMC4yMDMxMjUxLC0wLjYyNSAtMC4yNjE3MTg3LC0wLjUxOTUzMTMgLTAuNjQwNjI1LC0wLjc4MTI1IC0xLjE0MDYyNSwtMC43ODEyNSAtMC40OTIxODc1LDAgLTAuOTE3OTY4OCwwLjIxMDkzNzUgLTEuMjgxMjUwMSwwLjYyNSAtMC4zNjcxODc1LDAuNDA2MjUgLTAuNjQ4NDM3NSwwLjg4MjgxMjUgLTAuODQzNzUsMS40MjE4NzUgLTAuMzU1NDY4OCwwLjk0OTIxODggLTAuNjA1NDY4OCwxLjkzNzUwMDEgLTAuNzUsMi45Njg3NTAyIDAsMC4wNDI5NjkgLTAuMDA3ODEsMC4xMDkzNzUgLTAuMDE1NjI1LDAuMjAzMTI1IDAsMC4wOTM3NSAwLDAuMTY3OTY4NyAwLDAuMjE4NzUgeiBtIDAsMCIgaWQ9InBhdGg4NiIvPiYjeGE7ICAgIDxwYXRoIGNsaXAtcGF0aD0idXJsKCNjbGlwUGF0aDg5KSIgdHJhbnNmb3JtPSJtYXRyaXgoMC4yNjQ1ODMzMywwLDAsMC4yNjQ1ODMzMywzLjY1ODY4OTUsNC42MTE2MDAxKSIgYXJpYS1sYWJlbD0iYiIgc3R5bGU9ImZpbGw6IzAwMDAwMDtmaWxsLW9wYWNpdHk6MTtmaWxsLXJ1bGU6bm9uemVybztzdHJva2U6bm9uZSIgZD0ibSAxLjEyNTAwNDcsLTguNjcxODU3MyBjIDAuMDA3ODEsMCAwLjMxNjQwNjMsLTAuMDE5NTMxIDAuOTIxODc1MSwtMC4wNjI1IDAuNjAxNTYyNSwtMC4wNTA3ODEgMC45MTAxNTYzLC0wLjA3ODEyNSAwLjkyMTg3NSwtMC4wNzgxMjUgMC4xMDE1NjI1LDAgMC4xNTYyNSwwLjAzOTA2MyAwLjE1NjI1LDAuMTA5Mzc1IDAsMC4wNzQyMTkgLTAuMTUyMzQzNywwLjY5OTIxODggLTAuNDUzMTI1LDEuODc1MDAwMSAtMC4yOTI5Njg4LDEuMTY3OTY4OCAtMC40Mzc1LDEuNzU3ODEyNiAtMC40Mzc1LDEuNzY1NjI1MSAwLDAuMDIzNDM3IDAuMDIzNDM3LDAuMDA3ODEgMC4wNzgxMjUsLTAuMDQ2ODc1IDAuMjg5MDYyNSwtMC4yMzgyODEzIDAuNjEzMjgxMywtMC4zOTg0Mzc1IDAuOTY4NzUsLTAuNDg0Mzc1IDAuMTAxNTYyNSwtMC4wMDc4MSAwLjIwNzAzMTMsLTAuMDE1NjI1IDAuMzEyNSwtMC4wMTU2MjUgMC4xMTMyODEzLDAgMC4yMTg3NTAxLDAuMDA3ODEgMC4zMTI1MDAxLDAuMDE1NjI1IDAuNDQ1MzEyNSwwLjEwNTQ2ODcgMC44MDA3ODEyLDAuMzM1OTM3NSAxLjA2MjUsMC42ODc1IDAuMjU3ODEyNSwwLjM1NTQ2ODcgMC4zOTA2MjUsMC44MDQ2ODc1IDAuMzkwNjI1LDEuMzQzNzUgMCwwLjk0OTIxODggLTAuMzM1OTM3NSwxLjgwNDY4NzYgLTEsMi41NjI1MDAxNCAtMC42Njc5Njg4LDAuNzYxNzE4NzggLTEuMzg2NzE4OCwxLjE0MDYyNTA1IC0yLjE1NjI1MDEsMS4xNDA2MjUwNSAtMC4yNSwwIC0wLjQ4NDM3NSwtMC4wNTg1OTM3NSAtMC43MDMxMjUsLTAuMTcxODc1MDEgQyAwLjg0Mzc1NDczLC0wLjMyMDI5NDQzIDAuNTE1NjI5NzEsLTAuOTQ1Mjk0NDYgMC41MTU2Mjk3MSwtMS45MDYyMzIgYyAwLC0wLjI1IDAuMDE5NTMxMywtMC40ODgyODEzIDAuMDYyNSwtMC43MTg3NSAwLC0wLjAwNzgxIDAuMjEwOTM3NSwtMC44Nzg5MDYzIDAuNjQwNjI0OTksLTIuNjA5Mzc1MSBsIDAuNjU2MjUwMSwtMi41OTM3NTAxIGMgMC4wMDc4MSwtMC4xMTMyODEzIC0wLjAyMzQzNywtMC4xODc1MDAxIC0wLjA5Mzc1LC0wLjIxODc1MDEgLTAuMDc0MjE5LC0wLjAzMTI1IC0wLjE5NTMxMjUsLTAuMDQ2ODc1IC0wLjM1OTM3NSwtMC4wNDY4NzUgLTAuMDYyNSwwIC0wLjEwOTM3NTEsMCAtMC4xNDA2MjUxLDAgLTAuMTc5Njg3NSwwIC0wLjI3NzM0MzcsLTAuMDA3ODEgLTAuMjk2ODc0OTgsLTAuMDMxMjUgLTAuMDU0Njg3NSwtMC4wMzkwNjMgLTAuMDU4NTkzOCwtMC4xNDQ1MzEyIC0wLjAxNTYyNSwtMC4zMTI1IDAuMDMxMjUsLTAuMTEzMjgxMiAwLjA1NDY4NzUsLTAuMTc5Njg3NSAwLjA3ODEyNSwtMC4yMDMxMjUgMC4wMzEyNSwtMC4wMTk1MzEgMC4wNTQ2ODcsLTAuMDMxMjUgMC4wNzgxMjUsLTAuMDMxMjUgeiBtIDMuMTQwNjI1Miw0LjU0Njg3NTIgYyAwLC0wLjY3NTc4MTMgLTAuMjU3ODEyNSwtMS4wMTU2MjUgLTAuNzY1NjI1MSwtMS4wMTU2MjUgLTAuMDIzNDM3LDAgLTAuMDU0Njg3LDAuMDA3ODEgLTAuMDkzNzUsMC4wMTU2MjUgLTAuMDMxMjUsMCAtMC4wNTQ2ODcsMCAtMC4wNjI1LDAgLTAuNDM3NSwwLjA4NTkzNyAtMC44NTU0Njg4LDAuMzg2NzE4NyAtMS4yNSwwLjkwNjI1IC0wLjAxMTcxOSwwLjAyMzQzNyAtMC4wMzEyNSwwLjA0Njg3NSAtMC4wNjI1LDAuMDc4MTI1IGwgLTAuMDMxMjUsMC4wNDY4NzUgYyAwLDAuMDExNzE5IC0wLjA3ODEyNSwwLjMyMDMxMjUgLTAuMjM0Mzc1LDAuOTIxODc1MSAtMC4xNDg0Mzc1LDAuNTkzNzUgLTAuMjI2NTYyNSwwLjkzMzU5MzcgLTAuMjM0Mzc1LDEuMDE1NjI1IC0wLjA1NDY4NywwLjI2MTcxODggLTAuMDc4MTI1LDAuNDk2MDkzOCAtMC4wNzgxMjUsMC43MDMxMjUgMCwwLjQwNjI1IDAuMDk3NjU2LDAuNzE0ODQzOCAwLjI5Njg3NSwwLjkyMTg3NTA2IDAuMTMyODEyNSwwLjEzNjcxODc2IDAuMzA0Njg3NSwwLjIwMzEyNTAxIDAuNTE1NjI1LDAuMjAzMTI1MDEgMC4yODEyNSwwIDAuNTYyNSwtMC4xMzI4MTI1MSAwLjg0Mzc1LC0wLjQwNjI1MDAyIDAuMjE4NzUsLTAuMTk1MzEyNTEgMC4zOTA2MjUsLTAuNDM3NTAwMDUgMC41MTU2MjUsLTAuNzE4NzUwMDUgMC4xMzI4MTI1LC0wLjI4MTI1IDAuMjczNDM3NiwtMC43MjI2NTYzIDAuNDIxODc1MSwtMS4zMjgxMjUgMC4xNDQ1MzEyLC0wLjYxMzI4MTMgMC4yMTg3NSwtMS4wNjI1MDAxIDAuMjE4NzUsLTEuMzQzNzUwMSB6IG0gMCwwIiBpZD0icGF0aDg4Ii8+JiN4YTsgIDwvZz4mI3hhOzwvc3ZnPg==;connectable=0;allowArrows=0;rotatable=0;html=1;align=left;labelPosition=right;verticalLabelPosition=middle;verticalAlign=middle;fontSize=18;labelBackgroundColor=#E6E6E6;fontColor=#000000;labelBorderColor=none;imageBackground=#FFFFFF;imageBorder=default;shadow=0;spacingLeft=12.5;" parent="1" vertex="1">
          <mxGeometry x="50" y="736" width="50" height="50" as="geometry" />
        </mxCell>
        <mxCell id="a21QgjTOZl95tkyDf_ZO-21" value="&lt;pre style=&quot;line-height: 0%;&quot;&gt;&amp;nbsp; &amp;nbsp;&amp;nbsp;\sqrt x&amp;nbsp; &amp;nbsp;&amp;nbsp;&lt;/pre&gt;" style="shape=image;aspect=fixed;image=data:image/svg+xml,PD94bWwgdmVyc2lvbj0iMS4wIiBlbmNvZGluZz0iVVRGLTgiIHN0YW5kYWxvbmU9Im5vIj8+CjwhLS0gQ3JlYXRlZCB3aXRoIElua3NjYXBlIChodHRwOi8vd3d3Lmlua3NjYXBlLm9yZy8pIC0tPgoKPHN2ZwogICB3aWR0aD0iMjQiCiAgIGhlaWdodD0iMjQiCiAgIHZpZXdCb3g9IjAgMCA2LjM0OTk5OTkgNi4zNDk5OTk5IgogICB2ZXJzaW9uPSIxLjEiCiAgIGlkPSJzdmcxIgogICBpbmtzY2FwZTp2ZXJzaW9uPSIxLjMuMiAoMDkxZTIwZSwgMjAyMy0xMS0yNSwgY3VzdG9tKSIKICAgc29kaXBvZGk6ZG9jbmFtZT0ic3FydC5zdmciCiAgIHhtbG5zOmlua3NjYXBlPSJodHRwOi8vd3d3Lmlua3NjYXBlLm9yZy9uYW1lc3BhY2VzL2lua3NjYXBlIgogICB4bWxuczpzb2RpcG9kaT0iaHR0cDovL3NvZGlwb2RpLnNvdXJjZWZvcmdlLm5ldC9EVEQvc29kaXBvZGktMC5kdGQiCiAgIHhtbG5zPSJodHRwOi8vd3d3LnczLm9yZy8yMDAwL3N2ZyIKICAgeG1sbnM6c3ZnPSJodHRwOi8vd3d3LnczLm9yZy8yMDAwL3N2ZyI+CiAgPHNvZGlwb2RpOm5hbWVkdmlldwogICAgIGlkPSJuYW1lZHZpZXcxIgogICAgIHBhZ2Vjb2xvcj0iI2ZmZmZmZiIKICAgICBib3JkZXJjb2xvcj0iIzAwMDAwMCIKICAgICBib3JkZXJvcGFjaXR5PSIwLjI1IgogICAgIGlua3NjYXBlOnNob3dwYWdlc2hhZG93PSIyIgogICAgIGlua3NjYXBlOnBhZ2VvcGFjaXR5PSIwLjAiCiAgICAgaW5rc2NhcGU6cGFnZWNoZWNrZXJib2FyZD0iMCIKICAgICBpbmtzY2FwZTpkZXNrY29sb3I9IiNkMWQxZDEiCiAgICAgaW5rc2NhcGU6ZG9jdW1lbnQtdW5pdHM9Im1tIgogICAgIGlua3NjYXBlOnpvb209IjE2LjM5NTgzNCIKICAgICBpbmtzY2FwZTpjeD0iMTIuNDExNjkiCiAgICAgaW5rc2NhcGU6Y3k9IjEwLjU4MTk1NyIKICAgICBpbmtzY2FwZTp3aW5kb3ctd2lkdGg9IjE5MjAiCiAgICAgaW5rc2NhcGU6d2luZG93LWhlaWdodD0iMTAwMSIKICAgICBpbmtzY2FwZTp3aW5kb3cteD0iLTkiCiAgICAgaW5rc2NhcGU6d2luZG93LXk9Ii05IgogICAgIGlua3NjYXBlOndpbmRvdy1tYXhpbWl6ZWQ9IjEiCiAgICAgaW5rc2NhcGU6Y3VycmVudC1sYXllcj0ibGF5ZXIxIiAvPgogIDxkZWZzCiAgICAgaWQ9ImRlZnMxIj4KICAgIDxjbGlwUGF0aAogICAgICAgY2xpcFBhdGhVbml0cz0idXNlclNwYWNlT25Vc2UiCiAgICAgICBpZD0iY2xpcFBhdGg5NSI+CiAgICAgIDxwYXRoCiAgICAgICAgIGQ9Im0gMzIxLjg3NSwxNDEyLjUgaCA4MS4yNSB2IDYyLjUgaCAtODEuMjUgeiIKICAgICAgICAgdHJhbnNmb3JtPSJtYXRyaXgoMTcuNjM4Mjc4LDAsMCwxNy42MzgyNzgsLTU2NzcuMzIwOSwtMjQ5MTQuMDY3KSIKICAgICAgICAgY2xpcC1ydWxlPSJldmVub2RkIgogICAgICAgICBpZD0icGF0aDk1IiAvPgogICAgPC9jbGlwUGF0aD4KICAgIDxjbGlwUGF0aAogICAgICAgY2xpcFBhdGhVbml0cz0idXNlclNwYWNlT25Vc2UiCiAgICAgICBpZD0iY2xpcFBhdGg5MyI+CiAgICAgIDxwYXRoCiAgICAgICAgIGQ9Ik0gMTE1LjYyNSwxMTUuNjI1IEggMjQzMi4zMjQyIFYgMzE4Mi4zMjQyIEggMTE1LjYyNSBaIgogICAgICAgICB0cmFuc2Zvcm09Im1hdHJpeCgwLjMxOTk5OTk5LDAsMCwwLjMxOTk5OTk5LC0xMTguMTA5MzcsLTQ2Ny45OTk5OCkiCiAgICAgICAgIGNsaXAtcnVsZT0iZXZlbm9kZCIKICAgICAgICAgaWQ9InBhdGg5MyIgLz4KICAgIDwvY2xpcFBhdGg+CiAgPC9kZWZzPgogIDxnCiAgICAgaW5rc2NhcGU6bGFiZWw9IkxheWVyIDEiCiAgICAgaW5rc2NhcGU6Z3JvdXBtb2RlPSJsYXllciIKICAgICBpZD0ibGF5ZXIxIj4KICAgIDxwYXRoCiAgICAgICBpZD0icGF0aDkyIgogICAgICAgZD0iTSAxLjA0Njg4LC01LjA0Njg1NTcgQyAwLjk3MjY2MTIsLTUuMTE3MTY3NyAwLjkzNzUwNDk2LC01LjE4NzQ4MDcgMC45Mzc1MDQ5NiwtNS4yNDk5ODA3IDAuOTg4Mjg2MjYsLTUuNTcwMjkzMiAxLjE3NTc4NjIsLTUuOTg4MjYyIDEuNTAwMDA1LC02LjQ5OTk4MDggYyAwLjU3MDMxMjUsLTAuODUxNTYyNSAxLjI4OTA2MjUsLTEuMzQ3NjU2MyAyLjE1NjI1MDEsLTEuNDg0Mzc1IDAuMTY0MDYyNSwtMC4wMzEyNSAwLjI4OTA2MjUsLTAuMDQ2ODc1IDAuMzc1LC0wLjA0Njg3NSAwLjQyNTc4MTMsMCAwLjgxNjQwNjMsMC4xMDkzNzUgMS4xNzE4NzUsMC4zMjgxMjUgMC4zNTE1NjI2LDAuMjE4NzUgMC42MDkzNzUxLDAuNDk2MDkzNyAwLjc2NTYyNTEsMC44MjgxMjUgMC4xNTYyNSwtMC4yMDcwMzEyIDAuMjUzOTA2MiwtMC4zMzU5Mzc1IDAuMjk2ODc1LC0wLjM5MDYyNSAwLjQ0NTMxMjUsLTAuNTA3ODEyNSAwLjk2MDkzNzUsLTAuNzY1NjI1IDEuNTQ2ODc1LC0wLjc2NTYyNSAwLjQ4ODI4MTMsMCAwLjg5MDYyNTEsMC4xNDg0Mzc1IDEuMjAzMTI1MSwwLjQzNzUgMC4zMTI1LDAuMjgxMjUgMC40Njg3NSwwLjYzMjgxMjUgMC40Njg3NSwxLjA0Njg3NSAwLDAuMzc1IC0wLjEwOTM3NSwwLjY4NzUwMDEgLTAuMzI4MTI1LDAuOTM3NTAwMSAtMC4yMTA5Mzc1LDAuMjUgLTAuNDkyMTg3NSwwLjM3NSAtMC44NDM3NSwwLjM3NSAtMC4yMzA0Njg4LDAgLTAuNDE3OTY4OCwtMC4wNjI1IC0wLjU2MjUwMDEsLTAuMTg3NSAtMC4xNDg0Mzc1LC0wLjEzMjgxMjUgLTAuMjE4NzUsLTAuMzEyNSAtMC4yMTg3NSwtMC41MzEyNSAwLC0wLjU2MjUwMDEgMC4zMDA3ODEzLC0wLjk0MTQwNjMgMC45MDYyNTAxLC0xLjE0MDYyNTEgMCwtMC4wMTk1MzEgLTAuMDYyNSwtMC4wNjI1IC0wLjE4NzUsLTAuMTI1IC0wLjEyNSwtMC4wNzAzMTIgLTAuMzA0Njg3NSwtMC4xMDkzNzUgLTAuNTMxMjUwMSwtMC4xMDkzNzUgLTAuMTU2MjUsMCAtMC4yNzM0Mzc1LDAuMDExNzE5IC0wLjM0Mzc1LDAuMDMxMjUgLTAuNDYwOTM3NSwwLjE4NzUgLTAuNzk2ODc1LDAuNTg5ODQzOCAtMS4wMTU2MjUsMS4yMDMxMjUgLTAuMDQyOTY5LDAuMDkzNzUgLTAuMjE4NzUsMC43NjU2MjUxIC0wLjUzMTI1LDIuMDE1NjI1MSAtMC4zMTI1LDEuMjUwMDAwMSAtMC40ODQzNzUxLDEuOTYwOTM3NiAtMC41MTU2MjUxLDIuMTI1MDAwMSAtMC4wMzEyNSwwLjE3OTY4NzUgLTAuMDQ2ODc1LDAuMzU1NDY4OCAtMC4wNDY4NzUsMC41MzEyNSAwLDAuMjkyOTY4OCAwLjA4MjAzMSwwLjUyNzM0MzgxIDAuMjUwMDAwMSwwLjcwMzEyNTA3IDAuMTc1NzgxMiwwLjE2Nzk2ODc2IDAuMzk4NDM3NSwwLjI1MDAwMDAxIDAuNjcxODc1LDAuMjUwMDAwMDEgMC41MDc4MTI1LDAgMC45Njg3NSwtMC4yMTA5Mzc1MSAxLjM3NSwtMC42NDA2MjQ5OCAwLjQxNDA2MjYsLTAuNDM3NTAwMSAwLjY5NTMxMjYsLTAuOTE0MDYyNiAwLjg0Mzc1MDEsLTEuNDM3NTAwMSAwLjAzMTI1LC0wLjExMzI4MTMgMC4wNjI1LC0wLjE3OTY4NzUgMC4wOTM3NSwtMC4yMDMxMjUgMC4wMzkwNjMsLTAuMDE5NTMxIDAuMTQ0NTMxMiwtMC4wMzEyNSAwLjMxMjUsLTAuMDMxMjUgMC4yMjY1NjI1LDAgMC4zNDM3NSwwLjA1NDY4NyAwLjM0Mzc1LDAuMTU2MjUgMCwwLjAxMTcxOSAtMC4wMTU2MjUsMC4wNzQyMTkgLTAuMDQ2ODc1LDAuMTg3NSAtMC4xOTkyMTg4LDAuNzUgLTAuNjIxMDkzOCwxLjQwNjI1MDEgLTEuMjY1NjI1MSwxLjk2ODc1MDA4IC0wLjU3NDIxODcsMC40NDkyMTg3NyAtMS4xNzE4NzUsMC42NzE4NzUwMyAtMS43OTY4NzUsMC42NzE4NzUwMyAtMC44NDM3NTAxLDAgLTEuNDg0Mzc1MSwtMC4zNzg5MDYyNyAtMS45MjE4NzUxLC0xLjE0MDYyNTA1IC0wLjM1NTQ2ODgsMC41NDI5Njg3NyAtMC44MDQ2ODc1LDAuOTAyMzQzNzkgLTEuMzQzNzUwMSwxLjA3ODEyNTA1IC0wLjExNzE4NzUsMC4wMzEyNSAtMC4yNzM0Mzc1LDAuMDQ2ODc1IC0wLjQ2ODc1LDAuMDQ2ODc1IC0wLjcxMDkzNzUsMCAtMS4yMTA5Mzc1LC0wLjI1MDAwMDAxIC0xLjUwMDAwMDA0LC0wLjc1MDAwMDAzIEMgMC42OTUzMTc0NSwtMC43Njk1MTE3OCAwLjY0MDYyOTk1LC0xLjAxNTYwNTUgMC42NDA2Mjk5NSwtMS4yOTY4NTU2IGMgMCwtMC4zNTE1NjI1IDAuMTA5Mzc1LC0wLjY1NjI1IDAuMzI4MTI1MDEsLTAuOTA2MjUgMC4yMTg3NTAwNCwtMC4yNTc4MTI1IDAuNDkyMTg3NTQsLTAuMzkwNjI1IDAuODI4MTI1MDQsLTAuMzkwNjI1IDAuNTE5NTMxMywwIDAuNzgxMjUsMC4yNTc4MTI1IDAuNzgxMjUsMC43NjU2MjUgMCwwLjQ0OTIxODggLTAuMjE0ODQzNywwLjc3MzQzNzYgLTAuNjQwNjI1LDAuOTY4NzUwMDYgLTAuMDIzNDM3LDAuMDIzNDM3NSAtMC4wNTQ2ODcsMC4wNDI5Njg4IC0wLjA5Mzc1LDAuMDYyNSAtMC4wMzEyNSwwLjAxMTcxODggLTAuMDYyNSwwLjAyMzQzNzUgLTAuMDkzNzUsMC4wMzEyNSAtMC4wMjM0MzcsMC4wMTE3MTg4IC0wLjAzOTA2MywwLjAxNTYyNSAtMC4wNDY4NzUsMC4wMTU2MjUgbCAtMC4wNDY4NzUsMC4wMzEyNSBjIDAsMC4wMzEyNSAwLjA4NTkzNywwLjA4NTkzNzUgMC4yNjU2MjUsMC4xNTYyNTAwMSAwLjE0NDUzMTMsMC4wNjI1IDAuMzAwNzgxMywwLjA5Mzc1IDAuNDY4NzUsMC4wOTM3NSAwLjQzNzUsMCAwLjgxMjUwMDEsLTAuMjczNDM3NTEgMS4xMjUwMDAxLC0wLjgyODEyNTA3IDAuMTMyODEyNSwtMC4yMDcwMzEyIDAuMzc1LC0wLjk5MjE4NzUgMC43MTg3NSwtMi4zNTkzNzUxIDAuMDcwMzEyLC0wLjI2OTUzMTIgMC4xNDg0Mzc1LC0wLjU3MDMxMjUgMC4yMzQzNzUsLTAuOTA2MjUgMC4wODIwMzEsLTAuMzQzNzUgMC4xNDQ1MzEzLC0wLjYwMTU2MjUgMC4xODc1LC0wLjc4MTI1IDAuMDM5MDYzLC0wLjE4NzUgMC4wNjY0MDYsLTAuMzAwNzgxMyAwLjA3ODEyNSwtMC4zNDM3NSAwLjA2MjUsLTAuMzIwMzEyNiAwLjA5Mzc1LC0wLjU1NDY4NzYgMC4wOTM3NSwtMC43MDMxMjUxIDAsLTAuMjg5MDYyNSAtMC4wNzgxMjUsLTAuNTE5NTMxMiAtMC4yMzQzNzUsLTAuNjg3NSAtMC4xNTYyNSwtMC4xNjQwNjI1IC0wLjM3NSwtMC4yNSAtMC42NTYyNSwtMC4yNSAtMC41NDI5Njg4LDAgLTEuMDE1NjI1MSwwLjIxMDkzNzUgLTEuNDIxODc1MSwwLjYyNSAtMC4zOTg0Mzc1LDAuNDE3OTY4OCAtMC42NzE4NzUsMC44OTg0Mzc2IC0wLjgyODEyNSwxLjQzNzUwMDEgLTAuMDIzNDM3LDAuMTA1NDY4NyAtMC4wNDY4NzUsMC4xNjc5Njg3IC0wLjA3ODEyNSwwLjE4NzUgLTAuMDMxMjUsMC4wMjM0MzcgLTAuMTMyODEyNSwwLjAzMTI1IC0wLjI5Njg3NSwwLjAzMTI1IHogbSAwLDAiCiAgICAgICBzdHlsZT0iZmlsbDojMDAwMDAwO2ZpbGwtb3BhY2l0eToxO2ZpbGwtcnVsZTpub256ZXJvO3N0cm9rZTpub25lIgogICAgICAgYXJpYS1sYWJlbD0iIHgiCiAgICAgICB0cmFuc2Zvcm09Im1hdHJpeCgwLjE5ODQzNzUsMCwwLDAuMTk4NDM3NSwzLjQ2Mzk2OTgsNC4yNjE5MjQ1KSIKICAgICAgIGNsaXAtcGF0aD0idXJsKCNjbGlwUGF0aDkzKSIgLz4KICAgIDxwYXRoCiAgICAgICBpZD0icGF0aDk0IgogICAgICAgZD0ibSA5NSw3MDIgYyAtMi42OTk5OTcsMCAtNy4xNjk5OTgsLTIuNzAwMDEgLTEzLjUsLTggLTUuODAwMDAzLC01LjI5OTk5IC05LjUsLTEwIC05LjUsLTE0IDAsLTIgMC4zMDAwMDMsLTMuMjk5OTkgMSwtNCAxLjMwMDAwMywtMi43MDAwMSAyMy44MzAwMDIsLTIwLjcwMDAxIDY3LjUsLTU0IDQ0LjIsLTMzLjI5OTk5IDY1LjgsLTUwLjI5OTk5IDY2LjUsLTUxIDEuMywtMS4yOTk5OSAzLC0yIDUsLTIgNC43LDAgOC43LDMuMjk5OTkgMTIsMTAgMy4zLDYuNzAwMDEgMTczLDM3OCAxNzMsMzc4IDAuNzAwMDEsMCAzNS4yOTk5OSwtNzEgMTA0LC0yMTMgQyA1NjkuNzAwMDEsNjAyIDYzOC41LDQ1OSA3MDcuNSwzMTUgNzc2LjUsMTcxIDgxMiw5Ny4zMDAwMDMgODE0LDk0IGMgNS4yOTk5OSwtOS4zMDAwMDMgMTIsLTE0IDIwLC0xNCBoIDM5OTE2NiB2IDQwIEggODQ1LjI3MjQgYyAwLDAgLTIyNS4yNzIwMyw0NjcgLTIyNS4yNzIwMyw0NjcgMCwwIC0yMzUsNDg2IC0yMzUsNDg2IC0yLjcwMDAyLDQuNyAtOSw3IC0xOSw3IC02LDAgLTEwLC0xIC0xMiwtMyAtMiwtMiAtMTk0LC00MjIgLTE5NCwtNDIyIDAsMCAtNjUuMDAwMDA0LDQ3IC02NS4wMDAwMDQsNDcgeiBNIDgzNCw4MCBoIDQwMDAwMCB2IDQwIEggODM0IFoiCiAgICAgICBzdHlsZT0iZmlsbDojMDAwMDAwO2ZpbGwtb3BhY2l0eToxO2ZpbGwtcnVsZTpub256ZXJvO3N0cm9rZTpub25lIgogICAgICAgdHJhbnNmb3JtPSJtYXRyaXgoMC4wMDM2MDAxMywwLDAsMC4wMDM2MDAxMywwLjQ2NTcwNDMxLDEuMDg2OTI0NikiCiAgICAgICBjbGlwLXBhdGg9InVybCgjY2xpcFBhdGg5NSkiIC8+CiAgPC9nPgo8L3N2Zz4K;connectable=0;allowArrows=0;rotatable=0;html=1;align=left;labelPosition=right;verticalLabelPosition=middle;verticalAlign=middle;fontSize=18;labelBackgroundColor=#E6E6E6;fontColor=#000000;labelBorderColor=none;imageBackground=#FFFFFF;imageBorder=default;shadow=0;spacingLeft=12.5;" parent="1" vertex="1">
          <mxGeometry x="312.5" y="307" width="50" height="50" as="geometry" />
        </mxCell>
        <mxCell id="a21QgjTOZl95tkyDf_ZO-22" value="&lt;pre style=&quot;line-height: 0%;&quot;&gt;&amp;nbsp;&amp;nbsp;&amp;nbsp;\sqrt[n] x&amp;nbsp; &amp;nbsp;&lt;/pre&gt;" style="shape=image;aspect=fixed;image=data:image/svg+xml,PD94bWwgdmVyc2lvbj0iMS4wIiBlbmNvZGluZz0iVVRGLTgiIHN0YW5kYWxvbmU9Im5vIj8+CjwhLS0gQ3JlYXRlZCB3aXRoIElua3NjYXBlIChodHRwOi8vd3d3Lmlua3NjYXBlLm9yZy8pIC0tPgoKPHN2ZwogICB3aWR0aD0iMjQiCiAgIGhlaWdodD0iMjQiCiAgIHZpZXdCb3g9IjAgMCA2LjM0OTk5OTkgNi4zNDk5OTk5IgogICB2ZXJzaW9uPSIxLjEiCiAgIGlkPSJzdmcxIgogICBpbmtzY2FwZTp2ZXJzaW9uPSIxLjMuMiAoMDkxZTIwZSwgMjAyMy0xMS0yNSwgY3VzdG9tKSIKICAgc29kaXBvZGk6ZG9jbmFtZT0ic3FydC1uLnN2ZyIKICAgeG1sbnM6aW5rc2NhcGU9Imh0dHA6Ly93d3cuaW5rc2NhcGUub3JnL25hbWVzcGFjZXMvaW5rc2NhcGUiCiAgIHhtbG5zOnNvZGlwb2RpPSJodHRwOi8vc29kaXBvZGkuc291cmNlZm9yZ2UubmV0L0RURC9zb2RpcG9kaS0wLmR0ZCIKICAgeG1sbnM9Imh0dHA6Ly93d3cudzMub3JnLzIwMDAvc3ZnIgogICB4bWxuczpzdmc9Imh0dHA6Ly93d3cudzMub3JnLzIwMDAvc3ZnIj4KICA8c29kaXBvZGk6bmFtZWR2aWV3CiAgICAgaWQ9Im5hbWVkdmlldzEiCiAgICAgcGFnZWNvbG9yPSIjZmZmZmZmIgogICAgIGJvcmRlcmNvbG9yPSIjMDAwMDAwIgogICAgIGJvcmRlcm9wYWNpdHk9IjAuMjUiCiAgICAgaW5rc2NhcGU6c2hvd3BhZ2VzaGFkb3c9IjIiCiAgICAgaW5rc2NhcGU6cGFnZW9wYWNpdHk9IjAuMCIKICAgICBpbmtzY2FwZTpwYWdlY2hlY2tlcmJvYXJkPSIwIgogICAgIGlua3NjYXBlOmRlc2tjb2xvcj0iI2QxZDFkMSIKICAgICBpbmtzY2FwZTpkb2N1bWVudC11bml0cz0ibW0iCiAgICAgaW5rc2NhcGU6em9vbT0iMzIuNzkxNjY3IgogICAgIGlua3NjYXBlOmN4PSIxMi4wMzA0OTUiCiAgICAgaW5rc2NhcGU6Y3k9IjEyIgogICAgIGlua3NjYXBlOndpbmRvdy13aWR0aD0iMTkyMCIKICAgICBpbmtzY2FwZTp3aW5kb3ctaGVpZ2h0PSIxMDAxIgogICAgIGlua3NjYXBlOndpbmRvdy14PSItOSIKICAgICBpbmtzY2FwZTp3aW5kb3cteT0iLTkiCiAgICAgaW5rc2NhcGU6d2luZG93LW1heGltaXplZD0iMSIKICAgICBpbmtzY2FwZTpjdXJyZW50LWxheWVyPSJsYXllcjEiIC8+CiAgPGRlZnMKICAgICBpZD0iZGVmczEiPgogICAgPGNsaXBQYXRoCiAgICAgICBjbGlwUGF0aFVuaXRzPSJ1c2VyU3BhY2VPblVzZSIKICAgICAgIGlkPSJjbGlwUGF0aDk3Ij4KICAgICAgPHBhdGgKICAgICAgICAgZD0iTSAxMTUuNjI1LDExNS42MjUgSCAyNDMyLjMyNDIgViAzMTgyLjMyNDIgSCAxMTUuNjI1IFoiCiAgICAgICAgIHRyYW5zZm9ybT0ibWF0cml4KDAuMzE5OTk5OTksMCwwLDAuMzE5OTk5OTksLTE1NS4yMTg3NCwtNDYxLjk5OTk4KSIKICAgICAgICAgY2xpcC1ydWxlPSJldmVub2RkIgogICAgICAgICBpZD0icGF0aDk3IiAvPgogICAgPC9jbGlwUGF0aD4KICAgIDxjbGlwUGF0aAogICAgICAgY2xpcFBhdGhVbml0cz0idXNlclNwYWNlT25Vc2UiCiAgICAgICBpZD0iY2xpcFBhdGgxMDEiPgogICAgICA8cGF0aAogICAgICAgICBkPSJNIDQ3MS44NzUsMTQxMi41IEggNTUwIHYgNjIuNSBoIC03OC4xMjUgeiIKICAgICAgICAgdHJhbnNmb3JtPSJtYXRyaXgoMTcuNjM4Mjc4LDAsMCwxNy42MzgyNzgsLTgzMjMuMDYyMiwtMjQ5MTQuMDY3KSIKICAgICAgICAgY2xpcC1ydWxlPSJldmVub2RkIgogICAgICAgICBpZD0icGF0aDEwMSIgLz4KICAgIDwvY2xpcFBhdGg+CiAgICA8Y2xpcFBhdGgKICAgICAgIGNsaXBQYXRoVW5pdHM9InVzZXJTcGFjZU9uVXNlIgogICAgICAgaWQ9ImNsaXBQYXRoOTkiPgogICAgICA8cGF0aAogICAgICAgICBkPSJNIDExNS42MjUsMTE1LjYyNSBIIDI0MzIuMzI0MiBWIDMxODIuMzI0MiBIIDExNS42MjUgWiIKICAgICAgICAgdHJhbnNmb3JtPSJtYXRyaXgoMC4zMTk5OTk5OSwwLDAsMC4zMTk5OTk5OSwtMTY1LjcwMzEyLC00NjcuOTk5OTgpIgogICAgICAgICBjbGlwLXJ1bGU9ImV2ZW5vZGQiCiAgICAgICAgIGlkPSJwYXRoOTkiIC8+CiAgICA8L2NsaXBQYXRoPgogIDwvZGVmcz4KICA8ZwogICAgIGlua3NjYXBlOmxhYmVsPSJMYXllciAxIgogICAgIGlua3NjYXBlOmdyb3VwbW9kZT0ibGF5ZXIiCiAgICAgaWQ9ImxheWVyMSI+CiAgICA8cGF0aAogICAgICAgaWQ9InBhdGg5NiIKICAgICAgIGQ9Im0gMC45ODQzODE1MSwwLjA5Mzc2OTI1IGMgLTAuMDg1OTM3NSwwIC0wLjE1NjI1MDAxLC0wLjAyMzQzNzUgLTAuMjE4NzUwMDEsLTAuMDYyNSAtMC4wNjI1LC0wLjAzOTA2MjUgLTAuMDkzNzUsLTAuMDk3NjU2MjUgLTAuMDkzNzUsLTAuMTcxODc1MDEgMCwtMC4wODIwMzEzIDAuMTEzMjgxMjUsLTAuNTc4MTI1MDIgMC4zNDM3NSwtMS40ODQzNzUwNCAwLjIyNjU2MjUsLTAuOTA2MjUwMSAwLjM0NzY1NjMsLTEuMzk4NDM3NiAwLjM1OTM3NSwtMS40ODQzNzUxIDAuMDA3ODEsLTAuMDMxMjUgMC4wMTU2MjUsLTAuMDk3NjU2IDAuMDE1NjI1LC0wLjIwMzEyNSAwLC0wLjIzODI4MTIgLTAuMDc0MjE5LC0wLjM1OTM3NSAtMC4yMTg3NSwtMC4zNTkzNzUgLTAuMTQ4NDM3NSwwIC0wLjI3NzM0Mzc1LDAuMTE3MTg3NSAtMC4zOTA2MjUsMC4zNDM3NSAtMC4wNjI1LDAuMTI1IC0wLjEyNTAwMDAxLDAuMzEyNSAtMC4xODc1MDAwMSwwLjU2MjUgLTAuMDMxMjUsMC4xMjUgLTAuMDQ2ODc1LDAuMTg3NSAtMC4wNDY4NzUsMC4xODc1IC0wLjAxMTcxODgsMC4wNDI5NjkgLTAuMDcwMzEyNSwwLjA2MjUgLTAuMTcxODc1MDEsMC4wNjI1IGggLTAuMTI1IGMgLTAuMDQyOTY4NywtMC4wMzkwNjMgLTAuMDYyNSwtMC4wNjY0MDYgLTAuMDYyNSwtMC4wNzgxMjUgMCwtMC4wMzEyNSAwLjAxNTYyNSwtMC4wOTc2NTYgMC4wNDY4NzUsLTAuMjAzMTI1IDAuMTc1NzgxMjUsLTAuNzA3MDMxMiAwLjQ1MzEyNTAyLC0xLjEwMTU2MjUgMC44MjgxMjUwMiwtMS4xODc1IDAuMDUwNzgxLC0wLjAwNzgxIDAuMTAxNTYyNSwtMC4wMTU2MjUgMC4xNTYyNSwtMC4wMTU2MjUgMC4zNjMyODEzLDAgMC42MjUsMC4xMzY3MTg3IDAuNzgxMjUwMSwwLjQwNjI1IDAuMDYyNSwwLjExNzE4NzUgMC4wOTM3NSwwLjE5OTIxODggMC4wOTM3NSwwLjI1IDAsMC4wMTE3MTkgMC4wMDM5MSwwLjAxNTYyNSAwLjAxNTYyNSwwLjAxNTYyNSBsIDAuMDkzNzUsLTAuMDkzNzUgYyAwLjM3NSwtMC4zODI4MTI1IDAuNzk2ODc1LC0wLjU3ODEyNSAxLjI2NTYyNSwtMC41NzgxMjUgMC4zMjAzMTI1LDAgMC41ODIwMzEzLDAuMDg1OTM3IDAuNzgxMjUsMC4yNSAwLjIwNzAzMTMsMC4xNTYyNSAwLjMxMjUwMDEsMC4zOTA2MjUgMC4zMTI1MDAxLDAuNzAzMTI1IDAsMC4xMzY3MTg4IC0wLjAxMTcxOSwwLjI1IC0wLjAzMTI1LDAuMzQzNzUgLTAuMDYyNSwwLjM0Mzc1MDEgLTAuMjMwNDY4OCwwLjg3NTAwMDEgLTAuNTAwMDAwMSwxLjU5Mzc1MDEgLTAuMTA1NDY4NywwLjI4MTI1MDAyIC0wLjE1NjI1LDAuNDk2MDkzNzcgLTAuMTU2MjUsMC42NDA2MjUwMyAwLDAuMTU2MjUwMDEgMC4wNTA3ODEsMC4yMzQzNzUwMSAwLjE1NjI1LDAuMjM0Mzc1MDEgMC4xOTUzMTI1LDAgMC4zNjcxODc2LC0wLjEwOTM3NSAwLjUxNTYyNTEsLTAuMzI4MTI1MDEgMC4xNTYyNSwtMC4yMTg3NTAwMSAwLjI2OTUzMTIsLTAuNDY4NzUwMDMgMC4zNDM3NSwtMC43NTAwMDAwMyAwLjAwNzgxLC0wLjA1MDc4MSAwLjA3MDMxMiwtMC4wNzgxMjUgMC4xODc1LC0wLjA3ODEyNSAwLjExMzI4MTIsMCAwLjE3MTg3NSwwLjAyMzQzNyAwLjE3MTg3NSwwLjA2MjUgMCwwLjA0Mjk2OSAtMC4wMTE3MTksMC4wOTM3NSAtMC4wMzEyNSwwLjE1NjI1IC0wLjE1NjI1LDAuNTYyNTAwMDIgLTAuNDM3NSwwLjk2MDkzNzU0IC0wLjg0Mzc1MDEsMS4xODc1MDAwNSAtMC4xMTcxODc1LDAuMDUwNzgxMjUgLTAuMjQ2MDkzNywwLjA3ODEyNSAtMC4zOTA2MjUsMC4wNzgxMjUgLTAuMjMwNDY4NywwIC0wLjQyOTY4NzUsLTAuMDc0MjE4NzUgLTAuNTkzNzUsLTAuMjE4NzUwMDEgLTAuMTQ4NDM3NSwtMC4xNjQwNjI1IC0wLjIxODc1LC0wLjM0Mzc1MDAxIC0wLjIxODc1LC0wLjUzMTI1MDAyIDAsLTAuMTEzMjgxMjUgMC4wMzkwNjMsLTAuMjg1MTU2MjYgMC4xMjUsLTAuNTE1NjI1MDIgMC4yNjk1MzEzLC0wLjcwNzAzMTMgMC40NDE0MDYzLC0xLjI0MjE4NzYgMC41MTU2MjUsLTEuNjA5Mzc1MSAwLjAwNzgxLC0wLjA5Mzc1IDAuMDE1NjI1LC0wLjIwNzAzMTIgMC4wMTU2MjUsLTAuMzQzNzUgMCwtMC4zNTE1NjI1IC0wLjE0ODQzNzUsLTAuNTMxMjUgLTAuNDM3NSwtMC41MzEyNSAtMC4xMTcxODc1LDAgLTAuMTk1MzEyNSwwLjAwNzgxIC0wLjIzNDM3NSwwLjAxNTYyNSAtMC40Mjk2ODc1LDAuMDkzNzUgLTAuNzg5MDYyNSwwLjM5MDYyNSAtMS4wNzgxMjUsMC44OTA2MjUgbCAtMC4wNjI1LDAuMTA5Mzc1IC0wLjI5Njg3NTEsMS4yMTg3NTAxIEMgMS41MDc4MTksLTAuNjI4ODg3MDMgMS4zOTQ1Mzc4LC0wLjIwMzEwNTc2IDEuMzc1MDA2NSwtMC4xNDA2MDU3NiAxLjI4OTA2OSwwLjAxNTY0NDI1IDEuMTYwMTYyOCwwLjA5Mzc2OTI1IDAuOTg0MzgxNTEsMC4wOTM3NjkyNSBaIG0gMCwwIgogICAgICAgc3R5bGU9ImZpbGw6IzAwMDAwMDtmaWxsLW9wYWNpdHk6MTtmaWxsLXJ1bGU6bm9uemVybztzdHJva2U6bm9uZSIKICAgICAgIGFyaWEtbGFiZWw9IiBuIgogICAgICAgdHJhbnNmb3JtPSJtYXRyaXgoMC4xOTg0Mzc1LDAsMCwwLjE5ODQzNzUsMS40MDIwODA3LDMuMDcxMjk5NikiCiAgICAgICBjbGlwLXBhdGg9InVybCgjY2xpcFBhdGg5NykiIC8+CiAgICA8cGF0aAogICAgICAgaWQ9InBhdGg5OCIKICAgICAgIGQ9Ik0gMS4wNDY4ODE5LC01LjA0Njg1NTcgQyAwLjk3MjY2MzE5LC01LjExNzE2ODIgMC45Mzc1MDY5NCwtNS4xODc0ODA3IDAuOTM3NTA2OTQsLTUuMjQ5OTgwNyAwLjk4ODI4ODIsLTUuNTcwMjkzMiAxLjE3NTc4ODIsLTUuOTg4MjYyIDEuNTAwMDA3LC02LjQ5OTk4MDggYyAwLjU3MDMxMjUsLTAuODUxNTYyNSAxLjI4OTA2MjUsLTEuMzQ3NjU2MyAyLjE1NjI1MDEsLTEuNDg0Mzc1IDAuMTY0MDYyNSwtMC4wMzEyNSAwLjI4OTA2MjUsLTAuMDQ2ODc1IDAuMzc1LC0wLjA0Njg3NSAwLjQyNTc4MTIsMCAwLjgxNjQwNjMsMC4xMDkzNzUgMS4xNzE4NzUsMC4zMjgxMjUgMC4zNTE1NjI1LDAuMjE4NzUgMC42MDkzNzUsMC40OTYwOTM3IDAuNzY1NjI1MSwwLjgyODEyNSAwLjE1NjI1LC0wLjIwNzAzMTIgMC4yNTM5MDYyLC0wLjMzNTkzNzUgMC4yOTY4NzUsLTAuMzkwNjI1IDAuNDQ1MzEyNSwtMC41MDc4MTI1IDAuOTYwOTM3NSwtMC43NjU2MjUgMS41NDY4NzUsLTAuNzY1NjI1IDAuNDg4MjgxMywwIDAuODkwNjI1MSwwLjE0ODQzNzUgMS4yMDMxMjUxLDAuNDM3NSAwLjMxMjUsMC4yODEyNSAwLjQ2ODc1LDAuNjMyODEyNSAwLjQ2ODc1LDEuMDQ2ODc1IDAsMC4zNzUgLTAuMTA5Mzc1LDAuNjg3NTAwMSAtMC4zMjgxMjUsMC45Mzc1MDAxIC0wLjIxMDkzNzUsMC4yNSAtMC40OTIxODc1LDAuMzc1IC0wLjg0Mzc1LDAuMzc1IC0wLjIzMDQ2ODgsMCAtMC40MTc5Njg4LC0wLjA2MjUgLTAuNTYyNTAwMSwtMC4xODc1IC0wLjE0ODQzNzUsLTAuMTMyODEyNSAtMC4yMTg3NSwtMC4zMTI1IC0wLjIxODc1LC0wLjUzMTI1IDAsLTAuNTYyNTAwMSAwLjMwMDc4MTMsLTAuOTQxNDA2MyAwLjkwNjI1MDEsLTEuMTQwNjI1MSAwLC0wLjAxOTUzMSAtMC4wNjI1LC0wLjA2MjUgLTAuMTg3NTAwMSwtMC4xMjUgLTAuMTI1LC0wLjA3MDMxMiAtMC4zMDQ2ODc1LC0wLjEwOTM3NSAtMC41MzEyNSwtMC4xMDkzNzUgLTAuMTU2MjUsMCAtMC4yNzM0Mzc1LDAuMDExNzE5IC0wLjM0Mzc1LDAuMDMxMjUgLTAuNDYwOTM3NSwwLjE4NzUgLTAuNzk2ODc1LDAuNTg5ODQzOCAtMS4wMTU2MjUsMS4yMDMxMjUgLTAuMDQyOTY5LDAuMDkzNzUgLTAuMjE4NzUsMC43NjU2MjUxIC0wLjUzMTI1MDEsMi4wMTU2MjUxIC0wLjMxMjUsMS4yNTAwMDAxIC0wLjQ4NDM3NSwxLjk2MDkzNzYgLTAuNTE1NjI1LDIuMTI1MDAwMSAtMC4wMzEyNSwwLjE3OTY4NzUgLTAuMDQ2ODc1LDAuMzU1NDY4OCAtMC4wNDY4NzUsMC41MzEyNSAwLDAuMjkyOTY4OCAwLjA4MjAzMSwwLjUyNzM0MzgxIDAuMjUsMC43MDMxMjUwNyAwLjE3NTc4MTMsMC4xNjc5Njg3NiAwLjM5ODQzNzYsMC4yNTAwMDAwMSAwLjY3MTg3NTEsMC4yNTAwMDAwMSAwLjUwNzgxMjUsMCAwLjk2ODc1LC0wLjIxMDkzNzUxIDEuMzc1LC0wLjY0MDYyNDk4IDAuNDE0MDYyNSwtMC40Mzc1MDAxIDAuNjk1MzEyNSwtMC45MTQwNjI2IDAuODQzNzUwMSwtMS40Mzc1MDAxIDAuMDMxMjUsLTAuMTEzMjgxMyAwLjA2MjUsLTAuMTc5Njg3NSAwLjA5Mzc1LC0wLjIwMzEyNSAwLjAzOTA2MywtMC4wMTk1MzEgMC4xNDQ1MzEyLC0wLjAzMTI1IDAuMzEyNSwtMC4wMzEyNSAwLjIyNjU2MjUsMCAwLjM0Mzc1LDAuMDU0Njg3IDAuMzQzNzUsMC4xNTYyNSAwLDAuMDExNzE5IC0wLjAxNTYyNSwwLjA3NDIxOSAtMC4wNDY4NzUsMC4xODc1IC0wLjE5OTIxODgsMC43NSAtMC42MjEwOTM4LDEuNDA2MjUwMSAtMS4yNjU2MjUxLDEuOTY4NzUwMDggLTAuNTc0MjE4NywwLjQ0OTIxODc3IC0xLjE3MTg3NSwwLjY3MTg3NTAzIC0xLjc5Njg3NSwwLjY3MTg3NTAzIC0wLjg0Mzc1MDEsMCAtMS40ODQzNzUxLC0wLjM3ODkwNjI3IC0xLjkyMTg3NTEsLTEuMTQwNjI1MDUgLTAuMzU1NDY4OCwwLjU0Mjk2ODc3IC0wLjgwNDY4NzYsMC45MDIzNDM3OSAtMS4zNDM3NTAxLDEuMDc4MTI1MDUgLTAuMTE3MTg3NSwwLjAzMTI1IC0wLjI3MzQzNzUsMC4wNDY4NzUgLTAuNDY4NzUsMC4wNDY4NzUgLTAuNzEwOTM3NSwwIC0xLjIxMDkzNzUsLTAuMjUwMDAwMDEgLTEuNTAwMDAwMDYsLTAuNzUwMDAwMDMgQyAwLjY5NTMxOTQzLC0wLjc2OTUxMTc4IDAuNjQwNjMxOTMsLTEuMDE1NjA1NSAwLjY0MDYzMTkzLC0xLjI5Njg1NTYgYyAwLC0wLjM1MTU2MjUgMC4xMDkzNzUwMSwtMC42NTYyNSAwLjMyODEyNTAxLC0wLjkwNjI1IDAuMjE4NzUwMDYsLTAuMjU3ODEyNSAwLjQ5MjE4NzU2LC0wLjM5MDYyNSAwLjgyODEyNTA2LC0wLjM5MDYyNSAwLjUxOTUzMTMsMCAwLjc4MTI1LDAuMjU3ODEyNSAwLjc4MTI1LDAuNzY1NjI1IDAsMC40NDkyMTg4IC0wLjIxNDg0MzcsMC43NzM0Mzc2IC0wLjY0MDYyNSwwLjk2ODc1MDA2IC0wLjAyMzQzNywwLjAyMzQzNzUgLTAuMDU0Njg3LDAuMDQyOTY4OCAtMC4wOTM3NSwwLjA2MjUgLTAuMDMxMjUsMC4wMTE3MTg4IC0wLjA2MjUsMC4wMjM0Mzc1IC0wLjA5Mzc1LDAuMDMxMjUgLTAuMDIzNDM3LDAuMDExNzE4OCAtMC4wMzkwNjMsMC4wMTU2MjUgLTAuMDQ2ODc1LDAuMDE1NjI1IGwgLTAuMDQ2ODc1LDAuMDMxMjUgYyAwLDAuMDMxMjUgMC4wODU5MzcsMC4wODU5Mzc1IDAuMjY1NjI1LDAuMTU2MjUwMDEgMC4xNDQ1MzEyLDAuMDYyNSAwLjMwMDc4MTIsMC4wOTM3NSAwLjQ2ODc1LDAuMDkzNzUgMC40Mzc1LDAgMC44MTI1LC0wLjI3MzQzNzUxIDEuMTI1MDAwMSwtMC44MjgxMjUwNyAwLjEzMjgxMjUsLTAuMjA3MDMxMiAwLjM3NSwtMC45OTIxODc1IDAuNzE4NzUsLTIuMzU5Mzc1MSAwLjA3MDMxMiwtMC4yNjk1MzEyIDAuMTQ4NDM3NSwtMC41NzAzMTI1IDAuMjM0Mzc1LC0wLjkwNjI1IDAuMDgyMDMxLC0wLjM0Mzc1IDAuMTQ0NTMxMiwtMC42MDE1NjI1IDAuMTg3NSwtMC43ODEyNSAwLjAzOTA2MywtMC4xODc1IDAuMDY2NDA2LC0wLjMwMDc4MTMgMC4wNzgxMjUsLTAuMzQzNzUgMC4wNjI1LC0wLjMyMDMxMjYgMC4wOTM3NSwtMC41NTQ2ODc2IDAuMDkzNzUsLTAuNzAzMTI1MSAwLC0wLjI4OTA2MjUgLTAuMDc4MTI1LC0wLjUxOTUzMTIgLTAuMjM0Mzc1LC0wLjY4NzUgLTAuMTU2MjUsLTAuMTY0MDYyNSAtMC4zNzUsLTAuMjUgLTAuNjU2MjUsLTAuMjUgLTAuNTQyOTY4OCwwIC0xLjAxNTYyNTEsMC4yMTA5Mzc1IC0xLjQyMTg3NTEsMC42MjUgLTAuMzk4NDM3NSwwLjQxNzk2ODggLTAuNjcxODc1LDAuODk4NDM3NiAtMC44MjgxMjUsMS40Mzc1MDAxIC0wLjAyMzQzNywwLjEwNTQ2ODcgLTAuMDQ2ODc1LDAuMTY3OTY4NyAtMC4wNzgxMjUsMC4xODc1IC0wLjAzMTI1LDAuMDIzNDM3IC0wLjEzMjgxMjUsMC4wMzEyNSAtMC4yOTY4NzUsMC4wMzEyNSB6IG0gMCwwIgogICAgICAgc3R5bGU9ImZpbGw6IzAwMDAwMDtmaWxsLW9wYWNpdHk6MTtmaWxsLXJ1bGU6bm9uemVybztzdHJva2U6bm9uZSIKICAgICAgIGFyaWEtbGFiZWw9IngiCiAgICAgICB0cmFuc2Zvcm09Im1hdHJpeCgwLjE5ODQzNzUsMCwwLDAuMTk4NDM3NSwzLjQ4MjU3NDksNC4yNjE5MjQ1KSIKICAgICAgIGNsaXAtcGF0aD0idXJsKCNjbGlwUGF0aDk5KSIgLz4KICAgIDxwYXRoCiAgICAgICBpZD0icGF0aDEwMCIKICAgICAgIGQ9Im0gOTUsNzAyIGMgLTIuNjk5OTk3LDAgLTcuMTY5OTk4LC0yLjcwMDAxIC0xMy41LC04IC01LjgwMDAwMywtNS4yOTk5OSAtOS41LC0xMCAtOS41LC0xNCAwLC0yIDAuMzAwMDAzLC0zLjI5OTk5IDEsLTQgMS4zMDAwMDMsLTIuNzAwMDEgMjMuODMwMDAyLC0yMC43MDAwMSA2Ny41LC01NCA0NC4yLC0zMy4yOTk5OSA2NS44LC01MC4yOTk5OSA2Ni41LC01MSAxLjMsLTEuMjk5OTkgMywtMiA1LC0yIDQuNywwIDguNywzLjI5OTk5IDEyLDEwIDMuMyw2LjcwMDAxIDE3MywzNzggMTczLDM3OCAwLjcwMDAxLDAgMzUuMjk5OTksLTcxIDEwNCwtMjEzIEMgNTY5LjcwMDAxLDYwMiA2MzguNSw0NTkgNzA3LjUsMzE1IDc3Ni41LDE3MSA4MTIsOTcuMzAwMDAzIDgxNCw5NCBjIDUuMjk5OTksLTkuMzAwMDAzIDEyLC0xNCAyMCwtMTQgaCAzOTkxNjYgdiA0MCBIIDg0NS4yNzI0IGMgMCwwIC0yMjUuMjcyMDMsNDY3IC0yMjUuMjcyMDMsNDY3IDAsMCAtMjM1LDQ4NiAtMjM1LDQ4NiAtMi43MDAwMiw0LjcgLTksNyAtMTksNyAtNiwwIC0xMCwtMSAtMTIsLTMgLTIsLTIgLTE5NCwtNDIyIC0xOTQsLTQyMiAwLDAgLTY1LjAwMDAwNCw0NyAtNjUuMDAwMDA0LDQ3IHogTSA4MzQsODAgaCA0MDAwMDAgdiA0MCBIIDgzNCBaIgogICAgICAgc3R5bGU9ImZpbGw6IzAwMDAwMDtmaWxsLW9wYWNpdHk6MTtmaWxsLXJ1bGU6bm9uemVybztzdHJva2U6bm9uZSIKICAgICAgIHRyYW5zZm9ybT0ibWF0cml4KDAuMDAzNjAwMTMsMCwwLDAuMDAzNjAwMTMsMC41NjQ5MjI0OSwxLjA4NjkyNDYpIgogICAgICAgY2xpcC1wYXRoPSJ1cmwoI2NsaXBQYXRoMTAxKSIgLz4KICA8L2c+Cjwvc3ZnPgo=;connectable=0;allowArrows=0;rotatable=0;html=1;align=left;labelPosition=right;verticalLabelPosition=middle;verticalAlign=middle;fontSize=18;labelBackgroundColor=#E6E6E6;fontColor=#000000;labelBorderColor=none;imageBackground=#FFFFFF;imageBorder=default;shadow=0;spacingLeft=12.5;" parent="1" vertex="1">
          <mxGeometry x="312.5" y="414" width="50" height="50" as="geometry" />
        </mxCell>
        <mxCell id="a21QgjTOZl95tkyDf_ZO-23" value="&lt;pre style=&quot;line-height: 0%;&quot;&gt;&amp;nbsp; &amp;nbsp;&amp;nbsp;\int_a^bc&amp;nbsp; &amp;nbsp;&amp;nbsp;&lt;/pre&gt;" style="shape=image;aspect=fixed;image=data:image/svg+xml,PHN2ZyB4bWxucz0iaHR0cDovL3d3dy53My5vcmcvMjAwMC9zdmciIGlkPSJzdmcxIiB2ZXJzaW9uPSIxLjEiIHZpZXdCb3g9IjAgMCA2LjM0OTk5OTkwNDYzMjU2OCA2LjM0OTk5OTkwNDYzMjU2OCIgaGVpZ2h0PSIyNC4wMDAwMDAwMTc1MDg5MiIgd2lkdGg9IjI0LjAwMDAwMDAxNzUwODkyIj4mI3hhOyAgJiN4YTsgIDxkZWZzIGlkPSJkZWZzMSI+JiN4YTsgICAgPGNsaXBQYXRoIGlkPSJjbGlwUGF0aDEwNSIgY2xpcFBhdGhVbml0cz0idXNlclNwYWNlT25Vc2UiPiYjeGE7ICAgICAgPHBhdGggaWQ9InBhdGgxMDUiIGNsaXAtcnVsZT0iZXZlbm9kZCIgdHJhbnNmb3JtPSJtYXRyaXgoMC4zMTk5OTk5OSwwLDAsMC4zMTk5OTk5OSwtMTAzLC00OTkuOTk5OTgpIiBkPSJNIDExNS42MjUsMTE1LjYyNSBIIDI0MzIuMzI0MiBWIDMxODIuMzI0MiBIIDExNS42MjUgWiIvPiYjeGE7ICAgIDwvY2xpcFBhdGg+JiN4YTsgICAgPGNsaXBQYXRoIGlkPSJjbGlwUGF0aDEwOSIgY2xpcFBhdGhVbml0cz0idXNlclNwYWNlT25Vc2UiPiYjeGE7ICAgICAgPHBhdGggaWQ9InBhdGgxMDkiIGNsaXAtcnVsZT0iZXZlbm9kZCIgdHJhbnNmb3JtPSJtYXRyaXgoMC4zMTk5OTk5OSwwLDAsMC4zMTk5OTk5OSwtMTE1LjA5Mzc1LC00ODkuOTk5OTgpIiBkPSJNIDExNS42MjUsMTE1LjYyNSBIIDI0MzIuMzI0MiBWIDMxODIuMzI0MiBIIDExNS42MjUgWiIvPiYjeGE7ICAgIDwvY2xpcFBhdGg+JiN4YTsgICAgPGNsaXBQYXRoIGlkPSJjbGlwUGF0aDEwNyIgY2xpcFBhdGhVbml0cz0idXNlclNwYWNlT25Vc2UiPiYjeGE7ICAgICAgPHBhdGggaWQ9InBhdGgxMDciIGNsaXAtcnVsZT0iZXZlbm9kZCIgdHJhbnNmb3JtPSJtYXRyaXgoMC4zMTk5OTk5OSwwLDAsMC4zMTk5OTk5OSwtMTExLjU3ODEyLC01MDUuOTk5OTgpIiBkPSJNIDExNS42MjUsMTE1LjYyNSBIIDI0MzIuMzI0MiBWIDMxODIuMzI0MiBIIDExNS42MjUgWiIvPiYjeGE7ICAgIDwvY2xpcFBhdGg+JiN4YTsgICAgPGNsaXBQYXRoIGlkPSJjbGlwUGF0aDEwMyIgY2xpcFBhdGhVbml0cz0idXNlclNwYWNlT25Vc2UiPiYjeGE7ICAgICAgPHBhdGggaWQ9InBhdGgxMDMiIGNsaXAtcnVsZT0iZXZlbm9kZCIgdHJhbnNmb3JtPSJtYXRyaXgoMC4zMTk5OTk5OSwwLDAsMC4zMTk5OTk5OSwtMTI0LjQ2ODc0LC00OTkuOTUzMTEpIiBkPSJNIDExNS42MjUsMTE1LjYyNSBIIDI0MzIuMzI0MiBWIDMxODIuMzI0MiBIIDExNS42MjUgWiIvPiYjeGE7ICAgIDwvY2xpcFBhdGg+JiN4YTsgIDwvZGVmcz4mI3hhOyAgPGcgaWQ9ImxheWVyMSI+JiN4YTsgICAgPHJlY3QgeT0iMCIgeD0iMCIgaGVpZ2h0PSI2LjM0OTk5OTkiIHdpZHRoPSI2LjM0OTk5OTkiIGlkPSJyZWN0MSIgc3R5bGU9Im9wYWNpdHk6MDtmaWxsOm5vbmU7c3Ryb2tlLXdpZHRoOjIuNjQ1ODM7c3Ryb2tlLWxpbmVqb2luOnJvdW5kO3N0cm9rZS1taXRlcmxpbWl0OjE2Ii8+JiN4YTsgICAgPHBhdGggY2xpcC1wYXRoPSJ1cmwoI2NsaXBQYXRoMTAzKSIgdHJhbnNmb3JtPSJtYXRyaXgoMC4xOTg0Mzc1LDAsMCwwLjE5ODQzNzUsNC40MzQxMjY0LDQuNDI0NTMzKSIgYXJpYS1sYWJlbD0iYyIgc3R5bGU9ImZpbGw6IzAwMDAwMDtmaWxsLW9wYWNpdHk6MTtmaWxsLXJ1bGU6bm9uemVybztzdHJva2U6bm9uZSIgZD0ibSA3Ljc1MDAwNTUsLTYuNDUzMTA5NCBjIDAsMC4zODY3MTg3IC0wLjExNzE4NzUsMC42OTkyMTg3IC0wLjM0Mzc1LDAuOTM3NSAtMC4yMzA0Njg4LDAuMjMwNDY4OCAtMC41MjM0Mzc1LDAuMzQzNzUgLTAuODc1LDAuMzQzNzUgLTAuMjMwNDY4OCwwIC0wLjQxNDA2MjYsLTAuMDYyNSAtMC41NDY4NzUxLC0wLjE4NzUgLTAuMTI1LC0wLjEzMjgxMjUgLTAuMTg3NSwtMC4zMTY0MDYzIC0wLjE4NzUsLTAuNTQ2ODc1IDAsLTAuMTk1MzEyNSAwLjA1NDY4NywtMC4zOTQ1MzEzIDAuMTcxODc1LC0wLjU5Mzc1IDAuMTI1LC0wLjE5NTMxMjUgMC4yODUxNTYzLC0wLjMzNTkzNzYgMC40ODQzNzUxLC0wLjQyMTg3NTEgMC4wOTM3NSwtMC4wNjI1IDAuMTU2MjUsLTAuMDkzNzUgMC4xODc1LC0wLjA5Mzc1IDAuMDUwNzgxLDAgMC4wMDc4MSwtMC4wMzkwNjMgLTAuMTI1LC0wLjEyNSAtMC4yMzA0Njg4LC0wLjEyNSAtMC41NDY4NzUxLC0wLjE4NzUgLTAuOTUzMTI1MSwtMC4xODc1IC0wLjY2Nzk2ODgsMCAtMS4yNzczNDM4LDAuMjczNDM3NSAtMS44MjgxMjUxLDAuODEyNTAwMSAtMC4zMTI1LDAuMzEyNSAtMC41NzAzMTI1LDAuNjg3NSAtMC43NjU2MjUsMS4xMjUgLTAuMTg3NSwwLjQzNzUgLTAuMzgyODEyNSwxLjA2MjUwMDEgLTAuNTc4MTI1LDEuODc1MDAwMSAtMC4xMjUsMC41NjI1IC0wLjE4NzUsMS4wMTU2MjUgLTAuMTg3NSwxLjM1OTM3NSAwLDAuODY3MTg3NiAwLjM3ODkwNjIsMS40MTQwNjI2IDEuMTQwNjI1LDEuNjQwNjI1MTEgMC4wOTM3NSwwLjAzMTI1IDAuMjQyMTg3NSwwLjA0Njg3NSAwLjQ1MzEyNSwwLjA0Njg3NSAwLjE3NTc4MTMsMCAwLjM2MzI4MTMsLTAuMDE1NjI1IDAuNTYyNTAwMSwtMC4wNDY4NzUgMS4xMzI4MTI1LC0wLjE2NDA2MjUxIDIuMDY2NDA2MywtMC42NjQwNjI1MSAyLjc5Njg3NTEsLTEuNTAwMDAwMTEgMC4xMDE1NjI1LC0wLjEyNSAwLjE3NTc4MTIsLTAuMTg3NSAwLjIxODc1LC0wLjE4NzUgMC4wMzkwNjMsMCAwLjExNzE4NzUsMC4wNTg1OTQgMC4yMzQzNzUsMC4xNzE4NzUgMC4xNDQ1MzEzLDAuMTQ4NDM3NiAwLjE5NTMxMjUsMC4yNTAwMDAxIDAuMTU2MjUsMC4zMTI1MDAxIC0wLjA0Mjk2OSwwLjEyNSAtMC4yMjY1NjI1LDAuMzI4MTI1IC0wLjU0Njg3NSwwLjYwOTM3NSAtMC43NSwwLjY3OTY4NzUxIC0xLjY5OTIxODgsMS4xMDE1NjI1MyAtMi44NDM3NTAxLDEuMjY1NjI1MDQgLTAuMjczNDM3NSwwLjAzMTI1IC0wLjUwNzgxMjYsMC4wNDY4NzUgLTAuNzAzMTI1MSwwLjA0Njg3NSAtMS4zMDQ2ODc1LDAgLTIuMjAzMTI1MSwtMC41MzEyNTAwMiAtMi43MDMxMjUwNywtMS41OTM3NTAwNCAtMC4yMzA0Njg3NiwtMC40NDUzMTI1IC0wLjM0Mzc1MDAyLC0wLjk0NTMxMjYgLTAuMzQzNzUwMDIsLTEuNTAwMDAwMSAwLC0wLjU1MDc4MTMgMC4xMTMyODEyNiwtMS4xMTcxODc1IDAuMzQzNzUwMDIsLTEuNzAzMTI1MSAwLjM0Mzc0OTk3LC0wLjkwNjI1IDAuOTEwMTU2MjcsLTEuNjc1NzgxMyAxLjcwMzEyNTA3LC0yLjMxMjUwMDEgMC44MDA3ODEzLC0wLjYzMjgxMjUgMS42NDQ1MzEzLC0xIDIuNTMxMjUwMSwtMS4wOTM3NSAwLjA3MDMxMiwtMC4wMTk1MzEgMC4xOTE0MDYzLC0wLjAzMTI1IDAuMzU5Mzc1LC0wLjAzMTI1IDAuNDE0MDYyNSwwIDAuODA0Njg3NiwwLjA3MDMxMiAxLjE3MTg3NTEsMC4yMDMxMjUgMC42NzU3ODEyLDAuMjkyOTY4OCAxLjAxNTYyNSwwLjc1IDEuMDE1NjI1LDEuMzc1MDAwMSB6IG0gMCwwIiBpZD0icGF0aDEwMiIvPiYjeGE7ICAgIDxwYXRoIGNsaXAtcGF0aD0idXJsKCNjbGlwUGF0aDEwNSkiIHRyYW5zZm9ybT0ibWF0cml4KDAuMTk4NDM3NSwwLDAsMC4xOTg0Mzc1LDAuMTczOTIzMzQsNC40MzM4MzM4KSIgYXJpYS1sYWJlbD0i4oirIiBzdHlsZT0iZmlsbDojMDAwMDAwO2ZpbGwtb3BhY2l0eToxO2ZpbGwtcnVsZTpub256ZXJvO3N0cm9rZTpub25lIiBkPSJNIDEuMjUwMDA0MywyLjkwNjI3MSBDIDEuNDE0MDY2OSwyLjczODMwMjIgMS42MjUwMDQ0LDIuNjU2MjcwOSAxLjg3NTAwNDQsMi42NTYyNzA5IGMgMC4yNTc4MTI1LDAgMC40NzI2NTYyLDAuMDgyMDMxIDAuNjQwNjI1LDAuMjUwMDAwMSAwLjE3NTc4MTMsMC4xNzU3ODEyIDAuMjY1NjI1LDAuMzkwNjI1IDAuMjY1NjI1LDAuNjQwNjI1IDAsMC4zNTE1NjI1IC0wLjE0ODQzNzUsMC42MDE1NjI1IC0wLjQzNzUsMC43NSAtMC4wMTE3MTksMC4wMTk1MzEgLTAuMDQyOTY5LDAuMDM1MTU2IC0wLjA5Mzc1LDAuMDQ2ODc1IC0wLjA1NDY4NywwLjAxOTUzMSAtMC4xMDE1NjI1LDAuMDM1MTU2IC0wLjE0MDYyNSwwLjA0Njg3NSBsIC0wLjA2MjUsMC4wNDY4NzUgYyAwLDAuMDA3ODEgMC4wMzEyNSwwLjAzOTA2MyAwLjA5Mzc1LDAuMDkzNzUgMC4wNzAzMTIsMC4wNjI1IDAuMTMyODEyNSwwLjEwOTM3NSAwLjE4NzUsMC4xNDA2MjUgMC4xODc1LDAuMTQ0NTMxMyAwLjQyMTg3NSwwLjIxODc1IDAuNzAzMTI1LDAuMjE4NzUgMC4yMjY1NjI1LDAgMC40MjE4NzUsLTAuMDU4NTk0IDAuNTc4MTI1LC0wLjE3MTg3NSBDIDMuODk4NDQyLDQuNTUwODAyMyA0LjExNzE5Miw0LjIzODMwMjMgNC4yNjU2Mjk1LDMuNzgxMjcxIDQuNDcyNjYwNywzLjE5NTMzMzUgNC42NjQwNjcsMS42NDg0NTg0IDQuODQzNzU0NSwtMC44NTkzNTQyIGMgMC4xNzU3ODEzLC0yLjI4OTA2MjYgMC4zNTkzNzUsLTQuMjIyNjU2NCAwLjU0Njg3NSwtNS43OTY4NzUyIDAuMzEyNSwtMi40NTcwMzE0IDAuNDkyMTg3NSwtMy44MTY0MDY2IDAuNTQ2ODc1LC00LjA3ODEyNTYgMC4zMDA3ODEzLC0xLjczODI4MSAwLjg5MDYyNTEsLTIuODk0NTMxIDEuNzY1NjI1MSwtMy40Njg3NSAwLjMwMDc4MTMsLTAuMTg3NSAwLjYzMjgxMjUsLTAuMzE2NDA2IDEuMDAwMDAwMSwtMC4zOTA2MjUgMC4wMTk1MzEsMCAwLjA3MDMxMiwwIDAuMTU2MjUsMCAwLjA5Mzc1LC0wLjAwNzggMC4xNzE4NzUsLTAuMDE1NjMgMC4yMzQzNzUsLTAuMDE1NjMgMC41NzAzMTI1LDAuMDMxMjUgMS4wNDY4NzUzLDAuMjMwNDY5IDEuNDIxODc1MywwLjU5Mzc1IDAuMzc1LDAuMzY3MTg4IDAuNTYyNSwwLjgyODEyNSAwLjU2MjUsMS4zOTA2MjUgMCwwLjI3MzQzOCAtMC4wODk4NCwwLjQ5NjA5NCAtMC4yNjU2MjUsMC42NzE4NzUgLTAuMTY3OTY5LDAuMTY3OTY5IC0wLjM4MjgxMywwLjI1IC0wLjY0MDYyNSwwLjI1IC0wLjI1MDAwMDMsMCAtMC40NjA5Mzc4LC0wLjA4NTk0IC0wLjYyNTAwMDMsLTAuMjY1NjI1IC0wLjE2Nzk2ODgsLTAuMTc1NzgxIC0wLjI1LC0wLjM4MjgxMiAtMC4yNSwtMC42MjUgMCwtMC4zNjMyODEgMC4xNDQ1MzEyLC0wLjYxNzE4NyAwLjQzNzUsLTAuNzY1NjI1IDAuMDA3ODEsLTAuMDA3OCAwLjAzNTE1NiwtMC4wMjM0NCAwLjA3ODEyNSwtMC4wNDY4NyAwLjA1MDc4MSwtMC4wMTk1MyAwLjA5NzY1NiwtMC4wMzkwNiAwLjE0MDYyNSwtMC4wNjI1IGwgMC4wNjI1LC0wLjAxNTYzIGMgMCwtMC4wNjI1IC0wLjA4OTg0NCwtMC4xNDA2MjUgLTAuMjY1NjI4MywtMC4yMzQzNzUgLTAuMjEwOTM3NSwtMC4xNDQ1MzEgLTAuNDQ1MzEyNSwtMC4yMTg3NSAtMC43MDMxMjUsLTAuMjE4NzUgLTAuNTMxMjUwMSwwIC0wLjkyMTg3NTEsMC4zMTI1IC0xLjE3MTg3NTEsMC45Mzc1IC0wLjE0ODQzNzUsMC4zNTU0NjkgLTAuMjYxNzE4NywwLjgzOTg0NCAtMC4zNDM3NSwxLjQ1MzEyNSAtMC4wNzQyMTksMC42MDU0NjkgLTAuMTY3OTY4OCwxLjcxODc1MDQgLTAuMjgxMjUsMy4zNDM3NTA1IEMgNy4wNzAzMTY1LC01LjkyOTY3MTkgNi44OTA2MjksLTQuMDAzODkwNiA2LjcwMzEyOSwtMi40MjE4NTkzIDYuNDYwOTQxNSwtMC4zMzU5MjE2OCA2LjI4MTI1NCwxLjAxOTU0NzEgNi4xNTYyNTM5LDEuNjU2MjY1OSA1LjgwMDc4NTIsMy41OTM3NjYgNS4xMDkzNzg5LDQuODEyNTE2IDQuMDc4MTI4OSw1LjMxMjUxNjEgYyAtMC4zMTI1MDAxLDAuMTY0MDYyNSAtMC42NTIzNDM4LDAuMjUgLTEuMDE1NjI1MSwwLjI1IC0wLjg2NzE4NzUsMCAtMS40ODA0Njg4LC0wLjM3NTAwMDEgLTEuODQzNzUwMSwtMS4xMjUwMDAxIC0wLjE0ODQzNzUsLTAuMjYxNzE4NyAtMC4yMTg3NSwtMC41NTQ2ODc1IC0wLjIxODc1LC0wLjg3NSAwLC0wLjI3MzQzNzUgMC4wODIwMzEsLTAuNDkyMTg3NSAwLjI1LC0wLjY1NjI1IHogbSAwLDAiIGlkPSJwYXRoMTA0Ii8+JiN4YTsgICAgPHBhdGggY2xpcC1wYXRoPSJ1cmwoI2NsaXBQYXRoMTA3KSIgdHJhbnNmb3JtPSJtYXRyaXgoMC4xOTg0Mzc1LDAsMCwwLjE5ODQzNzUsMS44NzYxNDQsNS42MjQ0NTg4KSIgYXJpYS1sYWJlbD0iYSIgc3R5bGU9ImZpbGw6IzAwMDAwMDtmaWxsLW9wYWNpdHk6MTtmaWxsLXJ1bGU6bm9uemVybztzdHJva2U6bm9uZSIgZD0ibSA1LjcwMzEyOTksLTQuOTk5OTc5MSBjIDAsMC4xMDU0Njg3IC0wLjE2NDA2MjUsMC43ODEyNSAtMC40ODQzNzUsMi4wMzEyNTAxIC0wLjMxMjUsMS4yNSAtMC40Njg3NTAxLDEuOTUzMTI1IC0wLjQ2ODc1MDEsMi4xMDkzNzUwNSAwLDAuMzU1NDY4NzYgMC4xMTcxODc2LDAuNTMxMjUwMDIgMC4zNTkzNzUxLDAuNTMxMjUwMDIgMC4wNzAzMTIsLTAuMDA3ODEzIDAuMTU2MjUsLTAuMDQ2ODc1IDAuMjUsLTAuMTA5Mzc1IDAuMTc1NzgxMiwtMC4xNzU3ODEyNiAwLjM0NzY1NjIsLTAuNTg1OTM3NTcgMC41MTU2MjUsLTEuMjM0Mzc1MDcgMC4wNTA3ODEsLTAuMTY0MDYyNSAwLjA5NzY1NiwtMC4yNTM5MDYyIDAuMTQwNjI1LC0wLjI2NTYyNSAwLjAwNzgxLDAgMC4wNTA3ODEsMCAwLjEyNSwwIGggMC4wNDY4NzUgYyAwLjE1NjI1LDAgMC4yMzQzNzUsMC4wMzEyNSAwLjIzNDM3NSwwLjA5Mzc1IDAsMC4wMzEyNSAtMC4wMTE3MTksMC4xMDE1NjI1IC0wLjAzMTI1LDAuMjAzMTI1IC0wLjE4NzUsMC43MTA5Mzc1NCAtMC40MTc5Njg4LDEuMTk5MjE4ODEgLTAuNjg3NSwxLjQ2ODc1MDA4IC0wLjE5OTIxODgsMC4xOTUzMTI1IC0wLjQzMzU5MzgsMC4yOTY4NzUwMSAtMC43MDMxMjUsMC4yOTY4NzUwMSAtMC41NDI5Njg4LDAgLTAuOTE3OTY4OCwtMC4yMDcwMzEyNiAtMS4xMjUwMDAxLC0wLjYyNTAwMDAzIC0wLjA0Mjk2OSwtMC4xMDE1NjI1IC0wLjA2MjUsLTAuMTQ4NDM3NSAtMC4wNjI1LC0wLjE0MDYyNSAtMC4wMTE3MTksLTAuMDA3ODEzIC0wLjAyNzM0NCwtMC4wMDc4MTMgLTAuMDQ2ODc1LDAgLTAuMDIzNDM3LDAuMDIzNDM3NSAtMC4wNDI5NjksMC4wNDI5Njg3IC0wLjA2MjUsMC4wNjI1IC0wLjQwNjI1LDAuMzc1MDAwMDEgLTAuODA4NTkzOCwwLjYwMTU2MjUyIC0xLjIwMzEyNSwwLjY4NzUwMDAzIC0wLjA1NDY4NywwLjAwNzgxMyAtMC4xNTYyNTAxLDAuMDE1NjI1IC0wLjMxMjUwMDEsMC4wMTU2MjUgLTAuNTYyNSwwIC0xLjAyNzM0MzgsLTAuMjM0Mzc1MDEgLTEuMzkwNjI1MDIsLTAuNzAzMTI1MDMgQyAwLjU0Njg3OTY3LC0wLjk0MTM4NTIxIDAuNDIxODc5NjcsLTEuNDE0MDQxNSAwLjQyMTg3OTY3LC0xLjk5OTk3OSBjIDAsLTAuMTMyODEyNSAwLjAwMzkwNiwtMC4yMjY1NjI1IDAuMDE1NjI1LC0wLjI4MTI1IDAuMDUwNzgxMywtMC41MzkwNjI1IDAuMjIyNjU2MjYsLTEuMDU0Njg3NiAwLjUxNTYyNTAyLC0xLjU0Njg3NTEgMC4yODkwNjI1MSwtMC41IDAuNjQwNjI1MDEsLTAuODk4NDM3NSAxLjA0Njg3NTAxLC0xLjIwMzEyNSAwLjUwMDAwMDEsLTAuMzgyODEyNSAxLjAxOTUzMTMsLTAuNTc4MTI1MSAxLjU2MjUwMDEsLTAuNTc4MTI1MSAwLjQxNDA2MjUsMCAwLjc5Njg3NSwwLjIxMDkzNzYgMS4xNDA2MjUsMC42MjUwMDAxIDAuMTMyODEyNiwtMC4yNSAwLjMyODEyNTEsLTAuMzc1IDAuNTc4MTI1MSwtMC4zNzUgMC4xMTMyODEyLDAgMC4yMTA5Mzc1LDAuMDM5MDYzIDAuMjk2ODc1LDAuMTA5Mzc1IDAuMDgyMDMxLDAuMDYyNSAwLjEyNSwwLjE0ODQzNzUgMC4xMjUsMC4yNSB6IE0gMS41MDAwMDQ3LC0xLjM0MzcyOSBjIDAsMC4zMDQ2ODc1IDAuMDYyNSwwLjU0Njg3NTA1IDAuMTg3NSwwLjczNDM3NTA2IDAuMTMyODEyNSwwLjE4NzUwMDAxIDAuMzMyMDMxMywwLjI4MTI1MDAxIDAuNTkzNzUsMC4yODEyNTAwMSAwLjIzODI4MTMsMCAwLjUwMDAwMDEsLTAuMTAxNTYyNSAwLjc4MTI1MDEsLTAuMzEyNTAwMDEgMC4xMDE1NjI1LC0wLjA2MjUgMC4yMzgyODEyLC0wLjE4NzUwMDAxIDAuNDA2MjUsLTAuMzc1MDAwMDYgMC4xNzU3ODEzLC0wLjE4NzUgMC4yODEyNSwtMC4zMTI1IDAuMzEyNSwtMC4zNzUgMC4wMTk1MzEsLTAuMDM5MDYzIDAuMTMyODEyNSwtMC40OTIxODc1IDAuMzQzNzUsLTEuMzU5Mzc1IDAuMjE4NzUsLTAuODc1MDAwMSAwLjMyODEyNSwtMS4zNDc2NTYzIDAuMzI4MTI1LC0xLjQyMTg3NTEgMCwtMC4wOTM3NSAtMC4wNDY4NzUsLTAuMjM0Mzc1IC0wLjE0MDYyNSwtMC40MjE4NzUgLTAuMTc5Njg3NSwtMC4zNjMyODEzIC0wLjQ0NTMxMjUsLTAuNTQ2ODc1IC0wLjc5Njg3NSwtMC41NDY4NzUgLTAuMzM1OTM3NSwwIC0wLjYzMjgxMjUsMC4xNDg0Mzc1IC0wLjg5MDYyNSwwLjQzNzUgLTAuMjYxNzE4OCwwLjI4MTI1IC0wLjQ2MDkzNzYsMC42MDkzNzUgLTAuNTkzNzUwMSwwLjk4NDM3NSAtMC4yNDIxODc1LDAuNjY3OTY4OCAtMC40MTQwNjI1LDEuMzU5Mzc1MSAtMC41MTU2MjUsMi4wNzgxMjUxIDAsMC4wMzEyNSAtMC4wMDc4MSwwLjA4NTkzNyAtMC4wMTU2MjUsMC4xNTYyNSAwLDAuMDYyNSAwLDAuMTA5Mzc1IDAsMC4xNDA2MjUgeiBtIDAsMCIgaWQ9InBhdGgxMDYiLz4mI3hhOyAgICA8cGF0aCBjbGlwLXBhdGg9InVybCgjY2xpcFBhdGgxMDkpIiB0cmFuc2Zvcm09Im1hdHJpeCgwLjE5ODQzNzUsMCwwLDAuMTk4NDM3NSwyLjU3Mzc3NjgsMi40NDk0NTg4KSIgYXJpYS1sYWJlbD0iYiIgc3R5bGU9ImZpbGw6IzAwMDAwMDtmaWxsLW9wYWNpdHk6MTtmaWxsLXJ1bGU6bm9uemVybztzdHJva2U6bm9uZSIgZD0ibSAxLjEyNTAwNDgsLTguNjcxODU0OSBjIDAuMDA3ODEsMCAwLjMxNjQwNjMsLTAuMDE5NTMxIDAuOTIxODc1MSwtMC4wNjI1IDAuNjAxNTYyNSwtMC4wNTA3ODEgMC45MTAxNTYzLC0wLjA3ODEyNSAwLjkyMTg3NSwtMC4wNzgxMjUgMC4xMDE1NjI1LDAgMC4xNTYyNSwwLjAzOTA2MyAwLjE1NjI1LDAuMTA5Mzc1MSAwLDAuMDc0MjE5IC0wLjE1MjM0MzcsMC42OTkyMTg3IC0wLjQ1MzEyNSwxLjg3NSAtMC4yOTI5Njg4LDEuMTY3OTY4OCAtMC40Mzc1LDEuNzU3ODEyNiAtMC40Mzc1LDEuNzY1NjI1MSAwLDAuMDIzNDM3IDAuMDIzNDM3LDAuMDA3ODEgMC4wNzgxMjUsLTAuMDQ2ODc1IDAuMjg5MDYyNSwtMC4yMzgyODEzIDAuNjEzMjgxMywtMC4zOTg0Mzc1IDAuOTY4NzUsLTAuNDg0Mzc1IDAuMTAxNTYyNSwtMC4wMDc4MSAwLjIwNzAzMTMsLTAuMDE1NjI1IDAuMzEyNSwtMC4wMTU2MjUgMC4xMTMyODEzLDAgMC4yMTg3NTAxLDAuMDA3ODEgMC4zMTI1MDAxLDAuMDE1NjI1IDAuNDQ1MzEyNSwwLjEwNTQ2ODcgMC44MDA3ODEyLDAuMzM1OTM3NSAxLjA2MjUsMC42ODc1IDAuMjU3ODEyNSwwLjM1NTQ2ODggMC4zOTA2MjUsMC44MDQ2ODc1IDAuMzkwNjI1LDEuMzQzNzUwMSAwLDAuOTQ5MjE4OCAtMC4zMzU5Mzc1LDEuODA0Njg3NSAtMSwyLjU2MjUwMDA4IC0wLjY2Nzk2ODgsMC43NjE3MTg3OCAtMS4zODY3MTg4LDEuMTQwNjI1MDQgLTIuMTU2MjUwMSwxLjE0MDYyNTA0IC0wLjI1LDAgLTAuNDg0Mzc1LC0wLjA1ODU5Mzc1IC0wLjcwMzEyNSwtMC4xNzE4NzUgQyAwLjg0Mzc1NDgzLC0wLjMyMDI5MjEgMC41MTU2Mjk4MiwtMC45NDUyOTIxMiAwLjUxNTYyOTgyLC0xLjkwNjIyOTcgYyAwLC0wLjI1IDAuMDE5NTMxMywtMC40ODgyODEyIDAuMDYyNSwtMC43MTg3NSAwLC0wLjAwNzgxIDAuMjEwOTM3NTEsLTAuODc4OTA2MyAwLjY0MDYyNDk4LC0yLjYwOTM3NTEgbCAwLjY1NjI1MDEsLTIuNTkzNzUwMSBjIDAuMDA3ODEsLTAuMTEzMjgxMyAtMC4wMjM0MzcsLTAuMTg3NSAtMC4wOTM3NSwtMC4yMTg3NSAtMC4wNzQyMTksLTAuMDMxMjUgLTAuMTk1MzEyNSwtMC4wNDY4NzUgLTAuMzU5Mzc1LC0wLjA0Njg3NSAtMC4wNjI1LDAgLTAuMTA5Mzc1LDAgLTAuMTQwNjI1MSwwIC0wLjE3OTY4NzUsMCAtMC4yNzczNDM3LC0wLjAwNzgxIC0wLjI5Njg3NDk2LC0wLjAzMTI1IC0wLjA1NDY4NzUsLTAuMDM5MDYzIC0wLjA1ODU5MzgsLTAuMTQ0NTMxMyAtMC4wMTU2MjUsLTAuMzEyNSAwLjAzMTI1LC0wLjExMzI4MTMgMC4wNTQ2ODc1LC0wLjE3OTY4NzUgMC4wNzgxMjUsLTAuMjAzMTI1IDAuMDMxMjUsLTAuMDE5NTMxIDAuMDU0Njg3LC0wLjAzMTI1IDAuMDc4MTI1LC0wLjAzMTI1IHogTSA0LjI2NTYzLC00LjEyNDk3OTggYyAwLC0wLjY3NTc4MTIgLTAuMjU3ODEyNSwtMS4wMTU2MjUgLTAuNzY1NjI1MSwtMS4wMTU2MjUgLTAuMDIzNDM3LDAgLTAuMDU0Njg3LDAuMDA3ODEgLTAuMDkzNzUsMC4wMTU2MjUgLTAuMDMxMjUsMCAtMC4wNTQ2ODcsMCAtMC4wNjI1LDAgLTAuNDM3NSwwLjA4NTkzNyAtMC44NTU0Njg4LDAuMzg2NzE4OCAtMS4yNSwwLjkwNjI1IC0wLjAxMTcxOSwwLjAyMzQzNyAtMC4wMzEyNSwwLjA0Njg3NSAtMC4wNjI1LDAuMDc4MTI1IGwgLTAuMDMxMjUsMC4wNDY4NzUgYyAwLDAuMDExNzE5IC0wLjA3ODEyNSwwLjMyMDMxMjYgLTAuMjM0Mzc1LDAuOTIxODc1MSAtMC4xNDg0Mzc1LDAuNTkzNzUgLTAuMjI2NTYyNSwwLjkzMzU5MzggLTAuMjM0Mzc1LDEuMDE1NjI1IC0wLjA1NDY4NywwLjI2MTcxODggLTAuMDc4MTI1LDAuNDk2MDkzOCAtMC4wNzgxMjUsMC43MDMxMjUxIDAsMC40MDYyNSAwLjA5NzY1NiwwLjcxNDg0Mzc0IDAuMjk2ODc1LDAuOTIxODc0OTkgMC4xMzI4MTI1LDAuMTM2NzE4NzYgMC4zMDQ2ODc1LDAuMjAzMTI1MDEgMC41MTU2MjUsMC4yMDMxMjUwMSAwLjI4MTI1LDAgMC41NjI1LC0wLjEzMjgxMjUgMC44NDM3NSwtMC40MDYyNTAwMSAwLjIxODc1LC0wLjE5NTMxMjUxIDAuMzkwNjI1LC0wLjQzNzQ5OTk5IDAuNTE1NjI1LC0wLjcxODc0OTk5IDAuMTMyODEyNiwtMC4yODEyNTAxIDAuMjczNDM3NiwtMC43MjI2NTYzIDAuNDIxODc1MSwtMS4zMjgxMjUxIDAuMTQ0NTMxMiwtMC42MTMyODEzIDAuMjE4NzUsLTEuMDYyNSAwLjIxODc1LC0xLjM0Mzc1MDEgeiBtIDAsMCIgaWQ9InBhdGgxMDgiLz4mI3hhOyAgPC9nPiYjeGE7PC9zdmc+;connectable=0;allowArrows=0;rotatable=0;html=1;align=left;labelPosition=right;verticalLabelPosition=middle;verticalAlign=middle;fontSize=18;labelBackgroundColor=#E6E6E6;fontColor=#000000;labelBorderColor=none;imageBackground=#FFFFFF;imageBorder=default;shadow=0;spacingLeft=12.5;" parent="1" vertex="1">
          <mxGeometry x="312.5" y="521" width="50" height="50" as="geometry" />
        </mxCell>
        <mxCell id="a21QgjTOZl95tkyDf_ZO-24" value="&lt;pre style=&quot;line-height: 0%;&quot;&gt;&amp;nbsp;&amp;nbsp; &amp;nbsp;\sum_a^bc&amp;nbsp;&amp;nbsp; &amp;nbsp;&lt;/pre&gt;" style="shape=image;aspect=fixed;image=data:image/svg+xml,PHN2ZyB4bWxucz0iaHR0cDovL3d3dy53My5vcmcvMjAwMC9zdmciIGlkPSJzdmcxIiB2ZXJzaW9uPSIxLjEiIHZpZXdCb3g9IjAgMCA2LjM0OTk5OTkwNDYzMjU2OCA2LjM0OTk5OTkwNDYzMjU2OCIgaGVpZ2h0PSIyNC4wMDAwMDAwMTc1MDg5MiIgd2lkdGg9IjI0LjAwMDAwMDAxNzUwODkyIj4mI3hhOyAgJiN4YTsgIDxkZWZzIGlkPSJkZWZzMSI+JiN4YTsgICAgPGNsaXBQYXRoIGlkPSJjbGlwUGF0aDExMyIgY2xpcFBhdGhVbml0cz0idXNlclNwYWNlT25Vc2UiPiYjeGE7ICAgICAgPHBhdGggaWQ9InBhdGgxMTMiIGNsaXAtcnVsZT0iZXZlbm9kZCIgdHJhbnNmb3JtPSJtYXRyaXgoMC4zMTk5OTk5OSwwLDAsMC4zMTk5OTk5OSwtMTAzLC01NDAuOTk5OTgpIiBkPSJNIDExNS42MjUsMTE1LjYyNSBIIDI0MzIuMzI0MiBWIDMxODIuMzI0MiBIIDExNS42MjUgWiIvPiYjeGE7ICAgIDwvY2xpcFBhdGg+JiN4YTsgICAgPGNsaXBQYXRoIGlkPSJjbGlwUGF0aDExNyIgY2xpcFBhdGhVbml0cz0idXNlclNwYWNlT25Vc2UiPiYjeGE7ICAgICAgPHBhdGggaWQ9InBhdGgxMTciIGNsaXAtcnVsZT0iZXZlbm9kZCIgdHJhbnNmb3JtPSJtYXRyaXgoMC4zMTk5OTk5OSwwLDAsMC4zMTk5OTk5OSwtMTIyLjE3MTg3LC01MzAuOTk5OTgpIiBkPSJNIDExNS42MjUsMTE1LjYyNSBIIDI0MzIuMzI0MiBWIDMxODIuMzI0MiBIIDExNS42MjUgWiIvPiYjeGE7ICAgIDwvY2xpcFBhdGg+JiN4YTsgICAgPGNsaXBQYXRoIGlkPSJjbGlwUGF0aDExNSIgY2xpcFBhdGhVbml0cz0idXNlclNwYWNlT25Vc2UiPiYjeGE7ICAgICAgPHBhdGggaWQ9InBhdGgxMTUiIGNsaXAtcnVsZT0iZXZlbm9kZCIgdHJhbnNmb3JtPSJtYXRyaXgoMC4zMTk5OTk5OSwwLDAsMC4zMTk5OTk5OSwtMTIyLjE3MTg3LC01NDUuOTk5OTgpIiBkPSJNIDExNS42MjUsMTE1LjYyNSBIIDI0MzIuMzI0MiBWIDMxODIuMzI0MiBIIDExNS42MjUgWiIvPiYjeGE7ICAgIDwvY2xpcFBhdGg+JiN4YTsgIDwvZGVmcz4mI3hhOyAgPGcgaWQ9ImxheWVyMSI+JiN4YTsgICAgPHJlY3QgeT0iMCIgeD0iMCIgaGVpZ2h0PSI2LjM0OTk5OTkiIHdpZHRoPSI2LjM0OTk5OTkiIGlkPSJyZWN0MSIgc3R5bGU9Im9wYWNpdHk6MDtmaWxsOm5vbmU7c3Ryb2tlLXdpZHRoOjIuNjQ1ODM7c3Ryb2tlLWxpbmVqb2luOnJvdW5kO3N0cm9rZS1taXRlcmxpbWl0OjE2Ii8+JiN4YTsgICAgPHBhdGggY2xpcC1wYXRoPSJ1cmwoI2NsaXBQYXRoMTEzKSIgdHJhbnNmb3JtPSJtYXRyaXgoMC4xOTg0Mzc1LDAsMCwwLjE5ODQzNzUsMC41MzQ4NTA2NSw0LjUzMzA1MjIpIiBhcmlhLWxhYmVsPSLiiJEiIHN0eWxlPSJmaWxsOiMwMDAwMDA7ZmlsbC1vcGFjaXR5OjE7ZmlsbC1ydWxlOm5vbnplcm87c3Ryb2tlOm5vbmUiIGQ9Im0gMS4xMDkzNzkzLC0xMy41NzgxMDMgYyAwLjAzMTI1LC0wLjAzMTI1IDIuNjE3MTg3NiwtMC4wNDY4NyA3Ljc2NTYyNTQsLTAuMDQ2ODcgSCAxNi41NzgxMyBsIDAuNzUsMiBjIDAuMTEzMjgxLDAuMzM1OTM4IDAuMjM4MjgxLDAuNjg3NSAwLjM3NSwxLjA2MjUgMC4xNDQ1MzEsMC4zNzUgMC4yNSwwLjY1MjM0MzkgMC4zMTI1LDAuODI4MTI1MSAwLjA2MjUsMC4xNjc5Njg4IDAuMTAxNTYzLDAuMjg5MDYyNSAwLjEyNSwwLjM1OTM3NTEgaCAtMC4zNTkzNzUgbCAtMC4zNzUsLTAuMDE1NjI1IGMgLTAuMjYxNzE5LC0wLjY5NTMxMjIgLTAuNjg3NSwtMS4zMDQ2ODcyIC0xLjI4MTI1LC0xLjgyODEyNTIgLTAuNTg1OTM4LC0wLjUzMTI1IC0xLjI1NzgxMywtMC45MTQwNjIgLTIuMDE1NjI1LC0xLjE1NjI1IC0wLjY2Nzk2OSwtMC4yMzgyODEgLTEuNjIxMDk0LC0wLjM5ODQzNyAtMi44NTkzNzUsLTAuNDg0Mzc1IC0wLjM1NTQ2OSwtMC4wMTk1MyAtMi4xNzE4NzUzLC0wLjAzMTI1IC01LjQ1MzEyNTUsLTAuMDMxMjUgLTEuNjQ4NDM3NSwwIC0yLjQ2ODc1MDEsMC4wMDc4IC0yLjQ2ODc1MDEsMC4wMTU2MyAwLjAzMTI1LDAuMDQyOTcgMS4wMjM0Mzc2LDEuNDE0MDYzIDIuOTg0Mzc1Miw0LjEwOTM3NTIgMS45Njg3NSwyLjY4NzUwMDEgMi45NTcwMzEzLDQuMDQyOTY4OSAyLjk2ODc1MDEsNC4wNjI1MDAxIDAuMDcwMzEyLDAuMTA1NDY4OCAwLjA4MjAzMSwwLjE5NTMxMjYgMC4wMzEyNSwwLjI2NTYyNTEgTCAyLjcwMzEyOTQsMy4zOTA2NDc3IGMgMS4yNjk1MzEzLDAuMDA3ODEgMi41NjI1MDAxLDAuMDE1NjI1IDMuODc1MDAwMiwwLjAxNTYyNSAwLjU3MDMxMjUsMCAxLjE5MTQwNjMsMCAxLjg1OTM3NSwwIDAuNjY0MDYyNiwwIDEuMjIyNjU2MywtMC4wMDc4MSAxLjY3MTg3NTQsLTAuMDE1NjI1IDAuNDQ1MzEyLDAgMC42OTUzMTIsMCAwLjc1LDAgMS4yODEyNSwtMC4wNDI5NjkgMi4zMDA3ODEsLTAuMTcxODc1IDMuMDYyNSwtMC4zOTA2MjUgMS4zNTE1NjIsLTAuMzg2NzE4OCAyLjM3ODkwNiwtMS4xMjUwMDAxIDMuMDc4MTI1LC0yLjIxODc1MDEzIDAuMTEzMjgxLC0wLjE5OTIxODc1IDAuMjUsLTAuNDk2MDkzNzcgMC40MDYyNSwtMC44OTA2MjUwMyBIIDE4LjE0MDYzIEMgMTcuOTUzMTMsMC40MTAxNzg4MSAxNy42ODc1MDUsMS4xODc1MjI2IDE3LjM0Mzc1NSwyLjIxODc3MjYgMTcuMDA3ODE4LDMuMjUwMDIyNyAxNi43NTM5MTEsNC4wMTU2NDc3IDE2LjU3ODEzLDQuNTE1NjQ3NyBsIC03LjcwMzEyNTMsMC4wMzEyNSBjIC01LjEyNTAwMDMsMCAtNy43MTA5Mzc5LC0wLjAxNTYyNSAtNy43NTAwMDA0LC0wLjA0Njg3NSAtMC4wNzQyMTksLTAuMDIzNDM3IC0wLjEwOTM3NSwtMC4wNzQyMTkgLTAuMTA5Mzc1LC0wLjE1NjI1IDAsLTAuMDQyOTY5IDAuMDE5NTMxLC0wLjA4NTkzNyAwLjA2MjUsLTAuMTI1IDAuMDA3ODEsLTAuMDMxMjUgMC41NzAzMTI2LC0wLjcxMDkzNzUgMS42ODc1MDAxLC0yLjAzMTI1MDEgMS4xMTMyODEzLC0xLjMxMjUwMDAyIDIuMjIyNjU2MywtMi42Mjg5MDYzMyAzLjMyODEyNTEsLTMuOTUzMTI1MSBsIDEuNjcxODc1MSwtMS45Njg3NTAxIGMgMCwtMC4wMTk1MzEgLTEuMTI1LC0xLjU3MDMxMjYgLTMuMzc1MDAwMSwtNC42NTYyNTAyIGwgLTMuMzU5Mzc1MiwtNC42MjUwMDAyIC0wLjAxNTYyNSwtMC4yMDMxMjUgYyAwLC0wLjE5NTMxMyAwLjAzMTI1LC0wLjMxNjQwNiAwLjA5Mzc1LC0wLjM1OTM3NSB6IG0gMCwwIiBpZD0icGF0aDExMiIvPiYjeGE7ICAgIDxwYXRoIGNsaXAtcGF0aD0idXJsKCNjbGlwUGF0aDExNSkiIHRyYW5zZm9ybT0ibWF0cml4KDAuMTk4NDM3NSwwLDAsMC4xOTg0Mzc1LDQuMzM5MjY4NSw1LjUyNTIzOTcpIiBhcmlhLWxhYmVsPSJhIiBzdHlsZT0iZmlsbDojMDAwMDAwO2ZpbGwtb3BhY2l0eToxO2ZpbGwtcnVsZTpub256ZXJvO3N0cm9rZTpub25lIiBkPSJtIDUuNzAzMTMwMywtNC45OTk5Nzc1IGMgMCwwLjEwNTQ2ODggLTAuMTY0MDYyNSwwLjc4MTI1MDEgLTAuNDg0Mzc1LDIuMDMxMjUwMSAtMC4zMTI1LDEuMjUwMDAwMSAtMC40Njg3NSwxLjk1MzEyNTEgLTAuNDY4NzUsMi4xMDkzNzUxMSAwLDAuMzU1NDY4NzcgMC4xMTcxODc1LDAuNTMxMjUwMDMgMC4zNTkzNzUsMC41MzEyNTAwMyAwLjA3MDMxMiwtMC4wMDc4MTMgMC4xNTYyNSwtMC4wNDY4NzUgMC4yNSwtMC4xMDkzNzUwMSAwLjE3NTc4MTMsLTAuMTc1NzgxMjYgMC4zNDc2NTYzLC0wLjU4NTkzNzUzIDAuNTE1NjI1LC0xLjIzNDM3NTAzIDAuMDUwNzgxLC0wLjE2NDA2MjUgMC4wOTc2NTYsLTAuMjUzOTA2MyAwLjE0MDYyNSwtMC4yNjU2MjUgMC4wMDc4MSwwIDAuMDUwNzgxLDAgMC4xMjUsMCBoIDAuMDQ2ODc1IGMgMC4xNTYyNTAxLDAgMC4yMzQzNzUxLDAuMDMxMjUgMC4yMzQzNzUxLDAuMDkzNzUgMCwwLjAzMTI1IC0wLjAxMTcxOSwwLjEwMTU2MjUgLTAuMDMxMjUsMC4yMDMxMjUgLTAuMTg3NTAwMSwwLjcxMDkzNzUxIC0wLjQxNzk2ODgsMS4xOTkyMTg3OCAtMC42ODc1MDAxLDEuNDY4NzUwMDQgLTAuMTk5MjE4NywwLjE5NTMxMjUxIC0wLjQzMzU5MzcsMC4yOTY4NzUwMiAtMC43MDMxMjUsMC4yOTY4NzUwMiAtMC41NDI5Njg4LDAgLTAuOTE3OTY4OCwtMC4yMDcwMzEyNiAtMS4xMjUsLTAuNjI1MDAwMDMgLTAuMDQyOTY5LC0wLjEwMTU2MjUxIC0wLjA2MjUsLTAuMTQ4NDM3NTEgLTAuMDYyNSwtMC4xNDA2MjUwMSAtMC4wMTE3MTksLTAuMDA3ODEzIC0wLjAyNzM0NCwtMC4wMDc4MTMgLTAuMDQ2ODc1LDAgLTAuMDIzNDM3LDAuMDIzNDM3NSAtMC4wNDI5NjksMC4wNDI5Njg4IC0wLjA2MjUsMC4wNjI1IC0wLjQwNjI1LDAuMzc1MDAwMDEgLTAuODA4NTkzNywwLjYwMTU2MjUyIC0xLjIwMzEyNSwwLjY4NzUwMDAyIC0wLjA1NDY4NywwLjAwNzgxMyAtMC4xNTYyNSwwLjAxNTYyNSAtMC4zMTI1LDAuMDE1NjI1IC0wLjU2MjUsMCAtMS4wMjczNDM4LC0wLjIzNDM3NTAxIC0xLjM5MDYyNTA4LC0wLjcwMzEyNTAzIEMgMC41NDY4ODAxMSwtMC45NDEzODM1NCAwLjQyMTg4MDExLC0xLjQxNDAzOTggMC40MjE4ODAxMSwtMS45OTk5NzczIGMgMCwtMC4xMzI4MTI1IDAuMDAzOTA2LC0wLjIyNjU2MjUgMC4wMTU2MjUsLTAuMjgxMjUgMC4wNTA3ODEzLC0wLjUzOTA2MjYgMC4yMjI2NTYyNiwtMS4wNTQ2ODc2IDAuNTE1NjI1MDIsLTEuNTQ2ODc1MSAwLjI4OTA2MjQ3LC0wLjUgMC42NDA2MjUwNywtMC44OTg0Mzc1IDEuMDQ2ODc1MDcsLTEuMjAzMTI1MSAwLjUsLTAuMzgyODEyNSAxLjAxOTUzMTMsLTAuNTc4MTI1IDEuNTYyNSwtMC41NzgxMjUgMC40MTQwNjI2LDAgMC43OTY4NzUxLDAuMjEwOTM3NSAxLjE0MDYyNTEsMC42MjUgMC4xMzI4MTI1LC0wLjI1IDAuMzI4MTI1LC0wLjM3NSAwLjU3ODEyNSwtMC4zNzUgMC4xMTMyODEzLDAgMC4yMTA5Mzc1LDAuMDM5MDYzIDAuMjk2ODc1LDAuMTA5Mzc1IDAuMDgyMDMxLDAuMDYyNSAwLjEyNSwwLjE0ODQzNzUgMC4xMjUsMC4yNSB6IG0gLTQuMjAzMTI1MSwzLjY1NjI1MDIgYyAwLDAuMzA0Njg3NSAwLjA2MjUsMC41NDY4NzUwMiAwLjE4NzUsMC43MzQzNzUwMiAwLjEzMjgxMjUsMC4xODc1MDAwMSAwLjMzMjAzMTIsMC4yODEyNTAwMiAwLjU5Mzc1LDAuMjgxMjUwMDIgMC4yMzgyODEyLDAgMC41LC0wLjEwMTU2MjUxIDAuNzgxMjUsLTAuMzEyNTAwMDIgMC4xMDE1NjI1LC0wLjA2MjUgMC4yMzgyODEzLC0wLjE4NzUgMC40MDYyNSwtMC4zNzUwMDAwMiAwLjE3NTc4MTMsLTAuMTg3NSAwLjI4MTI1LC0wLjMxMjUgMC4zMTI1LC0wLjM3NSAwLjAxOTUzMSwtMC4wMzkwNjMgMC4xMzI4MTI2LC0wLjQ5MjE4NzUgMC4zNDM3NTAxLC0xLjM1OTM3NTEgMC4yMTg3NSwtMC44NzUgMC4zMjgxMjUsLTEuMzQ3NjU2MyAwLjMyODEyNSwtMS40MjE4NzUgMCwtMC4wOTM3NSAtMC4wNDY4NzUsLTAuMjM0Mzc1IC0wLjE0MDYyNSwtMC40MjE4NzUgLTAuMTc5Njg3NSwtMC4zNjMyODEzIC0wLjQ0NTMxMjUsLTAuNTQ2ODc1MSAtMC43OTY4NzUxLC0wLjU0Njg3NTEgLTAuMzM1OTM3NSwwIC0wLjYzMjgxMjUsMC4xNDg0Mzc1IC0wLjg5MDYyNSwwLjQzNzUwMDEgLTAuMjYxNzE4OCwwLjI4MTI1IC0wLjQ2MDkzNzUsMC42MDkzNzUgLTAuNTkzNzUsMC45ODQzNzUgLTAuMjQyMTg3NSwwLjY2Nzk2ODggLTAuNDE0MDYyNSwxLjM1OTM3NTEgLTAuNTE1NjI1LDIuMDc4MTI1MSAwLDAuMDMxMjUgLTAuMDA3ODEsMC4wODU5MzcgLTAuMDE1NjI1LDAuMTU2MjUgMCwwLjA2MjUgMCwwLjEwOTM3NSAwLDAuMTQwNjI1IHogbSAwLDAiIGlkPSJwYXRoMTE0Ii8+JiN4YTsgICAgPHBhdGggY2xpcC1wYXRoPSJ1cmwoI2NsaXBQYXRoMTE3KSIgdHJhbnNmb3JtPSJtYXRyaXgoMC4xOTg0Mzc1LDAsMCwwLjE5ODQzNzUsNC4zMzkyNjg1LDIuNTQ4Njc3MikiIGFyaWEtbGFiZWw9ImIiIHN0eWxlPSJmaWxsOiMwMDAwMDA7ZmlsbC1vcGFjaXR5OjE7ZmlsbC1ydWxlOm5vbnplcm87c3Ryb2tlOm5vbmUiIGQ9Im0gMS4xMjUwMDUxLC04LjY3MTg1MzIgYyAwLjAwNzgxLDAgMC4zMTY0MDYzLC0wLjAxOTUzMSAwLjkyMTg3NTEsLTAuMDYyNSAwLjYwMTU2MjUsLTAuMDUwNzgxIDAuOTEwMTU2MywtMC4wNzgxMjUgMC45MjE4NzUsLTAuMDc4MTI1IDAuMTAxNTYyNSwwIDAuMTU2MjUsMC4wMzkwNjMgMC4xNTYyNSwwLjEwOTM3NSAwLDAuMDc0MjE5IC0wLjE1MjM0MzcsMC42OTkyMTg3IC0wLjQ1MzEyNSwxLjg3NSAtMC4yOTI5Njg4LDEuMTY3OTY4OCAtMC40Mzc1LDEuNzU3ODEyNiAtMC40Mzc1LDEuNzY1NjI1MSAwLDAuMDIzNDM3IDAuMDIzNDM3LDAuMDA3ODEgMC4wNzgxMjUsLTAuMDQ2ODc1IDAuMjg5MDYyNSwtMC4yMzgyODEyIDAuNjEzMjgxMywtMC4zOTg0Mzc1IDAuOTY4NzUsLTAuNDg0Mzc1IDAuMTAxNTYyNSwtMC4wMDc4MSAwLjIwNzAzMTMsLTAuMDE1NjI1IDAuMzEyNSwtMC4wMTU2MjUgMC4xMTMyODEzLDAgMC4yMTg3NSwwLjAwNzgxIDAuMzEyNTAwMSwwLjAxNTYyNSAwLjQ0NTMxMjUsMC4xMDU0Njg3IDAuODAwNzgxMiwwLjMzNTkzNzUgMS4wNjI1LDAuNjg3NSAwLjI1NzgxMjUsMC4zNTU0Njg4IDAuMzkwNjI1LDAuODA0Njg3NiAwLjM5MDYyNSwxLjM0Mzc1MDEgMCwwLjk0OTIxODggLTAuMzM1OTM3NSwxLjgwNDY4NzYgLTEsMi41NjI1MDAwOCAtMC42Njc5Njg4LDAuNzYxNzE4NzkgLTEuMzg2NzE4OCwxLjE0MDYyNTA1IC0yLjE1NjI1MDEsMS4xNDA2MjUwNSAtMC4yNSwwIC0wLjQ4NDM3NSwtMC4wNTg1OTM3NSAtMC43MDMxMjUsLTAuMTcxODc1MDEgQyAwLjg0Mzc1NTEzLC0wLjMyMDI5MDM5IDAuNTE1NjMwMTEsLTAuOTQ1MjkwNDEgMC41MTU2MzAxMSwtMS45MDYyMjggYyAwLC0wLjI1IDAuMDE5NTMxMywtMC40ODgyODEyIDAuMDYyNSwtMC43MTg3NSAwLC0wLjAwNzgxIDAuMjEwOTM3NTEsLTAuODc4OTA2MyAwLjY0MDYyNDk5LC0yLjYwOTM3NTEgbCAwLjY1NjI1MDEsLTIuNTkzNzUwMSBjIDAuMDA3ODEsLTAuMTEzMjgxMyAtMC4wMjM0MzcsLTAuMTg3NSAtMC4wOTM3NSwtMC4yMTg3NSAtMC4wNzQyMTksLTAuMDMxMjUgLTAuMTk1MzEyNSwtMC4wNDY4NzUgLTAuMzU5Mzc1MSwtMC4wNDY4NzUgLTAuMDYyNSwwIC0wLjEwOTM3NSwwIC0wLjE0MDYyNSwwIC0wLjE3OTY4NzUsMCAtMC4yNzczNDM3LC0wLjAwNzgxIC0wLjI5Njg3NDk3LC0wLjAzMTI1IC0wLjA1NDY4NzUsLTAuMDM5MDYzIC0wLjA1ODU5MzgsLTAuMTQ0NTMxMyAtMC4wMTU2MjUsLTAuMzEyNSAwLjAzMTI1LC0wLjExMzI4MTMgMC4wNTQ2ODc1LC0wLjE3OTY4NzUgMC4wNzgxMjUsLTAuMjAzMTI1IDAuMDMxMjUsLTAuMDE5NTMxIDAuMDU0Njg3LC0wLjAzMTI1IDAuMDc4MTI1LC0wLjAzMTI1IHogbSAzLjE0MDYyNTIsNC41NDY4NzUyIGMgMCwtMC42NzU3ODEzIC0wLjI1NzgxMjUsLTEuMDE1NjI1MSAtMC43NjU2MjUxLC0xLjAxNTYyNTEgLTAuMDIzNDM3LDAgLTAuMDU0Njg3LDAuMDA3ODEgLTAuMDkzNzUsMC4wMTU2MjUgLTAuMDMxMjUsMCAtMC4wNTQ2ODcsMCAtMC4wNjI1LDAgLTAuNDM3NSwwLjA4NTkzNyAtMC44NTU0Njg4LDAuMzg2NzE4OCAtMS4yNSwwLjkwNjI1IC0wLjAxMTcxOSwwLjAyMzQzOCAtMC4wMzEyNSwwLjA0Njg3NSAtMC4wNjI1LDAuMDc4MTI1IGwgLTAuMDMxMjUsMC4wNDY4NzUgYyAwLDAuMDExNzE5IC0wLjA3ODEyNSwwLjMyMDMxMjUgLTAuMjM0Mzc1LDAuOTIxODc1IC0wLjE0ODQzNzUsMC41OTM3NSAtMC4yMjY1NjI1LDAuOTMzNTkzOCAtMC4yMzQzNzUsMS4wMTU2MjUgLTAuMDU0Njg3LDAuMjYxNzE4OCAtMC4wNzgxMjUsMC40OTYwOTM4IC0wLjA3ODEyNSwwLjcwMzEyNTEgMCwwLjQwNjI1IDAuMDk3NjU2LDAuNzE0ODQzNzQgMC4yOTY4NzUsMC45MjE4NzUgMC4xMzI4MTI1LDAuMTM2NzE4NzYgMC4zMDQ2ODc1LDAuMjAzMTI1MDEgMC41MTU2MjUsMC4yMDMxMjUwMSAwLjI4MTI1LDAgMC41NjI1LC0wLjEzMjgxMjUgMC44NDM3NSwtMC40MDYyNTAwMiAwLjIxODc1LC0wLjE5NTMxMjUgMC4zOTA2MjUsLTAuNDM3NDk5OTkgMC41MTU2MjUsLTAuNzE4NzQ5OTkgMC4xMzI4MTI1LC0wLjI4MTI1IDAuMjczNDM3NiwtMC43MjI2NTYzIDAuNDIxODc1MSwtMS4zMjgxMjUxIDAuMTQ0NTMxMiwtMC42MTMyODEzIDAuMjE4NzUsLTEuMDYyNSAwLjIxODc1LC0xLjM0Mzc0OTkgeiBtIDAsMCIgaWQ9InBhdGgxMTYiLz4mI3hhOyAgPC9nPiYjeGE7PC9zdmc+;connectable=0;allowArrows=0;rotatable=0;html=1;align=left;labelPosition=right;verticalLabelPosition=middle;verticalAlign=middle;fontSize=18;labelBackgroundColor=#E6E6E6;fontColor=#000000;labelBorderColor=none;imageBackground=#FFFFFF;imageBorder=default;shadow=0;spacingLeft=12.5;" parent="1" vertex="1">
          <mxGeometry x="312.5" y="629" width="50" height="50" as="geometry" />
        </mxCell>
        <mxCell id="a21QgjTOZl95tkyDf_ZO-25" value="&lt;pre style=&quot;line-height: 0%;&quot;&gt;\sum\limits_a^bc&lt;/pre&gt;" style="shape=image;aspect=fixed;image=data:image/svg+xml,PHN2ZyB4bWxucz0iaHR0cDovL3d3dy53My5vcmcvMjAwMC9zdmciIGlkPSJzdmcxIiB2ZXJzaW9uPSIxLjEiIHZpZXdCb3g9IjAgMCA2LjM0OTk5OTkwNDYzMjU2OCA2LjM0OTk5OTkwNDYzMjU2OCIgaGVpZ2h0PSIyNC4wMDAwMDAwMTc1MDg5MiIgd2lkdGg9IjI0LjAwMDAwMDAxNzUwODkyIj4mI3hhOyAgJiN4YTsgIDxkZWZzIGlkPSJkZWZzMSI+JiN4YTsgICAgPGNsaXBQYXRoIGlkPSJjbGlwUGF0aDEyMyIgY2xpcFBhdGhVbml0cz0idXNlclNwYWNlT25Vc2UiPiYjeGE7ICAgICAgPHBhdGggaWQ9InBhdGgxMjMiIGNsaXAtcnVsZT0iZXZlbm9kZCIgdHJhbnNmb3JtPSJtYXRyaXgoMC4zMTk5OTk5OSwwLDAsMC4zMTk5OTk5OSwtMTYyLjM1OTM3LC01NDAuOTk5OTgpIiBkPSJNIDExNS42MjUsMTE1LjYyNSBIIDI0MzIuMzI0MiBWIDMxODIuMzI0MiBIIDExNS42MjUgWiIvPiYjeGE7ICAgIDwvY2xpcFBhdGg+JiN4YTsgICAgPGNsaXBQYXRoIGlkPSJjbGlwUGF0aDEyNSIgY2xpcFBhdGhVbml0cz0idXNlclNwYWNlT25Vc2UiPiYjeGE7ICAgICAgPHBhdGggaWQ9InBhdGgxMjUiIGNsaXAtcnVsZT0iZXZlbm9kZCIgdHJhbnNmb3JtPSJtYXRyaXgoMC4zMTk5OTk5OSwwLDAsMC4zMTk5OTk5OSwtMTY5LjIxODc0LC01MjIuOTk5OTgpIiBkPSJNIDExNS42MjUsMTE1LjYyNSBIIDI0MzIuMzI0MiBWIDMxODIuMzI0MiBIIDExNS42MjUgWiIvPiYjeGE7ICAgIDwvY2xpcFBhdGg+JiN4YTsgICAgPGNsaXBQYXRoIGlkPSJjbGlwUGF0aDEyMSIgY2xpcFBhdGhVbml0cz0idXNlclNwYWNlT25Vc2UiPiYjeGE7ICAgICAgPHBhdGggaWQ9InBhdGgxMjEiIGNsaXAtcnVsZT0iZXZlbm9kZCIgdHJhbnNmb3JtPSJtYXRyaXgoMC4zMTk5OTk5OSwwLDAsMC4zMTk5OTk5OSwtMTY4LjU3ODEyLC01NTUuOTk5OTgpIiBkPSJNIDExNS42MjUsMTE1LjYyNSBIIDI0MzIuMzI0MiBWIDMxODIuMzI0MiBIIDExNS42MjUgWiIvPiYjeGE7ICAgIDwvY2xpcFBhdGg+JiN4YTsgICAgPGNsaXBQYXRoIGlkPSJjbGlwUGF0aDExOSIgY2xpcFBhdGhVbml0cz0idXNlclNwYWNlT25Vc2UiPiYjeGE7ICAgICAgPHBhdGggaWQ9InBhdGgxMTkiIGNsaXAtcnVsZT0iZXZlbm9kZCIgdHJhbnNmb3JtPSJtYXRyaXgoMC4zMTk5OTk5OSwwLDAsMC4zMTk5OTk5OSwtMTg0LjU0Njg3LC01NDAuODc0OTgpIiBkPSJNIDExNS42MjUsMTE1LjYyNSBIIDI0MzIuMzI0MiBWIDMxODIuMzI0MiBIIDExNS42MjUgWiIvPiYjeGE7ICAgIDwvY2xpcFBhdGg+JiN4YTsgIDwvZGVmcz4mI3hhOyAgPGcgaWQ9ImxheWVyMSI+JiN4YTsgICAgPHJlY3QgeT0iMCIgeD0iMCIgaGVpZ2h0PSI2LjM0OTk5OTkiIHdpZHRoPSI2LjM0OTk5OTkiIGlkPSJyZWN0MSIgc3R5bGU9Im9wYWNpdHk6MDtmaWxsOm5vbmU7c3Ryb2tlLXdpZHRoOjIuNjQ1ODM7c3Ryb2tlLWxpbmVqb2luOnJvdW5kO3N0cm9rZS1taXRlcmxpbWl0OjE2Ii8+JiN4YTsgICAgPHBhdGggY2xpcC1wYXRoPSJ1cmwoI2NsaXBQYXRoMTE5KSIgdHJhbnNmb3JtPSJtYXRyaXgoMC4xMzIyOTE2NiwwLDAsMC4xMzIyOTE2Niw0LjA2MDkyNjcsMy45MzE1Mzk5KSIgYXJpYS1sYWJlbD0iYyIgc3R5bGU9ImZpbGw6IzAwMDAwMDtmaWxsLW9wYWNpdHk6MTtmaWxsLXJ1bGU6bm9uemVybztzdHJva2U6bm9uZSIgZD0ibSA3Ljc1MDAwOCwtNi40NTMxMDI3IGMgMCwwLjM4NjcxODcgLTAuMTE3MTg3NSwwLjY5OTIxODcgLTAuMzQzNzUsMC45Mzc1IC0wLjIzMDQ2ODgsMC4yMzA0Njg4IC0wLjUyMzQzNzUsMC4zNDM3NSAtMC44NzUsMC4zNDM3NSAtMC4yMzA0Njg4LDAgLTAuNDE0MDYyNiwtMC4wNjI1IC0wLjU0Njg3NTEsLTAuMTg3NSAtMC4xMjUsLTAuMTMyODEyNSAtMC4xODc1LC0wLjMxNjQwNjMgLTAuMTg3NSwtMC41NDY4NzUgMCwtMC4xOTUzMTI1IDAuMDU0Njg3LC0wLjM5NDUzMTMgMC4xNzE4NzUsLTAuNTkzNzUgMC4xMjUsLTAuMTk1MzEyNSAwLjI4NTE1NjMsLTAuMzM1OTM3NSAwLjQ4NDM3NTEsLTAuNDIxODc1MSAwLjA5Mzc1LC0wLjA2MjUgMC4xNTYyNSwtMC4wOTM3NSAwLjE4NzUsLTAuMDkzNzUgMC4wNTA3ODEsMCAwLjAwNzgxLC0wLjAzOTA2MyAtMC4xMjUsLTAuMTI1IC0wLjIzMDQ2ODgsLTAuMTI1IC0wLjU0Njg3NTEsLTAuMTg3NSAtMC45NTMxMjUxLC0wLjE4NzUgLTAuNjY3OTY4OCwwIC0xLjI3NzM0MzgsMC4yNzM0Mzc1IC0xLjgyODEyNTEsMC44MTI1MDAxIC0wLjMxMjUsMC4zMTI1IC0wLjU3MDMxMjUsMC42ODc1IC0wLjc2NTYyNSwxLjEyNSAtMC4xODc1LDAuNDM3NSAtMC4zODI4MTI1LDEuMDYyNTAwMSAtMC41NzgxMjUsMS44NzUwMDAxIC0wLjEyNSwwLjU2MjUgLTAuMTg3NSwxLjAxNTYyNSAtMC4xODc1LDEuMzU5Mzc1IDAsMC44NjcxODc2IDAuMzc4OTA2MiwxLjQxNDA2MjYxIDEuMTQwNjI1LDEuNjQwNjI1MTEgMC4wOTM3NSwwLjAzMTI1IDAuMjQyMTg3NSwwLjA0Njg3NSAwLjQ1MzEyNSwwLjA0Njg3NSAwLjE3NTc4MTMsMCAwLjM2MzI4MTMsLTAuMDE1NjI1IDAuNTYyNTAwMSwtMC4wNDY4NzUgMS4xMzI4MTI1LC0wLjE2NDA2MjUgMi4wNjY0MDYzLC0wLjY2NDA2MjUxIDIuNzk2ODc1MSwtMS41MDAwMDAwMSAwLjEwMTU2MjUsLTAuMTI1MDAwMSAwLjE3NTc4MTIsLTAuMTg3NTAwMSAwLjIxODc1LC0wLjE4NzUwMDEgMC4wMzkwNjMsMCAwLjExNzE4NzUsMC4wNTg1OTQgMC4yMzQzNzUsMC4xNzE4NzUxIDAuMTQ0NTMxMywwLjE0ODQzNzUgMC4xOTUzMTI1LDAuMjUgMC4xNTYyNSwwLjMxMjUgLTAuMDQyOTY5LDAuMTI1IC0wLjIyNjU2MjUsMC4zMjgxMjUgLTAuNTQ2ODc1LDAuNjA5Mzc1IC0wLjc1LDAuNjc5Njg3NTIgLTEuNjk5MjE4OCwxLjEwMTU2MjU0IC0yLjg0Mzc1MDEsMS4yNjU2MjUwNCAtMC4yNzM0Mzc1LDAuMDMxMjUgLTAuNTA3ODEyNSwwLjA0Njg3NSAtMC43MDMxMjUxLDAuMDQ2ODc1IC0xLjMwNDY4NzUsMCAtMi4yMDMxMjUsLTAuNTMxMjUwMDIgLTIuNzAzMTI1MDcsLTEuNTkzNzUwMDQgLTAuMjMwNDY4NzYsLTAuNDQ1MzEyNSAtMC4zNDM3NTAwMSwtMC45NDUzMTI2IC0wLjM0Mzc1MDAxLC0xLjUwMDAwMDEgMCwtMC41NTA3ODEzIDAuMTEzMjgxMjUsLTEuMTE3MTg3NSAwLjM0Mzc1MDAxLC0xLjcwMzEyNTEgMC4zNDM3NDk5NywtMC45MDYyNSAwLjkxMDE1NjI3LC0xLjY3NTc4MTMgMS43MDMxMjUwNywtMi4zMTI1MDAxIDAuODAwNzgxMywtMC42MzI4MTI1IDEuNjQ0NTMxMywtMSAyLjUzMTI1MDEsLTEuMDkzNzUgMC4wNzAzMTIsLTAuMDE5NTMxIDAuMTkxNDA2MywtMC4wMzEyNSAwLjM1OTM3NSwtMC4wMzEyNSAwLjQxNDA2MjUsMCAwLjgwNDY4NzYsMC4wNzAzMTIgMS4xNzE4NzUxLDAuMjAzMTI1IDAuNjc1NzgxMiwwLjI5Mjk2ODggMS4wMTU2MjUsMC43NSAxLjAxNTYyNSwxLjM3NTAwMDEgeiBtIDAsMCIgaWQ9InBhdGgxMTgiLz4mI3hhOyAgICA8cGF0aCBjbGlwLXBhdGg9InVybCgjY2xpcFBhdGgxMjEpIiB0cmFuc2Zvcm09Im1hdHJpeCgwLjEzMjI5MTY2LDAsMCwwLjEzMjI5MTY2LDEuOTQ4Mzk0Miw1LjkzMjQ1MTQpIiBhcmlhLWxhYmVsPSJhIiBzdHlsZT0iZmlsbDojMDAwMDAwO2ZpbGwtb3BhY2l0eToxO2ZpbGwtcnVsZTpub256ZXJvO3N0cm9rZTpub25lIiBkPSJtIDUuNzAzMTMyMywtNC45OTk5NzcgYyAwLDAuMTA1NDY4NyAtMC4xNjQwNjI1LDAuNzgxMjUgLTAuNDg0Mzc1MSwyLjAzMTI1IC0wLjMxMjUsMS4yNTAwMDAxIC0wLjQ2ODc1LDEuOTUzMTI1MSAtMC40Njg3NSwyLjEwOTM3NTEzIDAsMC4zNTU0Njg3NyAwLjExNzE4NzUsMC41MzEyNTAwMiAwLjM1OTM3NSwwLjUzMTI1MDAyIDAuMDcwMzEyLC0wLjAwNzgxMyAwLjE1NjI1LC0wLjA0Njg3NSAwLjI1LC0wLjEwOTM3NSAwLjE3NTc4MTMsLTAuMTc1NzgxMjYgMC4zNDc2NTYzLC0wLjU4NTkzNzU1IDAuNTE1NjI1MSwtMS4yMzQzNzUwNSAwLjA1MDc4MSwtMC4xNjQwNjI1IDAuMDk3NjU2LC0wLjI1MzkwNjMgMC4xNDA2MjUsLTAuMjY1NjI1IDAuMDA3ODEsMCAwLjA1MDc4MSwwIDAuMTI1LDAgaCAwLjA0Njg3NSBjIDAuMTU2MjUsMCAwLjIzNDM3NSwwLjAzMTI1IDAuMjM0Mzc1LDAuMDkzNzUgMCwwLjAzMTI1IC0wLjAxMTcxOSwwLjEwMTU2MjUgLTAuMDMxMjUsMC4yMDMxMjUgLTAuMTg3NSwwLjcxMDkzNzUzIC0wLjQxNzk2ODgsMS4xOTkyMTg4IC0wLjY4NzUsMS40Njg3NTAwNiAtMC4xOTkyMTg4LDAuMTk1MzEyNTEgLTAuNDMzNTkzOCwwLjI5Njg3NTAxIC0wLjcwMzEyNTEsMC4yOTY4NzUwMSAtMC41NDI5Njg3LDAgLTAuOTE3OTY4OCwtMC4yMDcwMzEyNiAtMS4xMjUsLTAuNjI1MDAwMDIgLTAuMDQyOTY5LC0wLjEwMTU2MjUxIC0wLjA2MjUsLTAuMTQ4NDM3NTEgLTAuMDYyNSwtMC4xNDA2MjUwMSAtMC4wMTE3MTksLTAuMDA3ODEzIC0wLjAyNzM0NCwtMC4wMDc4MTMgLTAuMDQ2ODc1LDAgLTAuMDIzNDM3LDAuMDIzNDM3NSAtMC4wNDI5NjksMC4wNDI5Njg3IC0wLjA2MjUsMC4wNjI1IC0wLjQwNjI1LDAuMzc1MDAwMDIgLTAuODA4NTkzOCwwLjYwMTU2MjUzIC0xLjIwMzEyNTEsMC42ODc1MDAwMyAtMC4wNTQ2ODcsMC4wMDc4MTMgLTAuMTU2MjUsMC4wMTU2MjUgLTAuMzEyNSwwLjAxNTYyNSAtMC41NjI1LDAgLTEuMDI3MzQzOCwtMC4yMzQzNzUwMSAtMS4zOTA2MjUwNCwtMC43MDMxMjUwMyBDIDAuNTQ2ODgyMDUsLTAuOTQxMzgzMTIgMC40MjE4ODIwNCwtMS40MTQwMzk0IDAuNDIxODgyMDQsLTEuOTk5OTc2OSBjIDAsLTAuMTMyODEyNSAwLjAwMzkwNiwtMC4yMjY1NjI1IDAuMDE1NjI1LC0wLjI4MTI1IDAuMDUwNzgxMywtMC41MzkwNjI2IDAuMjIyNjU2MjYsLTEuMDU0Njg3NiAwLjUxNTYyNTAyLC0xLjU0Njg3NTEgMC4yODkwNjI1NCwtMC41IDAuNjQwNjI1MDQsLTAuODk4NDM3NSAxLjA0Njg3NTA0LC0xLjIwMzEyNSAwLjUsLTAuMzgyODEyNiAxLjAxOTUzMTMsLTAuNTc4MTI1MSAxLjU2MjUwMDEsLTAuNTc4MTI1MSAwLjQxNDA2MjUsMCAwLjc5Njg3NSwwLjIxMDkzNzUgMS4xNDA2MjUsMC42MjUwMDAxIDAuMTMyODEyNSwtMC4yNTAwMDAxIDAuMzI4MTI1LC0wLjM3NTAwMDEgMC41NzgxMjUsLTAuMzc1MDAwMSAwLjExMzI4MTMsMCAwLjIxMDkzNzYsMC4wMzkwNjMgMC4yOTY4NzUxLDAuMTA5Mzc1IDAuMDgyMDMxLDAuMDYyNSAwLjEyNSwwLjE0ODQzNzYgMC4xMjUsMC4yNTAwMDAxIHogbSAtNC4yMDMxMjUyLDMuNjU2MjUwMSBjIDAsMC4zMDQ2ODc1IDAuMDYyNSwwLjU0Njg3NTAzIDAuMTg3NSwwLjczNDM3NTA0IDAuMTMyODEyNSwwLjE4NzUwMDAxIDAuMzMyMDMxMywwLjI4MTI1MDAxIDAuNTkzNzUsMC4yODEyNTAwMSAwLjIzODI4MTMsMCAwLjUsLTAuMTAxNTYyNSAwLjc4MTI1MDEsLTAuMzEyNTAwMDEgMC4xMDE1NjI1LC0wLjA2MjUgMC4yMzgyODEyLC0wLjE4NzUwMDAxIDAuNDA2MjUsLTAuMzc1MDAwMDQgMC4xNzU3ODEyLC0wLjE4NzUgMC4yODEyNSwtMC4zMTI1IDAuMzEyNSwtMC4zNzUgMC4wMTk1MzEsLTAuMDM5MDYzIDAuMTMyODEyNSwtMC40OTIxODc1IDAuMzQzNzUsLTEuMzU5Mzc1IDAuMjE4NzUsLTAuODc1MDAwMSAwLjMyODEyNSwtMS4zNDc2NTY0IDAuMzI4MTI1LC0xLjQyMTg3NTEgMCwtMC4wOTM3NSAtMC4wNDY4NzUsLTAuMjM0Mzc1IC0wLjE0MDYyNSwtMC40MjE4NzUgLTAuMTc5Njg3NSwtMC4zNjMyODEzIC0wLjQ0NTMxMjUsLTAuNTQ2ODc1IC0wLjc5Njg3NSwtMC41NDY4NzUgLTAuMzM1OTM3NSwwIC0wLjYzMjgxMjYsMC4xNDg0Mzc1IC0wLjg5MDYyNTEsMC40Mzc1IC0wLjI2MTcxODcsMC4yODEyNSAtMC40NjA5Mzc1LDAuNjA5Mzc1IC0wLjU5Mzc1LDAuOTg0Mzc1IC0wLjI0MjE4NzUsMC42Njc5Njg4IC0wLjQxNDA2MjUsMS4zNTkzNzUxIC0wLjUxNTYyNSwyLjA3ODEyNTEgMCwwLjAzMTI1IC0wLjAwNzgxLDAuMDg1OTM3IC0wLjAxNTYyNSwwLjE1NjI1IDAsMC4wNjI1IDAsMC4xMDkzNzUgMCwwLjE0MDYyNSB6IG0gMCwwIiBpZD0icGF0aDEyMCIvPiYjeGE7ICAgIDxwYXRoIGNsaXAtcGF0aD0idXJsKCNjbGlwUGF0aDEyMykiIHRyYW5zZm9ybT0ibWF0cml4KDAuMTMyMjkxNjYsMCwwLDAuMTMyMjkxNjYsMS4xMjU3MDU0LDMuOTQ4MDc2NCkiIGFyaWEtbGFiZWw9IuKIkSIgc3R5bGU9ImZpbGw6IzAwMDAwMDtmaWxsLW9wYWNpdHk6MTtmaWxsLXJ1bGU6bm9uemVybztzdHJva2U6bm9uZSIgZD0ibSAxLjEwOTM4MTgsLTEzLjU3ODEwMyBjIDAuMDMxMjUsLTAuMDMxMjUgMi42MTcxODc2LC0wLjA0Njg3IDcuNzY1NjI1MywtMC4wNDY4NyBoIDcuNzAzMTI0OSBsIDAuNzUsMiBjIDAuMTEzMjgyLDAuMzM1OTM4IDAuMjM4MjgyLDAuNjg3NSAwLjM3NTAwMSwxLjA2MjUgMC4xNDQ1MzEsMC4zNzUgMC4yNSwwLjY1MjM0MzkgMC4zMTI1LDAuODI4MTI1MSAwLjA2MjUsMC4xNjc5Njg4IDAuMTAxNTYyLDAuMjg5MDYyNSAwLjEyNSwwLjM1OTM3NTEgaCAtMC4zNTkzNzUgbCAtMC4zNzUwMDEsLTAuMDE1NjI1IGMgLTAuMjYxNzE4LC0wLjY5NTMxMjIgLTAuNjg3NSwtMS4zMDQ2ODcyIC0xLjI4MTI1LC0xLjgyODEyNTIgLTAuNTg1OTM3LC0wLjUzMTI1IC0xLjI1NzgxMiwtMC45MTQwNjIgLTIuMDE1NjI1LC0xLjE1NjI1IC0wLjY2Nzk2OCwtMC4yMzgyODEgLTEuNjIxMDkzLC0wLjM5ODQzNyAtMi44NTkzNzUsLTAuNDg0Mzc1IC0wLjM1NTQ2OSwtMC4wMTk1MyAtMi4xNzE4NzQ5LC0wLjAzMTI1IC01LjQ1MzEyNSwtMC4wMzEyNSAtMS42NDg0Mzc2LDAgLTIuNDY4NzUwMSwwLjAwNzggLTIuNDY4NzUwMSwwLjAxNTYzIDAuMDMxMjUsMC4wNDI5NyAxLjAyMzQzNzUsMS40MTQwNjMgMi45ODQzNzUxLDQuMTA5Mzc1MiAxLjk2ODc1MDEsMi42ODc1MDAxIDIuOTU3MDMxNCw0LjA0Mjk2ODkgMi45Njg3NTAyLDQuMDYyNTAwMSAwLjA3MDMxMiwwLjEwNTQ2ODggMC4wODIwMzEsMC4xOTUzMTI2IDAuMDMxMjUsMC4yNjU2MjUxIEwgMi43MDMxMzE5LDMuMzkwNjQ3NyBjIDEuMjY5NTMxMywwLjAwNzgxIDIuNTYyNTAwMSwwLjAxNTYyNSAzLjg3NTAwMDEsMC4wMTU2MjUgMC41NzAzMTI2LDAgMS4xOTE0MDYzLDAgMS44NTkzNzUxLDAgMC42NjQwNjI1LDAgMS4yMjI2NTYzLC0wLjAwNzgxIDEuNjcxODc0OSwtMC4wMTU2MjUgMC40NDUzMTMsMCAwLjY5NTMxMywwIDAuNzUsMCAxLjI4MTI1LC0wLjA0Mjk2OSAyLjMwMDc4MiwtMC4xNzE4NzUgMy4wNjI1LC0wLjM5MDYyNSAxLjM1MTU2MywtMC4zODY3MTg4IDIuMzc4OTA3LC0xLjEyNTAwMDEgMy4wNzgxMjUsLTIuMjE4NzUwMTMgMC4xMTMyODIsLTAuMTk5MjE4NzUgMC4yNSwtMC40OTYwOTM3NyAwLjQwNjI1LC0wLjg5MDYyNTAzIGggMC43MzQzNzYgQyAxNy45NTMxMzMsMC40MTAxNzg4MSAxNy42ODc1MDgsMS4xODc1MjI2IDE3LjM0Mzc1NywyLjIxODc3MjYgMTcuMDA3ODIsMy4yNTAwMjI3IDE2Ljc1MzkxNCw0LjAxNTY0NzcgMTYuNTc4MTMyLDQuNTE1NjQ3NyBsIC03LjcwMzEyNDksMC4wMzEyNSBjIC01LjEyNTAwMDIsMCAtNy43MTA5Mzc4LC0wLjAxNTYyNSAtNy43NTAwMDAzLC0wLjA0Njg3NSAtMC4wNzQyMTksLTAuMDIzNDM3IC0wLjEwOTM3NSwtMC4wNzQyMTkgLTAuMTA5Mzc1LC0wLjE1NjI1IDAsLTAuMDQyOTY5IDAuMDE5NTMxLC0wLjA4NTkzNyAwLjA2MjUsLTAuMTI1IDAuMDA3ODEsLTAuMDMxMjUgMC41NzAzMTI1LC0wLjcxMDkzNzUgMS42ODc1MDAxLC0yLjAzMTI1MDEgMS4xMTMyODEzLC0xLjMxMjUwMDAyIDIuMjIyNjU2MywtMi42Mjg5MDYzMyAzLjMyODEyNTEsLTMuOTUzMTI1MSBsIDEuNjcxODc1MSwtMS45Njg3NTAxIGMgMCwtMC4wMTk1MzEgLTEuMTI1MDAwMSwtMS41NzAzMTI2IC0zLjM3NTAwMDIsLTQuNjU2MjUwMiBsIC0zLjM1OTM3NTEsLTQuNjI1MDAwMiAtMC4wMTU2MjUsLTAuMjAzMTI1IGMgMCwtMC4xOTUzMTMgMC4wMzEyNSwtMC4zMTY0MDYgMC4wOTM3NSwtMC4zNTkzNzUgeiBtIDAsMCIgaWQ9InBhdGgxMjIiLz4mI3hhOyAgICA8cGF0aCBjbGlwLXBhdGg9InVybCgjY2xpcFBhdGgxMjUpIiB0cmFuc2Zvcm09Im1hdHJpeCgwLjEzMjI5MTY2LDAsMCwwLjEzMjI5MTY2LDIuMDMzMTQyOSwxLjU2NjgyNjUpIiBhcmlhLWxhYmVsPSJiIiBzdHlsZT0iZmlsbDojMDAwMDAwO2ZpbGwtb3BhY2l0eToxO2ZpbGwtcnVsZTpub256ZXJvO3N0cm9rZTpub25lIiBkPSJtIDEuMTI1MDA3MSwtOC42NzE4NTM2IGMgMC4wMDc4MSwwIDAuMzE2NDA2MywtMC4wMTk1MzEgMC45MjE4NzUsLTAuMDYyNSAwLjYwMTU2MjYsLTAuMDUwNzgxIDAuOTEwMTU2MywtMC4wNzgxMjUgMC45MjE4NzUxLC0wLjA3ODEyNSAwLjEwMTU2MjUsMCAwLjE1NjI1LDAuMDM5MDYzIDAuMTU2MjUsMC4xMDkzNzUgMCwwLjA3NDIxOSAtMC4xNTIzNDM4LDAuNjk5MjE4OCAtMC40NTMxMjUsMS44NzUwMDAxIC0wLjI5Mjk2ODgsMS4xNjc5Njg4IC0wLjQzNzUwMDEsMS43NTc4MTI2IC0wLjQzNzUwMDEsMS43NjU2MjUxIDAsMC4wMjM0MzcgMC4wMjM0MzcsMC4wMDc4MSAwLjA3ODEyNSwtMC4wNDY4NzUgMC4yODkwNjI2LC0wLjIzODI4MTMgMC42MTMyODEzLC0wLjM5ODQzNzUgMC45Njg3NTAxLC0wLjQ4NDM3NSAwLjEwMTU2MjUsLTAuMDA3ODEgMC4yMDcwMzEyLC0wLjAxNTYyNSAwLjMxMjUsLTAuMDE1NjI1IDAuMTEzMjgxMywwIDAuMjE4NzUsMC4wMDc4MSAwLjMxMjUsMC4wMTU2MjUgMC40NDUzMTI1LDAuMTA1NDY4NyAwLjgwMDc4MTMsMC4zMzU5Mzc1IDEuMDYyNTAwMSwwLjY4NzUgMC4yNTc4MTI1LDAuMzU1NDY4OCAwLjM5MDYyNSwwLjgwNDY4NzUgMC4zOTA2MjUsMS4zNDM3NSAwLDAuOTQ5MjE4OCAtMC4zMzU5Mzc1LDEuODA0Njg3NiAtMS4wMDAwMDAxLDIuNTYyNTAwMTUgLTAuNjY3OTY4NywwLjc2MTcxODc4IC0xLjM4NjcxODgsMS4xNDA2MjUwNSAtMi4xNTYyNTAxLDEuMTQwNjI1MDUgLTAuMjUsMCAtMC40ODQzNzUsLTAuMDU4NTkzNzUgLTAuNzAzMTI1LC0wLjE3MTg3NTAxIC0wLjY1NjI1MDAxLC0wLjI4OTA2MjUxIC0wLjk4NDM3NTAzLC0wLjkxNDA2MjU0IC0wLjk4NDM3NTAzLC0xLjg3NTAwMDA5IDAsLTAuMjUgMC4wMTk1MzEzLC0wLjQ4ODI4MTMgMC4wNjI1LC0wLjcxODc1IDAsLTAuMDA3ODEgMC4yMTA5Mzc1MSwtMC44Nzg5MDYzIDAuNjQwNjI1MDMsLTIuNjA5Mzc1MSBsIDAuNjU2MjUsLTIuNTkzNzUwMSBjIDAuMDA3ODEsLTAuMTEzMjgxMyAtMC4wMjM0MzcsLTAuMTg3NSAtMC4wOTM3NSwtMC4yMTg3NSAtMC4wNzQyMTksLTAuMDMxMjUgLTAuMTk1MzEyNSwtMC4wNDY4NzUgLTAuMzU5Mzc1LC0wLjA0Njg3NSAtMC4wNjI1LDAgLTAuMTA5Mzc1LDAgLTAuMTQwNjI1LDAgLTAuMTc5Njg3NSwwIC0wLjI3NzM0MzgsLTAuMDA3ODEgLTAuMjk2ODc1MDEsLTAuMDMxMjUgLTAuMDU0Njg3NSwtMC4wMzkwNjMgLTAuMDU4NTkzOCwtMC4xNDQ1MzEzIC0wLjAxNTYyNSwtMC4zMTI1MDAxIDAuMDMxMjUsLTAuMTEzMjgxMiAwLjA1NDY4NzUsLTAuMTc5Njg3NSAwLjA3ODEyNSwtMC4yMDMxMjUgMC4wMzEyNSwtMC4wMTk1MzEgMC4wNTQ2ODcsLTAuMDMxMjUgMC4wNzgxMjUsLTAuMDMxMjUgeiBtIDMuMTQwNjI1MSw0LjU0Njg3NTIgYyAwLC0wLjY3NTc4MTMgLTAuMjU3ODEyNSwtMS4wMTU2MjUgLTAuNzY1NjI1LC0xLjAxNTYyNSAtMC4wMjM0MzcsMCAtMC4wNTQ2ODcsMC4wMDc4MSAtMC4wOTM3NSwwLjAxNTYyNSAtMC4wMzEyNSwwIC0wLjA1NDY4NywwIC0wLjA2MjUsMCAtMC40Mzc1LDAuMDg1OTM3IC0wLjg1NTQ2ODgsMC4zODY3MTg3IC0xLjI1MDAwMDEsMC45MDYyNSAtMC4wMTE3MTksMC4wMjM0MzcgLTAuMDMxMjUsMC4wNDY4NzUgLTAuMDYyNSwwLjA3ODEyNSBsIC0wLjAzMTI1LDAuMDQ2ODc1IGMgMCwwLjAxMTcxOSAtMC4wNzgxMjUsMC4zMjAzMTI1IC0wLjIzNDM3NSwwLjkyMTg3NTEgLTAuMTQ4NDM3NSwwLjU5Mzc1IC0wLjIyNjU2MjUsMC45MzM1OTM3IC0wLjIzNDM3NSwxLjAxNTYyNSAtMC4wNTQ2ODcsMC4yNjE3MTg4IC0wLjA3ODEyNSwwLjQ5NjA5MzggLTAuMDc4MTI1LDAuNzAzMTI1IDAsMC40MDYyNSAwLjA5NzY1NiwwLjcxNDg0MzgxIDAuMjk2ODc1LDAuOTIxODc1MDcgMC4xMzI4MTI1LDAuMTM2NzE4NzYgMC4zMDQ2ODc1LDAuMjAzMTI1MDEgMC41MTU2MjUsMC4yMDMxMjUwMSAwLjI4MTI1MDEsMCAwLjU2MjUwMDEsLTAuMTMyODEyNTEgMC44NDM3NTAxLC0wLjQwNjI1MDAyIDAuMjE4NzUsLTAuMTk1MzEyNTEgMC4zOTA2MjUsLTAuNDM3NTAwMDYgMC41MTU2MjUsLTAuNzE4NzUwMDYgMC4xMzI4MTI1LC0wLjI4MTI1IDAuMjczNDM3NSwtMC43MjI2NTYyIDAuNDIxODc1LC0xLjMyODEyNSAwLjE0NDUzMTMsLTAuNjEzMjgxMyAwLjIxODc1LC0xLjA2MjUwMDEgMC4yMTg3NSwtMS4zNDM3NTAxIHogbSAwLDAiIGlkPSJwYXRoMTI0Ii8+JiN4YTsgIDwvZz4mI3hhOzwvc3ZnPg==;connectable=0;allowArrows=0;rotatable=0;html=1;align=left;labelPosition=right;verticalLabelPosition=middle;verticalAlign=middle;fontSize=18;labelBackgroundColor=#E6E6E6;fontColor=#000000;labelBorderColor=none;imageBackground=#FFFFFF;imageBorder=default;shadow=0;spacingLeft=12.5;" parent="1" vertex="1">
          <mxGeometry x="312.5" y="736" width="50" height="50" as="geometry" />
        </mxCell>
        <mxCell id="a21QgjTOZl95tkyDf_ZO-26" value="&lt;pre style=&quot;line-height: 0%;&quot;&gt;&amp;nbsp;&amp;nbsp;&amp;nbsp;\prod_a^bc&amp;nbsp; &amp;nbsp;&lt;/pre&gt;" style="shape=image;aspect=fixed;image=data:image/svg+xml,PHN2ZyB4bWxucz0iaHR0cDovL3d3dy53My5vcmcvMjAwMC9zdmciIGlkPSJzdmcxIiB2ZXJzaW9uPSIxLjEiIHZpZXdCb3g9IjAgMCA2LjM0OTk5OTkwNDYzMjU2OCA2LjM0OTk5OTkwNDYzMjU2OCIgaGVpZ2h0PSIyNC4wMDAwMDAwMTc1MDg5MiIgd2lkdGg9IjI0LjAwMDAwMDAxNzUwODkyIj4mI3hhOyAgJiN4YTsgIDxkZWZzIGlkPSJkZWZzMSI+JiN4YTsgICAgPGNsaXBQYXRoIGlkPSJjbGlwUGF0aDEyOSIgY2xpcFBhdGhVbml0cz0idXNlclNwYWNlT25Vc2UiPiYjeGE7ICAgICAgPHBhdGggaWQ9InBhdGgxMjkiIGNsaXAtcnVsZT0iZXZlbm9kZCIgdHJhbnNmb3JtPSJtYXRyaXgoMC4zMTk5OTk5OSwwLDAsMC4zMTk5OTk5OSwtMTAzLC01OTEuOTk5OTgpIiBkPSJNIDExNS42MjUsMTE1LjYyNSBIIDI0MzIuMzI0MiBWIDMxODIuMzI0MiBIIDExNS42MjUgWiIvPiYjeGE7ICAgIDwvY2xpcFBhdGg+JiN4YTsgICAgPGNsaXBQYXRoIGlkPSJjbGlwUGF0aDEzMyIgY2xpcFBhdGhVbml0cz0idXNlclNwYWNlT25Vc2UiPiYjeGE7ICAgICAgPHBhdGggaWQ9InBhdGgxMzMiIGNsaXAtcnVsZT0iZXZlbm9kZCIgdHJhbnNmb3JtPSJtYXRyaXgoMC4zMTk5OTk5OSwwLDAsMC4zMTk5OTk5OSwtMTIwLjE0MDYyLC01ODIuOTk5OTgpIiBkPSJNIDExNS42MjUsMTE1LjYyNSBIIDI0MzIuMzI0MiBWIDMxODIuMzI0MiBIIDExNS42MjUgWiIvPiYjeGE7ICAgIDwvY2xpcFBhdGg+JiN4YTsgICAgPGNsaXBQYXRoIGlkPSJjbGlwUGF0aDEzMSIgY2xpcFBhdGhVbml0cz0idXNlclNwYWNlT25Vc2UiPiYjeGE7ICAgICAgPHBhdGggaWQ9InBhdGgxMzEiIGNsaXAtcnVsZT0iZXZlbm9kZCIgdHJhbnNmb3JtPSJtYXRyaXgoMC4zMTk5OTk5OSwwLDAsMC4zMTk5OTk5OSwtMTIwLjE0MDYyLC01OTYuOTk5OTgpIiBkPSJNIDExNS42MjUsMTE1LjYyNSBIIDI0MzIuMzI0MiBWIDMxODIuMzI0MiBIIDExNS42MjUgWiIvPiYjeGE7ICAgIDwvY2xpcFBhdGg+JiN4YTsgICAgPGNsaXBQYXRoIGlkPSJjbGlwUGF0aDEyNyIgY2xpcFBhdGhVbml0cz0idXNlclNwYWNlT25Vc2UiPiYjeGE7ICAgICAgPHBhdGggaWQ9InBhdGgxMjciIGNsaXAtcnVsZT0iZXZlbm9kZCIgdHJhbnNmb3JtPSJtYXRyaXgoMC4zMTk5OTk5OSwwLDAsMC4zMTk5OTk5OSwtMTMwLjc4MTI0LC01OTEuOTM3NDgpIiBkPSJNIDExNS42MjUsMTE1LjYyNSBIIDI0MzIuMzI0MiBWIDMxODIuMzI0MiBIIDExNS42MjUgWiIvPiYjeGE7ICAgIDwvY2xpcFBhdGg+JiN4YTsgIDwvZGVmcz4mI3hhOyAgPGcgaWQ9ImxheWVyMSI+JiN4YTsgICAgPHJlY3QgeT0iMCIgeD0iMCIgaGVpZ2h0PSI2LjM0OTk5OTkiIHdpZHRoPSI2LjM0OTk5OTkiIGlkPSJyZWN0MSIgc3R5bGU9Im9wYWNpdHk6MDtmaWxsOm5vbmU7c3Ryb2tlLXdpZHRoOjIuNjQ1ODM7c3Ryb2tlLWxpbmVqb2luOnJvdW5kO3N0cm9rZS1taXRlcmxpbWl0OjE2Ii8+JiN4YTsgICAgPHBhdGggY2xpcC1wYXRoPSJ1cmwoI2NsaXBQYXRoMTI3KSIgdHJhbnNmb3JtPSJtYXRyaXgoMC4xMzIyOTE2NiwwLDAsMC4xMzIyOTE2Niw0LjQzMTk2MzEsNC4wMDU5NTM3KSIgYXJpYS1sYWJlbD0iYyIgc3R5bGU9ImZpbGw6IzAwMDAwMDtmaWxsLW9wYWNpdHk6MTtmaWxsLXJ1bGU6bm9uemVybztzdHJva2U6bm9uZSIgZD0ibSA3Ljc1MDAwNTgsLTYuNDUzMTAwNiBjIDAsMC4zODY3MTg4IC0wLjExNzE4NzUsMC42OTkyMTg4IC0wLjM0Mzc1LDAuOTM3NSAtMC4yMzA0Njg4LDAuMjMwNDY4OCAtMC41MjM0Mzc2LDAuMzQzNzUgLTAuODc1MDAwMSwwLjM0Mzc1IC0wLjIzMDQ2ODcsMCAtMC40MTQwNjI1LC0wLjA2MjUgLTAuNTQ2ODc1LC0wLjE4NzUgLTAuMTI1LC0wLjEzMjgxMjUgLTAuMTg3NSwtMC4zMTY0MDYyIC0wLjE4NzUsLTAuNTQ2ODc1IDAsLTAuMTk1MzEyNSAwLjA1NDY4NywtMC4zOTQ1MzEyIDAuMTcxODc1LC0wLjU5Mzc1IDAuMTI1LC0wLjE5NTMxMjUgMC4yODUxNTYzLC0wLjMzNTkzNzUgMC40ODQzNzUsLTAuNDIxODc1IDAuMDkzNzUsLTAuMDYyNSAwLjE1NjI1LC0wLjA5Mzc1IDAuMTg3NSwtMC4wOTM3NSAwLjA1MDc4MSwwIDAuMDA3ODEsLTAuMDM5MDYzIC0wLjEyNSwtMC4xMjUgLTAuMjMwNDY4NywtMC4xMjUgLTAuNTQ2ODc1LC0wLjE4NzUgLTAuOTUzMTI1LC0wLjE4NzUgLTAuNjY3OTY4OCwwIC0xLjI3NzM0MzgsMC4yNzM0Mzc1IC0xLjgyODEyNTEsMC44MTI1IC0wLjMxMjUsMC4zMTI1IC0wLjU3MDMxMjUsMC42ODc1IC0wLjc2NTYyNSwxLjEyNSAtMC4xODc1LDAuNDM3NTAwMSAtMC4zODI4MTI1LDEuMDYyNTAwMSAtMC41NzgxMjUxLDEuODc1MDAwMSAtMC4xMjUsMC41NjI1IC0wLjE4NzUsMS4wMTU2MjUxIC0wLjE4NzUsMS4zNTkzNzUxIDAsMC44NjcxODc1IDAuMzc4OTA2MywxLjQxNDA2MjUzIDEuMTQwNjI1MSwxLjY0MDYyNTA0IDAuMDkzNzUsMC4wMzEyNSAwLjI0MjE4NzUsMC4wNDY4NzUgMC40NTMxMjUsMC4wNDY4NzUgMC4xNzU3ODEzLDAgMC4zNjMyODEzLC0wLjAxNTYyNSAwLjU2MjUsLTAuMDQ2ODc1IDEuMTMyODEyNiwtMC4xNjQwNjI1IDIuMDY2NDA2NCwtMC42NjQwNjI1NCAyLjc5Njg3NTEsLTEuNTAwMDAwMDQgMC4xMDE1NjI2LC0wLjEyNSAwLjE3NTc4MTMsLTAuMTg3NSAwLjIxODc1MDEsLTAuMTg3NSAwLjAzOTA2MywwIDAuMTE3MTg3NSwwLjA1ODU5NCAwLjIzNDM3NSwwLjE3MTg3NSAwLjE0NDUzMTIsMC4xNDg0Mzc1IDAuMTk1MzEyNSwwLjI1IDAuMTU2MjUsMC4zMTI1IC0wLjA0Mjk2OSwwLjEyNSAtMC4yMjY1NjI1LDAuMzI4MTI1IC0wLjU0Njg3NSwwLjYwOTM3NSAtMC43NTAwMDAxLDAuNjc5Njg3NTUgLTEuNjk5MjE4OSwxLjEwMTU2MjU2IC0yLjg0Mzc1MDIsMS4yNjU2MjUwNyAtMC4yNzM0Mzc1LDAuMDMxMjUgLTAuNTA3ODEyNSwwLjA0Njg3NSAtMC43MDMxMjUsMC4wNDY4NzUgLTEuMzA0Njg3NiwwIC0yLjIwMzEyNTEsLTAuNTMxMjUwMDIgLTIuNzAzMTI1MTEsLTEuNTkzNzUwMDcgLTAuMjMwNDY4NzYsLTAuNDQ1MzEyNSAtMC4zNDM3NTAwMSwtMC45NDUzMTI1IC0wLjM0Mzc1MDAxLC0xLjUwMDAwMDEgMCwtMC41NTA3ODEyIDAuMTEzMjgxMjUsLTEuMTE3MTg3NSAwLjM0Mzc1MDAxLC0xLjcwMzEyNSAwLjM0Mzc1MDAxLC0wLjkwNjI1MDEgMC45MTAxNTYzMSwtMS42NzU3ODEzIDEuNzAzMTI1MTEsLTIuMzEyNTAwMSAwLjgwMDc4MTIsLTAuNjMyODEyNiAxLjY0NDUzMTMsLTEuMDAwMDAwMSAyLjUzMTI1MDEsLTEuMDkzNzUwMSAwLjA3MDMxMiwtMC4wMTk1MzEgMC4xOTE0MDYyLC0wLjAzMTI1IDAuMzU5Mzc1LC0wLjAzMTI1IDAuNDE0MDYyNSwwIDAuODA0Njg3NSwwLjA3MDMxMiAxLjE3MTg3NSwwLjIwMzEyNSAwLjY3NTc4MTMsMC4yOTI5Njg4IDEuMDE1NjI1MSwwLjc1MDAwMDEgMS4wMTU2MjUxLDEuMzc1MDAwMSB6IG0gMCwwIiBpZD0icGF0aDEyNiIvPiYjeGE7ICAgIDxwYXRoIGNsaXAtcGF0aD0idXJsKCNjbGlwUGF0aDEyOSkiIHRyYW5zZm9ybT0ibWF0cml4KDAuMTMyMjkxNjYsMCwwLDAuMTMyMjkxNjYsMC43NTY3MzY2NCw0LjAxNDIyMikiIGFyaWEtbGFiZWw9IuKIjyIgc3R5bGU9ImZpbGw6IzAwMDAwMDtmaWxsLW9wYWNpdHk6MTtmaWxsLXJ1bGU6bm9uemVybztzdHJva2U6bm9uZSIgZD0ibSAxNC4yNjU2MywyLjgxMjUyNDggYyAwLjE0NDUzMSwwLjYxMzI4MTMgMC42Nzk2ODcsMC45NDUzMTI1IDEuNjA5Mzc1LDEgaCAwLjI1IHYgMC43MzQzNzUxIGggLTUuNzgxMjUgViAzLjgxMjUyNDggaCAwLjI2NTYyNSBjIDAuODQzNzUsLTAuMDU0Njg3IDEuMzYzMjgxLC0wLjMzOTg0MzcgMS41NjI1LC0wLjg1OTM3NSBsIDAuMDQ2ODcsLTAuMTQwNjI1IFYgLTEyLjg5MDYwMSBIIDQuOTA2MjU0NSB2IDcuODU5Mzc1NSBsIDAuMDE1NjI1LDcuODQzNzUwMyBjIDAuMTQ0NTMxMywwLjYxMzI4MTMgMC42NzU3ODEzLDAuOTQ1MzEyNSAxLjU5Mzc1MDEsMSBoIDAuMjUgViA0LjU0Njg5OTkgSCAxLjAwMDAwNDMgViAzLjgxMjUyNDggaCAwLjI1IEMgMi4xMDE1NjY5LDMuNzU3ODM3MyAyLjYyNTAwNDQsMy40NzI2ODExIDIuODEyNTA0NCwyLjk1MzE0OTggbCAwLjA2MjUsLTAuMTQwNjI1IFYgLTExLjkwNjIyNiBsIC0wLjA2MjUsLTAuMTI1IGMgLTAuMTg3NSwtMC41MTk1MzEgLTAuNzEwOTM3NSwtMC44MDQ2ODcgLTEuNTYyNTAwMSwtMC44NTkzNzUgaCAtMC4yNSB2IC0wLjczNDM3NSBIIDE2LjEyNTAwNSB2IDAuNzM0Mzc1IGggLTAuMjUgYyAtMC40OTIxODgsMC4wMjM0NCAtMC44NTkzNzUsMC4xMDkzNzUgLTEuMTA5Mzc1LDAuMjY1NjI1IC0wLjI1LDAuMTQ4NDM4IC0wLjQxNzk2OSwwLjM4NjcxOSAtMC41LDAuNzE4NzUgeiBtIDAsMCIgaWQ9InBhdGgxMjgiLz4mI3hhOyAgICA8cGF0aCBjbGlwLXBhdGg9InVybCgjY2xpcFBhdGgxMzEpIiB0cmFuc2Zvcm09Im1hdHJpeCgwLjEzMjI5MTY2LDAsMCwwLjEzMjI5MTY2LDMuMDI0Mjk3OCw0LjY3NTY4MDMpIiBhcmlhLWxhYmVsPSJhIiBzdHlsZT0iZmlsbDojMDAwMDAwO2ZpbGwtb3BhY2l0eToxO2ZpbGwtcnVsZTpub256ZXJvO3N0cm9rZTpub25lIiBkPSJtIDUuNzAzMTMwMiwtNC45OTk5NzUzIGMgMCwwLjEwNTQ2ODcgLTAuMTY0MDYyNSwwLjc4MTI1IC0wLjQ4NDM3NSwyLjAzMTI1MDEgLTAuMzEyNSwxLjI1IC0wLjQ2ODc1LDEuOTUzMTI1IC0wLjQ2ODc1LDIuMTA5Mzc1MDQgMCwwLjM1NTQ2ODc2IDAuMTE3MTg3NSwwLjUzMTI1MDAyIDAuMzU5Mzc1LDAuNTMxMjUwMDIgMC4wNzAzMTIsLTAuMDA3ODEzIDAuMTU2MjUsLTAuMDQ2ODc1IDAuMjUsLTAuMTA5Mzc1IDAuMTc1NzgxMywtMC4xNzU3ODEyNiAwLjM0NzY1NjMsLTAuNTg1OTM3NTYgMC41MTU2MjUxLC0xLjIzNDM3NTA2IDAuMDUwNzgxLC0wLjE2NDA2MjUgMC4wOTc2NTYsLTAuMjUzOTA2MyAwLjE0MDYyNSwtMC4yNjU2MjUgMC4wMDc4MSwwIDAuMDUwNzgxLDAgMC4xMjUsMCBoIDAuMDQ2ODc1IGMgMC4xNTYyNSwwIDAuMjM0Mzc1LDAuMDMxMjUgMC4yMzQzNzUsMC4wOTM3NSAwLDAuMDMxMjUgLTAuMDExNzE5LDAuMTAxNTYyNSAtMC4wMzEyNSwwLjIwMzEyNSAtMC4xODc1LDAuNzEwOTM3NTQgLTAuNDE3OTY4OCwxLjE5OTIxODgxIC0wLjY4NzUwMDEsMS40Njg3NTAwNyAtMC4xOTkyMTg3LDAuMTk1MzEyNTEgLTAuNDMzNTkzNywwLjI5Njg3NTAxIC0wLjcwMzEyNSwwLjI5Njg3NTAxIC0wLjU0Mjk2ODgsMCAtMC45MTc5Njg4LC0wLjIwNzAzMTI2IC0xLjEyNSwtMC42MjUwMDAwMyAtMC4wNDI5NjksLTAuMTAxNTYyNSAtMC4wNjI1LC0wLjE0ODQzNzUgLTAuMDYyNSwtMC4xNDA2MjUgLTAuMDExNzE5LC0wLjAwNzgxMyAtMC4wMjczNDQsLTAuMDA3ODEzIC0wLjA0Njg3NSwwIC0wLjAyMzQzNywwLjAyMzQzNzUgLTAuMDQyOTY5LDAuMDQyOTY4NyAtMC4wNjI1LDAuMDYyNSAtMC40MDYyNTAxLDAuMzc1MDAwMDIgLTAuODA4NTkzOCwwLjYwMTU2MjUzIC0xLjIwMzEyNTEsMC42ODc1MDAwMyAtMC4wNTQ2ODcsMC4wMDc4MTMgLTAuMTU2MjUsMC4wMTU2MjUgLTAuMzEyNSwwLjAxNTYyNSAtMC41NjI1LDAgLTEuMDI3MzQzOCwtMC4yMzQzNzUwMSAtMS4zOTA2MjUwNiwtMC43MDMxMjUwMyBDIDAuNTQ2ODgwMDMsLTAuOTQxMzgxNDEgMC40MjE4ODAwMiwtMS40MTQwMzc3IDAuNDIxODgwMDIsLTEuOTk5OTc1MiBjIDAsLTAuMTMyODEyNSAwLjAwMzkwNiwtMC4yMjY1NjI1IDAuMDE1NjI1LC0wLjI4MTI1IDAuMDUwNzgxMywtMC41MzkwNjI1IDAuMjIyNjU2MjYsLTEuMDU0Njg3NiAwLjUxNTYyNTAzLC0xLjU0Njg3NTEgMC4yODkwNjI1NSwtMC41IDAuNjQwNjI1MDUsLTAuODk4NDM3NSAxLjA0Njg3NTA1LC0xLjIwMzEyNSAwLjUsLTAuMzgyODEyNiAxLjAxOTUzMTMsLTAuNTc4MTI1MSAxLjU2MjUwMDEsLTAuNTc4MTI1MSAwLjQxNDA2MjUsMCAwLjc5Njg3NSwwLjIxMDkzNzYgMS4xNDA2MjUsMC42MjUwMDAxIDAuMTMyODEyNSwtMC4yNSAwLjMyODEyNSwtMC4zNzUgMC41NzgxMjUsLTAuMzc1IDAuMTEzMjgxMywwIDAuMjEwOTM3NSwwLjAzOTA2MyAwLjI5Njg3NSwwLjEwOTM3NSAwLjA4MjAzMSwwLjA2MjUgMC4xMjUsMC4xNDg0Mzc1IDAuMTI1LDAuMjUgeiBtIC00LjIwMzEyNTEsMy42NTYyNTAxIGMgMCwwLjMwNDY4NzUgMC4wNjI1LDAuNTQ2ODc1MDQgMC4xODc1LDAuNzM0Mzc1MDUgMC4xMzI4MTI1LDAuMTg3NTAwMDEgMC4zMzIwMzEyLDAuMjgxMjUwMDEgMC41OTM3NSwwLjI4MTI1MDAxIDAuMjM4MjgxMywwIDAuNSwtMC4xMDE1NjI1IDAuNzgxMjUsLTAuMzEyNTAwMDEgMC4xMDE1NjI1LC0wLjA2MjUgMC4yMzgyODEzLC0wLjE4NzUwMDAxIDAuNDA2MjUwMSwtMC4zNzUwMDAwNSAwLjE3NTc4MTIsLTAuMTg3NSAwLjI4MTI1LC0wLjMxMjUgMC4zMTI1LC0wLjM3NSAwLjAxOTUzMSwtMC4wMzkwNjMgMC4xMzI4MTI1LC0wLjQ5MjE4NzUgMC4zNDM3NSwtMS4zNTkzNzUgMC4yMTg3NSwtMC44NzUwMDAxIDAuMzI4MTI1LC0xLjM0NzY1NjMgMC4zMjgxMjUsLTEuNDIxODc1MSAwLC0wLjA5Mzc1IC0wLjA0Njg3NSwtMC4yMzQzNzUgLTAuMTQwNjI1LC0wLjQyMTg3NSAtMC4xNzk2ODc1LC0wLjM2MzI4MTMgLTAuNDQ1MzEyNSwtMC41NDY4NzUgLTAuNzk2ODc1LC0wLjU0Njg3NSAtMC4zMzU5Mzc2LDAgLTAuNjMyODEyNiwwLjE0ODQzNzUgLTAuODkwNjI1MSwwLjQzNzUgLTAuMjYxNzE4NywwLjI4MTI1IC0wLjQ2MDkzNzUsMC42MDkzNzUgLTAuNTkzNzUsMC45ODQzNzUgLTAuMjQyMTg3NSwwLjY2Nzk2ODggLTAuNDE0MDYyNSwxLjM1OTM3NTEgLTAuNTE1NjI1LDIuMDc4MTI1MSAwLDAuMDMxMjUgLTAuMDA3ODEsMC4wODU5MzcgLTAuMDE1NjI1LDAuMTU2MjUgMCwwLjA2MjUgMCwwLjEwOTM3NSAwLDAuMTQwNjI1IHogbSAwLDAiIGlkPSJwYXRoMTMwIi8+JiN4YTsgICAgPHBhdGggY2xpcC1wYXRoPSJ1cmwoI2NsaXBQYXRoMTMzKSIgdHJhbnNmb3JtPSJtYXRyaXgoMC4xMzIyOTE2NiwwLDAsMC4xMzIyOTE2NiwzLjAyNDI5NzgsMi44MjM1OTcpIiBhcmlhLWxhYmVsPSJiIiBzdHlsZT0iZmlsbDojMDAwMDAwO2ZpbGwtb3BhY2l0eToxO2ZpbGwtcnVsZTpub256ZXJvO3N0cm9rZTpub25lIiBkPSJtIDEuMTI1MDA1MSwtOC42NzE4NTExIGMgMC4wMDc4MSwwIDAuMzE2NDA2MiwtMC4wMTk1MzEgMC45MjE4NzUsLTAuMDYyNSAwLjYwMTU2MjUsLTAuMDUwNzgxIDAuOTEwMTU2MywtMC4wNzgxMjUgMC45MjE4NzUsLTAuMDc4MTI1IDAuMTAxNTYyNSwwIDAuMTU2MjUsMC4wMzkwNjMgMC4xNTYyNSwwLjEwOTM3NSAwLDAuMDc0MjE5IC0wLjE1MjM0MzcsMC42OTkyMTg4IC0wLjQ1MzEyNSwxLjg3NTAwMDEgLTAuMjkyOTY4NywxLjE2Nzk2ODggLTAuNDM3NSwxLjc1NzgxMjYgLTAuNDM3NSwxLjc2NTYyNTEgMCwwLjAyMzQzNyAwLjAyMzQzNywwLjAwNzgxIDAuMDc4MTI1LC0wLjA0Njg3NSAwLjI4OTA2MjUsLTAuMjM4MjgxMyAwLjYxMzI4MTMsLTAuMzk4NDM3NSAwLjk2ODc1LC0wLjQ4NDM3NSAwLjEwMTU2MjUsLTAuMDA3ODEgMC4yMDcwMzEzLC0wLjAxNTYyNSAwLjMxMjUwMDEsLTAuMDE1NjI1IDAuMTEzMjgxMiwwIDAuMjE4NzUsMC4wMDc4MSAwLjMxMjUsMC4wMTU2MjUgMC40NDUzMTI1LDAuMTA1NDY4NyAwLjgwMDc4MTMsMC4zMzU5Mzc1IDEuMDYyNSwwLjY4NzUgMC4yNTc4MTI1LDAuMzU1NDY4OCAwLjM5MDYyNSwwLjgwNDY4NzUgMC4zOTA2MjUsMS4zNDM3NSAwLDAuOTQ5MjE4OCAtMC4zMzU5Mzc1LDEuODA0Njg3NiAtMSwyLjU2MjUwMDE1IC0wLjY2Nzk2ODgsMC43NjE3MTg3OCAtMS4zODY3MTg4LDEuMTQwNjI1MDUgLTIuMTU2MjUwMSwxLjE0MDYyNTA1IC0wLjI1LDAgLTAuNDg0Mzc1LC0wLjA1ODU5Mzc1IC0wLjcwMzEyNSwtMC4xNzE4NzUwMSAtMC42NTYyNTAwNiwtMC4yODkwNjI1MSAtMC45ODQzNzUwNywtMC45MTQwNjI1NCAtMC45ODQzNzUwNywtMS44NzUwMDAwOSAwLC0wLjI1IDAuMDE5NTMxMywtMC40ODgyODEzIDAuMDYyNSwtMC43MTg3NSAwLC0wLjAwNzgxIDAuMjEwOTM3NTEsLTAuODc4OTA2MyAwLjY0MDYyNTA3LC0yLjYwOTM3NTEgbCAwLjY1NjI1LC0yLjU5Mzc1MDEgYyAwLjAwNzgxLC0wLjExMzI4MTMgLTAuMDIzNDM3LC0wLjE4NzUgLTAuMDkzNzUsLTAuMjE4NzUgLTAuMDc0MjE5LC0wLjAzMTI1IC0wLjE5NTMxMjUsLTAuMDQ2ODc1IC0wLjM1OTM3NSwtMC4wNDY4NzUgLTAuMDYyNSwwIC0wLjEwOTM3NSwwIC0wLjE0MDYyNSwwIC0wLjE3OTY4NzUsMCAtMC4yNzczNDM4LC0wLjAwNzgxIC0wLjI5Njg3NTA1LC0wLjAzMTI1IC0wLjA1NDY4NzUsLTAuMDM5MDYzIC0wLjA1ODU5MzgsLTAuMTQ0NTMxMyAtMC4wMTU2MjUsLTAuMzEyNTAwMSAwLjAzMTI1MDEsLTAuMTEzMjgxMiAwLjA1NDY4NzYsLTAuMTc5Njg3NSAwLjA3ODEyNTEsLTAuMjAzMTI1IDAuMDMxMjUsLTAuMDE5NTMxIDAuMDU0Njg4LC0wLjAzMTI1IDAuMDc4MTI1LC0wLjAzMTI1IHogbSAzLjE0MDYyNTEsNC41NDY4NzUyIGMgMCwtMC42NzU3ODEzIC0wLjI1NzgxMjUsLTEuMDE1NjI1IC0wLjc2NTYyNSwtMS4wMTU2MjUgLTAuMDIzNDM3LDAgLTAuMDU0Njg4LDAuMDA3ODEgLTAuMDkzNzUsMC4wMTU2MjUgLTAuMDMxMjUsMCAtMC4wNTQ2ODcsMCAtMC4wNjI1LDAgLTAuNDM3NSwwLjA4NTkzNyAtMC44NTU0Njg3LDAuMzg2NzE4NyAtMS4yNSwwLjkwNjI1IC0wLjAxMTcxOSwwLjAyMzQzNyAtMC4wMzEyNSwwLjA0Njg3NSAtMC4wNjI1LDAuMDc4MTI1IGwgLTAuMDMxMjUsMC4wNDY4NzUgYyAwLDAuMDExNzE5IC0wLjA3ODEyNSwwLjMyMDMxMjUgLTAuMjM0Mzc1LDAuOTIxODc1MSAtMC4xNDg0Mzc1LDAuNTkzNzUgLTAuMjI2NTYyNSwwLjkzMzU5MzcgLTAuMjM0Mzc1LDEuMDE1NjI1IC0wLjA1NDY4NywwLjI2MTcxODggLTAuMDc4MTI1LDAuNDk2MDkzOCAtMC4wNzgxMjUsMC43MDMxMjUgMCwwLjQwNjI1IDAuMDk3NjU2LDAuNzE0ODQzODEgMC4yOTY4NzUsMC45MjE4NzUwNyAwLjEzMjgxMjUsMC4xMzY3MTg3NiAwLjMwNDY4NzUsMC4yMDMxMjUwMSAwLjUxNTYyNSwwLjIwMzEyNTAxIDAuMjgxMjUsMCAwLjU2MjUsLTAuMTMyODEyNTEgMC44NDM3NSwtMC40MDYyNTAwMiAwLjIxODc1LC0wLjE5NTMxMjUxIDAuMzkwNjI1MSwtMC40Mzc1MDAwNiAwLjUxNTYyNTEsLTAuNzE4NzUwMDYgMC4xMzI4MTI1LC0wLjI4MTI1IDAuMjczNDM3NSwtMC43MjI2NTYyIDAuNDIxODc1LC0xLjMyODEyNSAwLjE0NDUzMTIsLTAuNjEzMjgxMyAwLjIxODc1LC0xLjA2MjUwMDEgMC4yMTg3NDk5LC0xLjM0Mzc1MDEgeiBtIDAsMCIgaWQ9InBhdGgxMzIiLz4mI3hhOyAgPC9nPiYjeGE7PC9zdmc+;connectable=0;allowArrows=0;rotatable=0;html=1;align=left;labelPosition=right;verticalLabelPosition=middle;verticalAlign=middle;fontSize=18;labelBackgroundColor=#E6E6E6;fontColor=#000000;labelBorderColor=none;imageBackground=#FFFFFF;imageBorder=default;shadow=0;spacingLeft=12.5;" parent="1" vertex="1">
          <mxGeometry x="312.5" y="843" width="50" height="50" as="geometry" />
        </mxCell>
        <mxCell id="a21QgjTOZl95tkyDf_ZO-27" value="&lt;pre style=&quot;line-height: 0%;&quot;&gt;\prod\limits_a^bc&lt;/pre&gt;" style="shape=image;aspect=fixed;image=data:image/svg+xml,PHN2ZyB4bWxucz0iaHR0cDovL3d3dy53My5vcmcvMjAwMC9zdmciIGlkPSJzdmcxIiB2ZXJzaW9uPSIxLjEiIHZpZXdCb3g9IjAgMCA2LjM0OTk5OTkwNDYzMjU2OCA2LjM0OTk5OTkwNDYzMjU2OCIgaGVpZ2h0PSIyNC4wMDAwMDAwMTc1MDg5MiIgd2lkdGg9IjI0LjAwMDAwMDAxNzUwODkyIj4mI3hhOyAgJiN4YTsgIDxkZWZzIGlkPSJkZWZzMSI+JiN4YTsgICAgPGNsaXBQYXRoIGlkPSJjbGlwUGF0aDEzOSIgY2xpcFBhdGhVbml0cz0idXNlclNwYWNlT25Vc2UiPiYjeGE7ICAgICAgPHBhdGggaWQ9InBhdGgxMzkiIGNsaXAtcnVsZT0iZXZlbm9kZCIgdHJhbnNmb3JtPSJtYXRyaXgoMC4zMTk5OTk5OSwwLDAsMC4zMTk5OTk5OSwtMTYwLjMyODEyLC01OTEuOTk5OTgpIiBkPSJNIDExNS42MjUsMTE1LjYyNSBIIDI0MzIuMzI0MiBWIDMxODIuMzI0MiBIIDExNS42MjUgWiIvPiYjeGE7ICAgIDwvY2xpcFBhdGg+JiN4YTsgICAgPGNsaXBQYXRoIGlkPSJjbGlwUGF0aDE0MSIgY2xpcFBhdGhVbml0cz0idXNlclNwYWNlT25Vc2UiPiYjeGE7ICAgICAgPHBhdGggaWQ9InBhdGgxNDEiIGNsaXAtcnVsZT0iZXZlbm9kZCIgdHJhbnNmb3JtPSJtYXRyaXgoMC4zMTk5OTk5OSwwLDAsMC4zMTk5OTk5OSwtMTY2LjE3MTg3LC01NzMuOTk5OTgpIiBkPSJNIDExNS42MjUsMTE1LjYyNSBIIDI0MzIuMzI0MiBWIDMxODIuMzI0MiBIIDExNS42MjUgWiIvPiYjeGE7ICAgIDwvY2xpcFBhdGg+JiN4YTsgICAgPGNsaXBQYXRoIGlkPSJjbGlwUGF0aDEzNSIgY2xpcFBhdGhVbml0cz0idXNlclNwYWNlT25Vc2UiPiYjeGE7ICAgICAgPHBhdGggaWQ9InBhdGgxMzUiIGNsaXAtcnVsZT0iZXZlbm9kZCIgdHJhbnNmb3JtPSJtYXRyaXgoMC4zMTk5OTk5OSwwLDAsMC4zMTk5OTk5OSwtMTgwLjQ4NDM3LC01OTEuODc0OTgpIiBkPSJNIDExNS42MjUsMTE1LjYyNSBIIDI0MzIuMzI0MiBWIDMxODIuMzI0MiBIIDExNS42MjUgWiIvPiYjeGE7ICAgIDwvY2xpcFBhdGg+JiN4YTsgICAgPGNsaXBQYXRoIGlkPSJjbGlwUGF0aDEzNyIgY2xpcFBhdGhVbml0cz0idXNlclNwYWNlT25Vc2UiPiYjeGE7ICAgICAgPHBhdGggaWQ9InBhdGgxMzciIGNsaXAtcnVsZT0iZXZlbm9kZCIgdHJhbnNmb3JtPSJtYXRyaXgoMC4zMTk5OTk5OSwwLDAsMC4zMTk5OTk5OSwtMTY1LjUzMTI0LC02MDYuOTk5OTcpIiBkPSJNIDExNS42MjUsMTE1LjYyNSBIIDI0MzIuMzI0MiBWIDMxODIuMzI0MiBIIDExNS42MjUgWiIvPiYjeGE7ICAgIDwvY2xpcFBhdGg+JiN4YTsgIDwvZGVmcz4mI3hhOyAgPGcgaWQ9ImxheWVyMSI+JiN4YTsgICAgPHJlY3QgeT0iMCIgeD0iMCIgaGVpZ2h0PSI2LjM0OTk5OTkiIHdpZHRoPSI2LjM0OTk5OTkiIGlkPSJyZWN0MSIgc3R5bGU9Im9wYWNpdHk6MDtmaWxsOm5vbmU7c3Ryb2tlLXdpZHRoOjIuNjQ1ODM7c3Ryb2tlLWxpbmVqb2luOnJvdW5kO3N0cm9rZS1taXRlcmxpbWl0OjE2Ii8+JiN4YTsgICAgPHBhdGggY2xpcC1wYXRoPSJ1cmwoI2NsaXBQYXRoMTM1KSIgdHJhbnNmb3JtPSJtYXRyaXgoMC4xMzIyOTE2NiwwLDAsMC4xMzIyOTE2NiwzLjkyNzYwMTUsMy45MzE1NDA0KSIgYXJpYS1sYWJlbD0iYyIgc3R5bGU9ImZpbGw6IzAwMDAwMDtmaWxsLW9wYWNpdHk6MTtmaWxsLXJ1bGU6bm9uemVybztzdHJva2U6bm9uZSIgZD0ibSA3Ljc1MDAwNzgsLTYuNDUzMTAwNiBjIDAsMC4zODY3MTg4IC0wLjExNzE4NzUsMC42OTkyMTg4IC0wLjM0Mzc1LDAuOTM3NSAtMC4yMzA0Njg3LDAuMjMwNDY4OCAtMC41MjM0Mzc1LDAuMzQzNzUgLTAuODc1LDAuMzQzNzUgLTAuMjMwNDY4OCwwIC0wLjQxNDA2MjUsLTAuMDYyNSAtMC41NDY4NzUsLTAuMTg3NSAtMC4xMjUsLTAuMTMyODEyNSAtMC4xODc1LC0wLjMxNjQwNjIgLTAuMTg3NSwtMC41NDY4NzUgMCwtMC4xOTUzMTI1IDAuMDU0Njg3LC0wLjM5NDUzMTMgMC4xNzE4NzUsLTAuNTkzNzUgMC4xMjUsLTAuMTk1MzEyNSAwLjI4NTE1NjIsLTAuMzM1OTM3NSAwLjQ4NDM3NSwtMC40MjE4NzUgMC4wOTM3NSwtMC4wNjI1IDAuMTU2MjUsLTAuMDkzNzUgMC4xODc1LC0wLjA5Mzc1IDAuMDUwNzgxLDAgMC4wMDc4MSwtMC4wMzkwNjMgLTAuMTI1LC0wLjEyNSAtMC4yMzA0Njg4LC0wLjEyNSAtMC41NDY4NzUsLTAuMTg3NSAtMC45NTMxMjUsLTAuMTg3NSAtMC42Njc5Njg4LDAgLTEuMjc3MzQzOSwwLjI3MzQzNzUgLTEuODI4MTI1MSwwLjgxMjUgLTAuMzEyNSwwLjMxMjUgLTAuNTcwMzEyNSwwLjY4NzUgLTAuNzY1NjI1MSwxLjEyNSAtMC4xODc1LDAuNDM3NTAwMSAtMC4zODI4MTI1LDEuMDYyNTAwMSAtMC41NzgxMjUsMS44NzUwMDAxIC0wLjEyNSwwLjU2MjUgLTAuMTg3NSwxLjAxNTYyNTEgLTAuMTg3NSwxLjM1OTM3NTEgMCwwLjg2NzE4NzUgMC4zNzg5MDYzLDEuNDE0MDYyNTMgMS4xNDA2MjUxLDEuNjQwNjI1MDQgMC4wOTM3NSwwLjAzMTI1IDAuMjQyMTg3NSwwLjA0Njg3NSAwLjQ1MzEyNSwwLjA0Njg3NSAwLjE3NTc4MTIsMCAwLjM2MzI4MTIsLTAuMDE1NjI1IDAuNTYyNSwtMC4wNDY4NzUgMS4xMzI4MTI1LC0wLjE2NDA2MjUxIDIuMDY2NDA2MywtMC42NjQwNjI1NCAyLjc5Njg3NTEsLTEuNTAwMDAwMDQgMC4xMDE1NjI1LC0wLjEyNSAwLjE3NTc4MTMsLTAuMTg3NSAwLjIxODc1LC0wLjE4NzUgMC4wMzkwNjMsMCAwLjExNzE4NzUsMC4wNTg1OTQgMC4yMzQzNzUsMC4xNzE4NzUgMC4xNDQ1MzEzLDAuMTQ4NDM3NSAwLjE5NTMxMjUsMC4yNSAwLjE1NjI1LDAuMzEyNSAtMC4wNDI5NjksMC4xMjUgLTAuMjI2NTYyNSwwLjMyODEyNSAtMC41NDY4NzUsMC42MDkzNzUgLTAuNzUsMC42Nzk2ODc1NCAtMS42OTkyMTg4LDEuMTAxNTYyNTYgLTIuODQzNzUwMSwxLjI2NTYyNTA3IC0wLjI3MzQzNzUsMC4wMzEyNSAtMC41MDc4MTI1LDAuMDQ2ODc1IC0wLjcwMzEyNSwwLjA0Njg3NSAtMS4zMDQ2ODc2LDAgLTIuMjAzMTI1MSwtMC41MzEyNTAwMiAtMi43MDMxMjUxNCwtMS41OTM3NTAwNyAtMC4yMzA0Njg3NiwtMC40NDUzMTI1IC0wLjM0Mzc1MDAxLC0wLjk0NTMxMjUgLTAuMzQzNzUwMDEsLTEuNTAwMDAwMSAwLC0wLjU1MDc4MTIgMC4xMTMyODEyNSwtMS4xMTcxODc1IDAuMzQzNzUwMDEsLTEuNzAzMTI1IDAuMzQzNzUwMDQsLTAuOTA2MjUwMSAwLjkxMDE1NjI0LC0xLjY3NTc4MTMgMS43MDMxMjUwNCwtMi4zMTI1MDAxIDAuODAwNzgxMywtMC42MzI4MTI2IDEuNjQ0NTMxNCwtMS4wMDAwMDAxIDIuNTMxMjUwMSwtMS4wOTM3NTAxIDAuMDcwMzEyLC0wLjAxOTUzMSAwLjE5MTQwNjMsLTAuMDMxMjUgMC4zNTkzNzUxLC0wLjAzMTI1IDAuNDE0MDYyNSwwIDAuODA0Njg3NSwwLjA3MDMxMiAxLjE3MTg3NSwwLjIwMzEyNSAwLjY3NTc4MTMsMC4yOTI5Njg4IDEuMDE1NjI1LDAuNzUwMDAwMSAxLjAxNTYyNSwxLjM3NTAwMDEgeiBtIDAsMCIgaWQ9InBhdGgxMzQiLz4mI3hhOyAgICA8cGF0aCBjbGlwLXBhdGg9InVybCgjY2xpcFBhdGgxMzcpIiB0cmFuc2Zvcm09Im1hdHJpeCgwLjEzMjI5MTY2LDAsMCwwLjEzMjI5MTY2LDEuOTQ5NDI3LDUuOTMyNDUwNSkiIGFyaWEtbGFiZWw9ImEiIHN0eWxlPSJmaWxsOiMwMDAwMDA7ZmlsbC1vcGFjaXR5OjE7ZmlsbC1ydWxlOm5vbnplcm87c3Ryb2tlOm5vbmUiIGQ9Im0gNS43MDMxMzIxLC00Ljk5OTk3NDkgYyAwLDAuMTA1NDY4NyAtMC4xNjQwNjI1LDAuNzgxMjUgLTAuNDg0Mzc1LDIuMDMxMjUwMSAtMC4zMTI1LDEuMjUgLTAuNDY4NzUsMS45NTMxMjUgLTAuNDY4NzUsMi4xMDkzNzUwNiAwLDAuMzU1NDY4NzYgMC4xMTcxODc1LDAuNTMxMjUwMDIgMC4zNTkzNzUsMC41MzEyNTAwMiAwLjA3MDMxMiwtMC4wMDc4MTMgMC4xNTYyNSwtMC4wNDY4NzUgMC4yNSwtMC4xMDkzNzUwMSAwLjE3NTc4MTMsLTAuMTc1NzgxMjUgMC4zNDc2NTYzLC0wLjU4NTkzNzU3IDAuNTE1NjI1LC0xLjIzNDM3NTA3IDAuMDUwNzgxLC0wLjE2NDA2MjUgMC4wOTc2NTYsLTAuMjUzOTA2MiAwLjE0MDYyNSwtMC4yNjU2MjUgMC4wMDc4MSwwIDAuMDUwNzgxLDAgMC4xMjUwMDAxLDAgaCAwLjA0Njg3NSBjIDAuMTU2MjUsMCAwLjIzNDM3NSwwLjAzMTI1IDAuMjM0Mzc1LDAuMDkzNzUgMCwwLjAzMTI1IC0wLjAxMTcxOSwwLjEwMTU2MjUgLTAuMDMxMjUsMC4yMDMxMjUgLTAuMTg3NSwwLjcxMDkzNzU1IC0wLjQxNzk2ODgsMS4xOTkyMTg4MiAtMC42ODc1MDAxLDEuNDY4NzUwMDggLTAuMTk5MjE4NywwLjE5NTMxMjUxIC0wLjQzMzU5MzcsMC4yOTY4NzUwMiAtMC43MDMxMjUsMC4yOTY4NzUwMiAtMC41NDI5Njg4LDAgLTAuOTE3OTY4OCwtMC4yMDcwMzEyNiAtMS4xMjUsLTAuNjI1MDAwMDMgLTAuMDQyOTY5LC0wLjEwMTU2MjUgLTAuMDYyNSwtMC4xNDg0Mzc1MSAtMC4wNjI1LC0wLjE0MDYyNTAxIC0wLjAxMTcxOSwtMC4wMDc4MTMgLTAuMDI3MzQ0LC0wLjAwNzgxMyAtMC4wNDY4NzUsMCAtMC4wMjM0MzcsMC4wMjM0Mzc1IC0wLjA0Mjk2OSwwLjA0Mjk2ODggLTAuMDYyNSwwLjA2MjUgQyAzLjI5Njg4MiwtMC4yMDMwOTk3MiAyLjg5NDUzODMsMC4wMjM0NjI3OSAyLjUwMDAwNywwLjEwOTQwMDMgYyAtMC4wNTQ2ODcsMC4wMDc4MTMgLTAuMTU2MjUsMC4wMTU2MjUgLTAuMzEyNSwwLjAxNTYyNSAtMC41NjI1LDAgLTEuMDI3MzQzOCwtMC4yMzQzNzUwMSAtMS4zOTA2MjUwNywtMC43MDMxMjUwMyBDIDAuNTQ2ODgxOTIsLTAuOTQxMzgxIDAuNDIxODgxOTEsLTEuNDE0MDM3MyAwLjQyMTg4MTkxLC0xLjk5OTk3NDggYyAwLC0wLjEzMjgxMjUgMC4wMDM5MDYsLTAuMjI2NTYyNSAwLjAxNTYyNSwtMC4yODEyNSAwLjA1MDc4MTMsLTAuNTM5MDYyNSAwLjIyMjY1NjI1LC0xLjA1NDY4NzUgMC41MTU2MjUwMiwtMS41NDY4NzUxIDAuMjg5MDYyNDcsLTAuNSAwLjY0MDYyNTA3LC0wLjg5ODQzNzUgMS4wNDY4NzUwNywtMS4yMDMxMjUgMC41LC0wLjM4MjgxMjUgMS4wMTk1MzEzLC0wLjU3ODEyNSAxLjU2MjUsLTAuNTc4MTI1IDAuNDE0MDYyNiwwIDAuNzk2ODc1MSwwLjIxMDkzNzUgMS4xNDA2MjUxLDAuNjI1IDAuMTMyODEyNSwtMC4yNSAwLjMyODEyNSwtMC4zNzUgMC41NzgxMjUsLTAuMzc1IDAuMTEzMjgxMywwIDAuMjEwOTM3NSwwLjAzOTA2MyAwLjI5Njg3NSwwLjEwOTM3NSAwLjA4MjAzMSwwLjA2MjUgMC4xMjUsMC4xNDg0Mzc1IDAuMTI1LDAuMjUgeiBNIDEuNTAwMDA3LC0xLjM0MzcyNDggYyAwLDAuMzA0Njg3NSAwLjA2MjUsMC41NDY4NzUwNiAwLjE4NzUsMC43MzQzNzUwNyAwLjEzMjgxMjUsMC4xODc1IDAuMzMyMDMxMiwwLjI4MTI1MDAxIDAuNTkzNzUsMC4yODEyNTAwMSAwLjIzODI4MTMsMCAwLjUsLTAuMTAxNTYyNTEgMC43ODEyNSwtMC4zMTI1MDAwMiAwLjEwMTU2MjUsLTAuMDYyNSAwLjIzODI4MTMsLTAuMTg3NSAwLjQwNjI1LC0wLjM3NTAwMDA2IDAuMTc1NzgxMywtMC4xODc1IDAuMjgxMjUwMSwtMC4zMTI1IDAuMzEyNTAwMSwtMC4zNzUgMC4wMTk1MzEsLTAuMDM5MDYzIDAuMTMyODEyNSwtMC40OTIxODc1IDAuMzQzNzUsLTEuMzU5Mzc1IDAuMjE4NzUsLTAuODc1MDAwMSAwLjMyODEyNSwtMS4zNDc2NTYzIDAuMzI4MTI1LC0xLjQyMTg3NTEgMCwtMC4wOTM3NSAtMC4wNDY4NzUsLTAuMjM0Mzc1IC0wLjE0MDYyNSwtMC40MjE4NzUgLTAuMTc5Njg3NSwtMC4zNjMyODEzIC0wLjQ0NTMxMjUsLTAuNTQ2ODc1IC0wLjc5Njg3NTEsLTAuNTQ2ODc1IC0wLjMzNTkzNzUsMCAtMC42MzI4MTI1LDAuMTQ4NDM3NSAtMC44OTA2MjUsMC40Mzc1IC0wLjI2MTcxODgsMC4yODEyNSAtMC40NjA5Mzc1LDAuNjA5Mzc1IC0wLjU5Mzc1LDAuOTg0Mzc1IC0wLjI0MjE4NzUsMC42Njc5Njg4IC0wLjQxNDA2MjUsMS4zNTkzNzUxIC0wLjUxNTYyNSwyLjA3ODEyNTEgMCwwLjAzMTI1IC0wLjAwNzgxLDAuMDg1OTM3IC0wLjAxNTYyNSwwLjE1NjI1IDAsMC4wNjI1IDAsMC4xMDkzNzUgMCwwLjE0MDYyNSB6IG0gMCwwIiBpZD0icGF0aDEzNiIvPiYjeGE7ICAgIDxwYXRoIGNsaXAtcGF0aD0idXJsKCNjbGlwUGF0aDEzOSkiIHRyYW5zZm9ybT0ibWF0cml4KDAuMTMyMjkxNjYsMCwwLDAuMTMyMjkxNjYsMS4yNjEwOTc2LDMuOTQ4MDc2OCkiIGFyaWEtbGFiZWw9IuKIjyIgc3R5bGU9ImZpbGw6IzAwMDAwMDtmaWxsLW9wYWNpdHk6MTtmaWxsLXJ1bGU6bm9uemVybztzdHJva2U6bm9uZSIgZD0ibSAxNC4yNjU2MzIsMi44MTI1MjQ4IGMgMC4xNDQ1MzIsMC42MTMyODEzIDAuNjc5Njg4LDAuOTQ1MzEyNSAxLjYwOTM3NSwxIGggMC4yNSB2IDAuNzM0Mzc1MSBoIC01Ljc4MTI1IFYgMy44MTI1MjQ4IGggMC4yNjU2MjUgYyAwLjg0Mzc1LC0wLjA1NDY4NyAxLjM2MzI4MSwtMC4zMzk4NDM3IDEuNTYyNSwtMC44NTkzNzUgbCAwLjA0Njg3LC0wLjE0MDYyNSBWIC0xMi44OTA2MDEgSCA0LjkwNjI1NjkgdiA3Ljg1OTM3NTUgbCAwLjAxNTYyNSw3Ljg0Mzc1MDMgYyAwLjE0NDUzMTIsMC42MTMyODEzIDAuNjc1NzgxMywwLjk0NTMxMjUgMS41OTM3NTAxLDEgaCAwLjI1IFYgNC41NDY4OTk5IEggMS4wMDAwMDY3IFYgMy44MTI1MjQ4IGggMC4yNSBDIDIuMTAxNTY5MywzLjc1NzgzNzMgMi42MjUwMDY4LDMuNDcyNjgxMSAyLjgxMjUwNjgsMi45NTMxNDk4IGwgMC4wNjI1LC0wLjE0MDYyNSBWIC0xMS45MDYyMjYgbCAtMC4wNjI1LC0wLjEyNSBjIC0wLjE4NzUsLTAuNTE5NTMxIC0wLjcxMDkzNzUsLTAuODA0Njg3IC0xLjU2MjUwMDEsLTAuODU5Mzc1IGggLTAuMjUgdiAtMC43MzQzNzUgSCAxNi4xMjUwMDcgdiAwLjczNDM3NSBoIC0wLjI1IGMgLTAuNDkyMTg3LDAuMDIzNDQgLTAuODU5Mzc1LDAuMTA5Mzc1IC0xLjEwOTM3NSwwLjI2NTYyNSAtMC4yNSwwLjE0ODQzOCAtMC40MTc5NjgsMC4zODY3MTkgLTAuNSwwLjcxODc1IHogbSAwLDAiIGlkPSJwYXRoMTM4Ii8+JiN4YTsgICAgPHBhdGggY2xpcC1wYXRoPSJ1cmwoI2NsaXBQYXRoMTQxKSIgdHJhbnNmb3JtPSJtYXRyaXgoMC4xMzIyOTE2NiwwLDAsMC4xMzIyOTE2NiwyLjAzNDE3NywxLjU2NjgyNjgpIiBhcmlhLWxhYmVsPSJiIiBzdHlsZT0iZmlsbDojMDAwMDAwO2ZpbGwtb3BhY2l0eToxO2ZpbGwtcnVsZTpub256ZXJvO3N0cm9rZTpub25lIiBkPSJtIDEuMTI1MDA3LC04LjY3MTg1MTQgYyAwLjAwNzgxLDAgMC4zMTY0MDYyLC0wLjAxOTUzMSAwLjkyMTg3NSwtMC4wNjI1IDAuNjAxNTYyNSwtMC4wNTA3ODEgMC45MTAxNTYzLC0wLjA3ODEyNSAwLjkyMTg3NSwtMC4wNzgxMjUgMC4xMDE1NjI2LDAgMC4xNTYyNTAxLDAuMDM5MDYzIDAuMTU2MjUwMSwwLjEwOTM3NTEgMCwwLjA3NDIxOSAtMC4xNTIzNDM4LDAuNjk5MjE4NyAtMC40NTMxMjUxLDEuODc1IC0wLjI5Mjk2ODcsMS4xNjc5Njg4IC0wLjQzNzUsMS43NTc4MTI2IC0wLjQzNzUsMS43NjU2MjUxIDAsMC4wMjM0MzcgMC4wMjM0MzcsMC4wMDc4MSAwLjA3ODEyNSwtMC4wNDY4NzUgMC4yODkwNjI1LC0wLjIzODI4MTMgMC42MTMyODEzLC0wLjM5ODQzNzUgMC45Njg3NTAxLC0wLjQ4NDM3NSAwLjEwMTU2MjUsLTAuMDA3ODEgMC4yMDcwMzEyLC0wLjAxNTYyNSAwLjMxMjUsLTAuMDE1NjI1IDAuMTEzMjgxMiwwIDAuMjE4NzUsMC4wMDc4MSAwLjMxMjUsMC4wMTU2MjUgMC40NDUzMTI1LDAuMTA1NDY4NyAwLjgwMDc4MTMsMC4zMzU5Mzc1IDEuMDYyNSwwLjY4NzUgMC4yNTc4MTI1LDAuMzU1NDY4OCAwLjM5MDYyNSwwLjgwNDY4NzUgMC4zOTA2MjUsMS4zNDM3NTAxIDAsMC45NDkyMTg4IC0wLjMzNTkzNzUsMS44MDQ2ODc1IC0xLDIuNTYyNTAwMDggLTAuNjY3OTY4OCwwLjc2MTcxODc4IC0xLjM4NjcxODgsMS4xNDA2MjUwNCAtMi4xNTYyNTAxLDEuMTQwNjI1MDQgLTAuMjUsMCAtMC40ODQzNzUsLTAuMDU4NTkzNzUgLTAuNzAzMTI1LC0wLjE3MTg3NSBDIDAuODQzNzU2OTYsLTAuMzIwMjg4NiAwLjUxNTYzMTk1LC0wLjk0NTI4ODYyIDAuNTE1NjMxOTUsLTEuOTA2MjI2MiBjIDAsLTAuMjUgMC4wMTk1MzEzLC0wLjQ4ODI4MTIgMC4wNjI1LC0wLjcxODc1IDAsLTAuMDA3ODEgMC4yMTA5Mzc1MSwtMC44Nzg5MDYzIDAuNjQwNjI1MDUsLTIuNjA5Mzc1MSBsIDAuNjU2MjUsLTIuNTkzNzUwMSBjIDAuMDA3ODEsLTAuMTEzMjgxMyAtMC4wMjM0MzcsLTAuMTg3NSAtMC4wOTM3NSwtMC4yMTg3NSAtMC4wNzQyMTksLTAuMDMxMjUgLTAuMTk1MzEyNSwtMC4wNDY4NzUgLTAuMzU5Mzc1LC0wLjA0Njg3NSAtMC4wNjI1LDAgLTAuMTA5Mzc1LDAgLTAuMTQwNjI1LDAgLTAuMTc5Njg3NSwwIC0wLjI3NzM0MzgsLTAuMDA3ODEgLTAuMjk2ODc1MDQsLTAuMDMxMjUgLTAuMDU0Njg3NSwtMC4wMzkwNjMgLTAuMDU4NTkzOCwtMC4xNDQ1MzEzIC0wLjAxNTYyNSwtMC4zMTI1IDAuMDMxMjUsLTAuMTEzMjgxMyAwLjA1NDY4NzUsLTAuMTc5Njg3NSAwLjA3ODEyNSwtMC4yMDMxMjUgMC4wMzEyNSwtMC4wMTk1MzEgMC4wNTQ2ODcsLTAuMDMxMjUgMC4wNzgxMjUsLTAuMDMxMjUgeiBtIDMuMTQwNjI1MSw0LjU0Njg3NTEgYyAwLC0wLjY3NTc4MTIgLTAuMjU3ODEyNSwtMS4wMTU2MjUgLTAuNzY1NjI1LC0xLjAxNTYyNSAtMC4wMjM0MzcsMCAtMC4wNTQ2ODcsMC4wMDc4MSAtMC4wOTM3NSwwLjAxNTYyNSAtMC4wMzEyNSwwIC0wLjA1NDY4NywwIC0wLjA2MjUsMCAtMC40Mzc1MDAxLDAuMDg1OTM3IC0wLjg1NTQ2ODgsMC4zODY3MTg4IC0xLjI1MDAwMDEsMC45MDYyNSAtMC4wMTE3MTksMC4wMjM0MzcgLTAuMDMxMjUsMC4wNDY4NzUgLTAuMDYyNSwwLjA3ODEyNSBsIC0wLjAzMTI1LDAuMDQ2ODc1IGMgMCwwLjAxMTcxOSAtMC4wNzgxMjUsMC4zMjAzMTI2IC0wLjIzNDM3NSwwLjkyMTg3NTEgLTAuMTQ4NDM3NSwwLjU5Mzc1IC0wLjIyNjU2MjUsMC45MzM1OTM4IC0wLjIzNDM3NSwxLjAxNTYyNSAtMC4wNTQ2ODcsMC4yNjE3MTg4IC0wLjA3ODEyNSwwLjQ5NjA5MzggLTAuMDc4MTI1LDAuNzAzMTI1MSAwLDAuNDA2MjUgMC4wOTc2NTYsMC43MTQ4NDM3NCAwLjI5Njg3NSwwLjkyMTg3NDk5IDAuMTMyODEyNSwwLjEzNjcxODc2IDAuMzA0Njg3NSwwLjIwMzEyNTAxIDAuNTE1NjI1LDAuMjAzMTI1MDEgMC4yODEyNSwwIDAuNTYyNSwtMC4xMzI4MTI1IDAuODQzNzUwMSwtMC40MDYyNTAwMSAwLjIxODc1LC0wLjE5NTMxMjUxIDAuMzkwNjI1LC0wLjQzNzQ5OTk5IDAuNTE1NjI1LC0wLjcxODc0OTk5IDAuMTMyODEyNSwtMC4yODEyNTAxIDAuMjczNDM3NSwtMC43MjI2NTYzIDAuNDIxODc1LC0xLjMyODEyNTEgMC4xNDQ1MzEyLC0wLjYxMzI4MTMgMC4yMTg3NSwtMS4wNjI1IDAuMjE4NzUsLTEuMzQzNzUwMSB6IG0gMCwwIiBpZD0icGF0aDE0MCIvPiYjeGE7ICA8L2c+JiN4YTs8L3N2Zz4=;connectable=0;allowArrows=0;rotatable=0;html=1;align=left;labelPosition=right;verticalLabelPosition=middle;verticalAlign=middle;fontSize=18;labelBackgroundColor=#E6E6E6;fontColor=#000000;labelBorderColor=none;imageBackground=#FFFFFF;imageBorder=default;shadow=0;spacingLeft=12.5;" parent="1" vertex="1">
          <mxGeometry x="312.5" y="950" width="50" height="50" as="geometry" />
        </mxCell>
        <mxCell id="a21QgjTOZl95tkyDf_ZO-28" value="&lt;pre style=&quot;line-height: 0%;&quot;&gt;&amp;nbsp; &amp;nbsp;&amp;nbsp;\pm&amp;nbsp; &amp;nbsp;&amp;nbsp;&lt;/pre&gt;" style="shape=image;aspect=fixed;image=data:image/svg+xml,PHN2ZyB4bWxucz0iaHR0cDovL3d3dy53My5vcmcvMjAwMC9zdmciIGlkPSJzdmcxIiB2ZXJzaW9uPSIxLjEiIHZpZXdCb3g9IjAgMCA2LjM0OTk5OTkwNDYzMjU2OCA2LjM0OTk5OTkwNDYzMjU2OCIgaGVpZ2h0PSIyNC4wMDAwMDAwMTc1MDg5MiIgd2lkdGg9IjI0LjAwMDAwMDAxNzUwODkyIj4mI3hhOyAgJiN4YTsgIDxkZWZzIGlkPSJkZWZzMSI+JiN4YTsgICAgPGNsaXBQYXRoIGlkPSJjbGlwUGF0aDE0MyIgY2xpcFBhdGhVbml0cz0idXNlclNwYWNlT25Vc2UiPiYjeGE7ICAgICAgPHBhdGggaWQ9InBhdGgxNDMiIGNsaXAtcnVsZT0iZXZlbm9kZCIgdHJhbnNmb3JtPSJtYXRyaXgoMC4zMTk5OTk5OSwwLDAsMC4zMTk5OTk5OSwtMTAzLC02NjguOTk5OTcpIiBkPSJNIDExNS42MjUsMTE1LjYyNSBIIDI0MzIuMzI0MiBWIDMxODIuMzI0MiBIIDExNS42MjUgWiIvPiYjeGE7ICAgIDwvY2xpcFBhdGg+JiN4YTsgICAgPGNsaXBQYXRoIGlkPSJjbGlwUGF0aDEzOCIgY2xpcFBhdGhVbml0cz0idXNlclNwYWNlT25Vc2UiPiYjeGE7ICAgICAgPHBhdGggaWQ9InBhdGgxMzgiIGNsaXAtcnVsZT0iZXZlbm9kZCIgdHJhbnNmb3JtPSJtYXRyaXgoMC4zMTk5OTk5OSwwLDAsMC4zMTk5OTk5OSwtMTAzLC02ODAuOTk5OTcpIiBkPSJNIDExNS42MjUsMTE1LjYyNSBIIDI0MzIuMzI0MiBWIDMxODIuMzI0MiBIIDExNS42MjUgWiIvPiYjeGE7ICAgIDwvY2xpcFBhdGg+JiN4YTsgICAgPGNsaXBQYXRoIGlkPSJjbGlwUGF0aDEzOC05IiBjbGlwUGF0aFVuaXRzPSJ1c2VyU3BhY2VPblVzZSI+JiN4YTsgICAgICA8cGF0aCBpZD0icGF0aDEzOC00IiBjbGlwLXJ1bGU9ImV2ZW5vZGQiIHRyYW5zZm9ybT0ibWF0cml4KDAuMzE5OTk5OTksMCwwLDAuMzE5OTk5OTksLTEwMywtNjgwLjk5OTk3KSIgZD0iTSAxMTUuNjI1LDExNS42MjUgSCAyNDMyLjMyNDIgViAzMTgyLjMyNDIgSCAxMTUuNjI1IFoiLz4mI3hhOyAgICA8L2NsaXBQYXRoPiYjeGE7ICA8L2RlZnM+JiN4YTsgIDxnIGlkPSJsYXllcjEiPiYjeGE7ICAgIDxwYXRoIGNsaXAtcGF0aD0idXJsKCNjbGlwUGF0aDEzOC05KSIgdHJhbnNmb3JtPSJtYXRyaXgoMC4zOTY4NzUsMCwwLDAuMzk2ODc1LDAuMzcyMDY4NDcsNS41NzE3NDE3KSIgYXJpYS1sYWJlbD0iwrEiIHN0eWxlPSJmaWxsOiMwMDAwMDA7ZmlsbC1vcGFjaXR5OjE7ZmlsbC1ydWxlOm5vbnplcm87c3Ryb2tlOm5vbmUiIGQ9Im0gMS4yNjU2MjkzLC01LjY4NzQ3MTkgYyAtMC4xNjc5Njg3LC0wLjA4MjAzMSAtMC4yNSwtMC4yMDMxMjUgLTAuMjUsLTAuMzU5Mzc1IDAsLTAuMTU2MjUgMC4wODIwMzEsLTAuMjczNDM3NSAwLjI1LC0wLjM1OTM3NSBIIDYuNzAzMTI5NiBWIC05LjEwOTM0NyBjIDAsLTEuODAwNzgxIDAuMDA3ODEsLTIuNzI2NTYzIDAuMDMxMjUsLTIuNzgxMjUgMC4wNzAzMTIsLTAuMTI1IDAuMTc5Njg3NSwtMC4xODc1IDAuMzI4MTI1LC0wLjE4NzUgMC4xMDE1NjI1LDAgMC4xODc1LDAuMDMxMjUgMC4yNSwwLjA5Mzc1IDAuMDYyNSwwLjA2MjUgMC4wOTM3NSwwLjIxMDkzNyAwLjA5Mzc1LDAuNDM3NSAwLjAwNzgxLDAuMjE4NzUgMC4wMTU2MjUsMS4wNDI5NjkgMC4wMTU2MjUsMi40Njg3NSB2IDIuNjcxODc1MSBoIDUuNDIxODc1NCBjIDAuMTc1NzgxLDAuMDg1OTM3IDAuMjY1NjI1LDAuMjAzMTI1IDAuMjY1NjI1LDAuMzU5Mzc1IDAsMC4xNTYyNSAtMC4wODk4NCwwLjI3NzM0MzggLTAuMjY1NjI1LDAuMzU5Mzc1IEggNy40MjE4Nzk2IHYgNC45Njg3NTAyNSBoIDUuNDIxODc1NCBjIDAuMTc1NzgxLDAuMDkzNzUgMC4yNjU2MjUsMC4yMTQ4NDM3NSAwLjI2NTYyNSwwLjM1OTM3NTAxIDAsMC4xNDg0Mzc1MSAtMC4wODk4NCwwLjI2NTYyNTAxIC0wLjI2NTYyNSwwLjM1OTM3NTAxNTAwMSBIIDEuMjY1NjI5MyBjIC0wLjE2Nzk2ODcsLTAuMDgyMDMxMjU1IC0wLjI1LC0wLjIwMzEyNTAwNTAwMSAtMC4yNSwtMC4zNTkzNzUwMTUwMDEgMCwtMC4xNTYyNTAwMSAwLjA4MjAzMSwtMC4yNzM0Mzc1MSAwLjI1LC0wLjM1OTM3NTAxIEggNi43MDMxMjk2IFYgLTUuNjg3NDcxOSBaIG0gMCwwIiBpZD0icGF0aDEzNy05Ii8+JiN4YTsgICAgPHJlY3QgeT0iMCIgeD0iMCIgaGVpZ2h0PSI2LjM0OTk5OTkiIHdpZHRoPSI2LjM0OTk5OTkiIGlkPSJyZWN0MSIgc3R5bGU9Im9wYWNpdHk6MDtmaWxsOm5vbmU7c3Ryb2tlLXdpZHRoOjIuNjQ1ODM7c3Ryb2tlLWxpbmVqb2luOnJvdW5kO3N0cm9rZS1taXRlcmxpbWl0OjE2Ii8+JiN4YTsgIDwvZz4mI3hhOzwvc3ZnPg==;connectable=0;allowArrows=0;rotatable=0;html=1;align=left;labelPosition=right;verticalLabelPosition=middle;verticalAlign=middle;fontSize=18;labelBackgroundColor=#E6E6E6;fontColor=#000000;labelBorderColor=none;imageBackground=#FFFFFF;imageBorder=default;shadow=0;spacingLeft=12.5;" parent="1" vertex="1">
          <mxGeometry x="575" y="200" width="50" height="50" as="geometry" />
        </mxCell>
        <mxCell id="a21QgjTOZl95tkyDf_ZO-29" value="&lt;pre style=&quot;line-height: 0%;&quot;&gt;&amp;nbsp; &amp;nbsp;&amp;nbsp;\approx&amp;nbsp; &amp;nbsp;&amp;nbsp;&lt;/pre&gt;" style="shape=image;aspect=fixed;image=data:image/svg+xml,PHN2ZyB4bWxucz0iaHR0cDovL3d3dy53My5vcmcvMjAwMC9zdmciIGlkPSJzdmcxIiB2ZXJzaW9uPSIxLjEiIHZpZXdCb3g9IjAgMCA2LjM0OTk5OTkwNDYzMjU2OCA2LjM0OTk5OTkwNDYzMjU2OCIgaGVpZ2h0PSIyNC4wMDAwMDAwMTc1MDg5MiIgd2lkdGg9IjI0LjAwMDAwMDAxNzUwODkyIj4mI3hhOyAgJiN4YTsgIDxkZWZzIGlkPSJkZWZzMSI+JiN4YTsgICAgPGNsaXBQYXRoIGlkPSJjbGlwUGF0aDE0NSIgY2xpcFBhdGhVbml0cz0idXNlclNwYWNlT25Vc2UiPiYjeGE7ICAgICAgPHBhdGggaWQ9InBhdGgxNDUiIGNsaXAtcnVsZT0iZXZlbm9kZCIgdHJhbnNmb3JtPSJtYXRyaXgoMC4zMTk5OTk5OSwwLDAsMC4zMTk5OTk5OSwtMTAzLC02OTguOTk5OTcpIiBkPSJNIDExNS42MjUsMTE1LjYyNSBIIDI0MzIuMzI0MiBWIDMxODIuMzI0MiBIIDExNS42MjUgWiIvPiYjeGE7ICAgIDwvY2xpcFBhdGg+JiN4YTsgIDwvZGVmcz4mI3hhOyAgPGcgaWQ9ImxheWVyMSI+JiN4YTsgICAgPHJlY3QgeT0iMCIgeD0iMCIgaGVpZ2h0PSI2LjM0OTk5OTkiIHdpZHRoPSI2LjM0OTk5OTkiIGlkPSJyZWN0MSIgc3R5bGU9Im9wYWNpdHk6MDtmaWxsOm5vbmU7c3Ryb2tlLXdpZHRoOjIuNjQ1ODM7c3Ryb2tlLWxpbmVqb2luOnJvdW5kO3N0cm9rZS1taXRlcmxpbWl0OjE2Ii8+JiN4YTsgICAgPHBhdGggY2xpcC1wYXRoPSJ1cmwoI2NsaXBQYXRoMTQ1KSIgdHJhbnNmb3JtPSJtYXRyaXgoMC4zOTY4NzUsMCwwLDAuMzk2ODc1LDAuMzc1MTY5MDUsNS4xMTI4NTQ3KSIgYXJpYS1sYWJlbD0i4omIIiBzdHlsZT0iZmlsbDojMDAwMDAwO2ZpbGwtb3BhY2l0eToxO2ZpbGwtcnVsZTpub256ZXJvO3N0cm9rZTpub25lIiBkPSJtIDEyLjg1OTM4LC04Ljc2NTU5NjIgYyAwLjE2NDA2MiwwIDAuMjUsMC4xODc1IDAuMjUsMC41NjI1IDAsMC42ODc1IC0wLjE4NzUsMS4yNzczNDM4IC0wLjU2MjUsMS43NjU2MjUxIC0wLjM3NSwwLjQ5MjE4NzUgLTAuODcxMDk0LDAuODM1OTM3NSAtMS40ODQzNzUsMS4wMzEyNSAtMC4zMzU5MzgsMC4xMDU0Njg4IC0wLjY2NDA2MywwLjE1NjI1IC0wLjk4NDM3NSwwLjE1NjI1IC0wLjM5ODQzNzgsMCAtMC44MjAzMTI4LC0wLjA4MjAzMSAtMS4yNjU2MjUzLC0wLjI1IC0wLjM3NTAwMDEsLTAuMTMyODEyNSAtMC45OTIxODc2LC0wLjQ3NjU2MjUgLTEuODQzNzUwMSwtMS4wMzEyNSAtMC40MTc5Njg4LC0wLjI1NzgxMjYgLTAuNzE0ODQzOCwtMC40NDUzMTI2IC0wLjg5MDYyNTEsLTAuNTYyNTAwMSAtMC41NDI5Njg3LC0wLjMwMDc4MTIgLTEuMDU0Njg3NSwtMC41MDc4MTI1IC0xLjUzMTI1LC0wLjYyNSAtMC4wOTM3NSwtMC4wMDc4MSAtMC4yNTc4MTI1LC0wLjAxNTYyNSAtMC40ODQzNzUsLTAuMDE1NjI1IC0wLjYwNTQ2ODgsMCAtMS4xNDA2MjUxLDAuMTUyMzQzOCAtMS42MDkzNzUxLDAuNDUzMTI1IC0wLjU5Mzc1LDAuMzc1IC0wLjkxNDA2MjUsMC44NzUwMDAxIC0wLjk1MzEyNSwxLjUwMDAwMDEgLTAuMDIzNDM3LDAuMzU1NDY4NyAtMC4xMDU0Njg4LDAuNTMxMjUgLTAuMjUwMDAwMSwwLjUzMTI1IC0wLjE2Nzk2ODcsMCAtMC4yNSwtMC4xNzk2ODc1IC0wLjI1LC0wLjU0Njg3NSAwLC0wLjE0NDUzMTMgMC4wMjM0MzcsLTAuMzQ3NjU2MyAwLjA3ODEyNSwtMC42MDkzNzUgMC4xMDE1NjI1LC0wLjUzMTI1MDEgMC4zMjgxMjUxLC0wLjk4ODI4MTMgMC42NzE4NzUxLC0xLjM3NTAwMDEgMC4zNDM3NSwtMC4zOTQ1MzEzIDAuNzczNDM3NSwtMC42NzE4NzUgMS4yOTY4NzUsLTAuODI4MTI1IDAuMjM4MjgxMywtMC4wOTM3NSAwLjQ2MDkzNzUsLTAuMTQwNjI1IDAuNjcxODc1LC0wLjE0MDYyNSAwLjAzMTI1LDAgMC4wNzgxMjUsMCAwLjE0MDYyNTEsMCAwLjA3MDMxMiwtMC4wMDc4MSAwLjEzMjgxMjUsLTAuMDE1NjI1IDAuMTg3NSwtMC4wMTU2MjUgMC41MTk1MzEyLDAgMS4wODIwMzEzLDAuMTQ4NDM3NSAxLjY4NzUsMC40Mzc1IDAuMDMxMjUsMC4wMTE3MTkgMC44MDA3ODEzLDAuNDgwNDY4NyAyLjMxMjUwMDEsMS40MDYyNSAwLjUzMTI1LDAuMzA0Njg3NSAxLjA0Njg3NTEsMC41MTE3MTg4IDEuNTQ2ODc1MSwwLjYyNTAwMDEgMC4wNzAzMTIsMC4wMTE3MTkgMC4yMjI2NTYzLDAuMDE1NjI1IDAuNDUzMTI1MywwLjAxNTYyNSAwLjYwMTU2MiwwIDEuMTQwNjI1LC0wLjE0ODQzNzUgMS42MDkzNzUsLTAuNDUzMTI1MSAwLjU1MDc4MSwtMC4zNTE1NjI1IDAuODYzMjgxLC0wLjg1OTM3NSAwLjkzNzUsLTEuNTE1NjI1IDAsLTAuMTEzMjgxMyAwLjAyMzQ0LC0wLjIyNjU2MjUgMC4wNzgxMywtMC4zNDM3NSAwLjA1MDc4LC0wLjExMzI4MTMgMC4xMTMyODEsLTAuMTcxODc1IDAuMTg3NSwtMC4xNzE4NzUgeiBtIC0wLjI2NTYyNSw0Ljc2NTYyNTIgYyAwLC0wLjM0Mzc1MDEgMC4wODIwMywtMC41MTU2MjUxIDAuMjUsLTAuNTE1NjI1MSAwLjE3NTc4MSwwIDAuMjY1NjI1LDAuMTk1MzEyNSAwLjI2NTYyNSwwLjU3ODEyNTEgMCwwLjE4NzUgLTAuMDI3MzQsMC4zODI4MTI1IC0wLjA3ODEzLDAuNTc4MTI1IC0wLjE0ODQzOCwwLjY3OTY4NzUgLTAuNDg0Mzc1LDEuMjQyMTg3NSAtMS4wMTU2MjUsMS42ODc1MDAxIC0wLjUyMzQzOCwwLjQ0OTIxODcgLTEuMTY3OTY5LDAuNjcxODc0OTggLTEuOTM3NSwwLjY3MTg3NDk4IC0wLjM5ODQzNzgsMCAtMC44MjAzMTI4LC0wLjA4MjAzMTMgLTEuMjY1NjI1MywtMC4yNDk5OTk5OCBDIDguNDM3NTA0NiwtMS4zODI3ODM0IDcuODIwMzE3MSwtMS43MjY1MzM0IDYuOTY4NzU0NiwtMi4yODEyMjEgNi41NTA3ODU4LC0yLjUzOTAzMzUgNi4yNTM5MTA4LC0yLjcyNjUzMzUgNi4wNzgxMjk1LC0yLjg0MzcyMSBjIC0wLjU0Mjk2ODcsLTAuMzAwNzgxMyAtMS4wNTQ2ODc1LC0wLjUwNzgxMjUgLTEuNTMxMjUsLTAuNjI1IC0wLjA5Mzc1LC0wLjAwNzgxIC0wLjI1NzgxMjUsLTAuMDE1NjI1IC0wLjQ4NDM3NSwtMC4wMTU2MjUgLTAuNjA1NDY4OCwwIC0xLjE0MDYyNTEsMC4xNTIzNDM3IC0xLjYwOTM3NTEsMC40NTMxMjUgLTAuNTkzNzUsMC4zNzUgLTAuOTE0MDYyNSwwLjg3NSAtMC45NTMxMjUsMS41MDAwMDAxIC0wLjAyMzQzNywwLjM1NTQ2ODcgLTAuMTA1NDY4OCwwLjUzMTI0OTk4IC0wLjI1MDAwMDEsMC41MzEyNDk5OCAtMC4xNjc5Njg3LDAgLTAuMjUsLTAuMTc5Njg3NDggLTAuMjUsLTAuNTQ2ODc0OTggMCwtMC4xNDQ1MzEzIDAuMDIzNDM3LC0wLjM0NzY1NjMgMC4wNzgxMjUsLTAuNjA5Mzc1MSAwLjEwMTU2MjUsLTAuNTMxMjUgMC4zMjgxMjUxLC0wLjk4ODI4MTMgMC42NzE4NzUxLC0xLjM3NSAwLjM0Mzc1LC0wLjM5NDUzMTMgMC43NzM0Mzc1LC0wLjY3MTg3NTEgMS4yOTY4NzUsLTAuODI4MTI1MSAwLjIzODI4MTMsLTAuMDkzNzUgMC40NjA5Mzc1LC0wLjE0MDYyNSAwLjY3MTg3NSwtMC4xNDA2MjUgMC4wMzEyNSwwIDAuMDc4MTI1LDAgMC4xNDA2MjUxLDAgMC4wNzAzMTIsLTAuMDA3ODEgMC4xMzI4MTI1LC0wLjAxNTYyNSAwLjE4NzUsLTAuMDE1NjI1IDAuNTE5NTMxMiwwIDEuMDgyMDMxMywwLjE0ODQzNzUgMS42ODc1LDAuNDM3NTAwMSAwLjAzMTI1LDAuMDExNzE5IDAuODAwNzgxMywwLjQ4MDQ2ODcgMi4zMTI1MDAxLDEuNDA2MjUgMC41MzEyNSwwLjMxMjUgMS4wNDY4NzUxLDAuNTIzNDM3NSAxLjU0Njg3NTEsMC42MjUgMC4wNzAzMTIsMC4wMTE3MTkgMC4yMjI2NTYzLDAuMDE1NjI1IDAuNDUzMTI1MywwLjAxNTYyNSAwLjYwMTU2MiwwIDEuMTQwNjI1LC0wLjE0ODQzNzUgMS42MDkzNzUsLTAuNDUzMTI1IDAuNTUwNzgxLC0wLjM1MTU2MjUgMC44NjMyODEsLTAuODU5Mzc1IDAuOTM3NSwtMS41MTU2MjUgeiBtIDAsMCIgaWQ9InBhdGgxNDQiLz4mI3hhOyAgPC9nPiYjeGE7PC9zdmc+;connectable=0;allowArrows=0;rotatable=0;html=1;align=left;labelPosition=right;verticalLabelPosition=middle;verticalAlign=middle;fontSize=18;labelBackgroundColor=#E6E6E6;fontColor=#000000;labelBorderColor=none;imageBackground=#FFFFFF;imageBorder=default;shadow=0;spacingLeft=12.5;" parent="1" vertex="1">
          <mxGeometry x="575" y="414" width="50" height="50" as="geometry" />
        </mxCell>
        <mxCell id="a21QgjTOZl95tkyDf_ZO-30" value="&lt;pre style=&quot;line-height: 0%;&quot;&gt;&amp;nbsp; &amp;nbsp;\leftarrow&amp;nbsp; &amp;nbsp;&lt;/pre&gt;" style="shape=image;aspect=fixed;image=data:image/svg+xml,PHN2ZyB4bWxucz0iaHR0cDovL3d3dy53My5vcmcvMjAwMC9zdmciIGlkPSJzdmcxIiB2ZXJzaW9uPSIxLjEiIHZpZXdCb3g9IjAgMCA2LjM0OTk5OTkwNDYzMjU2OCA2LjM0OTk5OTkwNDYzMjU2OCIgaGVpZ2h0PSIyNC4wMDAwMDAwMTc1MDg5MiIgd2lkdGg9IjI0LjAwMDAwMDAxNzUwODkyIj4mI3hhOyAgJiN4YTsgIDxkZWZzIGlkPSJkZWZzMSI+JiN4YTsgICAgPGNsaXBQYXRoIGlkPSJjbGlwUGF0aDE0NyIgY2xpcFBhdGhVbml0cz0idXNlclNwYWNlT25Vc2UiPiYjeGE7ICAgICAgPHBhdGggaWQ9InBhdGgxNDciIGNsaXAtcnVsZT0iZXZlbm9kZCIgdHJhbnNmb3JtPSJtYXRyaXgoMC4zMTk5OTk5OSwwLDAsMC4zMTk5OTk5OSwtMTAzLC03MjguOTk5OTcpIiBkPSJNIDExNS42MjUsMTE1LjYyNSBIIDI0MzIuMzI0MiBWIDMxODIuMzI0MiBIIDExNS42MjUgWiIvPiYjeGE7ICAgIDwvY2xpcFBhdGg+JiN4YTsgIDwvZGVmcz4mI3hhOyAgPGcgaWQ9ImxheWVyMSI+JiN4YTsgICAgPHJlY3QgeT0iMCIgeD0iMCIgaGVpZ2h0PSI2LjM0OTk5OTkiIHdpZHRoPSI2LjM0OTk5OTkiIGlkPSJyZWN0MSIgc3R5bGU9Im9wYWNpdHk6MDtmaWxsOm5vbmU7c3Ryb2tlLXdpZHRoOjIuNjQ1ODM7c3Ryb2tlLWxpbmVqb2luOnJvdW5kO3N0cm9rZS1taXRlcmxpbWl0OjE2Ii8+JiN4YTsgICAgPHBhdGggY2xpcC1wYXRoPSJ1cmwoI2NsaXBQYXRoMTQ3KSIgdHJhbnNmb3JtPSJtYXRyaXgoMC4yNjQ1ODMzMywwLDAsMC4yNjQ1ODMzMywwLjc3NTE0NTI4LDQuMzc1OTUyMykiIGFyaWEtbGFiZWw9IuKGkCIgc3R5bGU9ImZpbGw6IzAwMDAwMDtmaWxsLW9wYWNpdHk6MTtmaWxsLXJ1bGU6bm9uemVybztzdHJva2U6bm9uZSIgZD0ibSAxNi44NzUwMDUsLTQuOTA2MjE5OCBjIDAuMTc1NzgxLDAuMTA1NDY4NyAwLjI2NTYyNSwwLjIzMDQ2ODcgMC4yNjU2MjUsMC4zNzUgMCwwLjEzNjcxODcgLTAuMDg5ODQsMC4yNTc4MTI1IC0wLjI2NTYyNSwwLjM1OTM3NSBIIDMuMDAwMDA0NCBsIDAuMDQ2ODc1LDAuMDQ2ODc1IGMgMS4yNTAwMDAxLDAuOTYwOTM3NSAyLjA2NjQwNjQsMi4xODM1OTM4IDIuNDUzMTI1MSwzLjY3MTg3NTE2IDAuMDcwMzEyLDAuMjczNDM3NTEgMC4xMDkzNzUsMC40MjE4NzUwMSAwLjEwOTM3NSwwLjQ1MzEyNTAxNTAwMSAwLDAuMTMyODEyNTA0OTk5IC0wLjEyNSwwLjIwMzEyNTAwNDk5OSAtMC4zNzUsMC4yMDMxMjUwMDQ5OTkgLTAuMTQ4NDM3NSwwIC0wLjI0MjE4NzUsLTAuMDE1NjI1IC0wLjI4MTI1LC0wLjA0Njg3NSAtMC4wNDI5NjksLTAuMDMxMjUgLTAuMDc4MTI1LC0wLjEwOTM3NSAtMC4xMDkzNzUsLTAuMjM0Mzc1MDEgLTAuMDIzNDM3LC0wLjA4MjAzMTI1IC0wLjA0Mjk2OSwtMC4xNzk2ODc1MSAtMC4wNjI1LC0wLjI5Njg3NTAxIEMgNC41NjI1MDQ1LC0xLjI1Nzc4MjIgNC4xNDQ1MzU3LC0yLjA0Njg0NDcgMy41MzEyNTQ0LC0yLjczNDM0NDcgMi45MTQwNjY5LC0zLjQyOTY1NzMgMi4xNzk2OTE5LC0zLjk0NTI4MjMgMS4zMjgxMjkzLC00LjI4MTIxOTggYyAtMC4xODc1LC0wLjA3MDMxMiAtMC4yOTY4NzUsLTAuMTQwNjI1IC0wLjMyODEyNSwtMC4yMDMxMjUgMCwtMC4xNTYyNSAwLjEwOTM3NSwtMC4yNTc4MTI1IDAuMzI4MTI1LC0wLjMxMjUgMC44NTE1NjI2LC0wLjMzMjAzMTMgMS41ODU5Mzc2LC0wLjg0Mzc1MDEgMi4yMDMxMjUxLC0xLjUzMTI1MDEgMC42MTMyODEzLC0wLjY5NTMxMjUgMS4wMzEyNTAxLC0xLjQ4ODI4MTMgMS4yNTAwMDAxLC0yLjM3NTAwMDEgMC4wMDc4MSwtMC4wMzEyNSAwLjAxOTUzMSwtMC4wODIwMzEgMC4wMzEyNSwtMC4xNTYyNSAwLjAwNzgxLC0wLjA3MDMxMiAwLjAxNTYyNSwtMC4xMTcxODc1IDAuMDE1NjI1LC0wLjE0MDYyNSAwLjAwNzgxLC0wLjAzMTI1IDAuMDIzNDM3LC0wLjA2NjQwNiAwLjA0Njg3NSwtMC4xMDkzNzUgMC4wMTk1MzEsLTAuMDUwNzgxIDAuMDM5MDYzLC0wLjA4MjAzMSAwLjA2MjUsLTAuMDkzNzUgMC4wMTk1MzEsLTAuMDE5NTMxIDAuMDU0Njg3LC0wLjAzNTE1NiAwLjEwOTM3NSwtMC4wNDY4NzUgMC4wNTA3ODEsLTAuMDE5NTMxIDAuMTEzMjgxMywtMC4wMzEyNSAwLjE4NzUsLTAuMDMxMjUgMC4yNSwwIDAuMzc1LDAuMDcwMzEyIDAuMzc1LDAuMjAzMTI1IDAsMC4wMzEyNSAtMC4wMzkwNjMsMC4xODM1OTM4IC0wLjEwOTM3NSwwLjQ1MzEyNSAtMC4zNjcxODc1LDEuNDM3NTAwMSAtMS4xODM1OTM4LDIuNjY0MDYyNiAtMi40NTMxMjUxLDMuNjcxODc1MiBsIC0wLjA0Njg3NSwwLjA0Njg3NSB6IG0gMCwwIiBpZD0icGF0aDE0NiIvPiYjeGE7ICA8L2c+JiN4YTs8L3N2Zz4=;connectable=0;allowArrows=0;rotatable=0;html=1;align=left;labelPosition=right;verticalLabelPosition=middle;verticalAlign=middle;fontSize=18;labelBackgroundColor=#E6E6E6;fontColor=#000000;labelBorderColor=none;imageBackground=#FFFFFF;imageBorder=default;shadow=0;spacingLeft=12.5;" parent="1" vertex="1">
          <mxGeometry x="575" y="521" width="50" height="50" as="geometry" />
        </mxCell>
        <mxCell id="a21QgjTOZl95tkyDf_ZO-31" value="&lt;pre style=&quot;line-height: 0%;&quot;&gt;&amp;nbsp;&amp;nbsp;\rightarrow &amp;nbsp;&lt;/pre&gt;" style="shape=image;aspect=fixed;image=data:image/svg+xml,PHN2ZyB4bWxucz0iaHR0cDovL3d3dy53My5vcmcvMjAwMC9zdmciIGlkPSJzdmcxIiB2ZXJzaW9uPSIxLjEiIHZpZXdCb3g9IjAgMCA2LjM0OTk5OTkwNDYzMjU2OCA2LjM0OTk5OTkwNDYzMjU2OCIgaGVpZ2h0PSIyNC4wMDAwMDAwMTc1MDg5MiIgd2lkdGg9IjI0LjAwMDAwMDAxNzUwODkyIj4mI3hhOyAgJiN4YTsgIDxkZWZzIGlkPSJkZWZzMSI+JiN4YTsgICAgPGNsaXBQYXRoIGlkPSJjbGlwUGF0aDE0OSIgY2xpcFBhdGhVbml0cz0idXNlclNwYWNlT25Vc2UiPiYjeGE7ICAgICAgPHBhdGggaWQ9InBhdGgxNDkiIGNsaXAtcnVsZT0iZXZlbm9kZCIgdHJhbnNmb3JtPSJtYXRyaXgoMC4zMTk5OTk5OSwwLDAsMC4zMTk5OTk5OSwtMTAzLC03NTguOTk5OTcpIiBkPSJNIDExNS42MjUsMTE1LjYyNSBIIDI0MzIuMzI0MiBWIDMxODIuMzI0MiBIIDExNS42MjUgWiIvPiYjeGE7ICAgIDwvY2xpcFBhdGg+JiN4YTsgIDwvZGVmcz4mI3hhOyAgPGcgaWQ9ImxheWVyMSI+JiN4YTsgICAgPHJlY3QgeT0iMCIgeD0iMCIgaGVpZ2h0PSI2LjM0OTk5OTkiIHdpZHRoPSI2LjM0OTk5OTkiIGlkPSJyZWN0MSIgc3R5bGU9Im9wYWNpdHk6MDtmaWxsOm5vbmU7c3Ryb2tlLXdpZHRoOjIuNjQ1ODM7c3Ryb2tlLWxpbmVqb2luOnJvdW5kO3N0cm9rZS1taXRlcmxpbWl0OjE2Ii8+JiN4YTsgICAgPHBhdGggY2xpcC1wYXRoPSJ1cmwoI2NsaXBQYXRoMTQ5KSIgdHJhbnNmb3JtPSJtYXRyaXgoMC4yNjQ1ODMzMywwLDAsMC4yNjQ1ODMzMywwLjc3MzA3ODg5LDQuMzc1OTUxOSkiIGFyaWEtbGFiZWw9IuKGkiIgc3R5bGU9ImZpbGw6IzAwMDAwMDtmaWxsLW9wYWNpdHk6MTtmaWxsLXJ1bGU6bm9uemVybztzdHJva2U6bm9uZSIgZD0ibSAxLjI2NTYyOTMsLTQuMTcxODQzNSBjIC0wLjE2Nzk2ODcsLTAuMDgyMDMxIC0wLjI1LC0wLjIwMzEyNTEgLTAuMjUsLTAuMzU5Mzc1MSAwLC0wLjE2NDA2MjUgMC4wODIwMzEsLTAuMjg5MDYyNSAwLjI1LC0wLjM3NSBIIDE1LjE1NjI1NSBjIC0wLjg1NTQ2OSwtMC42MzI4MTI1IC0xLjUyMzQzOCwtMS40MDYyNSAtMiwtMi4zMTI1MDAxIC0wLjMwNDY4OCwtMC41ODIwMzEzIC0wLjUsLTEuMTYwMTU2MyAtMC41OTM3NSwtMS43MzQzNzUgMCwtMC4wMTk1MzEgLTAuMDA3OCwtMC4wMzkwNjMgLTAuMDE1NjMsLTAuMDYyNSAwLC0wLjAzMTI1IDAsLTAuMDUwNzgxIDAsLTAuMDYyNSAwLC0wLjEzMjgxMjUgMC4xMTcxODcsLTAuMjAzMTI1IDAuMzU5Mzc1LC0wLjIwMzEyNSAwLjE0NDUzMSwwIDAuMjM4MjgxLDAuMDE1NjI1IDAuMjgxMjUsMC4wNDY4NzUgMC4wMzkwNiwwLjAzMTI1IDAuMDc4MTMsMC4xMDE1NjI1IDAuMTA5Mzc1LDAuMjAzMTI1IDAuMDMxMjUsMC4yNTAwMDAxIDAuMDkzNzUsMC41MDAwMDAxIDAuMTg3NSwwLjc1MDAwMDEgMC4yNjk1MzEsMC44MTI1IDAuNzEwOTM3LDEuNTM5MDYyNSAxLjMyODEyNSwyLjE3MTg3NTEgMC42MTMyODEsMC42MzY3MTg3IDEuMzMyMDMxLDEuMDkzNzUgMi4xNTYyNSwxLjM3NSAwLjExMzI4MSwwLjAzMTI1IDAuMTcxODc1LDAuMTAxNTYyNSAwLjE3MTg3NSwwLjIwMzEyNSAwLDAuMDkzNzUgLTAuMDU4NTksMC4xNTYyNSAtMC4xNzE4NzUsMC4xODc1IC0wLjgyNDIxOSwwLjI4MTI1MDEgLTEuNTQyOTY5LDAuNzQyMTg3NiAtMi4xNTYyNSwxLjM3NTAwMDEgLTAuNjE3MTg4LDAuNjM2NzE4OCAtMS4wNTg1OTQsMS4zNTkzNzUxIC0xLjMyODEyNSwyLjE3MTg3NTA5IC0wLjA4NTk0LDAuMjUwMDAwMDEgLTAuMTQ4NDM4LDAuNDkyMTg3NTIgLTAuMTg3NSwwLjcxODc1MDAzIC0wLjAzMTI1LDAuMTI1MDAwMDEgLTAuMDcwMzEsMC4yMDMxMjUwMSAtMC4xMDkzNzUsMC4yMzQzNzUwMSAtMC4wNDI5NywwLjAzMTI1IC0wLjEzNjcxOSwwLjA0Njg3NSAtMC4yODEyNSwwLjA0Njg3NSAtMC4yNSwwIC0wLjM3NSwtMC4wNzAzMTI1IC0wLjM3NSwtMC4yMDMxMjUwMDQ5OTkgMCwtMC4wMzEyNTAwMDUgMC4wMzUxNiwtMC4xNzk2ODc1MDUwMDEgMC4xMDkzNzUsLTAuNDUzMTI1MDE1MDAxIDAuMzc1LC0xLjUwNzgxMjYxIDEuMjEwOTM3LC0yLjc1MDAwMDExIDIuNTE1NjI1LC0zLjcxODc1MDExIHogbSAwLDAiIGlkPSJwYXRoMTQ4Ii8+JiN4YTsgIDwvZz4mI3hhOzwvc3ZnPg==;connectable=0;allowArrows=0;rotatable=0;html=1;align=left;labelPosition=right;verticalLabelPosition=middle;verticalAlign=middle;fontSize=18;labelBackgroundColor=#E6E6E6;fontColor=#000000;labelBorderColor=none;imageBackground=#FFFFFF;imageBorder=default;shadow=0;spacingLeft=12.5;" parent="1" vertex="1">
          <mxGeometry x="575" y="629" width="50" height="50" as="geometry" />
        </mxCell>
        <mxCell id="a21QgjTOZl95tkyDf_ZO-32" value="&lt;pre style=&quot;line-height: 0%;&quot;&gt;&amp;nbsp; &amp;nbsp;&amp;nbsp;\infty&amp;nbsp; &amp;nbsp;&amp;nbsp;&lt;/pre&gt;" style="shape=image;aspect=fixed;image=data:image/svg+xml,PHN2ZyB4bWxucz0iaHR0cDovL3d3dy53My5vcmcvMjAwMC9zdmciIGlkPSJzdmcxIiB2ZXJzaW9uPSIxLjEiIHZpZXdCb3g9IjAgMCA2LjM0OTk5OTkwNDYzMjU2OCA2LjM0OTk5OTkwNDYzMjU2OCIgaGVpZ2h0PSIyNC4wMDAwMDAwMTc1MDg5MiIgd2lkdGg9IjI0LjAwMDAwMDAxNzUwODkyIj4mI3hhOyAgJiN4YTsgIDxkZWZzIGlkPSJkZWZzMSI+JiN4YTsgICAgPGNsaXBQYXRoIGlkPSJjbGlwUGF0aDE1MSIgY2xpcFBhdGhVbml0cz0idXNlclNwYWNlT25Vc2UiPiYjeGE7ICAgICAgPHBhdGggaWQ9InBhdGgxNTEiIGNsaXAtcnVsZT0iZXZlbm9kZCIgdHJhbnNmb3JtPSJtYXRyaXgoMC4zMTk5OTk5OSwwLDAsMC4zMTk5OTk5OSwtMTAzLC03ODguOTk5OTcpIiBkPSJNIDExNS42MjUsMTE1LjYyNSBIIDI0MzIuMzI0MiBWIDMxODIuMzI0MiBIIDExNS42MjUgWiIvPiYjeGE7ICAgIDwvY2xpcFBhdGg+JiN4YTsgIDwvZGVmcz4mI3hhOyAgPGcgaWQ9ImxheWVyMSI+JiN4YTsgICAgPHJlY3QgeT0iMCIgeD0iMCIgaGVpZ2h0PSI2LjM0OTk5OTkiIHdpZHRoPSI2LjM0OTk5OTkiIGlkPSJyZWN0MSIgc3R5bGU9Im9wYWNpdHk6MDtmaWxsOm5vbmU7c3Ryb2tlLXdpZHRoOjIuNjQ1ODM7c3Ryb2tlLWxpbmVqb2luOnJvdW5kO3N0cm9rZS1taXRlcmxpbWl0OjE2Ii8+JiN4YTsgICAgPHBhdGggY2xpcC1wYXRoPSJ1cmwoI2NsaXBQYXRoMTUxKSIgdHJhbnNmb3JtPSJtYXRyaXgoMC4yNjQ1ODMzMywwLDAsMC4yNjQ1ODMzMywwLjc3NTE0NTI4LDQuMjEwNTg3KSIgYXJpYS1sYWJlbD0i4oieIiBzdHlsZT0iZmlsbDojMDAwMDAwO2ZpbGwtb3BhY2l0eToxO2ZpbGwtcnVsZTpub256ZXJvO3N0cm9rZTpub25lIiBkPSJtIDEuNDUzMTI5NCwtNS45MDYyMTc0IGMgMC4zMDA3ODEyLC0wLjYyNSAwLjcxODc1LC0xLjEzMjgxMjUgMS4yNSwtMS41MzEyNSAwLjUzMTI1LC0wLjM5NDUzMTMgMS4xNjQwNjI2LC0wLjU5Mzc1MDEgMS45MDYyNTAxLC0wLjU5Mzc1MDEgMS4wMzkwNjI1LDAgMi4wMzkwNjI2LDAuMzcxMDkzOCAzLjAwMDAwMDEsMS4xMDkzNzUxIDAuNDU3MDMxMywwLjM3NSAwLjkwNjI1LDAuODUxNTYyNSAxLjM0Mzc1MDEsMS40MjE4NzUgbCAwLjI1LDAuMzQzNzUwMSAwLjEyNSwtMC4xODc1IGMgMC44MzIwMzEzLC0xLjE5NTMxMjYgMS43NTAwMDAzLC0xLjk5MjE4NzYgMi43NTAwMDAzLC0yLjM5MDYyNTEgMC41MTk1MzEsLTAuMTk1MzEyNiAxLjAxNTYyNSwtMC4yOTY4NzUxIDEuNDg0Mzc1LC0wLjI5Njg3NTEgMC4zOTQ1MzEsMCAwLjc3MzQzNywwLjA3MDMxMiAxLjE0MDYyNSwwLjIwMzEyNSAwLjcwNzAzMSwwLjI4MTI1MDEgMS4yODkwNjIsMC43ODEyNTAxIDEuNzUsMS41MDAwMDAxIDAuNDU3MDMxLDAuNzEwOTM3NSAwLjY4NzUsMS41MjM0Mzc2IDAuNjg3NSwyLjQzNzUwMDEgMCwwLjk0OTIxODggLTAuMjQ2MDk0LDEuNzc3MzQzOCAtMC43MzQzNzUsMi40ODQzNzUxIC0wLjQ4MDQ2OSwwLjcxMDkzNzU1IC0xLjEwMTU2MywxLjE4NzUwMDA3IC0xLjg1OTM3NSwxLjQzNzUwMDA4IC0wLjMzNTkzOCwwLjExMzI4MTI1IC0wLjY4NzUsMC4xNzE4NzUgLTEuMDYyNSwwLjE3MTg3NSAtMS4wNDI5NjksMCAtMi4wMjczNDQsLTAuMzY3MTg3NTEgLTIuOTUzMTI1LC0xLjEwOTM3NTA0IEMgMTAuMDcwMzE3LC0xLjI4MTIxNzIgOS42MjUwMDQ3LC0xLjc1Mzg3MzQgOS4xODc1MDQ3LC0yLjMyODA5MjIgbCAtMC4yNSwtMC4zNDM3NSAtMC4xMjUsMC4xODc1IGMgLTAuODQzNzUwMSwxLjE5OTIxODggLTEuNzYxNzE4OSwxLjk5NjA5MzggLTIuNzUwMDAwMiwyLjM5MDYyNTA3IC0wLjUyMzQzNzUsMC4xOTUzMTI1MSAtMS4wMTU2MjUsMC4yOTY4NzUwMSAtMS40ODQzNzUsMC4yOTY4NzUwMSAtMC40MDYyNSwwIC0wLjc4OTA2MjYsLTAuMDcwMzEyNSAtMS4xNDA2MjUxLC0wLjIwMzEyNTAwNDk5OSBDIDIuNzI2NTY2OSwtMC4yODEyMTcxNCAyLjE0NDUzNTYsLTAuNzczNDA0NjYgMS42ODc1MDQ0LC0xLjQ4NDM0MjIgMS4yMjY1NjY4LC0yLjIwMzA5MjIgMS4wMDAwMDQzLC0zLjAxOTQ5ODUgMS4wMDAwMDQzLC0zLjkzNzQ2NzMgYyAwLC0wLjY4NzUgMC4xNDg0Mzc1LC0xLjM0Mzc1IDAuNDUzMTI1MSwtMS45Njg3NTAxIHogTSAxMy44OTA2MywtMC45MjE4NDIxNiBjIDAuNzY5NTMxLDAgMS4zOTA2MjUsLTAuMzA0Njg3NTQgMS44NTkzNzUsLTAuOTIxODc1MDQgMC40NzY1NjIsLTAuNjEzMjgxMyAwLjcxODc1LC0xLjMxMjUwMDEgMC43MTg3NSwtMi4wOTM3NTAxIDAsLTAuODk0NTMxMyAtMC4yNDYwOTQsLTEuNjYwMTU2MyAtMC43MzQzNzUsLTIuMjk2ODc1MSAtMC40ODA0NjksLTAuNjQ0NTMxMyAtMS4xMjEwOTQsLTAuOTY4NzUgLTEuOTIxODc1LC0wLjk2ODc1IC0wLjY2Nzk2OSwwIC0xLjI5Njg3NSwwLjE5NTMxMjUgLTEuODkwNjI1LDAuNTc4MTI1IC0wLjcxMDkzOCwwLjQ2MDkzNzUgLTEuMzk4NDM4LDEuMjI2NTYyNiAtMi4wNjI1MDAzLDIuMjk2ODc1MSBsIDAuNTYyNTAwMywwLjczNDM3NSBjIDAuMzgyODEyLDAuNSAwLjYyNSwwLjgwODU5MzggMC43MTg3NSwwLjkyMTg3NTEgMC45NDUzMTIsMS4xNjc5Njg4IDEuODYzMjgxLDEuNzUwMDAwMDQgMi43NSwxLjc1MDAwMDA0IHogTSA0LjIzNDM3OTUsLTYuOTA2MjE3NCBjIC0wLjc5Mjk2ODgsMCAtMS40MTc5Njg4LDAuMzA4NTkzOCAtMS44NzUwMDAxLDAuOTIxODc1IC0wLjQ2MDkzNzUsMC42MDU0Njg4IC0wLjY4NzUsMS4zMDQ2ODc2IC0wLjY4NzUsMi4wOTM3NTAxIDAsMC43MzA0Njg4IDAuMTcxODc1LDEuMzk4NDM3NiAwLjUxNTYyNSwyLjAwMDAwMDEgMC4zNTE1NjI1LDAuNTkzNzUgMC44MDQ2ODc1LDAuOTc2NTYyNTQgMS4zNTkzNzUsMS4xNDA2MjUwNCAwLjI1NzgxMjYsMC4xMDU0Njg3NiAwLjUyMzQzNzYsMC4xNTYyNTAwMSAwLjc5Njg3NTEsMC4xNTYyNTAwMSAwLjYyNSwwIDEuMjUzOTA2MywtMC4yMDMxMjUwMSAxLjg5MDYyNTEsLTAuNjA5Mzc1MDUgMC42OTUzMTI1LC0wLjQ1NzAzMTIgMS4zNzg5MDYzLC0xLjIyMjY1NjMgMi4wNDY4NzUsLTIuMjk2ODc1MSBsIC0wLjU2MjUsLTAuNzM0Mzc1IEMgNy4zMzIwMzU4LC00LjcyMjYyMzYgNy4wODU5NDIxLC01LjAzMTIxNzMgNi45ODQzNzk2LC01LjE1NjIxNzMgNi4xNDA2Mjk1LC02LjE3NTc0ODYgNS4zNTE1NjcsLTYuNzQyMTU0OSA0LjYyNTAwNDUsLTYuODU5MzQyNCA0LjQ3NjU2NywtNi44OTA1OTI0IDQuMzQ3NjYwNywtNi45MDYyMTc0IDQuMjM0Mzc5NSwtNi45MDYyMTc0IFogbSAwLDAiIGlkPSJwYXRoMTUwIi8+JiN4YTsgIDwvZz4mI3hhOzwvc3ZnPg==;connectable=0;allowArrows=0;rotatable=0;html=1;align=left;labelPosition=right;verticalLabelPosition=middle;verticalAlign=middle;fontSize=18;labelBackgroundColor=#E6E6E6;fontColor=#000000;labelBorderColor=none;imageBackground=#FFFFFF;imageBorder=default;shadow=0;spacingLeft=12.5;" parent="1" vertex="1">
          <mxGeometry x="575" y="307" width="50" height="50" as="geometry" />
        </mxCell>
        <mxCell id="a21QgjTOZl95tkyDf_ZO-33" value="&lt;pre style=&quot;line-height: 0%;&quot;&gt;&amp;nbsp; &amp;nbsp;&amp;nbsp;\pi&amp;nbsp; &amp;nbsp;&amp;nbsp;&lt;/pre&gt;" style="shape=image;aspect=fixed;image=data:image/svg+xml,PHN2ZyB4bWxucz0iaHR0cDovL3d3dy53My5vcmcvMjAwMC9zdmciIGlkPSJzdmcxIiB2ZXJzaW9uPSIxLjEiIHZpZXdCb3g9IjAgMCA2LjM0OTk5OTkwNDYzMjU2OCA2LjM0OTk5OTkwNDYzMjU2OCIgaGVpZ2h0PSIyNC4wMDAwMDAwMTc1MDg5MiIgd2lkdGg9IjI0LjAwMDAwMDAxNzUwODkyIj4mI3hhOyAgJiN4YTsgIDxkZWZzIGlkPSJkZWZzMSI+JiN4YTsgICAgPGNsaXBQYXRoIGlkPSJjbGlwUGF0aDE1MyIgY2xpcFBhdGhVbml0cz0idXNlclNwYWNlT25Vc2UiPiYjeGE7ICAgICAgPHBhdGggaWQ9InBhdGgxNTMiIGNsaXAtcnVsZT0iZXZlbm9kZCIgdHJhbnNmb3JtPSJtYXRyaXgoMC4zMTk5OTk5OSwwLDAsMC4zMTk5OTk5OSwtMTAzLC04MTguOTk5OTcpIiBkPSJNIDExNS42MjUsMTE1LjYyNSBIIDI0MzIuMzI0MiBWIDMxODIuMzI0MiBIIDExNS42MjUgWiIvPiYjeGE7ICAgIDwvY2xpcFBhdGg+JiN4YTsgIDwvZGVmcz4mI3hhOyAgPGcgaWQ9ImxheWVyMSI+JiN4YTsgICAgPHJlY3QgeT0iMCIgeD0iMCIgaGVpZ2h0PSI2LjM0OTk5OTkiIHdpZHRoPSI2LjM0OTk5OTkiIGlkPSJyZWN0MSIgc3R5bGU9Im9wYWNpdHk6MDtmaWxsOm5vbmU7c3Ryb2tlLXdpZHRoOjIuNjQ1ODM7c3Ryb2tlLWxpbmVqb2luOnJvdW5kO3N0cm9rZS1taXRlcmxpbWl0OjE2Ii8+JiN4YTsgICAgPHBhdGggY2xpcC1wYXRoPSJ1cmwoI2NsaXBQYXRoMTUzKSIgdHJhbnNmb3JtPSJtYXRyaXgoMC4zOTY4NzUsMCwwLDAuMzk2ODc1LDEuMDQyMDcwNCw0LjY4ODA3MjUpIiBhcmlhLWxhYmVsPSLPgCIgc3R5bGU9ImZpbGw6IzAwMDAwMDtmaWxsLW9wYWNpdHk6MTtmaWxsLXJ1bGU6bm9uemVybztzdHJva2U6bm9uZSIgZD0ibSA3LjgyODEyOTYsLTAuNjcxODQwOSBjIDAsMC4yMTA5Mzc1MSAtMC4wODk4NDQsMC40MDYyNTAwMSAtMC4yNjU2MjUsMC41OTM3NTAwMiAtMC4xNzk2ODc1LDAuMTc1NzgxMjYgLTAuMzkwNjI1LDAuMjY1NjI1MDEgLTAuNjQwNjI1LDAuMjY1NjI1MDEgLTAuMTg3NSwwIC0wLjMxMjUsLTAuMDI3MzQzOCAtMC4zNzUsLTAuMDc4MTI1IC0wLjA2MjUsLTAuMDU0Njg3NSAtMC4xMzI4MTI1LC0wLjE0ODQzNzUxIC0wLjIwMzEyNSwtMC4yOTY4NzUwMSBDIDYuMTAxNTY3LC0wLjcxODcxNTkgNS45ODQzNzk1LC0xLjM5MDU5MDkgNS45ODQzNzk1LC0yLjIwMzA5MSBjIDAsLTAuNDI1NzgxMiAwLjAwNzgxLC0wLjcxMDkzNzUgMC4wMzEyNSwtMC44NTkzNzUgMC4wODIwMzEsLTAuODQzNzUgMC4yNjk1MzEzLC0xLjg1MTU2MjYgMC41NjI1MDAxLC0zLjAzMTI1MDEgMC4wNTA3ODEsLTAuMjUgMC4wNzgxMjUsLTAuMzgyODEyNSAwLjA3ODEyNSwtMC40MDYyNSBIIDQuODkwNjI5NSBsIC0wLjAzMTI1LDAuMDc4MTI1IGMgMCwwLjAxMTcxOSAtMC4wMTE3MTksMC4wNjI1IC0wLjAzMTI1LDAuMTU2MjUgLTAuMDIzNDM3LDAuMDg1OTM3IC0wLjA1NDY4NywwLjIxNDg0MzcgLTAuMDkzNzUsMC4zOTA2MjUgLTAuMDQyOTY5LDAuMTc5Njg3NSAtMC4wODU5MzcsMC4zMzk4NDM3IC0wLjEyNSwwLjQ4NDM3NSAtMC44MDQ2ODc1LDMuMTE3MTg3NiAtMS4yODEyNTAxLDQuODA4NTkzOTUgLTEuNDM3NTAwMSw1LjA3ODEyNTIxIC0wLjE0ODQzNzUsMC4zNDM3NTAwMiAtMC40MDYyNSwwLjUxNTYyNTAyIC0wLjc4MTI1LDAuNTE1NjI1MDIgLTAuMjczNDM3NSwwIC0wLjQ2NDg0MzgsLTAuMTA1NDY4NzUgLTAuNTc4MTI1LC0wLjMxMjUwMDAxIC0wLjAyMzQzNywtMC4wNjI1IC0wLjAzMTI1LC0wLjE2MDE1NjI2IC0wLjAzMTI1LC0wLjI5Njg3NTAxIFYgLTAuNTkzNzE1OSBsIDAuMjM0Mzc1LC0wLjUxNTYyNSBjIDAuOTA2MjUsLTEuOTA2MjUwMSAxLjU2NjQwNjMsLTMuNTU0Njg3NyAxLjk4NDM3NTEsLTQuOTUzMTI1MiBsIDAuMTQwNjI1LC0wLjQzNzUgSCAzLjU2MjUwNDQgYyAtMC40OTIxODc1LDAgLTAuODI4MTI1LDAuMDIzNDM3IC0xLjAxNTYyNSwwLjA2MjUgLTAuMTg3NSwwLjAzMTI1IC0wLjQxNDA2MjUsMC4xNDg0Mzc1IC0wLjY3MTg3NSwwLjM0Mzc1IC0wLjI5Mjk2ODgsMC4xNzk2ODc1IC0wLjU0Njg3NTEsMC40MjE4NzUgLTAuNzY1NjI1MSwwLjczNDM3NSAtMC4wNjI1LDAuMTA1NDY4OCAtMC4xMTcxODc0NywwLjE2Nzk2ODggLTAuMTU2MjQ5OTcsMC4xODc1IC0wLjAzMTI1LDAuMDExNzE5IC0wLjEyMTA5Mzc1LDAuMDE1NjI1IC0wLjI2NTYyNTAxLDAuMDE1NjI1IC0wLjE4NzUwMDAxLDAgLTAuMzA0Njg3NTEsLTAuMDM5MDYzIC0wLjM0Mzc1MDAxLC0wLjEyNSAtMC4wMTE3MTg4LC0wLjA2MjUgMC4wNTA3ODEzLC0wLjIwMzEyNSAwLjE4NzUsLTAuNDIxODc1IDAuODMyMDMxMjksLTEuMjY5NTMxMyAxLjY0ODQzNzU5LC0xLjk2MDkzNzYgMi40NTMxMjUwOSwtMi4wNzgxMjUxIDAuMDgyMDMxLC0wLjAzMTI1IDEuNDQxNDA2MywtMC4wNDY4NzUgNC4wNzgxMjUyLC0wLjA0Njg3NSAxLjkzNzUwMDEsMCAyLjkyOTY4NzYsMC4wMDc4MSAyLjk4NDM3NTQsMC4wMTU2MjUgMC4yMzgyODEsMC4wODU5MzcgMC4zNTkzNzUsMC4yNTc4MTI1IDAuMzU5Mzc1LDAuNTE1NjI1IDAsMC4zNzUgLTAuMTk1MzEzLDAuNjMyODEyNSAtMC41NzgxMjUzLDAuNzY1NjI1MSAtMC4wNzQyMTksMC4wMjM0MzcgLTAuNDk2MDkzOCwwLjAzMTI1IC0xLjI2NTYyNTEsMC4wMzEyNSBoIC0xLjE1NjI1IGwgLTAuMDQ2ODc1LDAuMzEyNSBjIC0wLjE0ODQzNzUsMC44NjcxODc1IC0wLjIxODc1LDEuNTg1OTM3NSAtMC4yMTg3NSwyLjE1NjI1MDEgMCwxLjA3NDIxODggMC4xODc1LDIuMDQ2ODc1IDAuNTYyNSwyLjkyMTg3NTEgMC4wODIwMzEsMC4yMTg3NDk5OSAwLjEyNSwwLjM2NzE4NzQ5IDAuMTI1LDAuNDM3NSB6IG0gMCwwIiBpZD0icGF0aDE1MiIvPiYjeGE7ICA8L2c+JiN4YTs8L3N2Zz4=;connectable=0;allowArrows=0;rotatable=0;html=1;align=left;labelPosition=right;verticalLabelPosition=middle;verticalAlign=middle;fontSize=18;labelBackgroundColor=#E6E6E6;fontColor=#000000;labelBorderColor=none;imageBackground=#FFFFFF;imageBorder=default;shadow=0;spacingLeft=12.5;" parent="1" vertex="1">
          <mxGeometry x="50" y="843" width="50" height="50" as="geometry" />
        </mxCell>
        <mxCell id="a21QgjTOZl95tkyDf_ZO-34" value="&lt;pre style=&quot;line-height: 0%;&quot;&gt;&amp;nbsp; &amp;nbsp;&amp;nbsp;\tau&amp;nbsp; &amp;nbsp;&amp;nbsp;&lt;/pre&gt;" style="shape=image;aspect=fixed;image=data:image/svg+xml,PHN2ZyB4bWxucz0iaHR0cDovL3d3dy53My5vcmcvMjAwMC9zdmciIGlkPSJzdmcxIiB2ZXJzaW9uPSIxLjEiIHZpZXdCb3g9IjAgMCA2LjM0OTk5OTkwNDYzMjU2OCA2LjM0OTk5OTkwNDYzMjU2OCIgaGVpZ2h0PSIyNC4wMDAwMDAwMTc1MDg5MiIgd2lkdGg9IjI0LjAwMDAwMDAxNzUwODkyIj4mI3hhOyAgJiN4YTsgIDxkZWZzIGlkPSJkZWZzMSI+JiN4YTsgICAgPGNsaXBQYXRoIGlkPSJjbGlwUGF0aDE1NSIgY2xpcFBhdGhVbml0cz0idXNlclNwYWNlT25Vc2UiPiYjeGE7ICAgICAgPHBhdGggaWQ9InBhdGgxNTUiIGNsaXAtcnVsZT0iZXZlbm9kZCIgdHJhbnNmb3JtPSJtYXRyaXgoMC4zMTk5OTk5OSwwLDAsMC4zMTk5OTk5OSwtMTAzLC04NDguOTk5OTYpIiBkPSJNIDExNS42MjUsMTE1LjYyNSBIIDI0MzIuMzI0MiBWIDMxODIuMzI0MiBIIDExNS42MjUgWiIvPiYjeGE7ICAgIDwvY2xpcFBhdGg+JiN4YTsgIDwvZGVmcz4mI3hhOyAgPGcgaWQ9ImxheWVyMSI+JiN4YTsgICAgPHJlY3QgeT0iMCIgeD0iMCIgaGVpZ2h0PSI2LjM0OTk5OTkiIHdpZHRoPSI2LjM0OTk5OTkiIGlkPSJyZWN0MSIgc3R5bGU9Im9wYWNpdHk6MDtmaWxsOm5vbmU7c3Ryb2tlLXdpZHRoOjIuNjQ1ODM7c3Ryb2tlLWxpbmVqb2luOnJvdW5kO3N0cm9rZS1taXRlcmxpbWl0OjE2Ii8+JiN4YTsgICAgPHBhdGggY2xpcC1wYXRoPSJ1cmwoI2NsaXBQYXRoMTU1KSIgdHJhbnNmb3JtPSJtYXRyaXgoMC4zOTY4NzUsMCwwLDAuMzk2ODc1LDEuMjQ2NDMzOCw0LjY4MTg3MDgpIiBhcmlhLWxhYmVsPSLPhCIgc3R5bGU9ImZpbGw6IzAwMDAwMDtmaWxsLW9wYWNpdHk6MTtmaWxsLXJ1bGU6bm9uemVybztzdHJva2U6bm9uZSIgZD0ibSAzLjM3NTAwNDQsMC4yMzQ0MTAzOCBjIC0wLjM5ODQzNzUsMCAtMC41OTM3NSwtMC4xOTkyMTg3NSAtMC41OTM3NSwtMC41OTM3NTAwMiB2IC0wLjE4NzUwMDAxIGwgMC45MDYyNSwtMi45Mzc1MDAxNSBjIDAuMTMyODEyNiwtMC40Mzc1IDAuMjgxMjUwMSwtMC45MjE4NzUgMC40Mzc1MDAxLC0xLjQ1MzEyNSAwLjE2NDA2MjUsLTAuNTMxMjUwMSAwLjI4OTA2MjUsLTAuOTE0MDYyNiAwLjM3NSwtMS4xNTYyNTAxIGwgMC4xMDkzNzUsLTAuMzkwNjI1IGMgMCwtMC4wMDc4MSAtMC4yNzczNDM4LC0wLjAxNTYyNSAtMC44MjgxMjUxLC0wLjAxNTYyNSAtMC41OTM3NSwwIC0wLjkyMTg3NSwwLjAwNzgxIC0wLjk4NDM3NSwwLjAxNTYyNSAtMC42Njc5Njg4LDAuMDkzNzUgLTEuMjMwNDY4OCwwLjQ2ODc1IC0xLjY4NzUwMDEsMS4xMjUwMDAxIC0wLjA2MjUsMC4xMDU0Njg3IC0wLjExNzE4NzQ3LDAuMTY3OTY4NyAtMC4xNTYyNDk5NywwLjE4NzUgLTAuMDMxMjUsMC4wMTE3MTkgLTAuMTE3MTg3NSwwLjAxNTYyNSAtMC4yNTAwMDAwMSwwLjAxNTYyNSAtMC4xNDg0Mzc1MSwwIC0wLjI1MDAwMDAxLC0wLjAxNTYyNSAtMC4zMTI1MDAwMSwtMC4wNDY4NzUgLTAuMDYyNSwtMC4wMzEyNSAtMC4wNzgxMjUsLTAuMDkzNzUgLTAuMDQ2ODc1LC0wLjE4NzUgMC4xMTMyODEyNSwtMC4yMjY1NjI2IDAuMzIwMzEyNTEsLTAuNTM5MDYyNiAwLjYyNTAwMDAyLC0wLjkzNzUwMDEgMC4zMTI0OTk5NywtMC4zOTQ1MzEzIDAuNTg1OTM3NTcsLTAuNjkxNDA2MyAwLjgyODEyNTA3LC0wLjg5MDYyNSAwLjQyNTc4MTIsLTAuMzMyMDMxMyAwLjgyMDMxMjUsLTAuNTE5NTMxMyAxLjE4NzUsLTAuNTYyNSAwLjA3MDMxMiwtMC4wMzEyNSAxLjA4NTkzNzYsLTAuMDQ2ODc1IDMuMDQ2ODc1MSwtMC4wNDY4NzUgMS45Mzc1MDAxLDAgMi45Mzc1MDAyLDAuMDE1NjI1IDMuMDAwMDAwMiwwLjA0Njg3NSAwLjIzODI4MTIsMC4wNTQ2ODcgMC4zNTkzNzUsMC4yMTQ4NDM3IDAuMzU5Mzc1LDAuNDg0Mzc1IDAsMC4xNTYyNSAtMC4wNTg1OTQsMC4zMTI1IC0wLjE3MTg3NSwwLjQ2ODc1IC0wLjExNzE4NzUsMC4xNTYyNSAtMC4yNSwwLjI1NzgxMjUgLTAuNDA2MjUsMC4yOTY4NzUgLTAuMDc0MjE5LDAuMDIzNDM3IC0wLjY1NjI1MDEsMC4wMzEyNSAtMS43NTAwMDAxLDAuMDMxMjUgLTEuMDkzNzUwMSwwIC0xLjY0MDYyNTEsMC4wMTE3MTkgLTEuNjQwNjI1MSwwLjAzMTI1IC0wLjAxMTcxOSwwLjAxMTcxOSAtMC4xMDkzNzUsMC41MTE3MTg4IC0wLjI5Njg3NSwxLjUwMDAwMDEgLTAuMTg3NSwwLjk4MDQ2ODggLTAuMzgyODEyNSwxLjk4MDQ2ODggLTAuNTc4MTI1LDMuMDAwMDAwMSAtMC4xODc1LDEuMDExNzE4NzkgLTAuMjkyOTY4OCwxLjU0Njg3NTA2IC0wLjMxMjUsMS42MDkzNzUwNiAtMC4wNjI1LDAuMTc5Njg3NTEgLTAuMTc5Njg3NSwwLjMyMDMxMjUxIC0wLjM0Mzc1LDAuNDIxODc1MDIgLTAuMTU2MjUwMSwwLjExMzI4MTI1IC0wLjMyODEyNTEsMC4xNzE4NzUgLTAuNTE1NjI1MSwwLjE3MTg3NSB6IG0gMCwwIiBpZD0icGF0aDE1NCIvPiYjeGE7ICA8L2c+JiN4YTs8L3N2Zz4=;connectable=0;allowArrows=0;rotatable=0;html=1;align=left;labelPosition=right;verticalLabelPosition=middle;verticalAlign=middle;fontSize=18;labelBackgroundColor=#E6E6E6;fontColor=#000000;labelBorderColor=none;imageBackground=#FFFFFF;imageBorder=default;shadow=0;spacingLeft=12.5;" parent="1" vertex="1">
          <mxGeometry x="50" y="950" width="50" height="50" as="geometry" />
        </mxCell>
        <mxCell id="a21QgjTOZl95tkyDf_ZO-35" value="&lt;pre style=&quot;line-height: 0%;&quot;&gt;&amp;nbsp; &amp;nbsp;&amp;nbsp;\ge&amp;nbsp; &amp;nbsp;&amp;nbsp;&lt;/pre&gt;" style="shape=image;aspect=fixed;image=data:image/svg+xml,PHN2ZyB4bWxucz0iaHR0cDovL3d3dy53My5vcmcvMjAwMC9zdmciIGlkPSJzdmcxIiB2ZXJzaW9uPSIxLjEiIHZpZXdCb3g9IjAgMCA2LjM0OTk5OTkwNDYzMjU2OCA2LjM0OTk5OTkwNDYzMjU2OCIgaGVpZ2h0PSIyNC4wMDAwMDAwMTc1MDg5MiIgd2lkdGg9IjI0LjAwMDAwMDAxNzUwODkyIj4mI3hhOyAgJiN4YTsgIDxkZWZzIGlkPSJkZWZzMSI+JiN4YTsgICAgPGNsaXBQYXRoIGlkPSJjbGlwUGF0aDE1NyIgY2xpcFBhdGhVbml0cz0idXNlclNwYWNlT25Vc2UiPiYjeGE7ICAgICAgPHBhdGggaWQ9InBhdGgxNTciIGNsaXAtcnVsZT0iZXZlbm9kZCIgdHJhbnNmb3JtPSJtYXRyaXgoMC4zMTk5OTk5OSwwLDAsMC4zMTk5OTk5OSwtMTAzLC05MTQuOTk5OTYpIiBkPSJNIDExNS42MjUsMTE1LjYyNSBIIDI0MzIuMzI0MiBWIDMxODIuMzI0MiBIIDExNS42MjUgWiIvPiYjeGE7ICAgIDwvY2xpcFBhdGg+JiN4YTsgIDwvZGVmcz4mI3hhOyAgPGcgaWQ9ImxheWVyMSI+JiN4YTsgICAgPHJlY3QgeT0iMCIgeD0iMCIgaGVpZ2h0PSI2LjM0OTk5OTkiIHdpZHRoPSI2LjM0OTk5OTkiIGlkPSJyZWN0MSIgc3R5bGU9Im9wYWNpdHk6MDtmaWxsOm5vbmU7c3Ryb2tlLXdpZHRoOjIuNjQ1ODM7c3Ryb2tlLWxpbmVqb2luOnJvdW5kO3N0cm9rZS1taXRlcmxpbWl0OjE2Ii8+JiN4YTsgICAgPHBhdGggY2xpcC1wYXRoPSJ1cmwoI2NsaXBQYXRoMTU3KSIgdHJhbnNmb3JtPSJtYXRyaXgoMC4yNjQ1ODMzMywwLDAsMC4yNjQ1ODMzMywxLjMxMDUxMzEsNC4zNzE4MTYxKSIgYXJpYS1sYWJlbD0i4omlIiBzdHlsZT0iZmlsbDojMDAwMDAwO2ZpbGwtb3BhY2l0eToxO2ZpbGwtcnVsZTpub256ZXJvO3N0cm9rZTpub25lIiBkPSJtIDEuNTAwMDA0NCwtMTEuMjAzMDg3IGMgMCwtMC4wNzAzMSAwLjAyMzQzNywtMC4xNDQ1MzIgMC4wNzgxMjUsLTAuMjE4NzUgMC4wNjI1LC0wLjA4MjAzIDAuMTMyODEyNSwtMC4xMjUgMC4yMTg3NSwtMC4xMjUgMC4wOTM3NSwwIDEuMDIzNDM3NSwwLjQxNzk2OCAyLjc5Njg3NTEsMS4yNSAxLjc4MTI1MDEsMC44MjQyMTg1IDMuNTM1MTU2NCwxLjY1MjM0MzUgNS4yNjU2MjUyLDIuNDg0Mzc0OCAxLjcyNjU2MjMsMC44MjQyMTg4IDIuNTk3NjU2MywxLjI0NjA5MzggMi42MDkzNzUzLDEuMjY1NjI1MSAwLjA4MjAzLDAuMDU0Njg3IDAuMTI1LDAuMTQwNjI1IDAuMTI1LDAuMjY1NjI1IDAsMC4xMjUgLTAuMDQyOTcsMC4yMTQ4NDM3IC0wLjEyNSwwLjI2NTYyNSAtMC4wMjM0NCwwLjAzMTI1IC0xLjc4OTA2MywwLjg3NSAtNS4yOTY4NzU0LDIuNTMxMjUwMSBsIC01LjIzNDM3NTIsMi40Njg3NTAxIGggLTAuMTA5Mzc1IGMgLTAuMjE4NzUsLTAuMDE5NTMxIC0wLjMyODEyNSwtMC4xNDA2MjUgLTAuMzI4MTI1LC0wLjM1OTM3NSAwLC0wLjA2MjUgMC4wMTk1MzEsLTAuMTI4OTA2MyAwLjA2MjUsLTAuMjAzMTI1IDAuMDUwNzgxLC0wLjA2MjUgMS44MTY0MDYzLC0wLjkxNDA2MjYgNS4yOTY4NzUyLC0yLjU2MjUwMDEgTCAxMS4zNTkzOCwtNi4yODEyMTIxIDEuNjQwNjI5NCwtMTAuOTA2MjEyIGMgLTAuMDkzNzUsLTAuMDgyMDMgLTAuMTQwNjI1LC0wLjE3OTY4OCAtMC4xNDA2MjUsLTAuMjk2ODc1IHogbSAwLjAzMTI1LDEzLjM0Mzc1MDIgYyAwLC0wLjEzNjcxODcgMC4wODU5MzcsLTAuMjU3ODEyNSAwLjI2NTYyNSwtMC4zNTkzNzUgSCAxMi4zMTI1MDUgYyAwLjE4NzUsMC4wODIwMzEgMC4yODEyNSwwLjIwMzEyNSAwLjI4MTI1LDAuMzU5Mzc1IDAsMC4xNDQ1MzEzIC0wLjA4OTg0LDAuMjY1NjI1IC0wLjI2NTYyNSwwLjM1OTM3NSBIIDEuNzgxMjU0NCBjIC0wLjE2Nzk2ODgsLTAuMDg1OTM3IC0wLjI1LC0wLjIwMzEyNSAtMC4yNSwtMC4zNTkzNzUgeiBtIDAsMCIgaWQ9InBhdGgxNTYiLz4mI3hhOyAgPC9nPiYjeGE7PC9zdmc+;connectable=0;allowArrows=0;rotatable=0;html=1;align=left;labelPosition=right;verticalLabelPosition=middle;verticalAlign=middle;fontSize=18;labelBackgroundColor=#E6E6E6;fontColor=#000000;labelBorderColor=none;imageBackground=#FFFFFF;imageBorder=default;shadow=0;spacingLeft=12.5;" parent="1" vertex="1">
          <mxGeometry x="575" y="736" width="50" height="50" as="geometry" />
        </mxCell>
        <mxCell id="a21QgjTOZl95tkyDf_ZO-36" value="&lt;pre style=&quot;line-height: 0%;&quot;&gt;&amp;nbsp; &amp;nbsp;&amp;nbsp;\le&amp;nbsp; &amp;nbsp;&amp;nbsp;&lt;/pre&gt;" style="shape=image;aspect=fixed;image=data:image/svg+xml,PHN2ZyB4bWxucz0iaHR0cDovL3d3dy53My5vcmcvMjAwMC9zdmciIGlkPSJzdmcxIiB2ZXJzaW9uPSIxLjEiIHZpZXdCb3g9IjAgMCA2LjM0OTk5OTkwNDYzMjU2OCA2LjM0OTk5OTkwNDYzMjU2OCIgaGVpZ2h0PSIyNC4wMDAwMDAwMTc1MDg5MiIgd2lkdGg9IjI0LjAwMDAwMDAxNzUwODkyIj4mI3hhOyAgJiN4YTsgIDxkZWZzIGlkPSJkZWZzMSI+JiN4YTsgICAgPGNsaXBQYXRoIGlkPSJjbGlwUGF0aDE2MSIgY2xpcFBhdGhVbml0cz0idXNlclNwYWNlT25Vc2UiPiYjeGE7ICAgICAgPHBhdGggaWQ9InBhdGgxNjEiIGNsaXAtcnVsZT0iZXZlbm9kZCIgdHJhbnNmb3JtPSJtYXRyaXgoMC4zMTk5OTk5OSwwLDAsMC4zMTk5OTk5OSwtMTAzLC05NDQuOTk5OTYpIiBkPSJNIDExNS42MjUsMTE1LjYyNSBIIDI0MzIuMzI0MiBWIDMxODIuMzI0MiBIIDExNS42MjUgWiIvPiYjeGE7ICAgIDwvY2xpcFBhdGg+JiN4YTsgIDwvZGVmcz4mI3hhOyAgPGcgaWQ9ImxheWVyMSI+JiN4YTsgICAgPHJlY3QgeT0iMCIgeD0iMCIgaGVpZ2h0PSI2LjM0OTk5OTkiIHdpZHRoPSI2LjM0OTk5OTkiIGlkPSJyZWN0MSIgc3R5bGU9Im9wYWNpdHk6MDtmaWxsOm5vbmU7c3Ryb2tlLXdpZHRoOjIuNjQ1ODM7c3Ryb2tlLWxpbmVqb2luOnJvdW5kO3N0cm9rZS1taXRlcmxpbWl0OjE2Ii8+JiN4YTsgICAgPHBhdGggY2xpcC1wYXRoPSJ1cmwoI2NsaXBQYXRoMTYxKSIgdHJhbnNmb3JtPSJtYXRyaXgoMC4yNjQ1ODMzMywwLDAsMC4yNjQ1ODMzMywxLjMxMDUxMzEsNC4zNzE4MTU4KSIgYXJpYS1sYWJlbD0i4omkIiBzdHlsZT0iZmlsbDojMDAwMDAwO2ZpbGwtb3BhY2l0eToxO2ZpbGwtcnVsZTpub256ZXJvO3N0cm9rZTpub25lIiBkPSJtIDEyLjA3ODEzLC0xMS41MTU1ODYgYyAwLjA3MDMxLC0wLjAxOTUzIDAuMTI1LC0wLjAzMTI1IDAuMTU2MjUsLTAuMDMxMjUgMC4xMTMyODEsMCAwLjIwMzEyNSwwLjA0Mjk3IDAuMjY1NjI1LDAuMTI1IDAuMDYyNSwwLjA3NDIyIDAuMDkzNzUsMC4xNjQwNjIgMC4wOTM3NSwwLjI2NTYyNSAwLDAuMDkzNzUgLTAuMDQyOTcsMC4xNzk2ODcgLTAuMTI1LDAuMjUgLTAuMDExNzIsMC4wMTE3MiAtMC4yNjU2MjUsMC4xMzY3MTkgLTAuNzY1NjI1LDAuMzc1IC0wLjQ5MjE4OCwwLjIzMDQ2OSAtMS42MDkzNzUsMC43NjE3MTg3IC0zLjM1OTM3NTQsMS41OTM3NSAtMS43NSwwLjgyNDIxODggLTMuNjIxMDkzOSwxLjcxMDkzNzYgLTUuNjA5Mzc1MiwyLjY1NjI1MDEgMS4zNjMyODEzLDAuNjQ4NDM3NSAyLjg2NzE4NzYsMS4zNTkzNzUxIDQuNTE1NjI1MiwyLjE0MDYyNTEgMy40NzY1NjI0LDEuNjQ4NDM3NiA1LjI0MjE4NzQsMi41MDAwMDAxIDUuMjk2ODc1NCwyLjU2MjUwMDEgMC4wMzEyNSwwLjA3NDIxOSAwLjA0Njg3LDAuMTQwNjI1IDAuMDQ2ODcsMC4yMDMxMjUgMCwwLjIxODc1IC0wLjEwNTQ2OSwwLjMzOTg0MzggLTAuMzEyNSwwLjM1OTM3NSBIIDEyLjE3MTg4IEwgNi45Mzc1MDQ2LC0zLjQ4NDMzNTggYyAtMy41MTE3MTg5LC0xLjY1NjI1IC01LjI3NzM0NCwtMi41MDAwMDAxIC01LjI5Njg3NTIsLTIuNTMxMjUwMSAtMC4wOTM3NSwtMC4wNTA3ODEgLTAuMTQwNjI1LC0wLjE0ODQzNzUgLTAuMTQwNjI1LC0wLjI5Njg3NSAwLjAxOTUzMSwtMC4xMzI4MTI1IDAuMTAxNTYyNSwtMC4yMzgyODEyIDAuMjUsLTAuMzEyNSAwLjA5Mzc1LC0wLjA1MDc4MSAxLjgyMDMxMjUsLTAuODY3MTg3NSA1LjE4NzUwMDIsLTIuNDUzMTI1MSAzLjM2MzI4MTQsLTEuNTkzNzUgNS4wNzgxMjU0LC0yLjQwNjI1IDUuMTQwNjI1NCwtMi40Mzc1IHogTSAxLjUzMTI1NDQsMi4xNDA2NjQ1IGMgMCwtMC4xMzY3MTg4IDAuMDg1OTM3LC0wLjI1NzgxMjUgMC4yNjU2MjUsLTAuMzU5Mzc1MSBIIDEyLjMxMjUwNSBjIDAuMTg3NSwwLjA4MjAzMSAwLjI4MTI1LDAuMjAzMTI1MSAwLjI4MTI1LDAuMzU5Mzc1MSAwLDAuMTQ0NTMxMiAtMC4wODk4NCwwLjI2NTYyNSAtMC4yNjU2MjUsMC4zNTkzNzUgSCAxLjc4MTI1NDQgYyAtMC4xNjc5Njg4LC0wLjA4NTkzNyAtMC4yNSwtMC4yMDMxMjUgLTAuMjUsLTAuMzU5Mzc1IHogbSAwLDAiIGlkPSJwYXRoMTYwIi8+JiN4YTsgIDwvZz4mI3hhOzwvc3ZnPg==;connectable=0;allowArrows=0;rotatable=0;html=1;align=left;labelPosition=right;verticalLabelPosition=middle;verticalAlign=middle;fontSize=18;labelBackgroundColor=#E6E6E6;fontColor=#000000;labelBorderColor=none;imageBackground=#FFFFFF;imageBorder=default;shadow=0;spacingLeft=12.5;" parent="1" vertex="1">
          <mxGeometry x="575" y="843" width="50" height="50" as="geometry" />
        </mxCell>
        <mxCell id="a21QgjTOZl95tkyDf_ZO-37" value="&lt;pre style=&quot;line-height: 0%;&quot;&gt;&amp;nbsp; &amp;nbsp;&amp;nbsp;\ne&amp;nbsp; &amp;nbsp;&amp;nbsp;&lt;/pre&gt;" style="shape=image;aspect=fixed;image=data:image/svg+xml,PHN2ZyB4bWxucz0iaHR0cDovL3d3dy53My5vcmcvMjAwMC9zdmciIGlkPSJzdmcxIiB2ZXJzaW9uPSIxLjEiIHZpZXdCb3g9IjAgMCA2LjM0OTk5OTkwNDYzMjU2OCA2LjM0OTk5OTkwNDYzMjU2OCIgaGVpZ2h0PSIyNC4wMDAwMDAwMTc1MDg5MiIgd2lkdGg9IjI0LjAwMDAwMDAxNzUwODkyIj4mI3hhOyAgJiN4YTsgIDxkZWZzIGlkPSJkZWZzMSI+JiN4YTsgICAgPGNsaXBQYXRoIGlkPSJjbGlwUGF0aDE2MiIgY2xpcFBhdGhVbml0cz0idXNlclNwYWNlT25Vc2UiPiYjeGE7ICAgICAgPHBhdGggaWQ9InBhdGgxNjIiIGNsaXAtcnVsZT0iZXZlbm9kZCIgdHJhbnNmb3JtPSJtYXRyaXgoMC4zMTk5OTk5OSwwLDAsMC4zMTk5OTk5OSwtNTIsLTUzLjk5OTk5OCkiIGQ9Ik0gMTE1LjYyNSwxMTUuNjI1IEggMjQzMi4zMjQyIFYgMzE4Mi4zMjQyIEggMTE1LjYyNSBaIi8+JiN4YTsgICAgPC9jbGlwUGF0aD4mI3hhOyAgICA8Y2xpcFBhdGggaWQ9ImNsaXBQYXRoMTY0IiBjbGlwUGF0aFVuaXRzPSJ1c2VyU3BhY2VPblVzZSI+JiN4YTsgICAgICA8cGF0aCBpZD0icGF0aDE2NCIgY2xpcC1ydWxlPSJldmVub2RkIiB0cmFuc2Zvcm09Im1hdHJpeCgwLjMxOTk5OTk5LDAsMCwwLjMxOTk5OTk5LC01MiwtNTYuOTk5OTk4KSIgZD0iTSAxMTUuNjI1LDExNS42MjUgSCAyNDMyLjMyNDIgViAzMTgyLjMyNDIgSCAxMTUuNjI1IFoiLz4mI3hhOyAgICA8L2NsaXBQYXRoPiYjeGE7ICA8L2RlZnM+JiN4YTsgIDxnIGlkPSJsYXllcjEiPiYjeGE7ICAgIDxyZWN0IHk9IjAiIHg9IjAiIGhlaWdodD0iNi4zNDk5OTk5IiB3aWR0aD0iNi4zNDk5OTk5IiBpZD0icmVjdDEiIHN0eWxlPSJvcGFjaXR5OjA7ZmlsbDpub25lO3N0cm9rZS13aWR0aDoyLjY0NTgzO3N0cm9rZS1saW5lam9pbjpyb3VuZDtzdHJva2UtbWl0ZXJsaW1pdDoxNiIvPiYjeGE7ICAgIDxwYXRoIGNsaXAtcGF0aD0idXJsKCNjbGlwUGF0aDE2MikiIHRyYW5zZm9ybT0ibWF0cml4KDAuMjY0NTgzMzMsMCwwLDAuMjY0NTgzMzMsMS4zMDYzNzgyLDQuMzc1OTU5NykiIGFyaWEtbGFiZWw9Ij0iIHN0eWxlPSJmaWxsOiMwMDAwMDA7ZmlsbC1vcGFjaXR5OjE7ZmlsbC1ydWxlOm5vbnplcm87c3Ryb2tlOm5vbmUiIGQ9Im0gMS4wMTU2MjcyLC02LjI5Njg3MyBjIDAsLTAuMTU2MjUgMC4wODIwMzEsLTAuMjczNDM3NSAwLjI1LC0wLjM1OTM3NSBIIDEyLjg0Mzc1MyBjIDAuMTc1NzgxLDAuMDg1OTM3IDAuMjY1NjI1LDAuMjAzMTI1IDAuMjY1NjI1LDAuMzU5Mzc1IDAsMC4xMzY3MTg3IC0wLjA4NTk0LDAuMjUgLTAuMjUsMC4zNDM3NSBMIDcuMDc4MTI3NSwtNS45Mzc0OTggSCAxLjMxMjUwMjIgYyAtMC4xOTkyMTg3LC0wLjA2MjUgLTAuMjk2ODc1LC0wLjE3OTY4NzUgLTAuMjk2ODc1LC0wLjM1OTM3NSB6IG0gMCwzLjUxNTYyNTEgYyAwLC0wLjE3NTc4MTIgMC4wOTc2NTYsLTAuMjk2ODc1IDAuMjk2ODc1LC0wLjM1OTM3NSBIIDEyLjg1OTM3OCBjIDAuMDA3OCwwLjAxMTcxOSAwLjAzNTE2LDAuMDMxMjUgMC4wNzgxMywwLjA2MjUgMC4wMzkwNiwwLjAzMTI1IDAuMDY2NDEsMC4wNTg1OTQgMC4wNzgxMywwLjA3ODEyNSAwLjAxOTUzLDAuMDExNzE5IDAuMDM5MDYsMC4wNDI5NjkgMC4wNjI1LDAuMDkzNzUgMC4wMTk1MywwLjA0Mjk2OSAwLjAzMTI1LDAuMDg1OTM3IDAuMDMxMjUsMC4xMjUgMCwwLjE1NjI1IC0wLjA4OTg0LDAuMjc3MzQzOCAtMC4yNjU2MjUsMC4zNTkzNzUgSCAxLjI2NTYyNzIgYyAtMC4xNjc5Njg3LC0wLjA4MjAzMSAtMC4yNSwtMC4yMDMxMjUgLTAuMjUsLTAuMzU5Mzc1IHogbSAwLDAiIGlkPSJwYXRoMTYxIi8+JiN4YTsgICAgPHBhdGggY2xpcC1wYXRoPSJ1cmwoI2NsaXBQYXRoMTY0KSIgdHJhbnNmb3JtPSJtYXRyaXgoMC4yNjQ1ODMzMywwLDAsMC4yNjQ1ODMzMywxLjMwNjM3OTUsNC4zNzcxODY3KSIgYXJpYS1sYWJlbD0i7oCgIiBzdHlsZT0iZmlsbDojMDAwMDAwO2ZpbGwtb3BhY2l0eToxO2ZpbGwtcnVsZTpub256ZXJvO3N0cm9rZTpub25lIiBkPSJtIDEwLjkzNzUwMywtMTIuODQzNzQ4IGMgMC4wMTk1MywtMC4wNzAzMSAwLjA4MjAzLC0wLjExNzE4OCAwLjE4NzUsLTAuMTQwNjI1IDAuMTEzMjgxLC0wLjAxOTUzIDAuMjEwOTM3LC0wLjAwNzggMC4yOTY4NzUsMC4wMzEyNSAwLjEwMTU2MiwwLjA5Mzc1IDAuMTU2MjUsMC4xOTkyMTkgMC4xNTYyNSwwLjMxMjUgMCwwLjA2MjUgLTEuNDA2MjUsMi44MjQyMTg3IC00LjIxODc1MDUsOC4yODEyNTAyIC0yLjgwNDY4NzYsNS40NDUzMTI3IC00LjIyNjU2MjcsOC4xNzk2ODc4IC00LjI2NTYyNTIsOC4yMDMxMjUzIC0wLjA1NDY4NywwLjAzOTA2MyAtMC4xMjEwOTM4LDAuMDYyNSAtMC4yMDMxMjUsMC4wNjI1IC0wLjIzMDQ2ODgsMCAtMC4zNDM3NSwtMC4xMDU0Njg3IC0wLjM0Mzc1LC0wLjMxMjUgMCwtMC4wOTM3NSAwLjAxOTUzMSwtMC4xODM1OTM3IDAuMDYyNSwtMC4yNjU2MjUgMC4xNTYyNSwtMC4zMjQyMTg3IDEuNTcwMzEyNSwtMy4wODk4NDM4NyA0LjI1MDAwMDIsLTguMjk2ODc1MyAyLjY4NzUwMDEsLTUuMjE4NzUwMiA0LjA0Njg3NTUsLTcuODQzNzUwMiA0LjA3ODEyNTUsLTcuODc1MDAwMiB6IG0gMCwwIiBpZD0icGF0aDE2MyIvPiYjeGE7ICA8L2c+JiN4YTs8L3N2Zz4=;connectable=0;allowArrows=0;rotatable=0;html=1;align=left;labelPosition=right;verticalLabelPosition=middle;verticalAlign=middle;fontSize=18;labelBackgroundColor=#E6E6E6;fontColor=#000000;labelBorderColor=none;imageBackground=#FFFFFF;imageBorder=default;shadow=0;spacingLeft=12.5;" parent="1" vertex="1">
          <mxGeometry x="575" y="950" width="50" height="50" as="geometry" />
        </mxCell>
        <mxCell id="j0N1eyCyadrPM1bxJiGb-6" value="&lt;pre style=&quot;line-height: 0%;&quot;&gt;    \{\}    &lt;/pre&gt;" style="shape=image;aspect=fixed;image=data:image/svg+xml,PHN2ZyB4bWxucz0iaHR0cDovL3d3dy53My5vcmcvMjAwMC9zdmciIGlkPSJzdmcxIiB2ZXJzaW9uPSIxLjEiIHZpZXdCb3g9IjAgMCA2LjM0OTk5OTkwNDYzMjU2OCA2LjM0OTk5OTkwNDYzMjU2OCIgaGVpZ2h0PSIyNC4wMDAwMDAwMTc1MDg5MiIgd2lkdGg9IjI0LjAwMDAwMDAxNzUwODkyIj4mI3hhOyAgJiN4YTsgIDxkZWZzIGlkPSJkZWZzMSI+JiN4YTsgICAgPGNsaXBQYXRoIGlkPSJjbGlwUGF0aDg3IiBjbGlwUGF0aFVuaXRzPSJ1c2VyU3BhY2VPblVzZSI+JiN4YTsgICAgICA8cGF0aCBpZD0icGF0aDg3IiBjbGlwLXJ1bGU9ImV2ZW5vZGQiIHRyYW5zZm9ybT0ibWF0cml4KDAuMzE5OTk5OTksMCwwLDAuMzE5OTk5OTksLTEwMywtNDMwLjk5OTk4KSIgZD0iTSAxMTUuNjI1LDExNS42MjUgSCAyNDMyLjMyNDIgViAzMTgyLjMyNDIgSCAxMTUuNjI1IFoiLz4mI3hhOyAgICA8L2NsaXBQYXRoPiYjeGE7ICAgIDxjbGlwUGF0aCBpZD0iY2xpcFBhdGg4OSIgY2xpcFBhdGhVbml0cz0idXNlclNwYWNlT25Vc2UiPiYjeGE7ICAgICAgPHBhdGggaWQ9InBhdGg4OSIgY2xpcC1ydWxlPSJldmVub2RkIiB0cmFuc2Zvcm09Im1hdHJpeCgwLjMxOTk5OTk5LDAsMCwwLjMxOTk5OTk5LC0xMTIuNjA5MzcsLTQzMy45OTk5OCkiIGQ9Ik0gMTE1LjYyNSwxMTUuNjI1IEggMjQzMi4zMjQyIFYgMzE4Mi4zMjQyIEggMTE1LjYyNSBaIi8+JiN4YTsgICAgPC9jbGlwUGF0aD4mI3hhOyAgICA8Y2xpcFBhdGggaWQ9ImNsaXBQYXRoODQiIGNsaXBQYXRoVW5pdHM9InVzZXJTcGFjZU9uVXNlIj4mI3hhOyAgICAgIDxwYXRoIGlkPSJwYXRoODQiIGNsaXAtcnVsZT0iZXZlbm9kZCIgdHJhbnNmb3JtPSJtYXRyaXgoMC4zMTk5OTk5OSwwLDAsMC4zMTk5OTk5OSwtNTEuOTk5OTk4LC00MDMuOTk5OTgpIiBkPSJNIDExNS42MjUsMTE1LjYyNSBIIDI0MzIuMzI0MiBWIDMxODIuMzI0MiBIIDExNS42MjUgWiIvPiYjeGE7ICAgIDwvY2xpcFBhdGg+JiN4YTsgICAgPGNsaXBQYXRoIGlkPSJjbGlwUGF0aDg2IiBjbGlwUGF0aFVuaXRzPSJ1c2VyU3BhY2VPblVzZSI+JiN4YTsgICAgICA8cGF0aCBpZD0icGF0aDg2IiBjbGlwLXJ1bGU9ImV2ZW5vZGQiIHRyYW5zZm9ybT0ibWF0cml4KDAuMzE5OTk5OTksMCwwLDAuMzE5OTk5OTksLTY1LjYyNDk5NywtNDAzLjk5OTk4KSIgZD0iTSAxMTUuNjI1LDExNS42MjUgSCAyNDMyLjMyNDIgViAzMTgyLjMyNDIgSCAxMTUuNjI1IFoiLz4mI3hhOyAgICA8L2NsaXBQYXRoPiYjeGE7ICAgIDxjbGlwUGF0aCBpZD0iY2xpcFBhdGg4NC03IiBjbGlwUGF0aFVuaXRzPSJ1c2VyU3BhY2VPblVzZSI+JiN4YTsgICAgICA8cGF0aCBpZD0icGF0aDg0LTUiIGNsaXAtcnVsZT0iZXZlbm9kZCIgdHJhbnNmb3JtPSJtYXRyaXgoMC4zMTk5OTk5OSwwLDAsMC4zMTk5OTk5OSwtNTEuOTk5OTk4LC00MDMuOTk5OTgpIiBkPSJNIDExNS42MjUsMTE1LjYyNSBIIDI0MzIuMzI0MiBWIDMxODIuMzI0MiBIIDExNS42MjUgWiIvPiYjeGE7ICAgIDwvY2xpcFBhdGg+JiN4YTsgICAgPGNsaXBQYXRoIGlkPSJjbGlwUGF0aDg2LTgiIGNsaXBQYXRoVW5pdHM9InVzZXJTcGFjZU9uVXNlIj4mI3hhOyAgICAgIDxwYXRoIGlkPSJwYXRoODYtOSIgY2xpcC1ydWxlPSJldmVub2RkIiB0cmFuc2Zvcm09Im1hdHJpeCgwLjMxOTk5OTk5LDAsMCwwLjMxOTk5OTk5LC02NS42MjQ5OTcsLTQwMy45OTk5OCkiIGQ9Ik0gMTE1LjYyNSwxMTUuNjI1IEggMjQzMi4zMjQyIFYgMzE4Mi4zMjQyIEggMTE1LjYyNSBaIi8+JiN4YTsgICAgPC9jbGlwUGF0aD4mI3hhOyAgPC9kZWZzPiYjeGE7ICA8ZyBpZD0ibGF5ZXIxIj4mI3hhOyAgICA8cmVjdCB5PSIwIiB4PSIwIiBoZWlnaHQ9IjYuMzQ5OTk5OSIgd2lkdGg9IjYuMzQ5OTk5OSIgaWQ9InJlY3QxIiBzdHlsZT0ib3BhY2l0eTowO2ZpbGw6bm9uZTtzdHJva2U6bm9uZTtzdHJva2Utd2lkdGg6MS44MzEwNTtzdHJva2UtbGluZWpvaW46cm91bmQ7c3Ryb2tlLW1pdGVybGltaXQ6MTYiLz4mI3hhOyAgICA8cGF0aCBjbGlwLXBhdGg9InVybCgjY2xpcFBhdGg4NC03KSIgdHJhbnNmb3JtPSJtYXRyaXgoMC4yNjQ1ODMzMywwLDAsMC4yNjQ1ODMzMywwLjE3MzYzMjMsNC4zNzU5NTcyKSIgYXJpYS1sYWJlbD0ieyIgc3R5bGU9ImZpbGw6IzAwMDAwMDtmaWxsLW9wYWNpdHk6MTtmaWxsLXJ1bGU6bm9uemVybztzdHJva2U6bm9uZSIgZD0ibSA3Ljg3NTAwMjUsNC4xODc1MTcgYyAwLDAuMTY0MDYyNSAtMC4wMzkwNjMsMC4yODUxNTYzIC0wLjEwOTM3NSwwLjM1OTM3NSBoIC0wLjMyODEyNSBjIC0wLjkxNzk2ODgsMCAtMS43MTA5Mzc2LC0wLjE1NjI1IC0yLjM3NTAwMDEsLTAuNDY4NzUgQyA0LjQwNjI1MjQsMy43NjU2NDIgNC4wMDAwMDIzLDMuMjgxMjY3IDMuODQzNzUyMywyLjYyNTAxNjkgMy44MjAzMTQ4LDIuNTM5MDc5NCAzLjgwNDY4OTgsMS42NjQwNzk0IDMuNzk2ODc3MywxLjY4MzMzMzRlLTUgYyAwLC0wLjI1MDAwMDAxMzMzNCAwLC0wLjU3MDMxMjUyMzMzNCAwLC0wLjk2ODc1MDA0MzMzNCAtMC4wMTE3MTksLTEuMDcwMzEyNTkgLTAuMDQyOTY5LC0xLjY3NTc4MTI5IC0wLjA5Mzc1LC0xLjgxMjUwMDA5IC0wLjAxMTcxOSwtMC4wMDc4MSAtMC4wMTU2MjUsLTAuMDE5NTMxIC0wLjAxNTYyNSwtMC4wMzEyNSAtMC4xNDg0Mzc1LC0wLjM3NSAtMC40Mjk2ODc1LC0wLjY5NTMxMjUgLTAuODQzNzUsLTAuOTY4NzUgLTAuNDA2MjUsLTAuMjY5NTMxMyAtMC44NTkzNzUxLC0wLjQwNjI1IC0xLjM1OTM3NTEsLTAuNDA2MjUgLTAuMTI1LDAgLTAuMjEwOTM3NSwtMC4wMTU2MjUgLTAuMjUsLTAuMDQ2ODc1IC0wLjAzMTI1LC0wLjAzOTA2MyAtMC4wNDY4NzUsLTAuMTQwNjI1IC0wLjA0Njg3NSwtMC4yOTY4NzUxIDAsLTAuMTY0MDYyNSAwLjAxNTYyNSwtMC4yNjU2MjUgMC4wNDY4NzUsLTAuMjk2ODc1IDAuMDM5MDYzLC0wLjAzOTA2MyAwLjEyNSwtMC4wNjI1IDAuMjUsLTAuMDYyNSAwLjUsMCAwLjk1MzEyNTEsLTAuMTMyODEyNSAxLjM1OTM3NTEsLTAuNDA2MjUgMC40MTQwNjI1LC0wLjI2OTUzMTIgMC42OTUzMTI1LC0wLjU5Mzc1IDAuODQzNzUsLTAuOTY4NzUgMC4wNTA3ODEsLTAuMTQ0NTMxMyAwLjA3ODEyNSwtMC4yOTY4NzUgMC4wNzgxMjUsLTAuNDUzMTI1IDAuMDA3ODEsLTAuMTU2MjUwMSAwLjAxOTUzMSwtMC45NDUzMTI2IDAuMDMxMjUsLTIuMzc1MDAwMSAwLjAwNzgxLC0xLjY1NjI1MDUgMC4wMjM0MzcsLTIuNTIzNDM3NSAwLjA0Njg3NSwtMi42MDkzNzU1IDAuMTAxNTYyNSwtMC4zOTQ1MzEgMC4zMDA3ODEzLC0wLjcxODc1IDAuNTkzNzUwMSwtMC45Njg3NSAwLjUzMTI1LC0wLjUzMTI1IDEuMzMyMDMxMywtMC44MzU5MzcgMi40MDYyNTAxLC0wLjkyMTg3NSAwLjAxOTUzMSwwIDAuMDk3NjU2LC0wLjAwMzkgMC4yMzQzNzUsLTAuMDE1NjMgMC4xNDQ1MzEyLC0wLjAwNzggMC4yNTM5MDYyLC0wLjAxNTYzIDAuMzI4MTI1LC0wLjAxNTYzIGggMC4zNTkzNzUgYyAwLjA3MDMxMiwwLjA3NDIyIDAuMTA5Mzc1LDAuMTgzNTk0IDAuMTA5Mzc1LDAuMzI4MTI1IDAsMC4xNjc5NjkgLTAuMDE1NjI1LDAuMjY1NjI1IC0wLjA0Njg3NSwwLjI5Njg3NSAtMC4wMzEyNSwwLjAzMTI1IC0wLjEzMjgxMjUsMC4wNDY4NyAtMC4yOTY4NzUsMC4wNDY4NyAtMC42Nzk2ODc1LDAuMDQyOTcgLTEuMjQyMTg3NiwwLjI0MjE4OCAtMS42ODc1MDAxLDAuNTkzNzUgLTAuMjQyMTg3NSwwLjE3OTY4OCAtMC4zOTg0Mzc1LDAuMzgyODEzIC0wLjQ2ODc1LDAuNjA5Mzc1IC0wLjA2MjUsMC4xNTYyNSAtMC4wOTM3NSwxLjA1NDY4OCAtMC4wOTM3NSwyLjY4NzUwMDUgMCwxLjU3NDIxODggLTAuMDA3ODEsMi4zOTg0Mzc2IC0wLjAxNTYyNSwyLjQ2ODc1MDEgLTAuMTI1LDAuOTQ5MjE4NyAtMC44NTE1NjI1LDEuNjMyODEyNSAtMi4xNzE4NzUxLDIuMDQ2ODc1IDEuMzQzNzUwMSwwLjQ2ODc1MDEgMi4wNjY0MDYzLDEuMTU2MjUwMSAyLjE3MTg3NTEsMi4wNjI1MDAxIDAuMDA3ODEsMC4wNzQyMTkgMC4wMTU2MjUsMC44OTg0Mzc2IDAuMDE1NjI1LDIuNDY4NzUwMTMgMCwxLjYzMjgxMjU3IDAuMDMxMjUsMi41MzEyNTAwNyAwLjA5Mzc1LDIuNjg3NTAwMDcgMC4xMjUsMC4zMzIwMzEzIDAuMzkwNjI1LDAuNjA5Mzc1MSAwLjc5Njg3NSwwLjgyODEyNTEgMC40MTQwNjI1LDAuMjE4NzUgMC44NjcxODc2LDAuMzQzNzUgMS4zNTkzNzUxLDAuMzc1IDAuMTY0MDYyNSwwIDAuMjY1NjI1LDAuMDE1NjI1IDAuMjk2ODc1LDAuMDQ2ODc1IDAuMDMxMjUsMC4wMzEyNSAwLjA0Njg3NSwwLjExNzE4NzUgMC4wNDY4NzUsMC4yNjU2MjUgeiBtIDAsMCIgaWQ9InBhdGg4MyIvPiYjeGE7ICAgIDxwYXRoIGNsaXAtcGF0aD0idXJsKCNjbGlwUGF0aDg2LTgpIiB0cmFuc2Zvcm09Im1hdHJpeCgwLjI2NDU4MzMzLDAsMCwwLjI2NDU4MzMzLDMuNzc4NTc5OSw0LjM3NTk1NzIpIiBhcmlhLWxhYmVsPSJ9IiBzdHlsZT0iZmlsbDojMDAwMDAwO2ZpbGwtb3BhY2l0eToxO2ZpbGwtcnVsZTpub256ZXJvO3N0cm9rZTpub25lIiBkPSJtIDEuMTg3NTAyOCwtMTMuMjY1NjA5IGMgMCwtMC4xNjQwNjIgMC4wMDc4MSwtMC4yNjU2MjUgMC4wMzEyNSwtMC4yOTY4NzUgMC4wMTk1MzEsLTAuMDM5MDYgMC4wOTM3NSwtMC4wNjI1IDAuMjE4NzUsLTAuMDYyNSBoIDAuMTU2MjUgYyAwLjk2ODc1LDAgMS43Njk1MzEzLDAuMTY3OTY5IDIuNDA2MjUwMSwwLjUgMC42NDQ1MzEzLDAuMzI0MjE5IDEuMDU0Njg3NSwwLjc5Njg3NSAxLjIzNDM3NTEsMS40MjE4NzUgMC4wMzEyNSwwLjEwNTQ2OSAwLjA0Njg3NSwwLjk4MDQ2OSAwLjA0Njg3NSwyLjYyNTAwMDUgMC4wMDc4MSwxLjYzNjcxODggMC4wMTk1MzEsMi41MDAwMDAxIDAuMDMxMjUsMi41OTM3NTAxIDAuMTI1LDAuNDM3NSAwLjM5NDUzMTIsMC44MTI1IDAuODEyNSwxLjEyNSAwLjQyNTc4MTMsMC4zMTI1IDAuOTEwMTU2MywwLjQ2ODc1IDEuNDUzMTI1MSwwLjQ2ODc1IDAuMTI1LDAgMC4yMDMxMjUsMC4wMjM0MzcgMC4yMzQzNzUsMC4wNjI1IDAuMDM5MDYzLDAuMDMxMjUgMC4wNjI1LDAuMTMyODEyNSAwLjA2MjUsMC4yOTY4NzUgMCwwLjE1NjI1MDEgLTAuMDIzNDM3LDAuMjU3ODEyNiAtMC4wNjI1LDAuMjk2ODc1MSAtMC4wMzEyNSwwLjAzMTI1IC0wLjEwOTM3NSwwLjA0Njg3NSAtMC4yMzQzNzUsMC4wNDY4NzUgLTAuNDgwNDY4OCwwIC0wLjkyOTY4NzYsMC4xMzY3MTg3IC0xLjM0Mzc1MDEsMC40MDYyNSAtMC40MTc5Njg4LDAuMjYxNzE4NyAtMC42OTUzMTI1LDAuNTc0MjE4NyAtMC44MjgxMjUsMC45Mzc1IC0wLjA2MjUsMC4xNTYyNSAtMC4xMDE1NjI1LDAuMzIwMzEyNSAtMC4xMDkzNzUsMC40ODQzNzUgMCwwLjE1NjI1IC0wLjAwNzgxLDAuOTQ1MzEyNiAtMC4wMTU2MjUsMi4zNTkzNzUxMzMzMzQgQyA1LjI2OTUzNDIsMS42NjQwNzk0IDUuMjUzOTA5MiwyLjUzOTA3OTQgNS4yMzQzNzgsMi42MjUwMTY5IDUuMTI4OTA5MiwzLjAxOTU0ODIgNC45Mjk2OTA0LDMuMzQzNzY3IDQuNjQwNjI3OSwzLjU5Mzc2NyAzLjk5MjE5MDQsNC4yMjY1Nzk1IDIuOTg0Mzc3OSw0LjU0Njg5MiAxLjYwOTM3NzgsNC41NDY4OTIgaCAtMC4xODc1IGMgLTAuMTA1NDY4OCwwIC0wLjE3MTg3NSwtMC4wMjczNDQgLTAuMjAzMTI1LC0wLjA3ODEyNSAtMC4wMjM0MzcsLTAuMDQyOTY5IC0wLjAzMTI1LC0wLjE0MDYyNSAtMC4wMzEyNSwtMC4yOTY4NzUgMCwtMC4xMzY3MTg3IDAuMDA3ODEsLTAuMjE4NzUgMC4wMzEyNSwtMC4yNSAwLjAxOTUzMSwtMC4wMzEyNSAwLjA3ODEyNSwtMC4wNDY4NzUgMC4xNzE4NzUsLTAuMDQ2ODc1IDAuNTkzNzUsMCAxLjEwMTU2MjUsLTAuMTMyODEyNSAxLjUzMTI1MDEsLTAuMzkwNjI1IDAuNDM3NSwtMC4yNSAwLjcxODc1LC0wLjU3MDMxMjUgMC44NDM3NSwtMC45NTMxMjUxIDAuMDA3ODEsLTAuMDYyNSAwLjAxOTUzMSwtMC45MjE4NzUgMC4wMzEyNSwtMi41NzgxMjUwNyBsIDAuMDE1NjI1LC0yLjQ4NDM3NTEzIGMgMC4yMTg3NSwtMSAwLjk0MTQwNjMsLTEuNjcxODc1IDIuMTcxODc1MSwtMi4wMTU2MjUxIC0wLjM5ODQzNzUsLTAuMTI1IC0wLjY5OTIxODgsLTAuMjQyMTg3NSAtMC45MDYyNTAxLC0wLjM1OTM3NSAtMC42Njc5Njg3LC0wLjM5NDUzMTIgLTEuMDc4MTI1LC0wLjg5MDYyNSAtMS4yMzQzNzUsLTEuNDg0Mzc1IGwgLTAuMDMxMjUsLTAuMTg3NSAtMC4wMTU2MjUsLTIuNDY4NzUwMSBjIC0wLjAxMTcxOSwtMS42NDQ1MzE1IC0wLjAyMzQzNywtMi41MDM5MDY1IC0wLjAzMTI1LC0yLjU3ODEyNTUgLTAuMTI1LC0wLjM4MjgxMiAtMC40MDYyNSwtMC43MDMxMjUgLTAuODQzNzUsLTAuOTUzMTI1IC0wLjQyOTY4NzYsLTAuMjUgLTAuOTM3NTAwMSwtMC4zNzUgLTEuNTMxMjUwMSwtMC4zNzUgLTAuMDkzNzUsMCAtMC4xNTIzNDM4LC0wLjAxNTYzIC0wLjE3MTg3NSwtMC4wNDY4NyAtMC4wMjM0MzcsLTAuMDMxMjUgLTAuMDMxMjUsLTAuMTE3MTg3IC0wLjAzMTI1LC0wLjI2NTYyNSB6IG0gMCwwIiBpZD0icGF0aDg1Ii8+JiN4YTsgIDwvZz4mI3hhOzwvc3ZnPg==;shadow=0;strokeColor=default;align=left;verticalAlign=middle;spacingLeft=12.5;fontFamily=Helvetica;fontSize=18;fontColor=#000000;labelBorderColor=none;labelBackgroundColor=#E6E6E6;fillColor=default;imageBackground=#FFFFFF;imageBorder=default;html=1;labelPosition=right;verticalLabelPosition=middle;connectable=0;allowArrows=0;rotatable=0;" parent="1" vertex="1">
          <mxGeometry x="312.5" y="200" width="50" height="50" as="geometry" />
        </mxCell>
        <mxCell id="j0N1eyCyadrPM1bxJiGb-2" value="Header" style="" parent="0" />
        <mxCell id="j0N1eyCyadrPM1bxJiGb-19" value="&lt;font style=&quot;font-size: 72px;&quot;&gt;MathJax Cheat Sheet&lt;/font&gt;" style="rounded=0;whiteSpace=wrap;fillColor=#3399FF;html=1;rotatable=0;connectable=0;allowArrows=0;strokeColor=none;fontFamily=Helvetica;fontColor=light-dark(#FFFFFF,#000000);textShadow=0;shadow=0;" parent="j0N1eyCyadrPM1bxJiGb-2" vertex="1">
          <mxGeometry width="850" height="100" as="geometry" />
        </mxCell>
      </root>
    </mxGraphModel>
  </diagram>
</mxfile>
